<?xml version="1.0" encoding="UTF-8" standalone="no"?>
<!-- Created with Inkscape (http://www.inkscape.org/) -->

<svg
   xmlns:dc="http://purl.org/dc/elements/1.1/"
   xmlns:cc="http://creativecommons.org/ns#"
   xmlns:rdf="http://www.w3.org/1999/02/22-rdf-syntax-ns#"
   xmlns:svg="http://www.w3.org/2000/svg"
   xmlns="http://www.w3.org/2000/svg"
   xmlns:sodipodi="http://sodipodi.sourceforge.net/DTD/sodipodi-0.dtd"
   xmlns:inkscape="http://www.inkscape.org/namespaces/inkscape"
   width="198.4375mm"
   height="66.145836mm"
   viewBox="0 0 198.4375 66.145836"
   version="1.1"
   id="svg834"
   inkscape:version="0.92.4 (5da689c313, 2019-01-14)"
   preserveAspectRatio="none">
  <defs
     id="defs828" />
  <sodipodi:namedview
     id="base"
     pagecolor="#ffffff"
     bordercolor="#666666"
     borderopacity="1.0"
     inkscape:pageopacity="0.0"
     inkscape:pageshadow="2"
     inkscape:zoom="44.8"
     inkscape:cx="423.87838"
     inkscape:cy="72.950686"
     inkscape:document-units="mm"
     inkscape:current-layer="layer1"
     showgrid="false"
     inkscape:window-width="1920"
     inkscape:window-height="1001"
     inkscape:window-x="1591"
     inkscape:window-y="-9"
     inkscape:window-maximized="1" />
  <metadata
     id="metadata831">
    <rdf:RDF>
      <cc:Work
         rdf:about="">
        <dc:format>image/svg+xml</dc:format>
        <dc:type
           rdf:resource="http://purl.org/dc/dcmitype/StillImage" />
        <dc:title></dc:title>
      </cc:Work>
    </rdf:RDF>
  </metadata>
  <g
     inkscape:label="Layer 1"
     inkscape:groupmode="layer"
     id="layer1"
     transform="translate(34.206844,-252.5878)">
    <path
       style="fill:#000e0f;stroke-width:0.0"
       d="m -33.669381,317.82102 c -0.319677,-0.51725 -0.538699,-1.06805 -0.486714,-1.22401 0.05198,-0.15595 0.371505,0.20929 0.710047,0.81164 0.762069,1.35592 0.574201,1.70281 -0.223333,0.41237 z m 0.53305,-1.1379 c -0.592921,-1.12779 -1.04658,-2.19854 -1.00813,-2.37944 0.03845,-0.18091 0.616154,0.74183 1.283787,2.05052 0.667634,1.30869 1.121292,2.37944 1.00813,2.37944 -0.113162,0 -0.690866,-0.92274 -1.283787,-2.05052 z m 1.117716,0 c -1.327411,-2.50015 -2.192404,-4.73628 -2.174886,-5.6224 0.0075,-0.37869 0.385388,0.36346 0.883993,1.73604 0.479004,1.31863 1.306497,3.14071 1.838873,4.04908 1.035548,1.76689 1.08386,1.8878 0.754334,1.8878 -0.117494,0 -0.703535,-0.92274 -1.302314,-2.05052 z m 1.463174,0.39225 c -0.538343,-0.90696 -1.277177,-2.30387 -1.641855,-3.10423 -0.886067,-1.94467 -2.01357,-6.22535 -1.986151,-7.54063 0.01638,-0.78592 0.178797,-0.3397 0.630974,1.73355 0.752447,3.44998 1.890987,6.34072 3.441149,8.73702 0.65201,1.00791 1.039046,1.83048 0.86008,1.82793 -0.178965,-0.003 -0.765854,-0.74668 -1.304197,-1.65364 z m 1.157042,-0.39225 c -1.659966,-2.53318 -2.521286,-4.45812 -3.191006,-7.13147 -0.708094,-2.82653 -1.667442,-9.77616 -1.567259,-11.35341 0.05632,-0.88672 0.307164,0.45785 0.798667,4.28103 0.978007,7.60748 2.109475,11.01284 4.852969,14.60588 0.502022,0.65748 0.912767,1.29735 0.912767,1.42195 0,0.62713 -0.591156,0.0301 -1.806138,-1.82398 z m 2.290008,1.05833 c -0.367654,-0.5457 -1.210775,-1.78808 -1.873603,-2.76084 -2.185541,-3.20746 -3.02646,-6.18594 -4.021149,-14.24264 -0.386001,-3.1265 -0.814079,-6.10126 -0.951285,-6.61058 -0.137206,-0.50933 -0.238357,-1.28323 -0.224781,-1.7198 0.04856,-1.56143 0.716435,1.29962 1.15996,4.96901 1.416371,11.718 2.309474,14.79084 5.421234,18.6525 1.619475,2.00975 2.009256,2.70454 1.51727,2.70454 -0.197552,0 -0.659993,-0.44649 -1.027646,-0.99219 z m 2.068674,0.19321 c -0.259581,-0.43943 -1.046608,-1.45565 -1.74895,-2.25825 -2.99071,-3.41765 -4.182891,-7.02161 -5.334149,-16.12507 -0.525001,-4.15139 -1.024806,-7.01609 -1.443536,-8.2738 -0.685288,-2.05835 -0.797875,-2.70996 -0.39676,-2.2963 0.653377,0.67381 1.407701,4.07875 2.138958,9.65504 1.388614,10.58906 2.086778,12.65001 5.707178,16.84738 2.423174,2.80935 2.698489,3.24998 2.030654,3.24998 -0.264786,0 -0.693814,-0.35954 -0.953395,-0.79898 z m 0.555695,-2.11722 c -2.348883,-2.4169 -3.0123,-3.28893 -3.87479,-5.09323 -1.328509,-2.77919 -1.982921,-5.53702 -2.671749,-11.25932 -0.810558,-6.73354 -1.459046,-9.56342 -2.666591,-11.63648 -0.609785,-1.04686 -0.663976,-1.72456 -0.07813,-0.97707 1.358018,1.73272 2.28001,5.26722 3.140311,12.03855 0.742981,5.84791 1.372982,8.62566 2.505005,11.04487 1.051527,2.24718 1.87309,3.26385 4.506453,5.57663 2.966492,2.60535 3.570628,2.95548 5.101728,2.95667 2.495525,0.002 3.684799,-0.82387 10.2135622,-7.0922 7.1110448,-6.82738 9.6144106,-8.48551 15.7732518,-10.44756 5.094703,-1.62304 6.743459,-1.90548 10.980208,-1.88096 3.390617,0.0196 4.190056,0.11586 6.879167,0.82808 5.173715,1.37027 13.601353,4.59511 28.087738,10.7478 13.017952,5.52901 15.30001,6.34593 20.074136,7.1861 7.175751,1.26282 11.049283,-0.49761 14.967191,-6.80225 5.664962,-9.11596 8.772744,-21.63919 8.555233,-34.47448 -0.04932,-2.91041 -0.08821,-7.67291 -0.08643,-10.58333 0.0031,-5.08511 0.03226,-5.37945 0.746461,-7.54063 0.408771,-1.23692 1.147361,-3.05263 1.641311,-4.03489 0.749096,-1.48964 1.007916,-1.78594 1.560036,-1.78594 h 0.66194 l -0.80504,1.59477 c -2.466284,4.88569 -3.109949,9.02134 -2.629405,16.89437 0.897546,14.70506 -1.046665,26.47981 -6.116023,37.04052 -2.641341,5.50257 -4.225772,7.79365 -6.655618,9.62399 l -1.317165,0.99219 H 78.05679 c -4.711813,0 -6.263679,-0.0898 -7.447912,-0.43105 -2.576354,-0.74236 -6.994681,-2.53868 -16.841764,-6.8472 -16.624519,-7.27393 -25.932357,-10.80211 -30.683065,-11.63057 -4.919448,-0.85787 -9.262713,-0.43 -15.222143,1.49961 -6.6017643,2.13759 -8.4944585,3.40873 -15.875,10.66174 -3.128698,3.07464 -6.064109,5.85063 -6.523135,6.16886 -0.74384,0.51569 -1.175989,0.57861 -3.974132,0.57861 h -3.139538 z m 15.44015,-1.61058 c 7.6931583,-8.05675 10.2908507,-9.93174 16.7734863,-12.10693 7.8226867,-2.62483 13.1370787,-2.70809 20.4411287,-0.32026 5.788666,1.89243 14.068433,5.32378 26.362623,10.92538 4.817311,2.1949 9.830311,4.44576 11.139998,5.00191 2.031688,0.86274 2.250197,1.01231 1.488509,1.01893 -0.984282,0.009 -2.025541,-0.43621 -12.071842,-5.15624 -13.980091,-6.56823 -23.926774,-10.63722 -29.897917,-12.23062 -2.308513,-0.61603 -3.151812,-0.70604 -6.614583,-0.70604 -3.476551,0 -4.303842,0.089 -6.670704,0.71802 -8.9364424,2.37478 -12.9797943,5.01592 -20.7003974,13.52161 -2.3046316,2.53899 -3.6875026,3.86102 -4.0387096,3.86102 -0.388096,0 0.647404,-1.23732 3.788408,-4.52678 z m -0.779797,3.14458 c 3.8354762,-4.61341 9.21087823,-9.52104 12.6584917,-11.55692 3.4934154,-2.06293 9.4739273,-4.06059 13.6204563,-4.54962 5.1582,-0.60834 9.819367,0.55033 21.436835,5.32876 7.710043,3.17124 26.173073,11.98155 25.365647,12.10414 -0.27695,0.0421 -4.132988,-1.70116 -8.568971,-3.87378 -13.163539,-6.44715 -23.692617,-10.89122 -29.244676,-12.34346 -6.464615,-1.69094 -11.968821,-0.95028 -19.5990236,2.63729 -4.3995498,2.06859 -9.1611952,5.84792 -13.4024105,10.63755 -1.4602174,1.64903 -2.8260579,2.99824 -3.0352029,2.99824 -0.232511,0 0.06623,-0.53706 0.768854,-1.3822 z m 1.589101,0.5223 c 1.1192449,-1.58214 5.8857454,-6.18281 8.09973379,-7.81793 3.99568191,-2.95096 9.46289171,-5.66262 14.32582221,-7.1054 3.205009,-0.9509 7.04955,-0.95521 10.736543,-0.012 3.532637,0.90368 8.693097,2.83187 15.478125,5.78337 4.668099,2.03064 20.234071,9.86925 19.777583,9.95948 -0.222276,0.0439 -3.304648,-1.40787 -6.849716,-3.22622 -13.639612,-6.9961 -25.32915,-11.76793 -30.919534,-12.62176 -3.992351,-0.60977 -6.936171,0.0267 -13.0762292,2.82692 -6.5166769,2.97203 -9.83898372,5.24781 -14.5155391,9.94315 -3.0686661,3.08098 -4.2519182,3.95985 -3.0567887,2.27043 z m 1.7819839,0.38116 c 0.7685854,-1.43611 6.25252216,-5.98563 9.7540365,-8.09202 2.4111665,-1.45047 11.6525756,-5.86692 13.3006196,-6.35634 2.146951,-0.63757 5.51002,-0.54185 8.633209,0.24573 5.245516,1.32278 14.432092,5.19198 24.637161,10.37669 6.783647,3.44645 8.334325,4.30208 7.799682,4.30369 -0.180579,5.3e-4 -3.57386,-1.65835 -7.540625,-3.68642 -15.043256,-7.69112 -24.136882,-11.15004 -29.344935,-11.16186 -2.773283,-0.006 -3.697529,0.32635 -10.9092553,3.9264 -7.2979307,3.64309 -10.09445214,5.46257 -14.0933329,9.16949 -1.878666,1.74151 -2.7531377,2.23988 -2.2365599,1.27464 z m 2.4196939,0.0681 c 0.5984002,-0.72103 4.2906421,-3.60613 6.2018016,-4.84606 1.0161984,-0.6593 4.6476047,-2.61997 8.0697916,-4.35706 3.42219,-1.73709 6.648267,-3.38259 7.169063,-3.65668 3.377221,-1.77739 7.74792,-1.04651 17.155744,2.86886 6.834016,2.84419 21.418323,10.10435 20.747168,10.32807 -0.162349,0.0541 -2.242939,-0.94174 -4.623539,-2.21302 -6.175634,-3.29787 -12.081584,-6.09028 -17.460256,-8.25543 -6.042678,-2.43245 -8.260979,-3.05212 -10.945185,-3.05749 -2.355681,-0.005 -3.244009,0.30322 -6.377977,2.2109 -1.003258,0.61069 -3.967232,2.15666 -6.5866067,3.43549 -4.5997971,2.24572 -9.08028565,4.97477 -11.4682614,6.98528 -1.1713633,0.98621 -2.5852649,1.40483 -1.8817431,0.55714 z m 2.8989629,0.27394 c 0,-0.42505 6.3384721,-4.1988 10.9354355,-6.51065 2.9350418,-1.47606 6.1399788,-3.20113 7.1220828,-3.83349 3.448347,-2.22032 3.807646,-2.3534 6.284148,-2.32755 2.651893,0.0277 5.499002,0.90088 12.1563,3.72827 6.1751,2.62261 18.411172,8.81287 17.813724,9.01202 -0.163079,0.0544 -1.883124,-0.7642 -3.822327,-1.81902 -8.58987,-4.67243 -19.224903,-9.29219 -23.428979,-10.17733 -3.022589,-0.63638 -4.222564,-0.3373 -7.629969,1.90171 -1.446154,0.95026 -4.968394,2.90155 -7.827198,4.33618 -4.7947844,2.40616 -7.8757224,4.14855 -9.4560865,5.34778 -0.567399,0.43056 -2.1471308,0.68224 -2.1471308,0.34208 z m 4.2333333,0.0346 c 0,-0.22491 3.8200489,-2.34314 8.162266,-4.526 2.524715,-1.26919 6.066425,-3.29957 7.870465,-4.51194 2.343566,-1.57495 3.601379,-2.2521 4.40544,-2.37169 2.280258,-0.33914 6.280253,0.91847 14.486829,4.5547 4.181136,1.8526 13.634574,6.77645 13.254924,6.90385 -0.129601,0.0435 -2.00732,-0.86816 -4.172712,-2.02591 -6.649374,-3.55513 -14.274115,-6.94164 -18.560484,-8.24359 -1.418952,-0.43099 -2.392524,-0.55702 -3.722473,-0.48187 -1.72049,0.0972 -1.900298,0.17381 -4.023551,1.71384 -3.129803,2.2701 -5.228156,3.51215 -9.812102,5.80794 -2.1978722,1.10077 -4.4528525,2.28972 -5.0110677,2.6421 -0.8435975,0.53255 -2.8775343,0.91322 -2.8775343,0.53857 z m 5.0270833,-0.0284 c 0,-0.0718 1.6624777,-0.96335 3.6943957,-1.98125 4.41416,-2.21129 6.60727,-3.52485 9.286555,-5.56219 2.666857,-2.0279 3.411405,-2.3802 5.030213,-2.3802 1.563566,0 5.184868,1.14198 9.637795,3.03928 3.321449,1.41521 13.951317,6.7778 13.778227,6.95089 -0.06302,0.063 -3.069833,-1.35803 -6.681817,-3.15788 -7.446639,-3.71065 -11.475159,-5.38698 -14.39868,-5.9915 -2.616258,-0.54098 -3.447608,-0.29121 -6.059189,1.82039 -3.885366,3.14154 -11.566543,7.39299 -13.35705,7.39299 -0.5117465,0 -0.9304497,-0.0587 -0.9304497,-0.13053 z m 7.6729167,-1.22932 c 3.093082,-1.66433 4.239144,-2.43016 7.276042,-4.86206 1.309687,-1.04878 2.804035,-2.04384 3.320775,-2.21124 1.501491,-0.48644 4.386418,0.24087 9.511516,2.39793 2.778834,1.16957 11.958484,5.80659 11.802923,5.96216 -0.05408,0.0541 -2.761629,-1.20972 -6.016771,-2.80844 -6.173007,-3.03179 -10.268357,-4.6906 -12.25146,-4.96241 -1.920375,-0.26322 -2.946074,0.0811 -4.726908,1.58659 -2.511377,2.12314 -4.388665,3.48547 -6.800075,4.93477 -1.795825,1.07933 -2.423861,1.32187 -3.415043,1.31887 l -1.214541,-0.004 2.513542,-1.35249 z m 4.647113,0.13296 c 1.009348,-0.67479 3.007211,-2.21402 4.439695,-3.42052 1.927749,-1.62363 2.868205,-2.23819 3.619304,-2.36508 1.205703,-0.20371 3.323627,0.29583 6.408708,1.51155 2.729707,1.07569 11.166761,5.20547 10.991898,5.38033 -0.07119,0.0712 -2.439252,-0.99393 -5.262351,-2.36695 -5.831398,-2.8361 -8.680783,-3.86667 -10.653114,-3.85307 -1.629379,0.0113 -1.936325,0.17597 -4.302475,2.30894 -3.310255,2.98404 -4.870831,4.02579 -6.035415,4.02891 l -1.04143,0.003 1.83518,-1.22688 z m 3.693125,0.36949 c 0.578858,-0.47157 1.853496,-1.6046 2.832526,-2.51786 0.979033,-0.91325 2.110126,-1.78754 2.513542,-1.94288 0.96162,-0.37026 2.821405,-0.11194 5.180274,0.71955 2.049219,0.72233 9.770737,4.35988 9.605529,4.52509 -0.05504,0.055 -1.717135,-0.67927 -3.693554,-1.63179 -4.472827,-2.15565 -7.11436,-3.05721 -8.95748,-3.05721 -1.678122,0 -2.022303,0.20464 -4.744336,2.82087 -1.687907,1.62231 -2.165588,1.94163 -2.904556,1.94163 h -0.884418 z m 3.841652,-0.36451 c 2.906483,-3.01081 3.910563,-3.27045 7.678373,-1.98551 2.602264,0.88745 7.313879,3.01291 6.948712,3.13463 -0.137747,0.0459 -1.401262,-0.45429 -2.807816,-1.11158 -1.406552,-0.65728 -3.473411,-1.44638 -4.593019,-1.75354 -2.658443,-0.72933 -3.526991,-0.49137 -5.439902,1.49037 -1.075198,1.11389 -1.578039,1.44754 -2.181585,1.44754 h -0.784331 z m 2.435064,0.89118 c 0.05993,-0.1819 0.614889,-0.71769 1.233241,-1.19063 1.725152,-1.31947 3.835977,-1.11746 7.725215,0.73933 1.947219,0.92964 1.45529,0.86642 -1.218118,-0.15654 -1.128837,-0.43194 -2.439975,-0.72285 -3.357552,-0.74495 -1.363327,-0.0328 -1.589344,0.0449 -2.393844,0.82362 -0.870636,0.84272 -2.209623,1.19896 -1.988942,0.52917 z m 3.415358,-0.1 c 0.77162,-0.42795 2.973186,-0.42904 4.15276,-0.002 0.794192,0.28749 0.592553,0.32209 -1.94373,0.33356 -2.460919,0.0111 -2.74891,-0.0321 -2.20903,-0.33152 z m 55.515346,-0.94828 c 3.381602,-4.46787 7.13998,-13.45037 8.832919,-21.11062 1.615995,-7.3121 1.873157,-12.2125 1.506479,-28.70729 -0.123595,-5.5599 0.07402,-6.67281 2.067148,-11.64167 1.16876,-2.91371 1.33449,-3.18218 2.01379,-3.26223 0.53476,-0.063 0.69931,0.0104 0.59283,0.26458 -0.0811,0.1935 -0.56575,1.30432 -1.07709,2.46849 -0.51133,1.16416 -1.25303,3.18822 -1.64822,4.49791 -0.65679,2.17663 -0.72083,2.77913 -0.74525,7.01146 -0.0147,2.54662 0.0773,6.8924 0.20453,9.65729 0.48156,10.46871 -1.0369,20.7789 -4.383814,29.76563 -1.405189,3.77304 -3.88181,9.07496 -5.221748,11.17865 -0.761134,1.19497 -0.859123,1.25677 -1.992884,1.25677 h -1.192389 z m 5.258485,-1.20072 c 6.171621,-12.36041 8.819461,-25.72688 7.988811,-40.32798 -0.57876,-10.17332 -0.33692,-13.20938 1.4379,-18.05095 1.74052,-4.74799 1.9778,-5.18722 2.80231,-5.18722 h 0.74169 l -1.15748,2.4474 c -0.63662,1.34606 -1.45758,3.48552 -1.82437,4.75435 -1.20199,4.15809 -1.32918,6.12584 -0.94803,14.66718 0.77956,17.46945 -1.12273,28.04416 -7.643709,42.49097 -0.775565,1.71822 -0.841759,1.78594 -1.745652,1.78594 h -0.93952 z m 3.100023,1.5875 c 4.220588,-9.93271 6.213428,-17.13559 7.155588,-25.86302 0.35694,-3.30636 0.39568,-5.51435 0.23215,-13.22917 -0.22767,-10.74015 -0.20387,-12.92549 0.16379,-15.04155 0.37772,-2.17394 1.62255,-5.86642 2.9169,-8.65224 0.9287,-1.99882 1.19714,-2.36767 1.72315,-2.36767 0.3427,0 0.62309,0.0629 0.62309,0.13984 0,0.0769 -0.35664,0.84632 -0.79253,1.70981 -1.19735,2.37195 -2.24941,5.15985 -2.94633,7.80764 -0.62074,2.35834 -0.62677,2.51364 -0.62677,16.13959 0,13.08617 -0.0298,13.94576 -0.6107,17.59479 -1.07375,6.74531 -2.56131,12.09171 -5.39242,19.38073 -1.266398,3.26048 -1.336341,3.37344 -2.088895,3.37344 h -0.778624 z m 3.536828,-0.38012 c 0.27212,-0.7732 1.09306,-3.08876 1.8243,-5.14568 3.84355,-10.81163 5.02306,-20.09323 4.5178,-35.55077 -0.18039,-5.51851 -0.16974,-8.5416 0.0363,-10.31875 0.36323,-3.13223 1.94833,-8.02094 3.64597,-11.24479 1.14748,-2.17908 1.3264,-2.3883 2.10735,-2.46428 l 0.85341,-0.083 -0.96118,1.64 c -2.30039,3.92502 -4.05203,8.62675 -4.47899,12.02249 -0.1096,0.87165 -0.21758,7.47841 -0.23996,14.68169 -0.0378,12.16558 -0.0828,13.36027 -0.63274,16.80104 -0.82024,5.13175 -1.84452,9.14659 -3.94883,15.47813 -1.71262,5.15301 -1.83803,5.4281 -2.51046,5.50686 l -0.70779,0.0829 z m 2.66326,1.21085 c 0,-0.10904 0.65138,-2.17944 1.44751,-4.6009 3.97404,-12.08711 4.71261,-17.49341 4.66524,-34.14941 -0.0349,-12.26939 0.10633,-13.98831 1.45856,-17.75196 0.83746,-2.33088 2.42281,-5.54149 3.85996,-7.81706 0.96689,-1.53096 1.12684,-1.66505 1.98617,-1.66505 0.91883,0 0.92742,0.0101 0.50934,0.59531 -2.84665,3.98495 -5.08854,8.51654 -6.03624,12.2012 -0.50998,1.98283 -0.56899,3.19492 -0.74881,15.38162 -0.20725,14.04571 -0.36028,16.04193 -1.75445,22.88646 -0.66243,3.25213 -2.37386,9.45649 -3.61268,13.09687 -0.49361,1.45049 -0.75433,1.87042 -1.20243,1.93663 -0.3147,0.0465 -0.57217,-0.005 -0.57217,-0.11371 z m 3.32994,-1.88906 c 1.22786,-3.91472 2.73138,-9.59583 3.39441,-12.82583 1.24795,-6.07957 1.48515,-9.00046 1.74625,-21.50386 0.25303,-12.11616 0.44233,-14.54191 1.37313,-17.5948 0.77575,-2.54437 2.91522,-6.47118 5.17467,-9.49766 l 1.99569,-2.67317 h 1.15453 1.15454 l -2.27579,2.80823 c -3.78514,4.6707 -5.40124,7.60375 -6.47089,11.74399 -0.65321,2.52834 -1.00934,8.15051 -1.03908,16.40403 -0.0413,11.47183 -1.07277,18.8536 -4.1683,29.83177 -1.38141,4.89909 -1.56091,5.35782 -2.09653,5.35782 h -0.58577 z m 1.96172,1.94337 c 0,-0.0589 0.64641,-2.42659 1.43647,-5.26145 3.19935,-11.47988 3.70201,-15.4192 4.37911,-34.31891 0.28339,-7.91016 0.67583,-10.63497 1.98155,-13.75833 1.17179,-2.80301 3.94983,-6.70799 6.99033,-9.82602 l 2.80733,-2.87892 1.98438,0.008 1.98437,0.008 -1.4552,0.84488 c -1.88219,1.09277 -5.96921,5.04428 -8.00792,7.74241 -0.87964,1.16417 -2.05588,3.06917 -2.61387,4.23333 -1.93479,4.03673 -2.36939,6.94091 -2.8706,19.18229 -0.545,13.31102 -1.35938,18.58916 -4.80694,31.15469 -0.67052,2.44386 -0.90547,2.97657 -1.31284,2.97657 -0.27289,0 -0.49617,-0.0482 -0.49617,-0.10715 z m 2.48871,-0.48817 c 0.093,-0.32742 0.81525,-3.09562 1.60489,-6.15156 2.50161,-9.68125 3.01804,-13.20556 3.83832,-26.19375 0.7787,-12.32986 1.25774,-15.10135 3.31706,-19.19061 1.41841,-2.81659 3.5032,-5.37004 6.83774,-8.37489 3.37806,-3.04406 7.19911,-4.50913 11.01745,-4.22431 4.95167,0.36936 11.64531,3.25724 19.4952,8.41094 4.91388,3.22612 6.43397,4.43836 6.43397,5.13097 0,0.56458 -0.25304,0.44219 -2.84427,-1.37571 -8.46421,-5.93815 -16.83621,-9.74072 -22.15886,-10.06459 -4.76313,-0.28982 -8.12983,1.11521 -12.3283,5.145 -4.92266,4.72489 -6.95171,8.85552 -7.89712,16.07653 -0.15242,1.16417 -0.5779,5.86714 -0.94552,10.45104 -0.95523,11.9109 -1.63489,16.10331 -4.17138,25.73073 -1.17035,4.44213 -1.45108,5.22553 -1.87255,5.22553 -0.3879,0 -0.45899,-0.12956 -0.32663,-0.59532 z m 2.97341,-2.77812 c 2.66922,-9.84597 3.63274,-15.258 4.86356,-27.31823 1.1843,-11.60444 1.97285,-15.14046 4.30726,-19.31459 1.32743,-2.37357 5.38531,-6.57278 7.61001,-7.87507 5.84461,-3.42129 11.77708,-2.81608 21.71562,2.21534 2.13081,1.07873 5.49432,3.03474 7.47448,4.34668 3.0097,1.99407 3.60029,2.49264 3.60029,3.03939 v 0.65403 l -1.3213,-0.94926 c -4.20852,-3.02352 -12.45174,-7.16312 -16.84874,-8.46115 -2.8257,-0.83417 -7.12433,-1.13404 -9.4161,-0.65685 -4.55841,0.94913 -9.25066,4.83908 -11.80169,9.78378 -2.24238,4.34642 -3.0451,7.84753 -4.54664,19.8303 -1.42882,11.40251 -2.08135,14.89698 -4.391,23.515 -0.99975,3.7304 -1.30876,4.56407 -1.69173,4.56407 -0.42503,0 -0.38361,-0.31336 0.44598,-3.37344 z m 1.41705,3.06862 c 0,-0.16765 0.41283,-1.80475 0.91741,-3.63802 1.98778,-7.22215 3.0904,-12.62216 4.65143,-22.78008 1.30508,-8.49242 1.86864,-11.17653 3.07803,-14.66008 1.53897,-4.43287 3.08444,-7.14529 5.36665,-9.41889 3.14718,-3.13532 6.44471,-4.49603 10.8956,-4.49603 4.33309,0 7.98339,1.08879 14.64609,4.36855 5.33651,2.62693 8.59896,4.68944 8.59896,5.43622 0,0.28269 -0.0764,0.51398 -0.16985,0.51398 -0.0934,0 -0.93978,-0.48626 -1.88082,-1.08058 -5.50977,-3.47974 -13.28507,-6.55535 -18.0311,-7.13241 -7.30683,-0.88842 -13.00501,2.30744 -16.29474,9.13903 -2.48927,5.16931 -3.47524,8.75739 -5.56189,20.24063 -2.21471,12.18798 -5.07045,23.8125 -5.8499,23.8125 -0.20123,0 -0.36587,-0.13717 -0.36587,-0.30482 z m 2.819,-2.80404 c 1.38264,-4.76936 2.5447,-9.54392 4.33064,-17.79323 1.91464,-8.84378 2.96384,-12.62632 4.76452,-17.17688 2.57066,-6.49636 4.71777,-9.36542 8.37415,-11.18988 5.1619,-2.57569 12.22297,-1.73284 21.25127,2.53668 4.20701,1.98951 6.47038,3.40336 6.5707,4.10449 0.0486,0.33982 -0.0109,0.57484 -0.13229,0.52225 -0.12138,-0.0526 -1.23273,-0.64926 -2.46966,-1.32594 -2.62497,-1.43602 -7.38184,-3.36145 -10.5843,-4.28418 -8.93088,-2.57327 -15.33099,-0.55029 -19.21235,6.07275 -2.43027,4.14694 -5.166,11.85551 -7.26181,20.46187 -3.75794,15.43184 -5.40603,21.18093 -6.07193,21.18093 -0.41218,0 -0.36617,-0.32435 0.44106,-3.10886 z m 1.41433,2.83113 c 0,-0.15275 0.65021,-2.4447 1.4449,-5.09323 0.7947,-2.64853 2.11002,-7.25628 2.92293,-10.23946 2.68924,-9.8688 5.79621,-18.2163 8.62935,-23.18445 2.28216,-4.00196 5.58874,-6.5714 9.36011,-7.27344 4.49375,-0.8365 11.83897,0.83699 18.85157,4.29505 2.29228,1.13037 2.71198,1.43367 2.71198,1.95988 0,0.61023 -0.0537,0.59699 -2.71198,-0.66813 -6.49115,-3.08927 -13.37647,-4.50764 -17.56201,-3.61775 -5.75542,1.22366 -8.98499,5.02439 -13.55001,15.94633 -2.04689,4.89727 -3.8787,10.38352 -8.49447,25.44095 -0.55741,1.81836 -0.95837,2.71198 -1.21685,2.71198 -0.21204,0 -0.38552,-0.12498 -0.38552,-0.27773 z m 2.11667,0.0769 c 0,-0.90576 6.27786,-18.18708 8.51349,-23.43544 6.02624,-14.14718 10.02063,-18.23338 17.81255,-18.22199 3.03956,0.004 5.74354,0.50667 9.57037,1.77756 3.67952,1.22196 5.90776,2.36962 5.90776,3.04281 0,0.6582 -0.0192,0.65696 -1.53015,-0.0992 -1.61498,-0.80828 -4.98625,-1.90819 -7.3334,-2.39258 -8.39892,-1.73336 -13.26188,0.2843 -18.08985,7.50554 -2.99126,4.47404 -8.07508,15.79528 -12.4201,27.65851 -1.07011,2.92172 -1.68685,4.25984 -1.99059,4.31888 -0.24204,0.0471 -0.44008,-0.0223 -0.44008,-0.15405 z m 3.42531,-2.90806 c 3.49094,-8.47767 10.19747,-22.30391 12.48089,-25.73073 2.16486,-3.2489 5.44934,-6.5356 7.61025,-7.61542 2.30204,-1.15035 4.15222,-1.47401 7.4398,-1.30148 4.52945,0.2377 10.62906,2.10032 10.80017,3.29803 0.10271,0.71887 0.12155,0.71803 -1.40727,0.0627 -3.65129,-1.56512 -9.28179,-2.25386 -12.23047,-1.49605 -4.72477,1.21425 -8.64532,4.79917 -12.91744,11.81163 -1.62256,2.66333 -9.54268,18.45265 -10.98226,21.89391 -0.74767,1.78729 -1.01623,2.17998 -1.49276,2.18281 -0.55838,0.003 -0.53108,-0.11797 0.69909,-3.1054 z m 1.75746,2.26815 c 3.54696,-6.87244 10.60546,-19.72593 11.93437,-21.7324 4.17678,-6.30639 7.96254,-9.80756 11.92967,-11.03288 2.24647,-0.69387 5.80539,-0.69854 8.65631,-0.0113 3.02582,0.72933 4.10105,1.22727 4.10105,1.8992 0,0.41921 -0.11261,0.51048 -0.46302,0.37528 -3.78026,-1.45854 -8.22624,-1.74253 -11.22431,-0.71696 -3.4661,1.18566 -6.51494,3.8837 -10.69914,9.46806 -2.24459,2.9957 -4.1532,6.15735 -9.38188,15.54126 -3.46153,6.21239 -3.92887,6.92692 -4.58078,7.00355 l -0.72597,0.0853 0.4537,-0.87908 z m 3.0835,0.24539 c 0.2143,-0.32742 2.20957,-3.6314 4.43393,-7.34218 4.80613,-8.0178 6.54708,-10.66427 9.22484,-14.02292 5.93376,-7.44257 10.25524,-9.73145 16.30725,-8.63716 2.85212,0.51571 3.57188,0.82102 3.57188,1.51517 0,0.41246 -0.1158,0.51958 -0.43094,0.39865 -1.4,-0.53723 -3.0407,-0.73411 -5.32157,-0.63859 -2.08569,0.0874 -2.87475,0.24324 -4.10587,0.81119 -5.06055,2.33455 -9.8763,8.15426 -19.37809,23.41793 -2.92407,4.69723 -3.22969,5.09323 -3.93082,5.09323 -0.72746,0 -0.74344,-0.0257 -0.37061,-0.59532 z m 5.14263,-2.51354 c 6.69291,-10.31417 10.80909,-15.85398 14.61727,-19.67281 2.30127,-2.30771 3.17108,-2.98857 4.90117,-3.83646 2.03751,-0.99855 2.18667,-1.03009 4.7625,-1.00717 2.98371,0.0266 4.11433,0.34682 4.11433,1.16545 0,0.46286 -0.10482,0.51145 -0.72761,0.33728 -0.40018,-0.11191 -1.74604,-0.20348 -2.99079,-0.20348 -2.09519,0 -2.41721,0.0761 -4.33805,1.02571 -1.61516,0.79844 -2.61171,1.56052 -4.4979,3.43958 -3.4006,3.38776 -8.93751,10.66656 -14.56628,19.14878 -1.57475,2.37306 -1.89291,2.71198 -2.54583,2.71198 h -0.74616 z m 2.62813,1.34168 c 4.63011,-6.55949 10.31132,-14.08634 12.90155,-17.09286 3.72352,-4.32192 7.73003,-6.3593 11.51755,-5.85687 1.14165,0.15145 1.34786,0.26475 1.3469,0.74005 -0.001,0.52657 -0.13623,0.56123 -2.18866,0.56123 -1.94827,0 -2.38511,0.0973 -3.994,0.88947 -3.31596,1.63269 -6.03134,4.63937 -14.84789,16.44074 -3.86075,5.16779 -4.55048,5.96432 -5.22839,6.03803 l -0.78093,0.0849 z m 2.89736,0.77499 c 2.87221,-3.84614 8.78231,-11.49663 10.60568,-13.72882 4.06267,-4.97355 6.89469,-6.92634 10.40965,-7.17783 1.83707,-0.13144 1.85445,-0.12649 1.85445,0.52878 0,0.62855 -0.0901,0.6679 -1.81229,0.79112 -4.21843,0.30183 -6.53189,2.48985 -16.93291,16.01487 -2.92843,3.808 -3.62214,4.56407 -4.18769,4.56407 h -0.67784 z m 6.12177,-3.70417 c 7.18438,-9.32283 8.53905,-10.8538 11.255,-12.71983 1.54006,-1.05813 3.11438,-1.63381 4.46794,-1.63381 0.82376,0 1.02507,0.0968 1.02507,0.4932 0,0.38556 -0.26563,0.52961 -1.21703,0.66001 -3.27008,0.44822 -6.86035,3.60182 -12.39259,10.88533 -4.91969,6.47705 -5.38642,7.01146 -6.12358,7.01146 -0.55672,0 -0.19318,-0.57194 2.98519,-4.69636 z m 3.63811,-0.81968 c 5.97553,-7.57992 9.02745,-10.29488 12.14047,-10.80005 0.85742,-0.13914 0.96943,-0.0934 0.96943,0.39627 0,0.4284 -0.2543,0.62062 -1.12448,0.84999 -3.29184,0.8677 -6.05048,3.4307 -12.16207,11.29951 -2.29147,2.95032 -3.06357,3.77032 -3.5501,3.77032 -0.53345,0 -0.004,-0.78345 3.72675,-5.51604 z m -1.25341,5.18531 c 6.28438,-8.19668 9.08824,-11.14603 11.96077,-12.58145 1.94647,-0.97266 2.40254,-1.04048 2.40254,-0.35723 0,0.34698 -0.59535,0.78083 -2.05052,1.4943 -1.65064,0.80931 -2.57013,1.52663 -4.71496,3.67826 -1.46544,1.47009 -3.59665,3.89328 -4.73602,5.38487 -1.39241,1.82285 -2.24269,2.71198 -2.59348,2.71198 -0.37637,0 -0.45119,-0.0922 -0.26833,-0.33073 z m 3.5405,-1.45521 c 3.54029,-4.52813 6.45227,-7.27249 9.16037,-8.63309 1.63594,-0.82193 1.66244,-0.8256 1.66244,-0.23 0,0.28325 -0.48714,0.72052 -1.25272,1.12448 -2.67823,1.41318 -6.78855,5.23588 -9.33888,8.68539 -0.34123,0.46153 -0.84702,0.83916 -1.12398,0.83916 -0.40685,0 -0.23539,-0.343 0.89277,-1.78594 z m 1.86982,0.66146 c 2.16302,-2.76064 4.96679,-5.24401 7.9608,-7.05108 0.9414,-0.5682 0.99219,-0.57311 0.99219,-0.0958 0,0.33433 -0.74075,1.0062 -2.20876,2.00338 -1.21481,0.82519 -3.24286,2.57307 -4.50677,3.88417 -2.42377,2.51428 -3.84948,3.31674 -2.23746,1.25935 z m 1.79385,0.62406 c 0.35333,-0.66021 3.61112,-3.45989 5.58876,-4.80288 1.33071,-0.90367 1.57038,-0.99087 1.57038,-0.57137 0,0.30271 -0.5704,0.88789 -1.46814,1.50619 -0.80747,0.55613 -2.31058,1.76654 -3.34023,2.68981 -1.87521,1.68146 -2.89314,2.19167 -2.35077,1.17825 z m 2.9258,-0.32641 c 1.35955,-1.1823 3.90483,-3.14192 4.08095,-3.14192 0.0838,0 0.15239,0.15933 0.15239,0.35407 0,0.4765 -4.0814,3.6175 -4.68293,3.60392 -0.36506,-0.008 -0.25995,-0.19902 0.44959,-0.81607 z m 2.51354,0.14277 c 1.22895,-1.02964 1.7198,-1.25754 1.7198,-0.79848 0,0.48708 -1.37303,1.48573 -2.02522,1.47302 -0.39708,-0.008 -0.34002,-0.13377 0.30542,-0.67454 z M -19.442755,316.5175 c -1.696911,-0.62086 -4.905353,-2.78352 -6.037256,-4.06943 -2.369447,-2.69183 -3.540146,-6.28611 -4.49541,-13.80183 -0.882897,-6.94635 -1.685323,-9.95944 -3.308838,-12.42463 -1.012669,-1.53765 -1.202858,-2.21951 -0.421973,-1.51282 0.802936,0.72665 2.37109,4.09025 2.915942,6.25452 0.276278,1.09744 0.881756,4.60979 1.345507,7.80521 1.460352,10.06239 3.003782,13.11818 7.834921,15.5121 4.449551,2.20484 6.237921,1.5166 13.8613513,-5.33442 6.605778,-5.93647 9.1244923,-7.41268 16.4077333,-9.6165 4.1367924,-1.25174 6.7973684,-1.60472 10.6884414,-1.41804 5.758659,0.27629 10.255674,1.71225 31.24445,9.97681 12.626282,4.97174 17.062109,6.34423 21.828125,6.75387 2.25325,0.19366 5.164019,-0.30608 7.022262,-1.20564 5.079351,-2.45887 10.46721,-12.0839 12.942662,-23.12114 1.367544,-6.09745 1.577422,-8.24809 1.474169,-15.10592 -0.196705,-13.06466 -0.166532,-14.09396 0.480898,-16.40417 0.326255,-1.16417 1.023374,-3.0394 1.549157,-4.16719 0.855951,-1.83599 1.032849,-2.05052 1.69083,-2.05052 h 0.734862 l -1.049708,2.24002 c -1.975265,4.21511 -2.208887,5.55936 -2.093767,12.04748 0.259136,14.60492 0.06525,17.84196 -1.489678,24.87083 -1.866816,8.43875 -5.960465,17.21733 -9.836132,21.093 -0.764696,0.7647 -2.136338,1.73949 -3.146374,2.23605 l -1.790669,0.88033 -4.10415,-0.0239 c -3.910812,-0.0228 -4.256135,-0.0691 -7.330353,-0.9818 -3.533717,-1.04914 -7.736118,-2.64875 -18.20505,-6.92959 -10.028582,-4.10078 -19.902297,-7.75542 -23.40111,-8.66166 -3.683125,-0.95398 -8.835192,-1.26829 -12.128349,-0.73991 -5.3645519,0.86072 -12.2973946,3.56051 -15.799708,6.15274 -0.873125,0.64624 -3.3097126,2.75938 -5.4146371,4.69587 -2.1049252,1.93648 -4.5457069,4.11902 -5.4239579,4.85007 -2.550496,2.12304 -4.741695,2.85975 -6.544191,2.20026 z m -0.104297,-2.80932 c -1.849872,-0.38344 -3.453714,-1.3068 -4.868804,-2.80305 -2.398515,-2.53608 -3.452844,-5.66468 -4.494937,-13.3382 -0.306315,-2.25557 -0.794347,-5.11307 -1.084515,-6.35 -0.610479,-2.60235 -2.238313,-6.10616 -3.404441,-7.32784 -0.781144,-0.81836 -1.029971,-1.40341 -0.59688,-1.40341 0.351695,0 2.061258,2.41597 2.911718,4.11487 1.314942,2.62676 1.715238,4.28462 2.839526,11.76013 0.975386,6.48544 1.985222,9.42052 4.013702,11.66581 1.959408,2.16883 4.779342,3.18435 7.387761,2.66051 2.238109,-0.44948 4.019473,-1.47743 7.948912,-4.587 8.71772075,-6.89878 9.64854873,-7.46805 15.2289367,-9.31362 4.9624483,-1.6412 7.5731083,-2.11483 11.5821463,-2.10125 5.641221,0.0191 7.347317,0.47859 24.60625,6.62693 19.774191,7.04439 21.739833,7.59816 26.9875,7.60308 4.011086,0.004 5.473993,-0.36891 7.849618,-1.9997 5.860759,-4.02322 11.127674,-15.05912 12.92937,-27.09122 0.313465,-2.09338 0.413536,-4.24738 0.356471,-7.67292 -0.246126,-14.77445 -0.210564,-15.15795 1.809411,-19.51302 0.869045,-1.87366 1.017839,-2.05052 1.725152,-2.05052 0.425741,0 0.734388,0.0893 0.68588,0.19844 -0.04851,0.10914 -0.478621,0.99664 -0.955808,1.97222 -0.477186,0.97559 -1.125617,2.70199 -1.440952,3.83646 -0.525487,1.89051 -0.564563,2.53747 -0.468159,7.75121 0.246949,13.35585 0.08751,15.96258 -1.359392,22.225 -2.028111,8.77799 -5.790457,16.43889 -10.097297,20.56013 -2.817156,2.69576 -5.911358,3.72473 -10.328174,3.43459 -4.618586,-0.30338 -7.714062,-1.24459 -24.511109,-7.45285 -20.399076,-7.53959 -21.631288,-7.89048 -27.788761,-7.91318 -4.071851,-0.015 -6.321259,0.3795 -11.1222767,1.95063 -5.2948496,1.73274 -8.0439789,3.32918 -13.2193903,7.67662 -7.702533,6.47026 -9.799198,7.5698 -13.121458,6.88115 z m -0.925503,-2.51283 c -2.405325,-0.77371 -4.489204,-3.34557 -5.801621,-7.16017 -0.280557,-0.81545 -0.875073,-3.70573 -1.321148,-6.42284 -1.00218,-6.10443 -1.623118,-8.77993 -2.495454,-10.75244 -0.769859,-1.74079 -2.798248,-4.69163 -3.621241,-5.26808 -0.304074,-0.21298 -0.500628,-0.54394 -0.436785,-0.73547 0.204298,-0.61289 2.758997,2.35655 3.86861,4.49666 1.384725,2.67073 1.986346,4.78094 2.954155,10.36184 1.402124,8.08538 2.143053,10.27115 4.260315,12.56811 1.596532,1.73203 3.070143,2.32009 5.533183,2.20807 2.890002,-0.13143 5.290152,-1.40446 11.0718791,-5.87248 6.28243867,-4.85496 9.5839862,-6.53011 16.3109064,-8.27592 2.6549005,-0.68901 3.3071995,-0.75455 7.5366615,-0.75719 5.973337,-0.004 7.323987,0.29558 19.711458,4.36807 16.974315,5.58045 21.373923,6.81597 26.326042,7.393 4.30612,0.50176 7.83994,-0.30897 10.775095,-2.47201 4.79492,-3.53359 9.317705,-11.33042 11.529251,-19.87528 1.344589,-5.19515 1.373992,-5.53745 1.374952,-16.00729 l 7.94e-4,-9.92188 0.744897,-2.11666 c 1.105236,-3.14026 1.888292,-4.36563 2.789902,-4.36563 h 0.734253 l -0.87847,1.78594 c -1.650746,3.35598 -1.999718,5.36566 -1.895186,10.91406 0.164819,8.74824 0.07695,13.85118 -0.273362,15.875 -1.251636,7.23094 -3.995026,14.55426 -7.384116,19.71146 -1.595157,2.42736 -4.871546,5.70659 -6.549102,6.55478 -2.606524,1.31788 -4.122489,1.59406 -7.908541,1.44079 -5.196634,-0.21038 -7.29633,-0.79687 -27.13745,-7.58011 -5.16599,-1.76614 -10.481668,-3.50825 -11.81262,-3.87136 -7.561733,-2.063 -13.473109,-1.9407 -20.880186,0.432 -5.1034924,1.63479 -7.57070019,3.02492 -13.0004079,7.32497 -4.3698001,3.46066 -5.8643261,4.47725 -8.0574431,5.48076 -1.877851,0.85926 -4.382617,1.08183 -6.069221,0.5393 z m 1.650376,-2.03224 c -1.509309,-0.26317 -3.218991,-1.28423 -4.113064,-2.45643 -1.543583,-2.02374 -2.210515,-4.04848 -3.45521,-10.4897 -1.786389,-9.24446 -2.842429,-11.88868 -6.044967,-15.13601 -1.878083,-1.90434 -2.182469,-2.61301 -0.605815,-1.41044 2.050771,1.5642 4.277579,4.96226 5.290446,8.07311 0.361389,1.10994 0.969991,3.62542 1.352448,5.58995 1.627159,8.35809 2.482818,10.89779 4.308627,12.78857 1.562186,1.61777 2.795372,2.14973 4.948495,2.13462 2.952434,-0.0207 4.985663,-1.05164 11.1678879,-5.66252 4.8349667,-3.60606 7.0066667,-4.83163 11.0732887,-6.24908 8.6625644,-3.0194 15.3887994,-2.97325 25.7806984,0.17691 12.799676,3.88004 15.380541,4.62927 19.139596,5.55627 9.902867,2.44208 15.046642,2.39438 19.43998,-0.18028 0.650825,-0.38141 2.112513,-1.58122 3.248197,-2.66625 5.126521,-4.89785 9.076449,-13.07847 10.449107,-21.64094 0.116645,-0.72761 0.223523,-5.25198 0.237512,-10.05417 0.0279,-9.5796 0.049,-9.73677 1.78491,-13.29531 0.747406,-1.53216 0.870916,-1.65365 1.681054,-1.65365 h 0.87438 l -0.64788,1.12448 c -0.356336,0.61846 -0.970243,2.07698 -1.364242,3.24115 l -0.71636,2.11666 -0.015,9.65729 c -0.01283,8.26224 -0.08319,9.96306 -0.487007,11.77396 -2.78102,12.47141 -9.37903,22.18722 -16.582573,24.41846 -1.739265,0.53873 -6.850946,0.58331 -9.525,0.0831 -4.560081,-0.85304 -10.677242,-2.56828 -21.828125,-6.12054 -11.539942,-3.67621 -15.18384,-4.40365 -20.744241,-4.14126 -8.0486778,0.37981 -14.1797192,2.8142 -22.1170922,8.78182 -6.5369368,4.91471 -9.3720428,6.1909 -12.5300438,5.64025 z m 0.622627,-2.31859 c -1.989855,-0.48442 -3.560096,-1.87768 -4.739658,-4.20543 -0.829837,-1.63761 -1.241854,-3.1194 -2.513853,-9.04091 -1.200945,-5.59074 -1.752699,-7.32782 -3.083349,-9.70724 -1.018947,-1.82205 -3.684944,-4.84441 -4.91321,-5.56997 -0.416472,-0.24602 -0.757222,-0.60696 -0.757222,-0.80209 0,-0.63346 1.516867,0.47723 3.531078,2.58555 3.079691,3.22358 4.14134,5.67276 6.001639,13.84551 1.461449,6.42051 2.087466,8.05101 3.810246,9.92403 3.105672,3.37651 7.284832,2.55896 14.7028703,-2.87629 4.1523153,-3.04243 6.08409643,-4.19286 9.286113,-5.53016 5.2711853,-2.20148 10.9641537,-3.14873 16.0445077,-2.66963 4.720881,0.44519 6.742446,0.88081 16.605838,3.57832 11.895584,3.25329 15.493825,3.93397 20.902083,3.95409 3.505885,0.013 4.196347,-0.0598 5.92024,-0.62443 6.025822,-1.97369 12.08578,-9.00028 14.851226,-17.22019 1.446329,-4.29901 1.62568,-5.73582 1.84952,-14.81667 0.229277,-9.30155 0.303482,-9.82757 1.863929,-13.213 0.817729,-1.77409 0.90602,-1.86825 1.751811,-1.86825 h 0.890683 l -0.76781,1.52135 c -1.628418,3.22658 -1.687904,3.65098 -1.900656,13.5599 -0.165846,7.72433 -0.278532,9.49433 -0.732745,11.50938 -2.424626,10.75643 -9.000188,19.72687 -16.14184,22.02084 -1.716289,0.55129 -2.5366,0.65058 -5.3354,0.64579 -5.188807,-0.009 -8.893852,-0.75346 -21.262723,-4.27309 -12.647679,-3.59897 -15.807034,-4.23557 -21.029049,-4.23727 -5.038924,-0.002 -10.4032979,1.25402 -15.2551027,3.57084 -1.33135949,0.63574 -4.3643761,2.55816 -6.8791666,4.36023 -5.4342767,3.89413 -7.1556057,4.88578 -9.3984137,5.41439 -1.866762,0.43997 -2.118223,0.45249 -3.301586,0.1644 z m 0,-2.89205 c -1.386131,-0.63129 -2.938928,-2.38086 -3.759142,-4.23551 -0.361938,-0.81841 -1.306031,-4.04799 -2.097983,-7.17684 -1.597593,-6.31178 -2.846518,-9.3221 -4.963852,-11.96452 -1.213639,-1.51461 -3.471937,-3.47632 -4.591002,-3.98805 -0.327422,-0.14973 -0.595313,-0.43413 -0.595313,-0.63201 0,-0.63746 1.985802,0.59521 3.961761,2.45923 3.37969,3.18823 4.720834,5.8919 6.87964,13.86898 2.104086,7.77488 3.580031,10.15239 6.741816,10.85997 2.760824,0.61784 4.716016,-0.16017 10.9477934,-4.35638 5.09654173,-3.43179 7.0145963,-4.47595 10.4451811,-5.68621 3.6836509,-1.29955 7.0580805,-1.8842 10.8749255,-1.8842 4.881089,0 7.609533,0.46108 20.23505,3.41958 8.373221,1.96206 11.669522,2.471 16.168,2.4963 4.315425,0.0243 6.727171,-0.47725 9.562668,-1.98855 5.634366,-3.00309 10.630869,-10.04739 12.392959,-17.47215 0.809858,-3.41243 1.047483,-5.66638 1.319578,-12.51664 0.271552,-6.83659 0.488066,-8.10079 1.867128,-10.90207 0.770146,-1.56439 0.875508,-1.66564 1.733264,-1.66564 h 0.91327 l -0.815589,1.61567 c -1.401402,2.77616 -1.836854,5.07368 -1.84558,9.73759 -0.01894,10.1316 -1.027625,15.85825 -3.755702,21.32278 -2.496217,5.00009 -6.728746,9.59713 -10.590543,11.50261 -5.591905,2.75914 -11.457988,2.49176 -26.160704,-1.19244 -15.071613,-3.77664 -19.465708,-4.37516 -25.242181,-3.43824 -6.1661594,1.00012 -10.0284411,2.69849 -17.45461,7.67536 -5.594274,3.74918 -7.489321,4.64002 -9.847383,4.6292 -0.695814,-0.003 -1.741367,-0.22272 -2.32345,-0.48782 z m 1.921945,-2.41566 c -1.912884,-0.57598 -3.306088,-1.99896 -4.404886,-4.49905 -0.287806,-0.65484 -1.138943,-3.27422 -1.891415,-5.82083 -2.586772,-8.7545 -5.122309,-12.72538 -10.079197,-15.78494 -1.460055,-0.9012 -2.11541,-1.67999 -1.090718,-1.29615 1.445267,0.54137 3.555776,2.13976 5.457727,4.13338 2.770913,2.90447 4.133135,5.52686 6.13748,11.81515 2.159849,6.77616 3.283543,8.77314 5.555485,9.87297 0.954202,0.46192 1.539124,0.55826 2.873624,0.47328 2.112898,-0.13454 4.2553393,-1.16325 9.2999177,-4.46544 5.9421316,-3.88972 9.7292848,-5.43045 15.3184353,-6.232 4.713388,-0.67595 7.769839,-0.34115 21.966185,2.4062 8.002548,1.54869 11.178617,1.9763 14.727245,1.9828 7.469326,0.0137 12.972394,-2.60543 17.320559,-8.24348 3.759902,-4.87527 5.393013,-10.45153 6.058885,-20.68805 0.437737,-6.72936 0.621757,-7.7448 1.912315,-10.55237 0.901245,-1.96063 0.981335,-2.05052 1.826885,-2.05052 0.486375,0 0.884319,0.0405 0.884319,0.09 0,0.0495 -0.348422,0.79366 -0.774274,1.65365 -1.264721,2.55406 -1.604116,4.34449 -1.876263,9.89799 -0.432811,8.83208 -1.091922,12.62144 -2.969448,17.0719 -2.250213,5.33386 -6.45246,10.02923 -10.865506,12.14053 -3.480073,1.66494 -4.612844,1.87891 -9.84055,1.85883 -4.992812,-0.0192 -5.351542,-0.0718 -16.933334,-2.48406 -11.225183,-2.33798 -12.400449,-2.50958 -17.197916,-2.51105 -3.761957,-10e-4 -4.546809,0.0797 -7.0486009,0.72636 -4.6242631,1.19522 -8.11002418,2.78375 -12.1893541,5.55495 -6.917973,4.69956 -9.509988,5.75315 -12.1776,4.94992 z m 0.652498,-3.15468 c -2.269726,-1.0637 -3.441074,-2.93303 -5.484576,-8.7527 -2.278265,-6.48826 -3.682839,-9.07074 -6.599698,-12.13435 -1.745673,-1.8335 -3.105994,-2.85881 -5.164896,-3.89294 -0.732911,-0.36812 -1.332565,-0.78211 -1.332565,-0.91997 0,-0.94005 3.944189,1.36026 6.580408,3.8378 2.756913,2.59097 4.300749,5.21439 6.802982,11.56022 0.823718,2.08901 1.829258,4.4574 2.234533,5.26309 1.249603,2.48424 3.596315,4.21665 5.719311,4.22217 1.529207,0.004 4.2035241,-1.19577 8.0517963,-3.61218 6.5356872,-4.10391 10.232009,-5.57984 15.4240227,-6.15879 3.376319,-0.37648 6.647474,-0.075 17.16514,1.58203 10.803396,1.70204 14.59257,2.02996 18.526419,1.6033 5.596676,-0.60701 9.072237,-2.22918 12.761013,-5.95602 2.690741,-2.71851 3.786479,-4.41793 5.10367,-7.91548 1.207815,-3.20712 1.790962,-6.21002 2.295488,-11.82055 0.538593,-5.98934 1.02489,-8.42401 2.153528,-10.78177 0.878451,-1.83511 0.95794,-1.91823 1.83434,-1.91823 1.021993,0 1.099341,0.14981 0.511022,0.98975 -1.325806,1.89286 -2.034429,5.20038 -2.508874,11.71025 -0.379635,5.20897 -0.922915,8.32835 -2.043446,11.73293 -2.094566,6.36404 -5.9083,10.88572 -11.314478,13.41478 -3.182178,1.48865 -5.39134,1.90613 -10.054167,1.9 -4.298087,-0.006 -7.391924,-0.39181 -17.4625,-2.17959 -8.077933,-1.43404 -9.839849,-1.64735 -13.626041,-1.64966 -6.6135439,-0.004 -11.093744,1.53147 -18.7837475,6.43779 -4.6629148,2.975 -6.0657145,3.63773 -8.0941895,3.82393 -1.228213,0.11274 -1.807758,0.0298 -2.694495,-0.38581 z m 1.101218,-3.20569 c -0.597761,-0.29589 -1.333516,-0.80181 -1.635011,-1.12427 -0.959379,-1.02608 -2.376321,-3.60112 -3.65205,-6.63695 -2.389133,-5.68537 -3.849406,-8.12374 -6.569464,-10.96972 -1.786986,-1.86972 -4.580182,-3.83764 -6.455779,-4.54836 -0.681097,-0.25809 -1.27735,-0.66274 -1.325007,-0.89922 -0.07243,-0.35937 0.166464,-0.31854 1.455208,0.24871 5.865176,2.58161 9.076684,6.1249 13.152444,14.51123 2.556391,5.26005 3.274701,6.34922 5.02223,7.61512 0.895663,0.64881 1.286748,0.75437 2.795075,0.75437 2.1017597,0 3.5827887,-0.64764 8.9529607,-3.91501 3.5960262,-2.18793 5.0060252,-2.82334 8.5077009,-3.83395 1.7065916,-0.49253 2.6553107,-0.57774 6.3708224,-0.5722 3.626514,0.005 5.48549,0.17091 10.980209,0.97758 11.77917,1.72929 17.685289,1.91809 22.61544,0.72294 6.420813,-1.55652 11.514733,-5.92763 13.868035,-11.9002 1.032489,-2.62041 1.429864,-4.44365 2.162469,-9.92187 0.846738,-6.33169 1.445622,-8.89481 2.62596,-11.23865 0.896194,-1.7796 0.975765,-1.85823 1.880555,-1.85823 0.519618,0 0.899732,0.0893 0.844693,0.19844 -2.135963,4.23558 -2.421456,5.29235 -3.12398,11.56356 -0.691351,6.17144 -1.168212,8.71452 -2.126422,11.34007 -2.445779,6.7016 -7.513836,11.36441 -14.1405,13.00981 -2.783002,0.69103 -6.449124,0.91845 -10.580929,0.65639 -3.569747,-0.22641 -5.864743,-0.51678 -15.612821,-1.97538 -8.568714,-1.28213 -12.5906851,-1.12821 -17.7568705,0.67959 -2.4097138,0.84322 -3.45495294,1.39608 -8.9660465,4.74236 -4.815594,2.92398 -7.032822,3.49061 -9.288922,2.37384 z m 1.321578,-3.3642 c -2.057281,-1.1683 -2.93267,-2.29237 -5.408803,-6.94531 -2.821208,-5.30138 -4.011415,-7.00969 -6.844968,-9.8246 -2.247741,-2.23295 -2.907225,-2.71623 -5.325509,-3.9026 -1.518042,-0.74473 -2.909741,-1.35405 -3.092664,-1.35405 -0.182923,0 -0.332587,-0.16745 -0.332587,-0.37211 0,-0.54607 0.801491,-0.29669 3.90713,1.2157 4.570265,2.22565 8.172881,6.06681 11.900988,12.68902 3.076005,5.46389 4.648771,7.06352 7.184446,7.30716 1.8122526,0.17414 3.4201597,-0.39522 6.8520365,-2.42632 3.53324581,-2.09108 4.79857063,-2.73333 6.655173,-3.37802 4.5147918,-1.5677 8.6901785,-1.68981 17.2212505,-0.50364 3.134532,0.43583 7.589509,0.9246 9.899951,1.08616 11.618794,0.81245 19.360182,-1.9168 23.656362,-8.34012 2.030008,-3.03511 2.646593,-4.98409 4.269494,-13.49554 0.95749,-5.02164 1.605399,-7.20173 2.76298,-9.2969 0.77574,-1.40406 0.948108,-1.55877 1.81918,-1.63281 l 0.962247,-0.0818 -1.02375,2.00184 c -1.217662,2.38101 -1.860896,4.91642 -2.950686,11.63061 -1.329063,8.18835 -2.453468,10.83403 -6.197767,14.58308 -3.834225,3.83909 -8.375118,5.57437 -15.349243,5.86564 -4.341024,0.18129 -8.610661,-0.15254 -16.536459,-1.29295 -7.222572,-1.03922 -12.2276629,-1.12946 -15.5003814,-0.27947 -3.1877371,0.82793 -4.99762993,1.64267 -9.0032549,4.05291 -1.9934952,1.19951 -4.2025988,2.40058 -4.9091207,2.66904 -1.623239,0.61678 -3.555626,0.62728 -4.616045,0.0251 z m 1.067614,-3.61644 c -1.524357,-0.66376 -2.795234,-2.09192 -5.55154,-6.2386 -1.514272,-2.27812 -3.442975,-4.9633 -4.286006,-5.96706 -2.946007,-3.50769 -6.691164,-6.17303 -10.261554,-7.30288 -1.079952,-0.34176 -1.965686,-0.7702 -1.968297,-0.9521 -0.0061,-0.42482 -0.110527,-0.43956 2.296698,0.32411 4.882148,1.54881 9.215313,5.22371 14.046753,11.91287 4.20722,5.82491 5.428211,6.87034 8.0240829,6.87034 1.393435,0 1.8886646,-0.18177 5.2754315,-1.9363 5.25534206,-2.72256 7.7301196,-3.50278 12.2887449,-3.8743 2.1457497,-0.17488 2.6905267,-0.12579 11.6416667,1.04897 13.032835,1.71044 21.384644,0.2874 26.588381,-4.53035 3.098335,-2.86851 4.212257,-5.20341 6.348648,-13.30744 1.481627,-5.62029 2.503456,-8.48411 3.71025,-10.39853 0.689448,-1.09371 0.907849,-1.25677 1.683329,-1.25677 h 0.891096 l -1.034889,1.97498 c -1.416389,2.70302 -1.886424,4.17356 -3.146772,9.84496 -1.2208,5.49343 -1.955125,7.84407 -3.15187,10.08939 -2.356413,4.42109 -6.999642,7.61325 -12.803677,8.80237 -5.141404,1.05337 -10.916507,0.92323 -20.76341,-0.46787 -10.545471,-1.4898 -14.8164678,-0.7795 -22.530461,3.74697 -3.4698474,2.03606 -5.368376,2.45686 -7.296605,1.61724 z m 0.54973,-4.07272 c -1.639417,-0.77027 -2.514541,-1.6328 -5.793939,-5.7106 -5.113028,-6.35784 -8.872814,-9.44005 -13.465408,-11.0387 -1.194547,-0.41581 -2.373236,-0.75762 -2.619309,-0.75956 -0.476618,-0.004 -0.895742,-0.46838 -0.646957,-0.71717 0.26636,-0.26636 3.660879,0.72208 5.673958,1.65218 3.740583,1.72825 5.955601,3.59726 11.164476,9.42045 5.836897,6.52527 6.593304,6.77828 12.6268718,4.22351 3.6017676,-1.52508 6.168009,-2.26457 9.3321822,-2.68916 2.4662183,-0.33094 4.4501065,-0.22216 10.31875,0.56579 6.657702,0.89389 9.779032,1.08025 13.166434,0.78612 6.312273,-0.5481 10.540926,-2.22034 13.688973,-5.41338 2.308786,-2.34179 3.169732,-4.02099 5.932606,-11.57108 2.128415,-5.8163 2.705545,-7.15386 3.95183,-9.15877 0.58936,-0.94811 0.833263,-1.12408 1.558595,-1.12448 0.472942,-2.6e-4 0.859895,0.0459 0.859895,0.10248 0,0.0566 -0.475599,0.91682 -1.056886,1.91155 -0.712562,1.21938 -1.756592,3.96574 -3.204617,8.42987 -1.181251,3.64169 -2.629866,7.55542 -3.219141,8.69717 -2.415627,4.6804 -6.377056,7.46197 -12.609459,8.85391 -1.545839,0.34525 -3.300079,0.44601 -7.691147,0.44177 -4.836104,-0.005 -6.461683,-0.1178 -10.847916,-0.75506 -8.9650388,-1.30249 -13.0996455,-0.78616 -20.1398561,2.51505 -3.9721224,1.86256 -5.3155586,2.12011 -6.9799359,1.33811 z m 0.924329,-3.99124 c -1.626788,-0.51947 -2.767913,-1.43117 -7.127931,-5.69489 -6.513964,-6.37008 -9.552966,-8.30195 -14.548228,-9.24821 -0.936006,-0.1773 -1.7496,-0.46569 -1.807986,-0.64084 -0.282692,-0.84808 4.42609,0.27693 7.517814,1.79614 2.753644,1.35307 4.486689,2.66619 9.249404,7.0082 5.883347,5.36365 6.894472,5.68002 12.6951194,3.9722 1.7334045,-0.51035 4.08753208,-1.10566 5.23139462,-1.32292 2.38762378,-0.45348 7.87851648,-0.51349 10.62025098,-0.11605 3.603789,0.52239 9.21095,1.04394 11.206906,1.0424 2.568307,-0.002 6.602007,-0.61182 8.577392,-1.29678 5.437629,-1.88549 7.979899,-4.61819 11.56916,-12.43577 2.362761,-5.14621 3.583779,-7.54668 4.689041,-9.2185 0.817346,-1.23631 1.020191,-1.38906 1.844628,-1.38906 h 0.926295 l -0.566094,0.8599 c -1.071296,1.62729 -2.602265,4.83872 -4.487537,9.41327 -2.332668,5.66013 -2.824287,6.63654 -4.390655,8.72027 -2.13642,2.84206 -5.440542,4.82847 -9.896642,5.94975 -3.348154,0.8425 -10.652194,0.81052 -16.694369,-0.0731 -6.0992256,-0.89195 -10.0303466,-0.86166 -13.84766758,0.10671 -1.57710192,0.40008 -3.96379432,1.12427 -5.30376082,1.60932 -2.6856838,0.97218 -4.4448118,1.28101 -5.4565346,0.95795 z m -0.833101,-4.65373 c -1.602204,-0.58928 -2.766451,-1.42082 -7.224008,-5.15958 -4.887228,-4.09914 -8.463112,-5.95626 -12.988219,-6.74537 -1.268085,-0.22114 -2.349544,-0.40207 -2.403242,-0.40207 -0.0537,0 -0.09763,-0.11906 -0.09763,-0.26458 0,-0.67681 4.377818,0.0326 7.453174,1.20776 2.185256,0.83503 5.187465,2.70812 9.215576,5.74963 5.949155,4.49203 6.627758,4.65303 14.1716231,3.36224 5.6456765,-0.966 8.0759194,-0.98432 16.3877519,-0.12356 9.113565,0.94379 14.75006,-0.10294 19.109285,-3.54871 1.688952,-1.33504 2.90757,-3.04194 6.818546,-9.55062 4.321717,-7.19225 4.493572,-7.41549 5.708605,-7.41549 h 0.987356 l -1.262936,1.91823 c -0.694616,1.05503 -2.480027,4.18042 -3.967578,6.94531 -1.487551,2.7649 -3.227639,5.76062 -3.866859,6.65716 -2.796513,3.92225 -6.704396,5.98935 -12.678502,6.70639 -2.885073,0.34628 -5.797955,0.22938 -11.509375,-0.4619 -1.964532,-0.23778 -5.4173441,-0.43251 -7.672917,-0.43274 -3.77039452,-4e-4 -4.44919894,0.0782 -8.4192692,0.97523 -4.581751,1.03519 -6.2005829,1.15673 -7.7613778,0.58267 z m -0.09123,-4.21133 c -1.591348,-0.5046 -2.966634,-1.26832 -6.67932,-3.70912 -6.145145,-4.03995 -8.732708,-5.14763 -13.362867,-5.72033 -1.418829,-0.17549 -2.579688,-0.42344 -2.579688,-0.55099 0,-0.39688 2.929634,-0.2483 5.479453,0.2779 3.157476,0.65159 5.675259,1.75939 10.395547,4.57395 6.159724,3.67284 5.706527,3.53171 10.9802083,3.41946 6.2870927,-0.13381 13.785395,-0.1417 20.7697917,-0.0219 6.814463,0.11692 8.440618,-0.1227 11.800859,-1.73891 2.806051,-1.34966 4.938085,-3.48714 9.784704,-9.80971 4.118144,-5.37226 4.144084,-5.39941 5.158282,-5.39941 h 1.019323 l -1.335108,1.78594 c -0.734312,0.98226 -2.663307,3.75047 -4.286658,6.15156 -1.706999,2.52482 -3.690133,5.09745 -4.703159,6.10121 -1.97498,1.95691 -4.603274,3.4097 -7.384076,4.08156 -2.476103,0.59824 -7.746548,0.78005 -12.038542,0.41529 -7.4431446,-0.63258 -10.2793059,-0.64081 -14.7222263,-0.0427 -4.6644073,0.6279 -6.7554687,0.67483 -8.2965237,0.18618 z m 0.264583,-3.84932 c -1.644293,-0.35757 -3.385364,-1.11438 -7.540625,-3.27773 -5.085707,-2.64777 -7.791143,-3.53438 -12.021355,-3.93953 -3.81348,-0.36525 -4.603264,-0.91408 -1.141665,-0.79337 4.815202,0.16792 7.603726,0.91793 13.642294,3.66926 2.373652,1.0815 4.993027,2.13886 5.820833,2.34968 1.239788,0.31575 3.9070527,0.36934 15.1311433,0.30402 12.9253587,-0.0752 13.7299277,-0.10809 15.6463077,-0.63898 4.478165,-1.24058 7.671752,-3.47487 13.004972,-9.09848 3.160651,-3.33276 3.296065,-3.43969 4.251603,-3.35734 l 0.986972,0.0851 -2.17579,2.51354 c -7.716473,8.91431 -9.915105,10.59292 -15.44219,11.78975 -1.756923,0.38045 -3.218383,0.44435 -8.598958,0.37598 -10.80741425,-0.13732 -12.4133689,-0.13129 -16.5364583,0.0621 -2.1828125,0.10239 -4.4449997,0.0826 -5.0270837,-0.044 z m 172.640628,-4.27778 c -4.94092,-3.7477 -11.31816,-7.57386 -16.11351,-9.66764 l -2.01045,-0.87782 1.85817,-0.003 c 1.77678,-0.003 1.98125,0.0652 4.66795,1.55929 3.38945,1.88488 7.5154,4.61568 11.53169,7.63235 2.34383,1.76047 2.97657,2.37065 2.97657,2.87043 0,0.34908 -0.0298,0.62551 -0.0661,0.61427 -0.0364,-0.0112 -1.3163,-0.96868 -2.84427,-2.12765 z m -173.963544,0.17902 c -0.873125,-0.1991 -2.420938,-0.67693 -3.439584,-1.06183 -8.336968,-3.15021 -9.826507,-3.53358 -14.618229,-3.76245 -2.678317,-0.12792 -3.505729,-0.25147 -3.505729,-0.52351 0,-0.6765 6.345235,-0.32026 10.451042,0.58675 1.018646,0.22503 3.459427,0.94854 5.423958,1.60779 5.593511,1.87707 6.200013,1.94731 16.8139401,1.94731 10.1922342,0 13.6115659,-0.24718 17.0527269,-1.23272 4.07181,-1.16615 6.639914,-2.61124 11.279409,-6.347 2.190499,-1.76381 2.523713,-1.94421 3.571875,-1.93385 l 1.156007,0.0114 -1.852083,1.74371 c -5.47901,5.15839 -8.95205,7.30258 -13.905164,8.58479 -2.115415,0.54762 -2.889676,0.58277 -14.5375443,0.66001 -9.694404,0.0643 -12.6397347,0.005 -13.8906247,-0.28043 z m 173.302084,-3.65936 c -1.89177,-1.43575 -4.90395,-3.58445 -6.69374,-4.77488 -3.1886,-2.12081 -3.2354,-2.16605 -2.32338,-2.24603 1.06437,-0.0933 2.2271,0.61904 7.31966,4.48458 4.06006,3.08183 5.3523,4.25261 5.23439,4.74243 -0.0699,0.29013 -1.06899,-0.33306 -3.53693,-2.2061 z m -174.625001,-0.0475 c -1.018646,-0.19985 -3.459427,-0.78074 -5.423958,-1.29086 -4.599069,-1.19423 -6.894556,-1.4999 -11.263937,-1.4999 -3.120462,0 -3.55273,-0.0529 -3.55273,-0.43514 0,-0.3943 0.490452,-0.42072 5.225521,-0.28146 4.764816,0.14013 5.622077,0.24216 9.723437,1.15734 l 4.497917,1.00366 10.8479167,-0.004 c 9.1580441,-0.003 11.2599814,-0.076 13.4931123,-0.46862 4.308946,-0.7575 9.148585,-2.55228 12.375899,-4.5896 0.806391,-0.50905 1.302951,-0.62598 2.391039,-0.56305 l 1.373283,0.0794 -2.248958,1.49938 c -4.180055,2.78685 -7.670208,4.2492 -12.295069,5.15155 -3.013559,0.58798 -22.426383,0.77395 -25.143473,0.24087 z m 176.609381,-1.24288 c -0.65485,-0.59194 -2.54854,-2.1051 -4.20821,-3.36259 -2.71515,-2.05719 -2.94556,-2.29487 -2.29901,-2.3716 0.8044,-0.0955 1.24056,0.19729 5.38274,3.61285 1.66384,1.37198 2.71198,2.42622 2.71198,2.72778 0,0.70117 -0.24409,0.60793 -1.5875,-0.60644 z m -0.97306,-3.61061 c -2.32103,-1.9483 -2.61788,-2.40937 -1.33069,-2.06689 0.91946,0.24464 3.97009,3.13751 3.85669,3.65725 -0.0752,0.34455 -0.65828,-0.0226 -2.526,-1.59036 z m -177.488404,1.53146 c -1.018646,-0.12429 -3.042709,-0.4211 -4.497917,-0.65957 -1.500903,-0.24595 -5.07881,-0.49889 -8.268229,-0.58452 -3.092318,-0.083 -5.622396,-0.24184 -5.622396,-0.35295 0,-0.11111 1.279922,-0.29145 2.844271,-0.40076 2.711027,-0.18943 8.386043,0.0843 14.353646,0.69236 1.647811,0.1679 5.384121,0.16104 10.8479163,-0.0199 11.1900679,-0.37063 14.5690987,-0.72702 18.9396447,-1.99758 0.865024,-0.25146 2.161699,-0.37313 3.459028,-0.32454 l 2.075286,0.0777 -2.18766,0.86506 c -2.859162,1.13058 -5.807734,1.82674 -9.7185903,2.29454 -3.7537814,0.44902 -19.5217927,0.74003 -22.2249997,0.41017 z M 163.23429,253.3639 c -0.80993,-0.72748 -0.82651,-0.77585 -0.26458,-0.77205 0.87071,0.006 1.31993,0.37487 1.21795,1.00041 -0.0848,0.51991 -0.13321,0.5083 -0.95337,-0.22836 z m -185.138009,-0.0266 c -1.74625,-0.12637 -5.228828,-0.1595 -7.739062,-0.0736 -2.865266,0.098 -4.564063,0.0611 -4.564063,-0.0993 0,-0.14049 0.188332,-0.32771 0.418515,-0.41604 0.230183,-0.0883 8.237136,-0.14264 17.793229,-0.12068 12.8324905,0.0295 16.12966719,0.0944 12.6122143,0.2485 -2.619375,0.11472 -6.2232645,0.33488 -8.0086433,0.48925 -3.631746,0.314 -5.867067,0.30802 -10.51219,-0.0281 z"
       id="path1390"
       inkscape:connector-curvature="0" />
  </g>
</svg>
