<?xml version="1.0" encoding="UTF-8" standalone="no"?>
<svg
   xmlns:dc="http://purl.org/dc/elements/1.1/"
   xmlns:cc="http://creativecommons.org/ns#"
   xmlns:rdf="http://www.w3.org/1999/02/22-rdf-syntax-ns#"
   xmlns:svg="http://www.w3.org/2000/svg"
   xmlns="http://www.w3.org/2000/svg"
   id="svg1398"
   version="1.1"
   viewBox="0 0 198.46925 66.145828"
   height="66.145828mm"
   width="198.46925mm"
   preserveAspectRatio="none">
  <defs
     id="defs1392" />
  <metadata
     id="metadata1395">
    <rdf:RDF>
      <cc:Work
         rdf:about="">
        <dc:format>image/svg+xml</dc:format>
        <dc:type
           rdf:resource="http://purl.org/dc/dcmitype/StillImage" />
        <dc:title></dc:title>
      </cc:Work>
    </rdf:RDF>
  </metadata>
  <g
     transform="translate(103.02982,-142.21875)"
     id="layer1">
    <path
       id="path1954"
       d="m -99.677344,207.55981 c 1.807692,-1.43657 7.067732,-4.89342 9.615165,-6.31899 5.933937,-3.3207 12.64435,-5.90209 19.607419,-7.54268 7.602654,-1.79127 14.883778,-1.79743 26.9875,-0.0228 5.320136,0.78002 9.565211,1.00242 16.243186,0.85097 3.653801,-0.0829 7.47671,-0.29734 8.495356,-0.4766 1.083185,-0.19062 4.37846,-0.33311 7.9375,-0.34322 4.922562,-0.014 6.4260462,0.0695 7.8679963,0.43667 3.6357348,0.92587 5.8944801,2.02375 10.8165238,5.25746 2.6748689,1.75736 5.5720029,3.5545 6.4380799,3.99366 5.656654,2.86827 13.644245,4.44394 22.500778,4.43862 4.948923,-0.003 7.929335,-0.31244 20.109955,-2.08803 4.947708,-0.72124 10.516986,-1.45426 12.376174,-1.62893 4.749165,-0.44619 11.34732,-0.20404 14.082159,0.51683 2.397845,0.63204 4.958297,1.84063 6.261574,2.95561 l 0.882176,0.75473 -1.794732,0.0107 c -1.416455,0.008 -2.077061,-0.13232 -3.134225,-0.66802 -1.987598,-1.00719 -4.948499,-1.67521 -8.541861,-1.92716 -5.244997,-0.36774 -9.715601,-0.029 -20.659376,1.56534 l -7.142692,1.04059 H 35.85907 c -14.474701,0 -14.513412,-0.003 -19.133622,-1.50281 -2.7116,-0.88022 -5.850522,-2.43626 -10.0489593,-4.98151 -5.6250443,-3.41011 -8.5855943,-4.55894 -13.6941428,-5.31392 -3.2855479,-0.48557 -6.9537609,-0.42729 -18.4803969,0.2936 -3.055943,0.19112 -10.7871,-0.32944 -17.567452,-1.18287 -9.641811,-1.21359 -12.546079,-1.4291 -16.912183,-1.25496 -6.535005,0.26066 -12.96316,1.67255 -19.733223,4.33423 -4.246985,1.66972 -10.771688,5.03772 -14.563296,7.51746 -3.106722,2.03184 -3.24226,2.0908 -4.806345,2.0908 h -1.60947 z m 8.452792,-0.0411 c 2.276596,-1.4384 8.076837,-4.35861 11.1125,-5.59472 7.612296,-3.09971 13.872705,-4.542 21.034375,-4.84596 4.249534,-0.18036 6.509073,-0.005 17.4625,1.35707 9.222963,1.14667 10.783666,1.2384 22.357292,1.31391 12.9786698,0.0847 14.8067739,0.46494 23.7095136,4.93164 2.676017,1.34262 5.5203302,2.71573 6.3206944,3.05136 l 1.455209,0.61024 -2.9435322,0.0112 c -2.8299516,0.0107 -3.0239256,-0.0256 -5.0270834,-0.94277 -9.5152104,-4.35655 -12.4273283,-4.96728 -25.1023014,-5.26447 -7.967096,-0.1868 -12.334494,-0.5627 -22.225,-1.91288 -6.460426,-0.88193 -7.713186,-0.97545 -13.096875,-0.97778 -5.042591,-0.002 -6.471539,0.0899 -9.342551,0.60188 -6.511502,1.16123 -13.144593,3.4458 -19.789231,6.81581 -3.212551,1.62934 -3.406699,1.69121 -5.291666,1.68637 l -1.95676,-0.005 z m 9.177326,0.56961 c 0.986446,-0.5754 6.50854,-2.6803 9.292644,-3.54214 5.407835,-1.67404 9.613763,-2.4205 15.185186,-2.69503 4.046824,-0.19941 7.633674,0.0988 17.806303,1.48033 9.106035,1.2367 11.472267,1.47429 19.839585,1.99209 3.562969,0.22049 7.611094,0.5807 8.995833,0.80048 2.7085268,0.42987 7.5382204,1.60071 8.1986442,1.98755 0.2479278,0.14522 -1.6436313,0.23923 -4.8871875,0.24288 -7.6686597,0.009 -20.0748897,-1.19021 -34.1312497,-3.29816 -6.392156,-0.95859 -10.675639,-1.27647 -14.684375,-1.08974 -6.370016,0.29672 -12.112906,1.37839 -17.922685,3.37571 -2.671305,0.91836 -3.236361,1.02151 -5.55625,1.01428 -1.8219,-0.006 -2.451142,-0.0847 -2.136448,-0.26825 z m 15.164341,-0.0104 c 0.436563,-0.13266 2.460625,-0.49443 4.497917,-0.80395 6.596009,-1.00212 14.469835,-0.73204 23.283333,0.79862 0.824981,0.14328 -4.30376,0.23291 -13.626042,0.23813 -9.389967,0.005 -14.653791,-0.0813 -14.155208,-0.2328 z m 132.181423,0.18177 c 0.26199,-0.2493 8.502576,-0.40535 10.428994,-0.1975 1.725141,0.18614 0.946171,0.23523 -4.211286,0.26539 -3.480371,0.0203 -6.27834,-0.0102 -6.217708,-0.0679 z m 27.189353,-1.7797 c -1.359858,-1.40546 -2.262997,-2.06055 -3.96875,-2.87869 -3.506827,-1.682 -5.278123,-1.97822 -11.733276,-1.96217 -5.894229,0.0147 -6.464697,0.0752 -18.520833,1.96644 -12.020582,1.88564 -12.728239,1.95598 -19.711459,1.95912 -8.246139,0.004 -12.900271,-0.72667 -18.407507,-2.88872 -3.117797,-1.224 -5.128233,-2.47184 -9.770618,-6.06445 -9.1358558,-7.06997 -13.3559494,-7.84711 -29.897916,-5.50578 -4.422164,0.62591 -5.85487,0.71129 -11.90625,0.70947 -6.273393,-0.002 -7.619082,-0.0895 -15.281622,-0.99498 -12.465042,-1.47301 -18.31557,-1.33029 -26.156497,0.63805 -9.012143,2.26235 -19.857972,7.52003 -27.542723,13.35174 l -2.58895,1.96468 v -1.30832 -1.30831 l 2.11795,-1.53477 c 8.079053,-5.85444 17.860798,-10.56691 26.784009,-12.90349 9.085519,-2.37908 13.224145,-2.47335 29.079502,-0.6624 8.837785,1.00943 12.514051,1.18747 16.895622,0.81823 3.532698,-0.29769 4.709364,-0.45672 13.229167,-1.78791 5.8913686,-0.92051 12.5967966,-1.13812 15.51689969,-0.50358 3.65501501,0.79424 5.77100431,2.03551 11.37185831,6.67089 5.647602,4.67408 7.86603,6.07401 11.66033,7.35823 5.701585,1.92975 11.239344,2.673 18.186762,2.44093 4.794864,-0.16016 5.162463,-0.20551 19.728733,-2.43367 10.964209,-1.67716 15.272465,-2.10873 18.917709,-1.89502 6.555549,0.38434 10.410423,1.87973 13.678598,5.30621 1.058638,1.10992 1.27036,1.49864 1.27036,2.33238 0,1.54949 -0.839952,1.29785 -2.951099,-0.88411 z m 1.822871,-5.12013 c -2.364063,-2.04861 -5.900571,-3.32509 -10.64573,-3.84251 -4.249598,-0.46339 -7.759957,-0.13186 -21.034375,1.98651 -4.874948,0.77796 -10.232761,1.62935 -11.90625,1.89197 -2.272004,0.35654 -4.550609,0.47704 -8.995834,0.47573 -5.152257,-0.002 -6.362456,-0.0837 -8.995833,-0.61106 -5.9642,-1.19434 -10.812047,-3.18406 -13.849067,-5.68415 -0.604941,-0.49799 -2.990487,-2.70837 -5.301218,-4.91195 -3.7252857,-3.55255 -4.4747683,-4.14147 -6.6145834,-5.19753 -5.44948,-2.6895 -9.4369598,-2.66634 -24.8158216,0.14409 -3.976922,0.72676 -8.599987,1.457 -10.273477,1.62274 -3.633136,0.35982 -11.29004,0.15004 -15.478125,-0.42405 -15.857505,-2.17372 -23.337861,-1.99481 -32.910785,0.78714 -7.775489,2.25961 -18.352184,7.44967 -24.850113,12.19414 l -1.66924,1.2188 0.0817,-1.28351 0.0817,-1.28351 3.04271,-2.04264 c 3.190887,-2.1421 10.543525,-6.02692 14.816667,-7.82848 7.649206,-3.22491 13.988671,-4.77743 21.298958,-5.21605 3.340243,-0.20042 9.734008,0.2903 18.123958,1.39101 4.386041,0.57542 6.487192,0.71237 10.980209,0.71563 6.470988,0.005 7.620566,-0.13839 18.123958,-2.25598 10.6212905,-2.14136 12.5721824,-2.43259 16.40416667,-2.44877 3.79359843,-0.016 5.60751303,0.36886 8.72287593,1.85084 1.8100434,0.86104 2.4779184,1.438 7.2844154,6.29282 2.910417,2.93968 5.983132,5.79404 6.828253,6.34302 3.231692,2.09927 7.438721,3.64683 12.486331,4.5931 1.770089,0.33184 3.807293,0.44391 7.9375,0.43666 6.234932,-0.011 7.506872,-0.15571 20.769791,-2.3638 13.040768,-2.1711 14.363856,-2.32274 18.917709,-2.16808 4.364124,0.14822 6.99348,0.68723 9.789583,2.00684 2.542678,1.2 2.824422,1.52174 2.728024,3.11534 l -0.08219,1.35873 z m -54.434272,-3.2333 c -5.984542,-0.6409 -12.304197,-3.02765 -15.925332,-6.01453 -0.959297,-0.79127 -2.972718,-2.89782 -4.474273,-4.68123 -5.628357,-6.68482 -7.357586,-8.13542 -11.2181033,-9.41053 -1.8939061,-0.62554 -2.5204209,-0.6994 -5.953125,-0.70178 -4.3717739,-0.003 -4.033946,-0.0582 -16.8420517,2.74825 -17.048166,3.73545 -18.012873,3.78636 -34.751698,1.83376 -11.84869,-1.38215 -17.256938,-1.34283 -24.066114,0.175 -3.981273,0.88746 -5.743735,1.43917 -10.197428,3.19215 -5.863221,2.30775 -13.635628,6.34588 -18.039335,9.37227 -0.60831,0.41804 -1.1807,0.76008 -1.27199,0.76008 -0.0913,0 -0.12936,-0.50512 -0.0846,-1.12248 l 0.0814,-1.12248 2.910418,-1.77671 c 8.680208,-5.29895 19.288493,-9.82213 26.458334,-11.28135 7.099945,-1.445 12.604826,-1.41799 24.870833,0.12199 6.921286,0.86896 8.648851,0.99649 13.49375,0.99619 6.72343,-5.3e-4 7.305731,-0.0917 20.881279,-3.27261 12.1855919,-2.85523 14.2277784,-3.2205 18.1447627,-3.24543 7.2271383,-0.046 10.4611063,1.76885 16.0501943,9.00713 4.22149,5.46715 6.196618,7.34429 9.878972,9.38888 2.395339,1.32999 6.739689,2.7147 10.186459,3.24681 2.267915,0.35012 3.961783,0.41883 7.672916,0.31124 5.468919,-0.15854 7.613896,-0.44258 19.464711,-2.57756 12.320339,-2.21956 14.268304,-2.4617 18.502998,-2.30002 3.743314,0.14292 5.395214,0.40393 8.135937,1.28554 l 1.653646,0.53192 v 1.16906 c 0,0.64298 -0.06428,1.16905 -0.142833,1.16905 -0.07856,0 -0.602162,-0.23433 -1.163568,-0.52074 -1.635813,-0.83453 -4.666846,-1.56998 -7.73425,-1.87663 -3.657224,-0.36562 -8.067408,-0.01 -15.169576,1.2233 -12.997431,2.25697 -17.654521,3.00544 -20.351872,3.27089 -2.706904,0.26639 -8.921504,0.3232 -11.000401,0.10057 z m 4.245502,-3.57612 c -4.639292,-0.36513 -9.314106,-1.84352 -12.918824,-4.08552 -2.807758,-1.74631 -5.406972,-4.46191 -8.571741,-8.95554 -3.436879,-4.88001 -4.552934,-6.15337 -6.579065,-7.50637 -3.302818,-2.20554 -7.147362,-2.97065 -12.3013157,-2.44814 -3.98469378,0.40398 -6.2970754,0.89687 -18.1771133,3.87453 -12.12047,3.03793 -13.58156,3.29713 -19.648485,3.48571 -5.068588,0.15754 -6.223439,0.0677 -16.139583,-1.25588 -14.606595,-1.94962 -22.918539,-1.20717 -33.599547,3.00124 -4.213446,1.66013 -12.227976,5.62891 -16.103496,7.97441 -1.579482,0.95592 -2.918942,1.73804 -2.976562,1.73804 -0.0576,0 -0.10477,-0.4182 -0.10477,-0.92933 0,-0.83902 0.14369,-1.02124 1.47869,-1.87523 3.836047,-2.45389 11.117056,-6.18113 16.380685,-8.38548 7.292535,-3.05402 14.385208,-4.49121 21.695833,-4.39621 3.772967,0.049 4.210389,0.0911 15.345834,1.47528 5.973765,0.74258 8.668969,0.95705 12.170833,0.96847 7.063385,0.023 7.620593,-0.085 29.6333333,-5.74629 7.5157516,-1.93292 10.1193415,-2.36174 14.4197917,-2.37499 7.778692,-0.024 10.314633,1.60468 16.404167,10.53515 1.673489,2.45422 3.757083,5.19666 4.630208,6.09431 5.438796,5.59155 13.811083,8.15945 23.8125,7.30362 4.682299,-0.40067 7.260923,-0.80667 17.727083,-2.7911 4.947709,-0.93811 10.063078,-1.84482 11.36749,-2.01492 2.798932,-0.36499 10.570527,-0.17707 12.246573,0.29612 1.063191,0.30016 1.124479,0.37084 1.124479,1.29674 v 0.97928 l -1.918229,-0.50447 c -2.526832,-0.66451 -8.214522,-0.89083 -12.117552,-0.48216 -1.648761,0.17264 -6.517314,0.95715 -10.819005,1.74337 -14.357919,2.62417 -20.554344,3.4883 -23.270581,3.24521 -0.440946,-0.0395 -1.877181,-0.15639 -3.191631,-0.25985 z m 1.730046,-3.67656 c -3.955206,-0.57687 -8.173587,-2.21218 -11.092664,-4.30021 -2.626508,-1.87877 -4.357976,-3.93434 -8.165938,-9.6945 -4.678424,-7.07687 -6.560619,-8.92774 -10.243124,-10.0726 -0.992722,-0.30863 -2.879165,-0.60542 -4.387364,-0.69025 -4.8484707,-0.27271 -9.9734261,0.64093 -21.8281247,3.89136 -16.8280423,4.61407 -18.2457273,4.8788 -26.0614583,4.86665 -5.203666,-0.008 -6.578267,-0.11222 -12.964583,-0.98208 -9.798815,-1.33466 -13.112367,-1.60339 -17.594792,-1.42694 -6.45173,0.25397 -11.819028,1.43424 -18.25625,4.01455 -4.015847,1.60972 -11.856167,5.48874 -15.41198,7.62511 l -2.84427,1.70887 v -0.9681 c 0,-0.95231 0.0486,-0.99693 2.97656,-2.73548 8.000679,-4.75052 17.200713,-8.72757 23.614065,-10.20804 3.77222,-0.87079 6.557608,-1.15729 11.244792,-1.15662 4.813914,7.9e-4 7.447608,0.22998 15.817625,1.37708 7.834738,1.07374 12.119784,1.40473 15.673681,1.21069 6.009026,-0.32808 8.212727,-0.79732 23.8388498,-5.0761 12.4306357,-3.40378 15.7202214,-4.07557 20.8698442,-4.26199 4.642601,-0.16806 6.199616,0.0953 9.039566,1.52888 2.579195,1.30197 4.219361,3.19816 8.219842,9.50292 1.985214,3.1287 4.223695,6.3753 4.974402,7.21466 2.536725,2.83631 6.900688,5.39702 11.235981,6.59312 1.86929,0.51574 2.781496,0.58562 7.805209,0.598 6.629794,0.0163 7.770497,-0.1327 20.153278,-2.63307 4.608629,-0.93058 9.702644,-1.87654 11.320036,-2.10213 2.949454,-0.41138 9.278533,-0.55448 10.826946,-0.24479 0.720394,0.14408 0.826823,0.2749 0.826823,1.01638 v 0.85103 l -1.256771,-0.20687 c -2.102855,-0.34613 -8.763045,-0.2524 -11.697335,0.16463 -1.522206,0.21633 -4.320175,0.69667 -6.217708,1.06741 -13.300287,2.59861 -15.983691,3.08518 -18.926564,3.43183 -3.561376,0.41951 -8.963152,0.46493 -11.488574,0.0966 z m 2.836627,-3.52126 c -5.767816,-1.10253 -10.415195,-3.65581 -13.659929,-7.50477 -0.701733,-0.83241 -2.300168,-3.23988 -3.552079,-5.34993 -5.505132,-9.27871 -7.555045,-11.40857 -12.381259,-12.86412 -1.174046,-0.35408 -2.420025,-0.47073 -4.883491,-0.4572 -5.2780674,0.029 -10.1902343,1.04195 -24.60625,5.07418 -11.12148,3.11073 -12.280585,3.4082 -15.592891,4.00173 -3.605141,0.64601 -9.527175,1.13133 -11.616743,0.95203 -0.823711,-0.0707 -2.509689,-0.20119 -3.746616,-0.29001 -1.236927,-0.0888 -5.16599,-0.56065 -8.73125,-1.0485 -9.973122,-1.36468 -12.296857,-1.54566 -17.594792,-1.37035 -7.109772,0.23527 -11.791879,1.33998 -19.33559,4.56209 -3.819996,1.63162 -10.102935,4.79666 -13.354155,6.72717 l -2.66344,1.5815 0.0818,-0.97833 c 0.0781,-0.93456 0.20018,-1.04846 2.72764,-2.54578 3.192494,-1.89131 10.432238,-5.53496 13.89062,-6.99093 7.442008,-3.13307 13.914197,-4.36633 21.68847,-4.13271 3.631869,0.10914 6.750574,0.42974 15.220905,1.56468 12.470993,1.671 17.270561,1.64364 25.988058,-0.14811 3.473865,-0.71401 5.455573,-1.23894 15.286942,-4.04939 14.0185881,-4.00743 19.547327,-5.08942 24.870833,-4.8673 4.292312,0.1791 6.673554,1.08027 9.426581,3.56747 1.471731,1.32962 2.896065,3.38694 6.195329,8.9486 1.549014,2.61121 3.451212,5.53405 4.227108,6.4952 3.229356,4.00042 7.983517,6.67532 13.604208,7.65434 2.364987,0.41194 8.333971,0.35261 11.658233,-0.11588 1.527968,-0.21534 7.242968,-1.28592 12.7,-2.37908 10.3775,-2.07883 12.41611,-2.40491 16.850407,-2.69522 3.3957,-0.22232 4.051607,-0.0788 4.05188,0.88656 l 2.06e-4,0.72257 -2.547519,-0.0928 c -3.948478,-0.14389 -7.896672,0.38352 -17.807797,2.37884 -5.030375,1.01271 -10.634417,2.07943 -12.453427,2.37048 -4.31504,0.69043 -11.34881,0.88871 -13.941992,0.39301 z m 3.49095,-3.34094 c -2.470195,-0.38368 -5.096166,-1.25523 -7.408333,-2.45882 -3.167171,-1.64865 -6.598074,-5.17378 -8.865889,-9.10938 -5.739775,-9.9609 -6.790785,-11.4251 -9.499235,-13.23373 -2.049552,-1.36864 -4.031464,-2.11083 -6.598981,-2.4712 -4.784296,-0.67152 -11.3002056,0.60704 -29.4077703,5.77043 -9.1636457,2.61302 -15.4869067,4.05618 -20.1452957,4.59774 -4.050136,0.47086 -12.030609,0.171 -17.822413,-0.66965 -9.575675,-1.38985 -12.800914,-1.73442 -17.727083,-1.89385 -5.60977,-0.18156 -9.191514,0.17629 -13.837944,1.38254 -5.089874,1.32137 -12.95794,4.83105 -20.370202,9.08648 -1.788539,1.02681 -3.306589,1.86693 -3.373439,1.86693 -0.0669,0 -0.12154,-0.39638 -0.12154,-0.88083 0,-0.8628 0.088,-0.93031 4.299479,-3.29696 5.104458,-2.86849 10.978469,-5.71041 14.557898,-7.04329 8.847813,-3.29467 17.07957,-3.66944 32.158994,-1.46408 11.967385,1.75022 17.87774,2.00147 24.435205,1.03873 5.824193,-0.85508 9.421077,-1.7231 21.385924,-5.16096 7.6643865,-2.20221 15.3542788,-4.13184 19.05,-4.78021 1.382448,-0.24254 3.88276,-0.449 5.55625,-0.45881 7.030466,-0.0412 11.239005,2.73997 15.587903,10.30109 4.353214,7.56862 5.246352,8.97289 6.752125,10.61627 4.444201,4.85037 9.646068,6.98525 17.082889,7.01094 4.415414,0.0152 7.000316,-0.31066 14.419791,-1.81811 16.0229,-3.25545 17.699321,-3.53462 21.225873,-3.53462 1.843796,0 1.925169,0.0263 1.925169,0.62114 0,0.60935 -0.06296,0.6245 -3.319097,0.79857 -3.574429,0.19109 -8.198948,0.91913 -15.334028,2.41405 -10.99919,2.30451 -14.344549,2.82503 -18.785417,2.92288 -2.328333,0.0513 -4.947708,-0.0177 -5.820833,-0.15329 z m 3.175,-3.33601 c -4.404453,-0.7024 -8.438007,-2.62775 -11.426687,-5.45432 -1.954909,-1.84887 -3.58285,-4.13807 -6.159138,-8.66093 -4.451985,-7.81579 -6.555544,-10.43424 -9.714206,-12.09193 -3.019954,-1.58491 -4.05674,-1.8006 -8.551011,-1.77891 -5.124974,0.0247 -5.7741,0.15975 -21.5862611,4.48993 -20.8518279,5.7103 -25.3842069,6.58682 -33.8439469,6.54511 -3.737652,-0.0184 -5.839561,-0.20765 -12.435417,-1.11945 -4.365625,-0.6035 -9.36625,-1.28844 -11.1125,-1.52209 -4.03339,-0.53967 -13.222414,-0.60907 -16.007291,-0.12088 -5.460681,0.95725 -9.882384,2.4975 -16.676022,5.80889 -3.549609,1.73017 -8.520295,4.41525 -10.148115,5.48184 l -0.69253,0.45376 v -0.94623 c 0,-0.90771 0.0943,-1.00259 2.3151,-2.33034 3.745909,-2.23952 12.679566,-6.66615 15.60841,-7.73397 9.849805,-3.59112 15.757758,-3.67406 37.771282,-0.5303 13.027456,1.86046 20.758973,1.21585 36.644791,-3.05523 2.6921358,-0.72381 8.8833857,-2.39334 13.7583337,-3.71007 10.9934403,-2.96934 13.5239683,-3.47739 17.4625003,-3.50594 5.258403,-0.0381 8.569203,1.22528 11.927247,4.55138 2.391413,2.36867 2.889922,3.0828 6.206426,8.89092 3.221893,5.64243 4.371012,7.24855 6.81459,9.52477 1.879436,1.75072 5.171311,3.7718 7.132283,4.37895 3.77153,1.16772 7.582091,1.49512 12.10487,1.04002 1.67349,-0.16839 7.448021,-1.18841 12.832292,-2.2667 10.270808,-2.0569 14.600841,-2.78062 16.636561,-2.78062 1.127945,0 1.222814,0.0513 1.222814,0.66146 0,0.62091 -0.08516,0.66178 -1.389062,0.66663 -2.401094,0.009 -6.640106,0.68577 -16.470313,2.62984 -5.23875,1.03603 -10.060781,2.00481 -10.715625,2.15284 -1.269466,0.28697 -10.179524,0.54365 -11.509375,0.33157 z m 3.836458,-3.263 c -3.551663,-0.44641 -6.288685,-1.38905 -8.923657,-3.07334 -3.643292,-2.3288 -5.574499,-4.60324 -9.376503,-11.04298 -3.604797,-6.10572 -4.987578,-8.06815 -7.066507,-10.02873 -4.510919,-4.25411 -10.244638,-5.44137 -18.31966,-3.79339 -1.802469,0.36786 -8.5159643,2.09128 -14.918881,3.82982 -14.191898,3.85344 -16.007805,4.31395 -20.372917,5.16656 -6.331807,1.23675 -9.716688,1.58466 -15.345833,1.57731 -5.380167,-0.007 -5.309944,-1e-5 -17.197917,-1.71818 -14.481744,-2.09304 -20.094741,-2.24386 -27.095495,-0.72801 -5.040679,1.09143 -12.007973,4.04892 -19.33888,8.209 -4.692163,2.66267 -4.233333,2.50806 -4.233333,1.42646 0,-0.89832 0.0905,-0.98271 2.71198,-2.52792 4.367387,-2.57436 11.985887,-6.23889 15.379325,-7.39752 5.030359,-1.71753 7.527133,-2.15236 13.26182,-2.30965 5.576155,-0.15294 6.808139,-0.0323 22.319837,2.18659 17.958258,2.56879 23.40047,1.97963 51.498913,-5.5752 14.690212,-3.94975 16.674994,-4.36766 20.743622,-4.36766 6.1142,0 10.855433,2.42017 14.650786,7.4785 0.789945,1.05282 2.717803,4.03397 4.284128,6.62478 1.566325,2.59081 3.371458,5.40709 4.011403,6.25841 3.272274,4.35308 8.165084,7.35718 13.354019,8.19911 4.593846,0.74538 9.119113,0.27438 22.52177,-2.34413 5.13385,-1.00302 9.989116,-1.90105 10.78948,-1.99563 0.800365,-0.0946 1.782631,-0.23465 2.182813,-0.31127 0.641704,-0.12286 0.727604,-0.0587 0.727604,0.54317 0,0.37537 -0.112964,0.68248 -0.251031,0.68248 -1.324396,0 -8.088757,1.13764 -15.769397,2.65211 -5.141394,1.01378 -10.158767,1.95421 -11.149719,2.08984 -2.827922,0.38706 -7.19373,0.52628 -9.07777,0.28947 z m 1.235377,-3.58278 c -3.940194,-0.747 -7.719766,-2.72169 -10.560717,-5.51762 -2.060665,-2.028 -3.464094,-3.94351 -6.633776,-9.05429 -3.493331,-5.63264 -4.778677,-7.34937 -7.014004,-9.36803 -3.519273,-3.17817 -7.351987,-4.60242 -12.348755,-4.58883 -4.173069,0.0113 -5.944788,0.37336 -18.1108982,3.70061 -20.6291998,5.64177 -28.1290528,7.11279 -37.8683598,7.42749 -5.534345,0.17883 -7.366759,0.01 -20.617617,-1.89918 -10.990487,-1.58353 -14.787001,-1.99135 -18.520833,-1.98946 -9.388481,0.005 -17.575397,2.86541 -31.55156,11.0248 -0.10914,0.0637 -0.1973,-0.33766 -0.1959,-0.89195 l 0.003,-1.0078 4.164641,-2.30632 c 12.037221,-6.66605 19.36018,-8.84316 28.626283,-8.51057 3.991803,0.14328 8.299868,0.65293 17.607111,2.08294 11.736115,1.80319 12.181081,1.84582 19.182292,1.83788 11.481472,-0.013 18.213115,-1.23683 40.6135413,-7.38352 10.7941537,-2.96192 12.3700567,-3.30359 16.1447667,-3.5004 3.744523,-0.19524 6.593493,0.33237 9.519817,1.763 4.232214,2.06906 6.707666,4.6849 11.526824,12.18053 3.726521,5.79617 4.744619,7.12606 7.237875,9.45448 3.993867,3.72983 8.641144,5.424 14.837384,5.40898 4.031197,-0.01 6.73082,-0.36996 16.100716,-2.14817 12.552463,-2.38219 12.871159,-2.4224 12.871159,-1.62382 0,0.53619 -0.304305,0.63949 -2.778125,0.94309 -0.727604,0.0893 -5.073385,0.86445 -9.657292,1.72258 -12.781298,2.3927 -12.855622,2.40387 -16.801041,2.52379 -2.595057,0.0789 -4.324546,-0.005 -5.776082,-0.28021 z m 2.753267,-3.30955 c -3.553304,-0.74042 -7.227421,-2.56741 -9.676952,-4.81196 -2.093027,-1.91788 -4.11488,-4.48269 -7.922628,-10.0502 -5.553192,-8.11961 -8.845934,-11.14464 -13.90573,-12.77515 l -1.984375,-0.63946 2.365859,-0.0124 c 2.310908,-0.0121 2.40883,0.0131 4.21576,1.08659 3.610662,2.14506 6.584838,5.44859 12.454379,13.83356 6.145945,8.77984 10.973276,11.85495 19.196293,12.22845 3.969359,0.1803 6.561445,-0.12995 18.112857,-2.16796 4.505036,-0.79482 8.463864,-1.44513 8.797396,-1.44513 0.417689,0 0.606414,0.15521 0.606414,0.49873 0,0.42298 -0.33151,0.54627 -2.182813,0.81176 -1.200546,0.17218 -6.111875,1.03582 -10.914062,1.91922 -8.198395,1.50815 -9.013825,1.61111 -13.361458,1.68704 -2.546615,0.0445 -5.157039,-0.0289 -5.80094,-0.16308 z m 3.551981,-3.16657 c -1.938959,-0.29163 -3.498035,-0.75534 -5.327967,-1.58468 -4.115552,-1.86521 -6.696461,-4.37295 -12.795991,-12.43326 -3.989671,-5.2722 -6.55946,-8.16956 -8.995833,-10.14255 l -1.190625,-0.96417 1.224563,-0.005 c 1.143323,-0.005 1.348097,0.10919 3.086698,1.71887 1.822757,1.6876 2.496727,2.48645 8.92253,10.5758 5.773658,7.26838 8.757997,9.57046 14.216716,10.96656 4.581631,1.17179 7.837271,1.00728 20.768527,-1.04946 4.546822,-0.72317 8.386588,-1.31487 8.532813,-1.31487 0.146224,0 0.265861,0.21501 0.265861,0.4778 0,0.48902 -2.477373,0.9594 -17.859375,3.39095 -4.015886,0.63482 -8.130146,0.77294 -10.847917,0.36419 z m 2.788531,-3.21943 c -6.430946,-0.91831 -10.542352,-3.89659 -17.833226,-12.91831 -2.057397,-2.54582 -4.679865,-5.61168 -5.827707,-6.81302 l -2.086986,-2.18426 h 0.968452 c 1.187741,0 1.756537,0.55869 8.215773,8.06979 6.775363,7.87871 9.217427,9.89322 13.97908,11.53163 4.515311,1.55365 8.199716,1.54838 19.507542,-0.0279 4.147343,-0.57812 7.868047,-1.10804 8.268229,-1.17759 0.581107,-0.10101 0.727604,-0.0261 0.727604,0.37218 0,0.41152 -0.312047,0.54765 -1.785937,0.77914 -16.67926,2.61964 -20.053732,2.9508 -24.132824,2.36832 z m 3.296886,-3.0438 c -3.171912,-0.39532 -7.05318,-1.83429 -9.571209,-3.5485 -1.895211,-1.29021 -4.616054,-3.98847 -10.048886,-9.96548 -4.838496,-5.32314 -4.864166,-5.35781 -3.96662,-5.35781 0.827288,0 1.290473,0.40678 5.498179,4.82865 7.876434,8.27732 10.47328,10.32329 14.874063,11.7188 5.131911,1.62736 8.232296,1.52961 24.993026,-0.78795 0.780087,-0.10787 0.867375,-0.0574 0.79375,0.45894 -0.07428,0.52095 -0.325605,0.61107 -2.46397,0.8835 -1.309687,0.16686 -3.869531,0.50324 -5.688541,0.74752 -8.177419,1.09816 -11.768543,1.35276 -14.419792,1.02233 z m -175.814705,-2.90906 9.2e-4,-1.01377 3.372519,-1.90629 c 10.76347,-6.08399 16.903002,-8.17663 24.803766,-8.45428 5.178433,-0.18198 8.65291,0.16945 21.298958,2.1543 11.853731,1.86049 15.60821,2.25373 21.485969,2.25041 11.960161,-0.007 24.7557209,-2.20854 41.537739,-7.14762 6.065414,-1.7851 6.35975,-1.84454 8.995833,-1.81665 l 2.725251,0.0288 -1.997572,0.36283 c -1.098667,0.19956 -5.384917,1.32289 -9.5250004,2.49629 -20.2659536,5.74388 -30.9308496,7.67089 -42.4143146,7.66372 -6.474359,-0.004 -8.705675,-0.26959 -29.274571,-3.48397 -5.211596,-0.81443 -15.05169,-0.88027 -18.520834,-0.12391 -5.77388,1.25884 -13.871287,4.80994 -21.629683,9.48564 l -0.8599,0.51823 z m 177.353254,-0.33634 c -3.64926,-0.5814 -7.234689,-2.13402 -10.118939,-4.38185 -0.810577,-0.63172 -3.734789,-3.42017 -6.498249,-6.19656 -4.860731,-4.88347 -4.995859,-5.04798 -4.146478,-5.04798 0.772038,0 1.394349,0.49394 5.156763,4.09303 6.5545,6.26997 8.784715,7.8763 12.85961,9.26227 4.139896,1.40807 9.213586,1.52234 18.274369,0.41158 5.426144,-0.66519 5.55625,-0.66637 5.55625,-0.0505 0,1.00856 -17.047718,2.55297 -21.083326,1.91002 z m 3.276397,-2.95219 c -2.827401,-0.27899 -6.575992,-1.4862 -8.915988,-2.87134 -1.718537,-1.01727 -5.781717,-4.39228 -9.525,-7.91178 l -1.984375,-1.86574 0.926042,-0.005 c 0.795634,-0.005 1.335894,0.35269 3.836458,2.53797 7.211216,6.30199 10.591263,8.08949 16.686573,8.82452 2.786314,0.336 5.769178,0.2372 12.682177,-0.42009 2.182813,-0.20754 3.998516,-0.3777 4.034896,-0.37813 0.03638,-4.3e-4 0.06615,0.22687 0.06615,0.50512 0,0.59943 -0.206362,0.639 -6.217708,1.19233 -6.051294,0.55701 -8.933683,0.65466 -11.589221,0.39263 z m -180.628311,-1.20054 0.002,-1.02262 3.238888,-1.84681 c 10.721403,-6.11335 16.077507,-7.94485 24.140967,-8.25492 4.589108,-0.17647 8.808434,0.26398 19.446875,2.03 19.468243,3.23182 23.290699,3.51341 35.586458,2.62164 7.251999,-0.52597 15.0460925,-1.82454 22.4895837,-3.747 2.6481378,-0.68394 5.0259297,-1.13172 6.35,-1.19582 1.1641666,-0.0564 2.0571353,-0.0437 1.9843753,0.0281 -0.2952753,0.29147 -10.24213494,2.88955 -14.816667,3.87006 -9.259258,1.98464 -17.766284,2.95811 -25.974283,2.97227 -7.085561,0.0122 -10.094135,-0.31106 -23.899675,-2.56808 -11.923861,-1.94939 -15.684871,-2.33881 -20.769792,-2.15055 -6.195987,0.22939 -10.655953,1.35337 -16.68586,4.20508 -2.739549,1.2956 -8.79308,4.57272 -10.43937,5.6514 l -0.65602,0.42985 z m 181.035592,-1.97789 c -4.495811,-0.74895 -9.029354,-3.27948 -14.834976,-8.28059 l -1.410668,-1.21518 h 0.965176 c 0.807923,0 1.511107,0.40991 4.315933,2.51588 5.99009,4.49761 10.006135,5.95937 16.590225,6.03854 2.037291,0.0245 5.519869,-0.0536 7.739062,-0.17355 3.863716,-0.20883 4.034896,-0.19676 4.034896,0.28443 0,0.45918 -0.359325,0.52935 -4.167188,0.81376 -4.729911,0.35329 -11.163302,0.36141 -13.23246,0.0167 z m -181.037852,-2.46829 c 0,-0.85887 0.1301,-0.99023 2.3151,-2.33745 1.273311,-0.78508 3.635905,-2.16151 5.250211,-3.05873 l 2.935103,-1.6313 2.356564,0.008 2.356564,0.008 -2.399112,1.01362 c -2.540585,1.07339 -7.080971,3.50238 -10.52028,5.62808 -1.13932,0.70417 -2.12158,1.2803 -2.18282,1.2803 -0.0612,0 -0.11133,-0.40951 -0.11133,-0.91002 z m 182.033333,-0.65662 c -3.152118,-0.67242 -5.730523,-1.84284 -9.260416,-4.20362 l -3.042709,-2.03495 1.088626,-0.0796 c 0.94855,-0.0694 1.408147,0.12713 3.571875,1.52704 2.581669,1.67032 5.325684,2.86654 8.373586,3.65039 1.479629,0.38052 2.962939,0.45559 8.727893,0.44174 6.379762,-0.0153 6.945312,0.0201 6.945312,0.43523 0,0.61205 -0.960022,0.6966 -8.202083,0.72236 -4.805471,0.0171 -6.386685,-0.0713 -8.202084,-0.45858 z m 2.588951,-2.66097 c -3.136302,-0.66132 -4.726816,-1.20997 -7.219159,-2.49028 l -2.116667,-1.08732 1.142294,-0.0822 c 0.841563,-0.0606 1.712269,0.15892 3.307292,0.83373 4.093244,1.73174 7.58032,2.28602 14.401977,2.2892 4.12242,0.002 4.299479,0.0238 4.299479,0.53118 0,0.51351 -0.170183,0.52861 -5.754687,0.51055 -4.517134,-0.0146 -6.250562,-0.12318 -8.060529,-0.50483 z m -184.617534,-1.1302 c 0.004,-0.73901 0.19234,-0.98257 1.33907,-1.73252 1.16859,-0.76423 1.51668,-0.86282 2.802529,-0.79375 l 1.46821,0.0789 -2.656919,1.65365 c -1.46131,0.9095 -2.72459,1.65364 -2.80728,1.65364 -0.0827,0 -0.14822,-0.38695 -0.14561,-0.85989 z m 67.993167,0.57509 c -4.219131,-0.28874 -6.504946,-0.58844 -14.419792,-1.89067 l -6.879167,-1.13182 4.604761,-0.0726 c 3.515709,-0.0554 5.424257,0.0499 8.069792,0.44523 6.948657,1.03836 9.453165,1.2062 17.884822,1.19862 8.382776,-0.008 12.683496,-0.31304 18.5208337,-1.31562 1.2369271,-0.21244 3.4991146,-0.37347 5.0270833,-0.35785 l 2.778125,0.0284 -1.45520833,0.35708 c -0.80036457,0.19639 -3.18161457,0.65687 -5.29166667,1.02328 -9.727348,1.68918 -20.160001,2.3099 -28.839583,1.71591 z m 119.85625,-1.85491 c -1.991165,-0.25533 -5.291667,-1.02583 -5.291667,-1.23534 0,-0.0787 1.696641,-0.0513 3.770312,0.0609 2.073672,0.11219 5.614454,0.27869 7.868399,0.36999 3.615283,0.14645 4.108516,0.22056 4.18659,0.62903 0.08165,0.42719 -0.255987,0.46042 -4.362673,0.42947 -2.448142,-0.0184 -5.225076,-0.13279 -6.170961,-0.25408 z"
       style="fill:#000e0f;stroke-width:0.0" />
  </g>
</svg>
