<?xml version="1.0" encoding="UTF-8" standalone="no"?>
<svg
   xmlns:dc="http://purl.org/dc/elements/1.1/"
   xmlns:cc="http://creativecommons.org/ns#"
   xmlns:rdf="http://www.w3.org/1999/02/22-rdf-syntax-ns#"
   xmlns:svg="http://www.w3.org/2000/svg"
   xmlns="http://www.w3.org/2000/svg"
   id="svg1962"
   version="1.1"
   viewBox="0 0 198.50909 66.250969"
   height="66.250969mm"
   width="198.50909mm"
   preserveAspectRatio="none">
  <defs
     id="defs1956" />
  <metadata
     id="metadata1959">
    <rdf:RDF>
      <cc:Work
         rdf:about="">
        <dc:format>image/svg+xml</dc:format>
        <dc:type
           rdf:resource="http://purl.org/dc/dcmitype/StillImage" />
        <dc:title></dc:title>
      </cc:Work>
    </rdf:RDF>
  </metadata>
  <g
     transform="translate(62.529529,-177.18411)"
     id="layer1">
    <path
       id="path2520"
       d="m -62.496002,241.53434 c 0,-2.17656 -0.722736,-1.97913 5.820833,-1.59002 5.609054,0.33353 9.704274,0.70725 14.816667,1.35214 3.796052,0.47883 11.693377,1.73218 12.303125,1.95256 0.145521,0.0526 -7.206589,0.10503 -16.338021,0.11652 l -16.602604,0.0209 z m 44.053125,1.01771 c -8.420431,-2.78395 -18.573789,-4.83228 -29.236458,-5.89816 -4.247574,-0.42461 -11.727348,-0.9378 -13.692188,-0.93944 l -1.124479,-9.4e-4 v -1.98438 c 0,-1.88184 0.03076,-1.98431 0.595313,-1.98314 1.293144,0.003 9.490386,0.54287 12.236979,0.80641 7.519017,0.72148 16.022722,2.13958 22.019307,3.672 4.719725,1.20611 12.85195,4.12559 17.357379,6.23131 l 1.8983137,0.88723 -3.8364587,-0.002 c -3.543189,-0.002 -4.018489,-0.062 -6.217708,-0.78908 z m 11.90625,-1.42406 c -14.544066,-7.66819 -26.243759,-10.93927 -45.376042,-12.68655 -2.401093,-0.21929 -5.496718,-0.40081 -6.879166,-0.40339 -3.731989,-0.007 -3.704167,0.008 -3.704167,-2.01269 v -1.68893 h 3.534807 c 8.317372,0 23.086306,2.15805 31.654776,4.62544 5.518182,1.58902 12.015706,4.32874 18.3169458,7.72344 3.1644537,1.7048 10.4510813,6.02002 10.9062837,6.45882 0.1528604,0.14735 -0.6247183,0.23711 -1.98437503,0.22906 l -2.23572917,-0.0132 z m 8.0697917,-1.0736 c -13.2624277,-8.9353 -22.4281257,-13.29121 -33.6020837,-15.96904 -8.087288,-1.93812 -22.140465,-3.71767 -29.358524,-3.71767 h -1.068559 v -1.55746 -1.55746 l 1.124479,-0.16789 c 1.462698,-0.21839 9.765152,0.2417 13.824479,0.7661 7.347983,0.94924 16.734081,2.95269 21.960417,4.68743 7.252057,2.40711 12.98593,5.29683 21.2989583,10.73407 3.271147,2.13954 13.3727905,9.20384 14.1419792,9.8898 0.1400784,0.12492 -0.5627185,0.21657 -1.5875,0.20702 l -1.8388542,-0.0171 z m 4.6152329,-2.24974 C -12.136504,223.99229 -20.634037,219.7137 -36.604324,216.27822 c -8.122865,-1.74736 -14.800746,-2.56917 -21.296641,-2.62086 l -4.594683,-0.0366 -1.77e-4,-1.5003 -1.77e-4,-1.50029 1.759779,-0.18846 c 5.207593,-0.55768 16.692416,0.80396 26.021471,3.08512 15.941932,3.89814 24.05684,8.30093 43.1482077,23.41026 2.5582323,2.02465 5.4690273,4.30625 6.4684353,5.07023 l 1.817103,1.38907 h -1.590696 -1.590694 z m 10.7306004,3.3827 c -1.527969,-1.20014 -4.92125,-3.96655 -7.540625,-6.14758 -17.5541993,-14.61655 -26.29639,-19.70636 -40.878125,-23.79975 -10.285232,-2.88728 -16.7933,-3.88865 -25.598391,-3.93874 l -5.357767,-0.0305 -4.6e-5,-1.36052 -4.6e-5,-1.36052 2.651126,-0.18976 c 11.840169,-0.84744 30.657111,3.40811 43.46018,9.82875 7.6243493,3.82355 14.7307798,8.9627 27.590062,19.95226 3.500699,2.9917 7.37023,6.19502 8.598958,7.11847 1.228728,0.92345 2.347158,1.77979 2.485403,1.90298 0.140822,0.12548 -0.382746,0.22023 -1.190625,0.21546 -1.400511,-0.008 -1.521873,-0.0712 -4.220104,-2.19057 z m 6.085417,0.31351 c -3.068111,-2.29109 -5.749621,-4.53763 -10.962815,-9.18454 -10.2952894,-9.17696 -18.0335793,-15.03814 -25.475017,-19.29546 -8.868482,-5.07374 -21.253,-9.15674 -33.147585,-10.9283 -2.994417,-0.44598 -5.157592,-0.57733 -9.855729,-0.59843 l -6.019271,-0.0271 v -1.26533 -1.26533 h 5.762588 c 9.447911,0 16.320854,1.1187 26.119704,4.25146 15.140511,4.84052 25.977294,11.67274 42.986756,27.10167 7.897246,7.16343 10.441728,9.29085 13.766369,11.50993 2.394198,1.59805 2.38897,1.58744 0.78052,1.58264 -1.371922,-0.004 -1.564094,-0.0955 -3.95552,-1.88126 z m 6.743004,0.68443 c -3.696909,-2.10678 -8.102926,-5.67168 -15.343018,-12.41401 -15.09857003,-14.06053 -25.126175,-21.107 -37.437486,-26.30761 -4.859584,-2.05282 -9.575525,-3.60632 -14.94745,-4.92394 -7.066294,-1.7332 -9.326831,-2.01583 -17.397863,-2.17523 l -7.077604,-0.13978 v -1.19302 -1.19303 l 6.945313,0.14687 c 5.194001,0.10984 7.812628,0.28647 10.384895,0.70046 9.301816,1.49709 18.418331,4.51846 27.656388,9.1658 10.4752486,5.26973 19.2592803,11.84489 32.668612,24.45362 8.95753,8.42272 12.353317,11.12796 17.111798,13.63201 l 2.731952,1.43764 -1.593905,0.006 c -1.410534,0.005 -1.836396,-0.13251 -3.701632,-1.19546 z m 6.873634,0.18917 c -6.532547,-2.72077 -9.526815,-5.01373 -21.97037,-16.82454 -19.5846782,-18.58882 -35.301693,-27.79085 -55.146268,-32.28718 -5.318869,-1.20513 -10.798278,-1.75659 -17.528646,-1.76411 l -4.431771,-0.005 v -1.21464 -1.21464 l 4.960938,0.17837 c 10.31545,0.3709 16.869503,1.47815 25.597283,4.32442 10.742848,3.50342 20.48318,8.71798 30.95740397,16.57328 6.12597203,4.59427 9.86335183,7.85331 18.57568403,16.19823 10.75694,10.3033 13.606031,12.36749 21.745602,15.75488 l 3.070381,1.27779 -1.719792,-5.3e-4 c -1.387634,-5.3e-4 -2.181521,-0.19291 -4.110445,-0.9963 z m 7.775435,0.47862 C 43.82562,242.5726 41.92062,241.73932 40.123154,241.00134 34.520004,238.70087 29.936553,235.81228 25.550598,231.8174 24.492,230.8532 20.782213,227.33972 17.306631,224.00969 7.4659379,214.58109 0.95091197,209.21922 -7.3356396,203.72904 -19.379047,195.7498 -32.112244,190.49003 -44.504335,188.37556 c -4.684256,-0.79928 -10.551305,-1.34539 -14.454001,-1.34539 h -3.537666 v -1.09973 -1.09974 l 4.299479,0.167 c 20.480737,0.79552 39.04393,7.78869 57.61302097,21.70412 6.09437553,4.56705 10.95554903,8.79192 18.91770803,16.44149 8.249703,7.92582 11.305606,10.60463 14.413061,12.63451 1.968815,1.28609 2.949562,1.78917 9.849694,5.05247 1.993889,0.94297 3.895617,1.90387 4.22606,2.13532 0.591844,0.41454 0.585129,0.42064 -0.450255,0.40912 -0.578083,-0.006 -1.485408,-0.24117 -2.016278,-0.52165 z m 2.949593,-0.93862 c -1.236927,-0.78284 -3.856302,-2.16155 -5.820833,-3.06381 C 33.086809,234.99348 30.435282,233.02213 20.094215,222.94693 11.408867,214.48487 6.4737134,210.1959 -0.58350203,204.97664 -16.639646,193.10208 -31.70064,186.53813 -49.029757,183.86256 c -3.252132,-0.50212 -9.27809,-1.06572 -11.394602,-1.06572 h -2.10517 l 0.08291,-0.8599 c 0.08239,-0.85453 0.09281,-0.86042 1.67041,-0.9441 3.939863,-0.20899 13.812155,1.2966 21.695833,3.30876 13.006033,3.31954 25.970725,9.83289 39.29062497,19.73926 7.51771213,5.59113 10.84977103,8.47575 19.31776403,16.72369 11.407695,11.11125 13.258876,12.52658 21.824944,16.68633 3.989425,1.93729 7.464931,3.95745 9.362245,5.44187 l 0.630994,0.49368 -0.895578,-0.0243 c -0.599514,-0.0163 -1.639049,-0.49484 -3.144536,-1.44765 z m 4.7625,0.64886 c -1.985795,-1.71894 -5.785675,-4.0351 -10.13696,-6.17881 -8.123039,-4.0019 -10.279025,-5.65618 -21.76694,-16.70162 C 9.5401839,209.46761 3.5985419,204.56024 -5.4991164,198.48647 -19.183607,189.35043 -30.027873,184.60681 -44.636627,181.36649 c -6.490597,-1.43966 -10.241628,-2.01844 -14.221354,-2.19433 l -3.638021,-0.1608 v -0.79423 -0.79422 l 3.902604,0.16401 c 4.521259,0.19001 6.77975,0.55004 13.692188,2.18271 14.969667,3.53574 26.380048,8.62543 40.1938407,17.92881 9.1433544,6.15791 15.2880483,11.22663 25.2639803,20.84012 3.926089,3.78345 8.18733,7.77893 9.469427,8.87885 3.359303,2.88197 7.241453,5.39053 12.101563,7.81976 2.33884,1.16902 5.250468,2.77408 6.470282,3.56678 2.049542,1.3319 5.851948,4.24285 5.851948,4.47999 0,0.0564 -0.327422,0.0976 -0.727604,0.0917 -0.418081,-0.006 -1.121542,-0.35175 -1.653646,-0.81235 z m 2.45278,-0.611 c -3.901974,-3.40303 -6.267579,-4.9659 -11.383729,-7.52083 -8.190275,-4.0901 -11.513796,-6.63605 -22.154579,-16.97131 -12.8682933,-12.4988 -23.8312904,-20.79534 -37.176972,-28.13465 -8.842499,-4.86283 -15.843022,-7.60729 -27.516666,-10.78754 l -4.630209,-1.26141 2.435303,-0.018 c 2.19273,-0.0162 2.870685,0.11399 6.806301,1.30706 12.469716,3.78014 22.529735,8.66228 35.0433466,17.00655 8.6365927,5.75903 15.9528004,11.78875 26.0942164,21.50581 3.638021,3.48579 7.626615,7.18683 8.863542,8.22454 3.3969,2.84979 7.778144,5.69705 12.111865,7.87118 5.588061,2.80341 8.984343,5.11918 13.155843,8.97036 1.228368,1.13405 1.275503,1.22209 0.659511,1.23184 -0.433782,0.007 -1.232569,-0.48588 -2.307773,-1.4236 z m 3.223313,0.34309 c -3.15164,-3.28764 -8.639902,-7.25501 -13.216718,-9.55414 -8.387918,-4.21361 -11.455185,-6.5052 -21.166666,-15.81391 -10.768645,-10.32202 -17.6089895,-15.96017 -26.8605136,-22.13977 -4.8619833,-3.24758 -5.9513258,-3.92763 -10.2032624,-6.36961 -7.399488,-4.2497 -13.418031,-7.02497 -21.144558,-9.7502 l -3.96875,-1.39982 1.595804,-0.0137 c 1.315621,-0.0113 2.244705,0.23632 5.291666,1.41024 11.494299,4.42849 21.887365,10.23257 34.0598836,19.02099 7.3865184,5.33298 11.7059864,8.99779 21.1893444,17.9779 9.384405,8.88641 13.305816,11.92331 19.237044,14.89793 6.175291,3.09702 10.422496,6.03688 15.066883,10.42908 2.198852,2.07945 2.429169,2.37824 1.839635,2.38653 -0.451665,0.006 -1.018823,-0.35032 -1.719792,-1.08154 z m 1.160045,-1.40497 c -4.723276,-4.57639 -8.955559,-7.6893 -13.658091,-10.04576 -5.124482,-2.56789 -10.375879,-6.02574 -14.465781,-9.52517 -0.866953,-0.74179 -4.319765,-3.95126 -7.672917,-7.13216 -3.353152,-3.1809 -7.823047,-7.2296 -9.933099,-8.99711 -13.81349603,-11.57103 -29.030057,-21.09082 -42.730208,-26.73289 -2.800292,-1.15323 -2.866774,-1.19893 -1.757024,-1.20767 1.351526,-0.0106 4.651103,1.35507 10.885149,4.50544 7.97886,4.03211 17.1597082,9.8018 25.5322917,16.04572 7.0868963,5.2851 9.4889453,7.34052 19.4723963,16.66238 8.896419,8.30687 12.177946,10.79878 18.764531,14.24932 6.837114,3.58179 11.095529,6.64441 16.664114,11.98469 2.380229,2.28264 2.683389,2.66466 2.116667,2.66725 -0.478523,0.002 -1.368518,-0.68205 -3.218029,-2.47404 z m 2.027404,-0.5835 c -5.953392,-5.72408 -9.945132,-8.66194 -16.342498,-12.0278 -7.509295,-3.9509 -11.2914,-6.81343 -21.109567,-15.97705 -8.861604,-8.27083 -13.8049736,-12.35403 -21.768125,-17.98039 -8.3139412,-5.87421 -15.738843,-10.33765 -23.857188,-14.34164 -4.229971,-2.08623 -5.354291,-2.73947 -4.715023,-2.73947 2.144998,0 12.933944,5.86165 23.1042313,12.55257 10.8427256,7.13331 17.5708967,12.46511 28.0044237,22.1924 8.746892,8.15481 13.039889,11.40795 19.610464,14.86038 7.888684,4.14502 10.939566,6.47229 21.034682,16.04564 0.517379,0.49064 0.516255,0.49473 -0.132292,0.48146 -0.465066,-0.01 -1.571712,-0.89565 -3.829108,-3.0661 z m 2.600055,0.075 C 54.399915,231.8416 52.859984,230.68071 45.087579,226.47738 37.592931,222.42426 33.30911,219.2734 25.610248,212.15132 19.044822,206.07776 16.580617,203.91479 12.513373,200.65546 2.0049855,192.23445 -8.9750138,185.01824 -19.765794,179.44113 c -3.177481,-1.64225 -4.041177,-2.18953 -3.462903,-2.19426 1.615191,-0.0132 11.484665,5.56508 20.9254033,11.82716 9.4330573,6.25699 17.6082087,12.64915 25.5097307,19.94609 5.554337,5.12935 8.648433,7.79272 11.796519,10.15433 3.758049,2.81919 5.100442,3.66321 9.700004,6.09877 7.506943,3.97507 12.050249,7.41387 20.667652,15.64324 2.092264,1.99805 2.470615,2.46995 1.980342,2.46995 -0.407503,0 -1.658633,-0.98435 -3.818776,-3.00447 z m 4.279112,1.50746 C 56.2469,231.15802 53.387696,228.94385 45.775327,224.82471 37.105042,220.13313 33.991166,217.80907 22.939504,207.78104 17.374721,202.73168 14.261819,200.15983 8.4446079,195.80549 -1.0627497,188.68898 -11.28149,182.1575 -19.50121,177.94346 c -1.123768,-0.57613 -1.219309,-0.68009 -0.634664,-0.69055 2.019736,-0.0361 18.8090489,10.42897 28.9450803,18.04206 5.7933057,4.35131 8.9205937,6.94948 16.1069757,13.38179 9.211115,8.24458 13.006647,11.04098 20.008649,14.74159 7.054715,3.72846 11.405952,6.89039 19.317341,14.03739 2.402609,2.17047 4.894588,4.3928 5.537729,4.9385 l 1.169347,0.99219 -0.775229,-0.0119 c -0.56515,-0.009 -1.205426,-0.41114 -2.362729,-1.48508 z m 0.892897,-1.77635 c -2.091822,-1.80034 -5.72162,-4.92947 -8.066215,-6.95361 -2.344597,-2.02414 -5.35238,-4.45042 -6.683965,-5.39175 -2.192414,-1.54986 -3.696819,-2.42852 -10.477373,-6.11939 -5.376545,-2.92663 -11.198063,-7.3057 -18.842005,-14.17337 -6.053543,-5.43878 -9.432796,-8.23951 -14.7670893,-12.23899 -7.6386346,-5.7272 -15.63633,-11.00269 -23.9088587,-15.77089 -2.238589,-1.2903 -3.615997,-2.22448 -3.279907,-2.22448 0.807291,0 7.150071,3.65361 13.9575908,8.03995 10.3459386,6.66627 19.0809012,13.35915 28.8666372,22.11811 7.707939,6.89918 13.0908,10.79795 19.818704,14.35457 7.255645,3.83559 10.784814,6.32741 18.647863,13.16654 2.25865,1.96453 5.356717,4.57322 6.884596,5.7971 1.527876,1.22387 2.891067,2.3252 3.029312,2.44739 0.14274,0.12617 -0.100245,0.22218 -0.562311,0.22218 -0.659707,0 -1.533316,-0.61938 -4.616979,-3.27336 z m 4.927936,1.45523 c -1.309687,-0.98512 -5.70657,-4.5539 -9.770853,-7.93062 -8.424112,-6.99899 -11.121724,-8.91933 -16.694182,-11.884 -8.782071,-4.67225 -13.276408,-7.84776 -21.852544,-15.44009 -11.792,-10.4393 -23.2774354,-18.81674 -36.416022,-26.56173 -2.219624,-1.30844 -3.853881,-2.41802 -3.631681,-2.46575 0.8465,-0.1818 13.3093059,7.59383 21.1497965,13.1955 7.1464465,5.1058 12.2793235,9.17368 18.6644435,14.79183 4.574903,4.02536 10.520363,8.71508 13.621338,10.74435 1.603316,1.04921 4.879652,2.94559 7.280746,4.21417 5.110202,2.69991 9.766805,5.74477 14.043342,9.18265 1.684721,1.35434 5.494721,4.41657 8.466667,6.80496 2.971943,2.38838 6.295168,4.92705 7.384944,5.64148 1.089774,0.71443 2.032352,1.3499 2.094616,1.41217 0.06227,0.0623 -0.353121,0.10713 -0.923075,0.0997 -0.858375,-0.0112 -1.445102,-0.321 -3.417536,-1.80463 z m 5.806837,0.79888 c -3.297587,-1.59843 -7.860874,-4.82113 -15.59642,-11.01452 -8.395298,-6.72162 -10.763327,-8.35981 -16.271875,-11.25678 -8.81371,-4.63517 -13.078881,-7.61068 -22.363232,-15.60126 -5.795669,-4.98805 -11.258791,-9.3874 -15.6044767,-12.56598 -4.2777965,-3.12893 -13.9626393,-9.54386 -18.5799835,-12.30678 -2.0671318,-1.23693 -3.5757378,-2.28906 -3.3524618,-2.33807 0.993193,-0.21802 15.8599139,9.41935 24.329483,15.77163 2.901733,2.17633 7.524906,5.8484 10.273718,8.16014 12.602538,10.59871 15.764825,12.90318 22.742239,16.57306 6.962849,3.66222 11.754001,6.78747 17.802053,11.61221 5.334056,4.25516 11.484377,8.74796 13.651037,9.97206 7.82461,4.42066 12.781928,2.99861 14.487586,-4.1559 0.512411,-2.14934 0.207933,-7.19894 -0.640114,-10.61596 -2.051318,-8.26534 -5.017154,-15.16859 -11.651465,-27.11979 -3.820083,-6.88159 -6.95385,-13.23385 -8.157956,-16.53646 -1.220832,-3.3485 -1.319347,-3.70417 -1.025996,-3.70417 0.137642,0 0.690105,1.27992 1.227699,2.84427 1.325999,3.85854 3.773543,8.84576 8.667326,17.66094 6.161183,11.09814 8.465336,15.91209 10.574467,22.09271 2.039882,5.97769 2.717057,9.41088 2.687643,13.62604 -0.01767,2.53293 -0.136115,3.49176 -0.585676,4.74136 -0.74603,2.07365 -1.689169,3.64664 -2.692834,4.49117 -0.792324,0.6667 -0.934209,0.68935 -4.318664,0.68935 h -3.499424 z m 13.289947,-0.24835 c 2.389761,-4.82883 2.105101,-10.94067 -0.927944,-19.92363 -2.299555,-6.81057 -4.973307,-12.42478 -10.887917,-22.8619 -4.933452,-8.70574 -6.318107,-11.30288 -7.66069,-14.36884 -1.475232,-3.36888 -2.989628,-7.78867 -2.627328,-7.6679 0.163565,0.0545 0.682082,1.22509 1.152257,2.60127 1.806022,5.28612 3.019994,7.72881 9.372563,18.8589 5.275583,9.24314 7.726699,13.98482 9.910623,19.17208 1.892921,4.49606 3.685831,10.109 4.266297,13.3562 0.593556,3.32042 0.45438,8.35304 -0.290758,10.51392 l -0.501804,1.4552 -1.222801,0.0793 -1.222801,0.0793 z m 4.17467,0.53999 c 0.100155,-0.40018 0.243763,-2.27541 0.319129,-4.16719 0.114038,-2.86241 0.04153,-3.90391 -0.432088,-6.20672 -1.680112,-8.16892 -6.08004,-18.18904 -13.830366,-31.4964 -6.768015,-11.62074 -8.78581,-15.5725 -10.48612,-20.53661 -0.86409,-2.52274 -0.964142,-3.01131 -0.616675,-3.01131 0.115337,0 0.359587,0.56555 0.542777,1.25677 0.590804,2.22928 2.692632,7.25744 4.396306,10.51719 0.912656,1.74625 3.719901,6.68734 6.238322,10.98021 6.792417,11.57826 10.119669,18.23873 12.921731,25.86663 2.215817,6.03199 3.161276,11.16098 2.817694,15.28563 l -0.186542,2.23941 H 97.65461 c -0.885722,0 -0.92388,-0.037 -0.751033,-0.72761 z m 3.421983,-2.11725 c -0.0482,-4.64977 -1.099839,-8.96864 -3.819316,-15.6851 -3.146134,-7.77019 -5.995654,-13.31836 -12.157382,-23.67109 -5.070795,-8.51977 -7.695637,-13.30548 -9.074272,-16.54454 -1.315749,-3.09131 -2.659562,-7.13281 -2.443525,-7.34885 0.213339,-0.21333 0.242523,-0.14486 1.432052,3.36017 1.904201,5.61086 3.775136,9.19601 11.543827,22.12072 5.920668,9.85017 9.425844,16.7524 12.697409,25.00313 1.990407,5.01973 3.029577,9.128 3.229147,12.76615 l 0.15602,2.84427 -0.76724,-5.3e-4 -0.76724,-5.3e-4 -0.0295,-2.84369 z m 2.97264,0.95623 c -0.41616,-4.47769 -1.49392,-8.16491 -4.3202,-14.78012 -3.552754,-8.3156 -6.84434,-14.54735 -12.996934,-24.60626 -5.384573,-8.80326 -8.297487,-14.12882 -9.853292,-18.01435 -1.513092,-3.77886 -2.602823,-7.50383 -1.999399,-6.83443 0.05466,0.0606 0.600028,1.59852 1.211932,3.41753 1.64019,4.87579 4.14528,9.80863 9.27126,18.25625 6.482186,10.68266 8.954719,15.00433 11.554055,20.19498 4.802998,9.59119 7.338458,16.03206 8.141968,20.68315 0.56677,3.28073 0.54962,3.57188 -0.21039,3.57188 -0.58028,0 -0.63563,-0.13084 -0.799,-1.88863 z m 2.88836,1.5579 c -0.0577,-0.1819 -0.23798,-1.14529 -0.40053,-2.14087 -0.63786,-3.90685 -2.43772,-8.62339 -6.48368,-16.99052 -3.447251,-7.12898 -6.027179,-11.74872 -11.53241,-20.65048 -7.05857,-11.41345 -9.114533,-15.23465 -11.181037,-20.78097 -1.285611,-3.45047 -1.810155,-5.31103 -1.464874,-5.19594 0.156289,0.0521 0.669615,1.34066 1.140725,2.86347 1.998458,6.4598 3.767007,9.81684 13.176967,25.01238 5.482047,8.8526 9.535961,16.3029 13.282409,24.41043 2.22537,4.81583 3.3712,7.87519 4.12926,11.0251 0.63593,2.64246 0.63475,2.77813 -0.0244,2.77813 -0.29561,0 -0.58472,-0.14883 -0.64247,-0.33073 z m 1.97853,-1.95743 c -2.04723,-7.74961 -9.987661,-23.142 -20.276852,-39.30632 -3.929912,-6.17389 -5.923473,-9.65068 -7.962056,-13.88589 -1.520222,-3.1583 -3.780517,-9.30234 -3.780517,-10.27637 0,-0.7786 0.474985,-0.364 0.649652,0.56706 0.962949,5.13296 5.077963,13.51815 11.736068,23.91467 10.050592,15.69383 18.631255,31.9093 20.720805,39.1575 0.60853,2.11084 0.60855,2.11751 0.006,2.11751 -0.39143,0 -0.60979,-0.45689 -1.09356,-2.28816 z m 2.77521,1.95743 c -0.0626,-0.1819 -0.4595,-1.34276 -0.88208,-2.57969 -2.41127,-7.05793 -10.830734,-22.41868 -21.40042,-39.04366 -4.405183,-6.92887 -6.753254,-11.12993 -8.510188,-15.22604 -1.88318,-4.39044 -3.272229,-8.96572 -2.721978,-8.96572 0.145026,0 0.38508,0.56606 0.533458,1.25792 0.537443,2.50602 1.97352,6.35964 3.739452,10.0346 2.15201,4.47839 3.644918,7.05532 8.556172,14.76894 9.359228,14.6996 18.411954,30.89743 20.658624,36.96397 0.52308,1.41247 0.95107,2.69239 0.95107,2.84427 0,0.39079 -0.78691,0.3443 -0.92411,-0.0546 z m 1.35362,-1.72266 c -2.23096,-6.00201 -10.69983,-20.92883 -21.952508,-38.69245 -5.058526,-7.98544 -7.916836,-13.2001 -9.695431,-17.68819 -1.626706,-4.1048 -2.866043,-9.08397 -1.853091,-7.44498 0.13046,0.21109 0.317754,0.86249 0.41621,1.44755 0.284782,1.6923 2.155056,6.88688 3.526028,9.79333 1.736382,3.68113 3.818877,7.24304 9.282399,15.87667 11.112483,17.5603 19.445613,32.12532 21.533333,37.63698 0.39985,1.05562 0.39771,1.1243 -0.0349,1.12161 -0.33195,-0.002 -0.67379,-0.57569 -1.22199,-2.05052 z m 2.1224,0.76571 c -1.32167,-3.67543 -9.79403,-18.22892 -20.583273,-35.35712 -6.741911,-10.70296 -7.42561,-11.84402 -9.356328,-15.61535 -2.850428,-5.56782 -5.65913,-13.88569 -4.688795,-13.88569 0.111472,0 0.47847,1.16086 0.815552,2.57969 1.580158,6.65112 4.585404,12.72271 12.081092,24.40781 4.144372,6.4607 17.480322,28.20871 19.430652,31.68711 1.52629,2.72214 3.45336,6.72848 3.45336,7.17948 0,0.16046 -0.15508,0.29175 -0.34461,0.29175 -0.18954,0 -0.55298,-0.57946 -0.80765,-1.28768 z m 1.2998,-0.76284 c -1.70021,-3.59586 -3.72685,-6.98918 -13.8663,-23.21719 -14.451638,-23.12957 -14.208861,-22.73082 -16.028385,-26.32605 -2.586741,-5.11118 -4.143333,-9.35563 -4.875858,-13.29531 -0.172919,-0.92999 -0.151257,-1.25677 0.0833,-1.25677 0.18088,0 0.451538,0.73026 0.630356,1.70074 0.502873,2.72919 1.570922,6.16014 2.847494,9.14718 2.1473,5.02443 5.244769,10.19357 22.196233,37.04167 8.94517,14.16755 11.26247,18.25625 10.34686,18.25625 -0.20029,0 -0.80045,-0.92274 -1.3337,-2.05052 z m 2.00639,0.88253 c -0.75107,-1.69793 -2.34697,-4.38171 -6.0708,-10.2091 -19.959084,-31.2338 -24.609498,-38.99223 -27.039847,-45.11146 -0.925269,-2.32968 -2.378948,-7.78367 -2.38007,-8.92969 -0.0011,-1.07398 0.478671,-0.88402 0.668174,0.26459 1.073515,6.50669 3.543157,12.72402 8.022989,20.19789 2.779009,4.63632 15.854374,25.25827 20.226714,31.90075 3.58634,5.4484 6.02511,9.4402 7.32953,11.99708 0.44085,0.86414 0.4683,1.05793 0.14984,1.05793 -0.21443,0 -0.62237,-0.5256 -0.90653,-1.16799 z m 1.6569,0.44038 c -2.156,-3.94257 -3.82253,-6.62096 -8.43716,-13.55989 -7.2268,-10.8668 -17.672741,-27.50332 -21.472362,-34.19752 -2.282928,-4.02208 -4.433853,-9.57291 -5.211651,-13.44957 -0.753081,-3.75345 -0.790784,-4.21125 -0.346832,-4.21125 0.28208,0 0.45421,0.37909 0.57064,1.25677 0.794938,5.99234 2.763454,11.66738 6.080895,17.53062 3.790418,6.69918 15.69398,25.52064 21.58494,34.12928 5.32363,7.7796 8.58236,13.22917 7.91077,13.22917 -0.15475,0 -0.4604,-0.32743 -0.67924,-0.72761 z m -0.17546,-2.64583 c -1.0936,-1.85539 -3.26836,-5.21599 -4.8328,-7.468 -6.3461,-9.13521 -13.13891,-19.65973 -20.496473,-31.75648 -4.324871,-7.11062 -7.200096,-14.00084 -8.059804,-19.31459 -0.564684,-3.49024 -0.543555,-4.23333 0.120375,-4.23333 0.477962,0 0.529167,0.17639 0.529167,1.82286 0,5.04945 2.482511,12.33707 6.734937,19.77094 4.119853,7.20213 15.430188,24.81973 21.552798,33.57183 2.99729,4.28454 6.90184,10.42335 6.90184,10.85121 0,0.62625 -0.76815,-0.39096 -2.45004,-3.24444 z m 1.83405,0.92563 c -0.79233,-1.34629 -3.32255,-5.12653 -5.62269,-8.40052 -6.76793,-9.63336 -17.189764,-25.83015 -21.031077,-32.68482 -4.73601,-8.45122 -6.861485,-14.81099 -6.861485,-20.53068 0,-2.01336 0.02066,-2.08201 0.626406,-2.08201 0.625579,0 0.626388,0.004 0.610876,3.24115 -0.01953,4.07627 0.494546,6.61158 2.318713,11.4352 2.507639,6.6309 14.368107,26.1145 23.922707,39.29865 4.47041,6.1686 8.29316,12.17084 7.75145,12.17084 -0.15086,0 -0.92256,-1.10152 -1.7149,-2.44781 z m 2.2222,1.7202 c -0.44468,-0.97806 -4.36499,-6.78285 -8.33055,-12.33501 -5.8942,-8.25245 -12.86681,-19.09381 -17.889509,-27.81551 -3.283998,-5.70251 -5.736362,-11.48678 -6.618372,-15.61042 -0.5164,-2.41432 -0.461341,-6.59841 0.108805,-8.26823 l 0.474284,-1.38906 5.33655,6.6e-4 5.336542,6.6e-4 4.44879,3.81914 c 2.44683,2.10052 5.03716,4.19669 5.75629,4.65815 1.70257,1.09254 4.65525,2.01735 7.13274,2.23405 5.15129,0.45056 9.38996,1.54771 15.00749,3.88458 l 1.91823,0.79797 v 1.28883 1.28882 l -1.22137,-0.52354 c -3.89303,-1.66875 -8.28968,-2.73048 -13.06613,-3.1553 -4.37247,-0.3889 -5.62027,-0.67876 -7.67291,-1.78244 -1.99792,-1.07426 -2.95823,-1.8192 -7.27605,-5.64426 -5.50489,-4.87666 -7.770594,-6.29341 -10.436274,-6.52581 -1.958305,-0.17073 -3.028627,0.52642 -4.09984,2.67042 -0.698619,1.39827 -0.777854,1.81571 -0.778394,4.10105 -0.0013,6.08855 2.47372,12.07549 10.513748,25.43077 4.89563,8.13215 8.5585,13.68368 13.79106,20.90209 5.95469,8.2146 8.86746,12.7 8.24724,12.7 -0.19335,0 -0.50042,-0.32743 -0.68237,-0.72761 z m 0.65178,-0.95968 c -0.54272,-0.92801 -2.99746,-4.47012 -5.45497,-7.87136 -11.36901,-15.73489 -20.574666,-30.83924 -23.65195,-38.80734 -2.770888,-7.17475 -2.475148,-12.81785 0.735799,-14.03995 0.82093,-0.31245 1.250217,-0.32354 2.416865,-0.0625 2.00438,0.44856 4.082816,1.79926 8.416116,5.46931 6.03889,5.11458 7.88106,6.49446 9.95478,7.45665 1.81454,0.84194 2.26846,0.9308 6.50455,1.27338 4.94268,0.39973 7.222,0.79637 10.79322,1.87822 l 2.3151,0.70133 v 1.39924 1.39924 l -1.25677,-0.37142 c -2.28485,-0.67527 -5.96457,-1.19548 -9.58867,-1.35558 -5.93607,-0.26223 -8.49215,-1.45059 -15.06277,-7.00285 -8.06515,-6.81518 -10.808133,-8.40806 -13.148693,-7.63561 -1.920269,0.63375 -2.79645,3.13763 -2.241872,6.40664 0.920025,5.42317 3.694684,11.49562 10.185075,22.29047 4.16464,6.92663 6.84151,10.9183 12.58162,18.76135 3.79696,5.18801 7.94875,11.26355 7.94875,11.63185 0,0.56263 -0.59126,-0.0593 -1.44618,-1.52111 z m 0.85009,-0.49553 c -0.78274,-1.20054 -3.78948,-5.45703 -6.68163,-9.45885 -7.78777,-10.7758 -11.02364,-15.81916 -15.98608,-24.91563 -4.047918,-7.42008 -5.651971,-11.73369 -5.689822,-15.30104 -0.02225,-2.09774 0.459446,-3.33097 1.514139,-3.87637 2.066414,-1.06858 5.042243,0.52241 12.620313,6.7473 7.98023,6.55524 11.58048,8.24157 17.59545,8.24157 2.2171,0 5.58919,0.31444 7.21174,0.67247 0.53667,0.11842 0.59531,0.28784 0.59531,1.71994 v 1.58857 l -4.03489,-0.16202 c -7.74793,-0.31112 -10.48828,-1.5972 -21.36511,-10.02688 -7.48999,-5.80484 -10.560587,-6.98417 -11.825322,-4.54179 -1.342967,2.59346 0.292317,8.00538 5.126932,16.96742 4.1918,7.77043 7.09134,12.26606 14.50508,22.48958 6.37006,8.78431 8.55648,12.03855 8.0883,12.03855 -0.13817,0 -0.89166,-0.98227 -1.67441,-2.18282 z m 1.08673,-0.13841 c -0.82156,-1.26994 -3.66308,-5.28555 -6.3145,-8.92357 -7.92658,-10.87609 -11.5039,-16.55965 -15.48757,-24.60625 -2.43842,-4.92535 -3.28975,-7.36145 -3.48201,-9.96389 -0.1436,-1.94386 -0.12047,-2.05563 0.56803,-2.74412 1.39898,-1.39899 3.56488,-0.54736 9.47739,3.72648 8.71518,6.29974 10.30296,7.35238 13.55739,8.98808 3.71219,1.86577 6.19021,2.61741 9.61363,2.91604 l 2.16033,0.18845 v 1.81131 1.8113 l -0.85989,-0.15718 c -4.57806,-0.83679 -11.02763,-4.25174 -20.45954,-10.833 -7.75481,-5.41104 -9.79154,-6.35092 -11.23111,-5.18275 -0.57884,0.4697 -0.65132,0.72535 -0.62577,2.20713 0.0375,2.17222 0.97299,4.85992 3.34628,9.6134 3.72714,7.46513 6.92191,12.5495 13.80273,21.96653 4.34917,5.95223 7.82522,10.98514 7.82522,11.32999 0,0.54399 -0.56273,-0.0953 -1.89061,-2.14795 z m 0.83929,-0.52304 c -1.07524,-1.56435 -4.00884,-5.71697 -6.51912,-9.22803 -9.69605,-13.56168 -14.91914,-23.38137 -14.91914,-28.04877 0,-3.30559 2.5087,-2.60706 11.24479,3.13104 8.13792,5.3452 13.27964,8.30592 17.39635,10.01724 l 2.05052,0.8524 v 1.02165 c 0,0.56191 -0.0785,1.02165 -0.17443,1.02165 -0.51055,0 -6.93694,-3.63604 -13.5839,-7.68574 -10.5957,-6.45551 -12.65038,-7.42049 -13.8755,-6.51662 -0.39614,0.29226 -0.50945,0.68361 -0.49402,1.70622 0.0282,1.86794 0.86719,4.18765 3.2606,9.01492 2.13008,4.29615 4.43829,7.87617 12.80751,19.86437 4.71328,6.75136 5.32409,7.69394 4.98591,7.69394 -0.12351,0 -1.10432,-1.27993 -2.17957,-2.84427 z m 1.44592,0.13229 c -0.99152,-1.49159 -3.53833,-5.15204 -5.65957,-8.13432 -7.58202,-10.65967 -11.2339,-17.39549 -11.84389,-21.84585 -0.12896,-0.94091 -0.0604,-1.29682 0.33375,-1.73234 1.02803,-1.13596 3.1361,-0.29416 11.35115,4.53274 3.05594,1.79557 7.34219,4.29352 9.525,5.55099 3.74422,2.15697 3.97357,2.3356 4.05392,3.15738 l 0.0852,0.87106 -1.54038,-0.86809 c -0.8472,-0.47745 -4.21928,-2.42038 -7.4935,-4.31763 -6.53874,-3.78888 -10.52769,-5.71955 -11.82121,-5.72152 -1.96653,-0.003 -2.11662,1.57928 -0.54636,5.75979 1.25923,3.35243 3.8849,7.69621 10.26756,16.98613 3.04678,4.43456 5.53959,8.15526 5.53959,8.26823 0,0.62972 -0.64035,-0.0833 -2.25123,-2.50657 z m 2.27038,1.18312 c -0.49879,-0.83262 -2.53011,-3.8951 -4.51405,-6.80552 -5.75769,-8.44647 -7.63685,-11.66905 -8.70908,-14.93523 -0.66039,-2.01164 -0.70569,-3.26417 -0.13858,-3.83129 1.13723,-1.13722 3.84693,0.0317 16.58289,7.15363 2.03369,1.13723 2.31438,1.38236 2.3151,2.02174 5.3e-4,0.40019 -0.0637,0.72761 -0.14261,0.72761 -0.0789,0 -1.59693,-0.79324 -3.37344,-1.76275 -4.37169,-2.38583 -8.24642,-4.17212 -9.92166,-4.57401 -1.2071,-0.28958 -1.47243,-0.2769 -2.04411,0.0977 -0.8677,0.56854 -0.86344,1.70964 0.0151,4.04378 0.90153,2.39514 2.00371,4.33175 5.76686,10.1328 1.7464,2.69213 3.81074,5.87706 4.58744,7.0776 1.10771,1.71222 1.312,2.1812 0.94758,2.17531 -0.27908,-0.005 -0.82668,-0.61195 -1.37147,-1.52135 z m -0.18526,-3.30324 c -1.61932,-2.65386 -3.66774,-6.07535 -4.55203,-7.60332 -1.64257,-2.83819 -2.53772,-5.41429 -2.26247,-6.51098 0.42343,-1.68711 3.4051,-0.98511 10.08947,2.37545 2.36263,1.18781 2.44739,1.26145 2.44739,2.12624 v 0.89581 l -2.02366,-0.87972 c -3.03027,-1.31732 -5.08254,-1.81591 -6.01227,-1.46069 -0.73338,0.28021 -0.75567,0.34127 -0.63885,1.74993 0.13663,1.64763 1.02855,3.54518 4.7379,10.07986 2.05731,3.62431 2.24294,4.05915 1.73155,4.05607 -0.45752,-0.003 -1.16532,-0.97452 -3.51703,-4.82865 z m 3.66898,0.40032 c -1.04074,-2.14643 -2.01314,-4.37159 -2.16088,-4.94481 -0.56484,-2.19149 0.2415,-2.85161 2.78732,-2.28188 l 1.42694,0.31933 v 5.40499 c 0,2.97274 -0.0362,5.40498 -0.0806,5.40498 -0.0443,0 -0.93208,-1.75617 -1.97282,-3.90261 z m -54.927115,-0.0708 C 75.429229,237.57146 72.218399,235.486 64.107123,229.23613 55.470528,222.58149 53.566626,221.3281 46.155318,217.41793 38.48038,213.36866 34.024747,210.21789 23.722782,201.5549 13.86714,193.26722 3.6088156,185.86859 -7.1898938,179.25967 c -1.8145046,-1.11049 -3.0715852,-2.01908 -2.7935162,-2.01908 0.5791468,0 2.6719481,1.20718 7.9446997,4.58269 8.5753601,5.48977 17.6472983,12.16254 26.3242633,19.36254 10.66091,8.84624 14.031931,11.21018 21.722353,15.23288 6.664902,3.48626 10.016249,5.6398 17.754187,11.40864 3.536746,2.63674 7.204353,5.29599 8.150238,5.90944 5.65531,3.66774 9.840622,4.69809 12.719355,3.13128 3.812476,-2.075 4.573526,-7.31532 2.357921,-16.2358 -1.715815,-6.90824 -4.040502,-12.55953 -9.333481,-22.68961 -5.281912,-10.1089 -6.545101,-12.68606 -7.942429,-16.20414 -1.34188,-3.37848 -1.674355,-4.49798 -1.335778,-4.49779 0.124917,7e-5 0.564523,0.98234 0.976905,2.18281 1.427707,4.15619 3.422811,8.32787 8.597678,17.97742 6.062083,11.30393 7.860294,15.41253 10.078862,23.02847 1.215314,4.17195 1.674855,7.30925 1.560547,10.65388 -0.08542,2.49927 -0.203335,3.13468 -0.834691,4.49792 -0.404374,0.87312 -1.055913,1.92993 -1.447869,2.34847 -1.808575,1.93121 -4.79911,2.273 -8.348356,0.95414 z m -1.22783,-3.87204 c -3.963993,-1.37128 -6.219296,-2.74248 -14.996343,-9.11765 -7.868751,-5.71543 -8.974664,-6.42047 -15.028709,-9.5811 -8.792477,-4.59029 -14.380522,-8.38323 -22.49474,-15.26856 -8.435157,-7.15766 -19.2107635,-14.96153 -30.0163812,-21.73837 -2.1365316,-1.33994 -3.0846871,-2.06552 -2.6991363,-2.06552 1.1984117,0 16.0533874,9.91023 24.1165595,16.08893 1.236927,0.94784 5.01709,3.97381 8.400362,6.72437 9.832866,7.994 13.437809,10.43075 22.06698,14.91614 6.029486,3.13409 9.348467,5.21688 17.025366,10.68409 7.981889,5.68442 11.107579,7.31166 14.617626,7.60999 6.286434,0.53431 7.947549,-5.08545 4.972412,-16.8223 -1.564491,-6.17188 -3.096027,-9.83818 -9.580078,-22.9335 -4.076539,-8.23305 -6.967252,-14.84976 -6.967252,-15.94772 0,-0.67077 0.470617,-0.28202 0.631323,0.52151 0.402629,2.01315 2.935277,7.62006 7.447965,16.4887 6.218362,12.22075 7.535799,15.2546 9.478782,21.82812 1.885165,6.37791 2.416313,12.1114 1.393945,15.04695 -1.169737,3.35869 -4.663853,4.84754 -8.368681,3.56592 z m -2.036403,-4.20145 C 73.04216,230.09516 70.871468,228.8609 63.28905,223.75528 54.703802,217.97441 52.443017,216.60657 46.38004,213.52483 39.093528,209.82119 34.892564,206.99462 25.089231,199.19954 12.656864,189.314 6.932186,185.19999 -4.9849436,177.58688 c -0.4694476,-0.2999 -0.4660292,-0.31592 0.07057,-0.33073 0.9291955,-0.0256 11.6726468,7.08986 19.6767046,13.03209 1.964532,1.45847 6.323195,4.82711 9.68592,7.48587 10.914266,8.62944 14.344475,10.92268 22.287034,14.8998 5.173149,2.59039 8.871977,4.7621 14.461421,8.49081 7.976968,5.32143 10.652575,6.83539 13.286248,7.51784 4.671275,1.21045 7.1677,-0.45293 7.653359,-5.09945 0.42427,-4.0592 -1.98995,-13.94266 -5.153187,-21.09639 -0.573868,-1.29782 -2.730005,-5.91395 -4.791411,-10.25808 -2.061408,-4.34412 -3.993475,-8.51131 -4.293483,-9.26041 -1.104559,-2.75803 -2.042377,-5.76209 -1.770544,-5.67148 0.153868,0.0513 0.615169,1.06121 1.025112,2.24426 1.099278,3.17238 2.703367,6.7334 6.889469,15.29437 4.451628,9.104 6.014665,12.80742 7.407043,17.55007 2.126871,7.24444 2.666042,12.54743 1.572815,15.46935 -1.107755,2.96074 -3.589485,3.96203 -7.325365,2.95554 z m -2.188718,-4.23637 c -2.145004,-0.59928 -4.714515,-1.92707 -9.004046,-4.65285 -2.110052,-1.34083 -5.429956,-3.44444 -7.377565,-4.67469 -1.947608,-1.23025 -6.174327,-3.56791 -9.392708,-5.1948 -9.273879,-4.68794 -12.201501,-6.60036 -22.917227,-14.97029 -9.153456,-7.14966 -13.885021,-10.60693 -21.2989583,-15.56275 -3.34697923,-2.23728 -6.1350261,-4.11508 -6.1956606,-4.17289 -0.060632,-0.0578 0.1413007,-0.10511 0.4487439,-0.10511 0.6479646,0 8.5915447,5.22817 15.668792,10.31261 4.466534,3.20885 6.316064,4.61635 14.419791,10.97353 6.739393,5.28689 11.02835,7.96981 19.690975,12.31753 3.161702,1.58683 7.644653,4.04122 9.96212,5.4542 2.317465,1.41298 5.579624,3.40133 7.249245,4.41858 7.167872,4.36713 10.800411,5.14992 12.995217,2.80038 1.898906,-2.03279 1.685102,-7.68362 -0.588463,-15.55289 -1.129387,-3.90904 -2.571845,-7.49489 -6.771428,-16.83331 -3.352017,-7.45373 -4.496176,-10.19856 -5.33791,-12.80563 -0.35106,-1.08732 -0.35096,-1.085 -0.04737,-1.085 0.133657,0 0.507188,0.80367 0.830072,1.78594 0.897745,2.73109 2.14313,5.65424 5.608,13.16302 4.075586,8.83227 4.799613,10.50418 6.042594,13.9535 1.915798,5.3164 3.009593,10.5334 3.010061,14.35692 2.65e-4,2.29017 -0.08801,2.82181 -0.656812,3.955 -0.361423,0.72004 -0.961795,1.52996 -1.334159,1.79983 -0.926872,0.67174 -3.218145,0.81791 -5.003305,0.31917 z m -3.824158,-4.93059 c -2.194356,-0.85931 -5.027081,-2.41166 -11.000721,-6.02845 -1.964532,-1.18944 -6.652358,-3.7035 -10.417392,-5.5868 -10.344645,-5.17447 -12.504312,-6.55439 -23.978442,-15.3211 -8.591322,-6.56413 -12.344447,-9.28929 -18.9316886,-13.74638 -3.9526342,-2.67446 -5.31233064,-3.72006 -4.83753849,-3.72006 1.00676869,0 13.19598809,8.36556 21.78485209,14.95111 12.547862,9.62114 15.272653,11.37992 25.258864,16.30392 4.14248,2.04257 9.486283,4.84748 11.875121,6.23312 9.799191,5.684 13.119302,6.63367 15.174381,4.34043 1.065115,-1.18855 1.358046,-2.64149 1.178481,-5.84525 -0.31378,-5.59835 -1.731524,-10.16838 -7.072942,-22.79927 -3.428061,-8.10635 -5.006613,-12.17363 -5.006613,-12.89998 0,-0.15624 0.119062,-0.28408 0.264583,-0.28408 0.145521,0 0.264584,0.17747 0.264584,0.39438 0,0.66147 1.91118,5.46014 5.164439,12.96708 5.594551,12.90951 6.748195,16.23452 7.695234,22.17898 0.785439,4.93012 0.07091,8.50857 -1.860042,9.31537 -1.450665,0.60613 -3.218691,0.46195 -5.55516,-0.45302 z m -2.534055,-4.54351 c -2.067591,-0.73433 -2.244328,-0.82393 -8.5697,-4.34438 -2.748804,-1.52987 -7.392242,-3.88354 -10.31875,-5.23036 -9.521685,-4.38203 -11.829037,-5.81943 -23.97405,-14.93501 -7.75816,-5.82297 -12.512288,-9.23083 -17.569767,-12.5944 -3.1105396,-2.06871 -3.81458,-2.64184 -3.3324324,-2.71276 0.909357,-0.13377 10.0971054,6.17528 21.7960154,14.9669 9.511255,7.14761 14.635519,10.29797 22.124934,13.60223 2.401094,1.05934 7.223125,3.379 10.715625,5.1548 8.638022,4.39208 10.75885,5.03141 12.721178,3.83478 1.375775,-0.83894 1.83121,-2.14905 1.804093,-5.18962 -0.04178,-4.68404 -0.901586,-7.84604 -4.928256,-18.12396 -2.293382,-5.85377 -5.23139,-13.8114 -5.23139,-14.1693 0,-0.065 0.109355,-0.1182 0.243012,-0.1182 0.133657,0 0.50659,0.80367 0.828744,1.78594 0.322151,0.98226 2.284526,6.01265 4.360833,11.17864 2.076308,5.16599 4.149014,10.57017 4.606015,12.00928 0.932995,2.93802 1.867646,7.97334 1.867646,10.0617 0,2.02458 -0.654383,3.95847 -1.612154,4.76438 -1.065524,0.89658 -3.112444,0.91854 -5.531596,0.0593 z m -1.875335,-4.68323 c -1.431202,-0.33915 -3.126382,-1.05827 -7.781956,-3.30121 -2.328334,-1.12173 -6.655951,-3.09086 -9.616927,-4.37583 -2.960976,-1.28498 -6.53156,-2.96754 -7.934629,-3.73902 -3.648964,-2.0064 -9.552858,-6.00273 -16.658143,-11.27585 -4.936403,-3.66351 -14.5301814,-10.45036 -17.157867,-12.13785 -0.4500774,-0.28904 -0.4331573,-0.31646 0.2040731,-0.33073 0.7825608,-0.0175 7.4454549,4.47006 17.0322429,11.47152 7.664487,5.59757 13.153281,9.25189 16.405145,10.92219 3.210732,1.64917 19.883694,8.87158 22.533624,9.76113 3.33299,1.11885 5.176424,0.73869 6.206214,-1.27986 0.468334,-0.91801 0.565264,-1.55808 0.552948,-3.65128 -0.02321,-3.94561 -0.889865,-7.17349 -4.898171,-18.24343 -1.23825,-3.41974 -2.437698,-6.85142 -2.665439,-7.62596 -0.613357,-2.08601 0.03421,-1.59157 0.820087,0.62616 0.358696,1.01224 1.937409,5.29324 3.508253,9.51335 4.173361,11.21182 5.230162,15.29766 4.976879,19.24176 -0.254619,3.96492 -1.901822,5.28383 -5.526334,4.42491 z m -4.739248,-5.72701 c -3.311356,-1.13221 -16.606875,-6.38264 -18.917708,-7.47064 -4.718169,-2.22145 -8.523881,-4.66778 -19.711459,-12.67065 -3.128698,-2.23806 -7.399435,-5.21812 -9.490527,-6.62233 -2.8139312,-1.88963 -3.6566529,-2.57505 -3.2427467,-2.63747 0.5930821,-0.0894 4.8314237,2.69704 15.6436907,10.28487 8.811075,6.18343 13.95757,9.18961 19.446875,11.35933 1.018646,0.40263 4.916268,1.77021 8.661384,3.03906 7.590668,2.57174 9.300665,2.86528 10.705989,1.83783 1.287328,-0.94119 1.720625,-2.20345 1.698257,-4.94727 -0.02332,-2.85995 -0.802886,-6.13673 -3.570327,-15.00719 -0.976106,-3.12869 -1.837309,-5.8969 -1.913787,-6.15156 -0.09105,-0.30318 0.0041,-0.46302 0.275654,-0.46302 0.228089,0 0.41666,0.20836 0.419049,0.46302 0.0024,0.25466 1.137693,3.79677 2.522895,7.87136 3.347477,9.84662 3.847981,11.76346 4.015174,15.37729 0.15703,3.39422 -0.106251,4.52116 -1.288709,5.51613 -0.672608,0.56596 -1.050255,0.66687 -2.429735,0.64923 -0.898339,-0.0115 -2.169125,-0.20408 -2.823969,-0.42799 z m -7.805208,-6.829 c -8.798103,-2.55857 -12.672312,-4.0231 -16.911699,-6.39298 -3.354583,-1.87526 -24.53005,-16.08513 -24.107825,-16.17764 0.533286,-0.11685 0.741029,0.008 9.137232,5.50921 12.608549,8.26055 16.259403,10.30361 21.954027,12.28578 2.920008,1.01639 12.902496,3.32226 14.382607,3.32226 3.286686,0 4.761759,-2.55774 4.147741,-7.19206 -0.228156,-1.72201 -2.346749,-11.02271 -3.077784,-13.51159 -0.08764,-0.29837 0.0078,-0.46302 0.268507,-0.46302 0.252632,0 0.516686,0.42219 0.703289,1.12448 0.16433,0.61846 0.995193,3.58145 1.846363,6.58441 2.320652,8.18736 2.745004,10.953 2.083615,13.57962 -0.163097,0.64771 -0.629174,1.47529 -1.067203,1.89495 -0.670541,0.64242 -1.02241,0.75561 -2.554718,0.82177 -1.509073,0.0652 -2.535193,-0.14374 -6.804152,-1.38519 z m -3.590804,-5.27702 c -7.64759,-1.36069 -11.943659,-2.89363 -17.909463,-6.39053 -3.409344,-1.99841 -17.261192,-10.69792 -17.261192,-10.84071 0,-0.51587 1.685399,0.33891 5.843519,2.96365 13.951908,8.8069 19.056541,10.88465 28.871008,11.75146 5.463527,0.48253 7.459125,-0.2381 8.275913,-2.98852 0.533,-1.79481 0.502266,-3.60682 -0.130742,-7.708 -0.637997,-4.13351 -0.639177,-4.19098 -0.08386,-4.08362 0.346408,0.067 0.663061,1.11983 1.458079,4.84804 1.627499,7.63213 1.46259,10.86478 -0.632336,12.39529 -1.104342,0.80681 -4.088588,0.82555 -8.430927,0.0529 z m 84.028514,-5.71156 c -4.54478,-2.21863 -8.48282,-3.33666 -16.33015,-4.6362 -3.42313,-0.56688 -5.49003,-1.59878 -9.0291,-4.50779 l -2.86529,-2.35518 1.44883,-0.0785 c 1.32472,-0.0718 1.60416,0.0213 3.26216,1.08686 2.4234,1.55748 4.28696,2.21013 8.55566,2.99634 6.21104,1.14395 8.89707,2.01421 14.3582,4.65197 l 3.37343,1.6294 v 1.27313 c 0,0.70022 -0.0298,1.2633 -0.0661,1.2513 -0.0364,-0.012 -1.2548,-0.60208 -2.7076,-1.3113 z m -90.359585,0.26491 c -4.99245,-0.61001 -8.406464,-1.75408 -14.398631,-4.82515 -5.320792,-2.72698 -12.219635,-6.91816 -11.557942,-7.02166 0.300623,-0.047 1.9909,0.79072 3.916178,1.94097 5.417693,3.23676 11.063372,5.82304 15.028936,6.88473 2.468957,0.661 7.964546,0.79771 10.980209,0.27314 5.032478,-0.8754 6.183323,-2.10203 6.535237,-6.96559 0.156255,-2.15947 0.165627,-2.18281 0.876565,-2.18281 h 0.718619 l 0.188087,3.30148 c 0.238752,4.1908 -0.07223,5.8971 -1.298218,7.12309 -0.536483,0.53648 -1.351095,0.9945 -2.107565,1.18498 -1.69172,0.42598 -6.477596,0.58053 -8.881475,0.28682 z m 91.413535,-4.93423 c -4.32135,-2.60092 -9.63829,-4.57604 -16.01188,-5.94804 l -4.09645,-0.88181 5.41954,-0.0718 c 5.04903,-0.0669 5.51933,-0.0322 6.87917,0.50731 1.9781,0.78484 4.71862,2.13614 7.34574,3.62206 l 2.18195,1.23412 7.9e-4,1.25677 c 5.3e-4,0.69122 -0.0289,1.2523 -0.0653,1.24683 -0.0364,-0.005 -0.78053,-0.4399 -1.65365,-0.96542 z M 33.68004,183.9962 c -3.063822,-0.6679 -8.4224,-3.00886 -12.964584,-5.66372 -2.951861,-1.72534 -1.164084,-1.32217 2.589536,0.58397 1.815078,0.92172 4.475276,2.08005 5.911553,2.57407 2.464385,0.84764 2.812513,0.89826 6.183286,0.89903 3.511757,7.9e-4 3.616407,-0.0164 6.217709,-1.01919 3.610088,-1.39173 4.869106,-2.0659 5.938882,-3.1801 0.820664,-0.85475 1.051396,-0.94967 2.30849,-0.94967 h 1.39669 l -0.16387,0.8599 c -0.253243,1.32885 -1.024207,2.68267 -2.031235,3.56686 -0.981215,0.86151 -4.006051,1.97298 -6.637655,2.43898 -2.115023,0.37453 -6.795855,0.31561 -8.748802,-0.11013 z m -2.734757,-3.34806 c -1.797249,-0.29884 -4.683067,-1.27428 -7.054827,-2.38462 -2.626196,-1.22945 -1.453504,-1.30692 2.029669,-0.13408 1.503059,0.5061 3.341971,0.99838 4.086477,1.09396 1.820775,0.23374 4.127785,-0.22225 6.063093,-1.19841 1.505702,-0.75946 1.744975,-0.80064 4.233334,-0.72853 l 2.637427,0.0764 -2.778125,1.39004 c -2.62211,1.31198 -5.603248,2.20765 -7.14375,2.14631 -0.363802,-0.0145 -1.296786,-0.13197 -2.073298,-0.26109 z m 102.638297,-1.91249 -2.22563,-1.36277 1.93911,-0.0786 c 2.3263,-0.0943 2.71715,0.16659 2.59543,1.73258 l -0.0833,1.07158 z M 27.726915,177.50517 c -0.619911,-0.13048 -0.0076,-0.19609 1.852083,-0.19845 1.788306,-0.002 2.49532,0.0684 1.984375,0.19845 -0.996831,0.25365 -2.631416,0.25365 -3.836458,0 z"
       style="fill:#000e0f;stroke-width:0.0" />
  </g>
</svg>
