<?xml version="1.0" encoding="UTF-8" standalone="no"?>
<svg
   xmlns:dc="http://purl.org/dc/elements/1.1/"
   xmlns:cc="http://creativecommons.org/ns#"
   xmlns:rdf="http://www.w3.org/1999/02/22-rdf-syntax-ns#"
   xmlns:svg="http://www.w3.org/2000/svg"
   xmlns="http://www.w3.org/2000/svg"
   id="svg834"
   version="1.1"
   viewBox="0 0 224.67574 132.34685"
   height="132.34685mm"
   width="224.67574mm"
   preserveAspectRatio="none">
  <defs
     id="defs828" />
  <metadata
     id="metadata831">
    <rdf:RDF>
      <cc:Work
         rdf:about="">
        <dc:format>image/svg+xml</dc:format>
        <dc:type
           rdf:resource="http://purl.org/dc/dcmitype/StillImage" />
        <dc:title></dc:title>
      </cc:Work>
    </rdf:RDF>
  </metadata>
  <g
     transform="translate(-126.14208,-200.01273)"
     id="layer1">
    <path
       id="path1390"
       d="m 126.14212,330.43424 v -1.88851 l 1.52136,0.17621 c 0.83674,0.0969 2.35479,0.39592 3.37343,0.66445 1.61578,0.42595 5.21145,1.11112 7.67292,1.46211 0.71817,0.10241 5.26291,0.57853 11.24479,1.17803 1.54652,0.155 -1.82109,0.23646 -10.78177,0.26081 l -13.03073,0.0354 z m 123.16354,1.60747 c 0.87313,-0.11749 3.90922,-0.4074 6.74688,-0.64426 7.6015,-0.63449 12.599,-1.2462 17.33021,-2.12128 11.63791,-2.15254 17.35355,-3.36415 29.36875,-6.22566 3.78354,-0.90107 7.29588,-1.73009 7.8052,-1.84225 0.50933,-0.11216 2.47386,-0.56431 4.36563,-1.00478 7.85478,-1.82883 23.59573,-5.21634 27.25208,-5.86474 1.64872,-0.29238 5.06846,-0.99458 7.07761,-1.4533 l 1.52135,-0.34735 v 1.14909 c 0,1.12125 -0.024,1.15321 -0.99219,1.31898 -0.5457,0.0934 -3.01625,0.58125 -5.4901,1.08403 -2.47386,0.50277 -5.09323,1.0205 -5.82083,1.1505 -1.96781,0.35158 -8.92903,1.7868 -11.57553,2.38657 -1.2733,0.28856 -3.41643,0.76966 -4.7625,1.06912 -1.34606,0.29945 -2.92364,0.654 -3.50572,0.78787 -0.58209,0.13388 -2.42756,0.55086 -4.10105,0.92664 -1.67349,0.37577 -3.9952,0.9099 -5.15937,1.18697 -1.16417,0.27706 -4.02167,0.92955 -6.35,1.44998 -2.32833,0.52042 -4.88818,1.11498 -5.68854,1.32124 -0.80037,0.20626 -2.28865,0.55144 -3.30729,0.76707 -1.01865,0.21563 -2.98318,0.64176 -4.36563,0.94695 -3.73604,0.82475 -12.86635,2.63216 -14.68437,2.90686 -0.87313,0.13193 -3.17927,0.48578 -5.12476,0.78633 -3.11468,0.48118 -4.64768,0.54243 -12.83229,0.51275 -5.99709,-0.0217 -8.73178,-0.10951 -7.70754,-0.24733 z m 30.82396,-0.0193 c 0.65484,-0.134 2.44078,-0.47935 3.96875,-0.76744 1.52797,-0.28809 3.61156,-0.70856 4.63021,-0.93439 4.59221,-1.01804 6.48552,-1.43543 8.33437,-1.83736 2.91915,-0.6346 10.28753,-2.35902 12.43542,-2.91025 0.80037,-0.20541 1.87193,-0.44224 2.38125,-0.52629 0.50932,-0.0841 1.58089,-0.32482 2.38125,-0.53502 1.90668,-0.50077 9.09763,-2.22275 10.45104,-2.50267 0.58209,-0.12038 2.15966,-0.46842 3.50573,-0.77341 6.14796,-1.393 12.35379,-2.69123 14.61823,-3.05806 1.18061,-0.19125 4.82407,-0.90022 6.26873,-1.21981 1.60173,-0.35434 1.71318,-0.32297 1.6202,0.45598 -0.0791,0.6628 -0.22203,0.72848 -2.59726,1.1936 -3.35121,0.65623 -12.16874,2.51922 -14.15521,2.99075 -0.87313,0.20725 -1.95194,0.44063 -2.39737,0.51862 -0.83142,0.14559 -8.5222,1.93194 -14.40367,3.34557 -1.81901,0.43721 -4.0812,0.97829 -5.02709,1.2024 -0.94588,0.22411 -2.37463,0.57181 -3.175,0.77267 -0.80036,0.20086 -1.75286,0.42245 -2.11666,0.49243 -1.14075,0.21944 -5.28543,1.16111 -8.86354,2.01379 -9.4586,2.25403 -10.25913,2.38117 -14.80207,2.35086 -3.32969,-0.0222 -3.99056,-0.081 -3.05731,-0.27197 z m 18.91771,0.0101 c 0.43656,-0.12989 3.77031,-0.95737 7.40833,-1.83884 3.63802,-0.88147 8.99584,-2.18339 11.90625,-2.89316 13.79577,-3.3644 16.34733,-3.97998 19.18229,-4.62787 1.67349,-0.38245 3.81662,-0.86224 4.7625,-1.0662 0.94589,-0.20396 2.79136,-0.60345 4.10105,-0.88777 4.48834,-0.97434 4.36562,-0.97266 4.36562,-0.0598 0,0.88292 0.32096,0.74857 -4.36562,1.82739 -1.30969,0.30148 -4.16719,0.98201 -6.35,1.51231 -2.18282,0.53029 -4.14735,1.00384 -4.36563,1.05234 -0.90476,0.20104 -5.00759,1.23537 -10.98021,2.76814 -3.4925,0.8963 -8.90862,2.27629 -12.03584,3.06665 l -5.68584,1.43703 -4.36832,-0.027 c -3.01649,-0.0187 -4.12269,-0.1001 -3.57458,-0.26318 z m 18.93975,0.19207 c 0.0606,-0.054 1.539,-0.47217 3.28525,-0.92934 1.74625,-0.45717 3.77031,-0.99722 4.49792,-1.2001 2.97921,-0.83073 10.44552,-2.87424 12.23697,-3.34924 1.05503,-0.27973 2.84097,-0.75446 3.96875,-1.05493 1.12779,-0.30048 2.22912,-0.58749 2.4474,-0.63779 0.21828,-0.0503 1.635,-0.39978 3.14827,-0.77659 1.51327,-0.37682 2.85272,-0.68513 2.97656,-0.68513 0.12385,0 0.22517,0.33833 0.22517,0.75186 0,0.69573 -0.12344,0.78696 -1.65365,1.22207 -0.9095,0.25861 -2.36802,0.68016 -3.24114,0.93677 -0.87313,0.25661 -3.13531,0.91444 -5.02708,1.46186 -1.89178,0.54741 -4.92787,1.4437 -6.74688,1.99176 -7.90495,2.3817 -7.82884,2.36693 -12.19857,2.36693 -2.21606,0 -3.9796,-0.0442 -3.91897,-0.0981 z m 18.23421,-0.88052 c 1.52797,-0.51677 5.3975,-1.74447 8.59896,-2.72821 5.88797,-1.80926 6.31806,-1.85913 5.86565,-0.68017 -0.0727,0.18951 -2.87172,1.25412 -6.22001,2.3658 -5.89696,1.95788 -6.16512,2.02062 -8.55525,2.0017 l -2.46748,-0.0195 z m 7.69496,0.87494 c 0.14331,-0.13481 6.41427,-2.27754 6.6655,-2.27754 0.10539,0 0.19162,0.33268 0.19162,0.7393 0,0.66606 -0.1452,0.78401 -1.46569,1.19063 -1.24319,0.38281 -5.73684,0.67254 -5.39143,0.34761 z m -159.69809,-2.45386 c -2.93276,-0.17943 -10.46298,-0.93807 -12.7,-1.27949 -1.30968,-0.19988 -2.91703,-0.43555 -3.57187,-0.52369 -0.65484,-0.0882 -1.84547,-0.27054 -2.64583,-0.4053 -2.5805,-0.4345 -16.04028,-2.26903 -18.38855,-2.5063 -3.37486,-0.341 -9.07788,-1.01997 -12.5677,-1.49625 -2.11006,-0.28797 -4.81873,-0.59366 -6.01927,-0.67929 l -2.18282,-0.15571 v -2.57567 c 0,-2.44742 0.0297,-2.58362 0.59532,-2.73522 0.98442,-0.26381 2.60551,-0.18017 4.56406,0.2355 1.01864,0.21619 2.32833,0.44932 2.91041,0.51807 2.62988,0.31061 7.25495,0.68703 11.50938,0.93671 6.51019,0.38206 17.50915,1.24926 19.71146,1.55414 1.01864,0.14102 2.50692,0.33019 3.30729,0.42038 0.80036,0.0902 2.11005,0.27651 2.91042,0.41404 1.91487,0.32906 9.39135,1.24237 11.90625,1.45444 1.0914,0.092 8.53281,0.19712 16.53645,0.23353 10.15694,0.0462 16.27019,0.19343 20.24063,0.4875 17.17062,1.27173 31.04081,1.50487 38.62916,0.64932 10.49032,-1.18273 15.34085,-2.37548 36.11563,-8.88083 11.54253,-3.61439 21.62593,-5.89365 40.48125,-9.1504 2.03729,-0.35188 4.18042,-0.71036 4.7625,-0.79661 0.58208,-0.0862 2.12989,-0.33774 3.43958,-0.55888 1.30969,-0.22112 3.09563,-0.52147 3.96875,-0.66744 0.87313,-0.14596 1.91492,-0.32988 2.31511,-0.4087 l 0.7276,-0.14333 -5.3e-4,2.33613 -5.3e-4,2.33613 -4.43128,0.89029 c -2.43721,0.48967 -4.96707,0.98786 -5.62192,1.10709 -0.65484,0.11924 -2.61937,0.52622 -4.36562,0.90441 -1.74625,0.37819 -4.60375,0.9862 -6.35,1.35114 -7.09209,1.48215 -18.85061,4.34138 -26.59063,6.46585 -4.87984,1.33942 -6.94851,1.88924 -7.9375,2.10968 -0.50932,0.11353 -2.41432,0.58385 -4.23333,1.04516 -5.18313,1.31446 -10.30583,2.52476 -11.72061,2.76913 -0.40722,0.0703 -1.59784,0.30754 -2.64583,0.52711 -4.14386,0.8682 -11.75601,2.12315 -14.47314,2.38605 -8.27051,0.80023 -13.36945,0.90891 -27.38438,0.5837 -6.95047,-0.16128 -11.36098,-0.14259 -14.2875,0.0605 -2.32833,0.16161 -5.95974,0.36326 -8.06979,0.44812 -2.11005,0.0848 -6.75349,0.32363 -10.31875,0.53062 -5.76627,0.33478 -14.42954,0.43437 -18.12396,0.20834 z m 34.26355,-9.88324 c -4.62321,-0.25524 -12.20382,-0.65143 -22.88646,-1.19612 -12.26154,-0.62519 -26.51822,-1.75037 -36.77709,-2.90256 -1.89177,-0.21247 -4.09442,-0.44976 -4.89479,-0.5273 -5.53201,-0.53599 -14.55118,-1.80722 -19.84375,-2.79692 -3.43061,-0.64153 -4.41463,-0.73247 -6.01927,-0.55633 l -1.91823,0.21056 v -1.66922 -1.66922 h 2.99858 c 1.64922,0 3.64352,0.11565 4.43177,0.257 1.35272,0.24257 4.76743,0.81667 10.16444,1.7089 1.30969,0.21652 2.91704,0.46185 3.57188,0.54517 0.65484,0.0833 2.38125,0.31997 3.83646,0.52589 9.96966,1.41076 26.4204,3.06156 34.39583,3.45155 1.45521,0.0712 5.0743,0.2477 8.04244,0.39231 10.25637,0.49971 22.00516,0.33004 28.73464,-0.41496 4.07558,-0.45119 8.39314,-2.15256 12.64945,-4.98461 6.39647,-4.25607 10.80605,-5.45565 20.00707,-5.44272 2.8484,0.004 7.79827,0.18118 10.99973,0.39375 7.02775,0.4666 17.78584,0.36504 23.8125,-0.22481 2.32834,-0.22788 5.1263,-0.48313 6.21771,-0.56721 2.12389,-0.16364 7.61446,-0.70202 13.62604,-1.33613 2.03729,-0.21489 4.35901,-0.45288 5.15938,-0.52885 0.80036,-0.076 2.94349,-0.3077 4.7625,-0.51494 1.81901,-0.20724 5.50994,-0.62739 8.20208,-0.93366 2.69214,-0.30628 6.85932,-0.78248 9.26042,-1.05824 2.40109,-0.27576 6.09203,-0.68968 8.20208,-0.91983 2.11005,-0.23014 4.22341,-0.46697 4.69635,-0.52627 0.83909,-0.10521 0.8599,-0.0833 0.8599,0.90443 0,1.16058 0.32449,1.04084 -4.63021,1.7086 -4.5611,0.61473 -9.16066,1.22248 -10.31875,1.36346 -0.58208,0.0708 -2.30849,0.30129 -3.83646,0.51208 -1.52797,0.21079 -4.62359,0.6318 -6.87916,0.93558 -2.25558,0.30378 -5.29167,0.72096 -6.74688,0.92706 -1.45521,0.20611 -3.18161,0.43332 -3.83646,0.50493 -0.65484,0.0716 -2.50031,0.3153 -4.10104,0.54153 -1.60073,0.22623 -4.63682,0.65304 -6.74687,0.94845 -5.26736,0.73746 -10.30544,1.50558 -12.83229,1.95644 -1.16417,0.20772 -2.59292,0.44628 -3.175,0.53014 -1.51579,0.21838 -13.20753,2.25008 -15.89679,2.76242 -3.56217,0.67864 -7.36039,1.89783 -11.94873,3.8354 -4.17309,1.76223 -7.07322,2.64165 -11.18053,3.39033 -2.74785,0.50087 -4.17086,0.56049 -14.68437,0.61518 -6.40292,0.0333 -13.36807,-0.0348 -15.47812,-0.15126 z m -36.11563,-8.22917 c -5.64953,-0.23145 -14.18203,-0.96699 -21.29896,-1.83607 -2.40109,-0.29321 -5.8539,-0.70966 -7.67291,-0.92545 -4.51106,-0.53515 -10.72313,-1.37665 -13.75834,-1.86372 -1.38244,-0.22185 -2.98979,-0.46677 -3.57187,-0.54428 -0.58209,-0.0775 -1.85132,-0.28759 -2.82053,-0.46687 -1.34632,-0.24902 -2.39221,-0.25716 -4.43177,-0.0345 l -2.66958,0.29145 v -1.22973 c 0,-1.16561 0.0431,-1.23834 0.82683,-1.39508 1.65381,-0.33076 6.99726,-0.1532 10.64818,0.35385 4.43862,0.61644 9.61958,1.28109 11.27916,1.44696 0.65484,0.0654 2.91703,0.30249 5.02708,0.52674 18.92284,2.01114 30.44806,2.2272 37.99581,0.71227 5.04273,-1.01213 8.86774,-2.57722 16.50836,-6.75475 12.5786,-6.87739 20.64088,-9.99645 28.79965,-11.14174 5.06002,-0.7103 11.34303,-0.40208 16.59624,0.81415 1.00773,0.23331 5.5827,1.67803 10.16661,3.21048 4.5839,1.53245 9.16781,3.00168 10.18646,3.26495 5.75202,1.48663 12.10449,2.17046 18.12395,1.95103 1.81901,-0.0663 6.70058,-0.23123 10.84792,-0.36649 7.07818,-0.23083 11.22987,-0.48662 23.8125,-1.4671 2.83766,-0.22112 5.99281,-0.4631 7.01146,-0.53773 1.01864,-0.0746 2.98318,-0.24968 4.36562,-0.389 1.38245,-0.13933 4.18042,-0.37127 6.21771,-0.51542 2.03729,-0.14416 4.26972,-0.33446 4.96094,-0.42287 l 1.25677,-0.16077 v 1.06211 1.0621 l -1.78594,0.1701 c -0.98226,0.0936 -3.98859,0.39515 -6.68073,0.67021 -26.1604,2.67277 -42.11964,3.9019 -53.8427,4.14678 -9.75124,0.2037 -11.40184,-0.002 -29.10417,-3.62155 -12.03179,-2.46032 -19.25496,-2.26932 -28.575,0.75561 -1.93799,0.62899 -5.66181,2.24663 -7.27604,3.16072 -2.12524,1.20347 -5.11205,3.00903 -7.27604,4.39845 -6.0654,3.89437 -10.48519,5.17813 -19.5877,5.68938 -5.49015,0.30836 -6.42779,0.30743 -14.27897,-0.0142 z m -23.41562,-8.70555 c -1.81901,-0.10452 -4.79558,-0.26734 -6.61459,-0.36183 -4.66478,-0.24233 -11.97216,-0.87956 -15.94726,-1.39066 -3.23915,-0.41647 -5.56686,-0.39772 -8.99742,0.0725 l -1.24907,0.17121 v -1.05189 -1.05188 l 2.49809,-0.307 c 3.35566,-0.41238 5.84621,-0.38563 10.73108,0.11527 3.00461,0.3081 7.28422,0.43165 16.00729,0.46215 10.20265,0.0357 12.3984,-0.0269 15.34583,-0.43714 9.91891,-1.38064 17.14803,-3.56335 25.66459,-7.74899 2.27534,-1.11827 3.97349,-2.00815 10.18646,-5.33804 1.52796,-0.81893 3.73062,-1.99899 4.89479,-2.62236 4.08778,-2.18885 12.72187,-6.37916 14.81666,-7.19086 3.50917,-1.35975 6.84283,-2.08872 10.45424,-2.28604 6.8237,-0.37284 13.21375,0.96841 20.89889,4.38659 2.43535,1.0832 3.63871,1.69065 7.54062,3.80646 1.01865,0.55236 2.74505,1.48387 3.83646,2.07003 1.09141,0.58615 2.50481,1.35028 3.1409,1.69807 3.898,2.13125 10.24481,4.23414 15.51223,5.13967 7.17921,1.23419 28.53051,0.67706 60.39114,-1.5758 l 2.71198,-0.19177 v 1.2633 1.2633 h -1.30968 c -0.72032,0 -3.36946,0.17332 -5.88698,0.38515 -2.51751,0.21184 -5.5298,0.44551 -6.69396,0.51928 -1.16417,0.0738 -4.79558,0.31278 -8.0698,0.53113 -15.40436,1.02726 -22.08762,1.3112 -31.22083,1.32645 -8.15598,0.0136 -10.1303,-0.0596 -12.7,-0.47097 -5.53626,-0.88626 -10.33014,-2.41574 -16.30563,-5.20228 -1.24726,-0.58163 -2.31356,-1.05751 -2.36955,-1.05751 -0.056,0 -0.84784,-0.36545 -1.75967,-0.81212 -9.88201,-4.84077 -19.03091,-6.92342 -26.80131,-6.10102 -7.42919,0.78628 -13.22108,2.96983 -29.55337,11.14164 -6.07231,3.03826 -12.38263,6.05738 -14.02292,6.70915 -4.70072,1.86785 -9.93076,3.33518 -13.30109,3.73174 -0.7276,0.0856 -2.21588,0.26916 -3.30729,0.40788 -2.24696,0.2856 -13.53086,0.28389 -18.52083,-0.003 z m -32.80834,-6.80853 v -1.05337 l 1.25677,-0.17687 c 0.69123,-0.0973 5.95974,-0.27974 11.70782,-0.40547 11.26564,-0.24641 13.76596,-0.44156 22.75416,-1.77598 4.08537,-0.60652 11.55569,-2.65476 17.19792,-4.71538 1.31645,-0.48078 8.89929,-4.18197 10.98021,-5.35943 3.16306,-1.7898 8.23063,-5.20059 11.53161,-7.7615 1.51574,-1.17591 3.88698,-2.9919 5.26943,-4.03553 1.38245,-1.04363 2.57307,-1.96064 2.64583,-2.03781 0.72292,-0.76668 5.98205,-4.2892 8.12958,-5.44511 7.93891,-4.27313 18.43714,-4.20208 30.76417,0.20818 2.98033,1.06627 8.9842,4.00991 12.43542,6.09697 4.63725,2.80428 5.26535,3.19161 7.63641,4.70919 1.25701,0.80453 3.17843,1.99324 4.26984,2.64157 1.0914,0.64833 2.40109,1.45984 2.91041,1.80335 2.57089,1.73393 8.61402,4.35227 12.8323,5.55992 4.64325,1.32932 13.29645,2.03359 21.69583,1.7658 2.32833,-0.0742 6.25739,-0.19512 8.73125,-0.26864 7.49245,-0.22266 29.12338,-1.35638 30.8901,-1.61902 l 0.99219,-0.14749 v 1.22219 c 0,0.74609 -0.12883,1.26254 -0.33073,1.3258 -0.1819,0.057 -1.93807,0.16915 -3.9026,0.24925 -1.96453,0.0801 -6.31032,0.31992 -9.65729,0.53294 -12.15561,0.77366 -21.39116,1.08196 -32.41146,1.08196 -9.47087,0 -11.6626,-0.0723 -13.89325,-0.45842 -6.95538,-1.2039 -12.6619,-3.52891 -20.89946,-8.51508 -2.03729,-1.23317 -4.29948,-2.58469 -5.02708,-3.00338 -0.72761,-0.4187 -1.79917,-1.04101 -2.38125,-1.38292 -6.20949,-3.6474 -14.91013,-7.03545 -19.97605,-7.77872 -6.5792,-0.96529 -11.12361,-0.77043 -16.00729,0.6864 -3.55594,1.06077 -7.90892,3.41509 -17.99166,9.73086 -6.66993,4.17801 -8.89216,5.51135 -12.03854,7.22316 -9.9599,5.41873 -17.68764,8.24144 -27.25209,9.95434 -2.91444,0.52195 -4.59878,0.73967 -10.45325,1.35121 -2.91683,0.30468 -19.80991,0.38756 -23.23354,0.11399 -1.88591,-0.15069 -5.53371,0.10716 -8.31581,0.58784 -0.85103,0.14703 -0.8599,0.1377 -0.8599,-0.9048 z m 0,-3.84043 v -0.92505 l 2.05052,-0.28243 c 2.65799,-0.3661 6.82185,-0.74877 12.10469,-1.11245 2.32833,-0.16029 5.3049,-0.4541 6.61458,-0.65292 1.30969,-0.19881 2.91704,-0.43661 3.57188,-0.52843 2.37589,-0.33317 8.96044,-1.98646 12.30312,-3.08915 10.6363,-3.50872 18.33497,-8.11348 25.36932,-15.17397 3.33741,-3.34982 5.40501,-5.99509 9.29936,-11.89757 4.67032,-7.07858 8.41236,-9.92117 14.65096,-11.1294 2.36195,-0.45745 9.03189,-0.52391 11.94571,-0.11903 3.72016,0.51692 4.09227,0.57888 6.3357,1.05491 9.49324,2.01439 19.69424,6.21564 28.57499,11.76853 0.80037,0.50045 2.05053,1.2791 2.77813,1.73033 0.7276,0.45124 2.00496,1.26135 2.83857,1.80025 0.83361,0.53891 2.67907,1.72784 4.10104,2.64207 1.42196,0.91424 3.83555,2.48486 5.36351,3.49028 11.85999,7.80394 18.42231,10.36451 28.575,11.14972 4.84134,0.37444 25.5046,0.13023 34.925,-0.41275 3.71078,-0.21388 8.20539,-0.45621 9.98802,-0.5385 l 3.24115,-0.14962 v 1.02333 1.02333 l -4.0349,0.17504 c -2.21919,0.0963 -6.23755,0.28783 -8.92968,0.42569 -4.84043,0.24787 -8.7221,0.38862 -21.52523,0.78054 -9.69056,0.29663 -18.55264,-0.1072 -23.07445,-1.05147 -6.54072,-1.36586 -11.47377,-3.81447 -23.85465,-11.84067 -5.53393,-3.5875 -10.35951,-6.53913 -13.43657,-8.21867 -15.55184,-8.48857 -31.93971,-11.16921 -41.72716,-6.8255 -3.21969,1.42891 -5.16374,3.00981 -12.17896,9.9039 -3.82013,3.75416 -8.19549,7.83457 -9.72303,9.06756 -14.06642,11.35408 -30.27404,16.79138 -52.78516,17.70826 -6.29629,0.25645 -10.25654,0.56455 -12.50156,0.97259 -0.83598,0.15195 -0.8599,0.13056 -0.8599,-0.76875 z m 0,-3.72969 v -0.89169 l 3.10886,-0.44458 c 5.29154,-0.75671 8.3512,-1.18835 9.59114,-1.35308 1.47264,-0.19563 7.03156,-1.31852 8.99584,-1.81714 11.04816,-2.80448 18.48577,-6.6378 24.96568,-12.86721 6.13629,-5.89908 8.26883,-10.34423 9.54924,-19.90478 0.87206,-6.51155 1.10738,-7.68116 1.90225,-9.45484 2.36642,-5.28047 9.28967,-7.16478 21.92345,-5.96694 10.91833,1.03519 23.35068,4.16775 33.86667,8.53332 1.59541,0.66232 1.84727,0.77177 4.7625,2.06963 5.8136,2.58823 13.42545,6.7716 19.71145,10.83313 0.50933,0.32909 2.83105,1.83943 5.15938,3.35631 2.32833,1.51688 5.15672,3.34881 6.28529,4.07094 1.12858,0.72214 2.73592,1.75087 3.57188,2.28607 8.25062,5.28228 14.3235,7.9037 21.37511,9.22679 5.97012,1.12018 21.55237,1.2708 39.01459,0.37714 4.00183,-0.2048 8.04995,-0.39908 8.99584,-0.43172 l 1.71979,-0.0593 0.0811,0.82003 0.0811,0.82003 -1.9332,0.14976 c -1.06327,0.0824 -3.65961,0.21471 -5.76967,0.29409 -2.11005,0.0794 -6.03911,0.28642 -8.73125,0.4601 -2.69213,0.17367 -10.55026,0.32002 -17.4625,0.3252 -10.94381,0.008 -12.96086,-0.0533 -15.61041,-0.47642 -9.561,-1.52665 -13.89696,-3.49823 -28.04584,-12.75257 -12.9596,-8.47649 -17.95084,-11.45895 -24.87083,-14.86132 -18.49441,-9.09319 -40.88898,-12.67007 -50.28937,-8.03227 -3.73523,1.84282 -5.9038,4.92447 -8.32441,11.82935 -3.69027,10.52667 -9.33617,17.46967 -19.04143,23.41605 -8.55357,5.24075 -20.22379,8.695 -33.46979,9.90667 -2.40109,0.21964 -5.82217,0.63146 -7.60239,0.91516 -1.78022,0.2837 -3.29827,0.51582 -3.37344,0.51582 -0.0752,0 -0.13667,-0.40126 -0.13667,-0.89168 z m 0,-3.8121 v -1.05697 l 1.25677,-0.17862 c 1.55804,-0.22144 6.91029,-1.28412 10.78177,-2.14071 2.61494,-0.57856 7.73722,-2.12274 10.18646,-3.07083 3.00323,-1.16254 8.52893,-4.16452 10.14808,-5.5132 3.25549,-2.71169 4.51897,-3.93436 5.97066,-5.77781 2.13739,-2.71418 3.02561,-4.32111 4.04812,-7.32371 0.74367,-2.18378 0.81029,-2.66648 0.80344,-5.82083 -0.007,-3.25547 -0.4649,-6.3008 -1.65075,-10.98021 -0.12906,-0.50932 -0.30494,-1.40229 -0.39083,-1.98437 -0.0859,-0.58209 -0.28686,-1.81573 -0.4466,-2.74144 -0.40878,-2.36884 -0.17952,-5.47391 0.50086,-6.78356 1.15399,-2.2213 3.43609,-3.68273 7.07848,-4.53299 1.70288,-0.39751 3.177,-0.4941 7.54063,-0.4941 5.27031,0 9.24435,0.34099 15.47812,1.32807 1.30969,0.20738 2.8575,0.44423 3.43958,0.52633 3.1106,0.43874 12.39234,2.45516 16.80105,3.64997 18.5846,5.03662 33.3716,11.60509 51.26034,22.77009 2.36325,1.47499 4.89803,3.03898 5.63286,3.47554 0.73483,0.43657 3.26611,1.99586 5.62507,3.4651 9.26868,5.77285 14.0785,8.05124 20.95777,9.92759 5.99051,1.63394 18.60396,2.1689 33.73437,1.43074 4.43839,-0.21654 9.82596,-0.47377 11.9724,-0.57164 l 3.9026,-0.17794 v 0.92076 0.92075 l -6.41615,0.31023 c -16.4664,0.79617 -19.94123,0.89095 -27.97968,0.76315 -8.62137,-0.13706 -11.54559,-0.39529 -16.00729,-1.41357 -5.61417,-1.28131 -11.55179,-3.9243 -18.52084,-8.2441 -0.7276,-0.45101 -1.91823,-1.18702 -2.64583,-1.63557 -0.7276,-0.44856 -2.39448,-1.52325 -3.70417,-2.38821 -1.30968,-0.86495 -2.97656,-1.93538 -3.70416,-2.37872 -0.72761,-0.44334 -2.93026,-1.83139 -4.8948,-3.08455 -7.01915,-4.47745 -17.49848,-10.20449 -23.41562,-12.79683 -7.95782,-3.48638 -17.38707,-6.70166 -25.13542,-8.57092 -1.01864,-0.24575 -2.29111,-0.56263 -2.8277,-0.70418 -3.12878,-0.82535 -11.87533,-2.29043 -17.54521,-2.93888 -3.93728,-0.45029 -11.65409,-0.44238 -14.15521,0.0145 -2.90232,0.53019 -5.37795,1.52861 -6.72053,2.71039 -2.5079,2.20755 -3.03443,4.85559 -2.38565,11.99822 0.49489,5.44856 0.38466,10.52177 -0.28188,12.97283 -0.7702,2.83221 -2.85017,6.69519 -4.98614,9.26041 -3.52997,4.23935 -7.95316,7.57022 -13.53934,10.19578 -7.05042,3.31375 -12.41038,4.75208 -26.19375,7.02903 -1.30969,0.21635 -2.64914,0.46054 -2.97656,0.54265 -0.54293,0.13614 -0.59532,0.0563 -0.59532,-0.9077 z m 0,-4.42435 c 0,-1.10949 0.0474,-1.19062 0.69628,-1.19062 0.71351,0 5.9754,-1.33259 9.75476,-2.47041 4.07596,-1.22712 9.00579,-3.47364 12.02854,-5.48142 4.74558,-3.15209 8.48425,-7.54645 10.23282,-12.02746 0.65253,-1.67221 0.72186,-2.17744 0.72575,-5.28842 0.005,-3.65852 -0.44804,-5.87845 -2.1038,-10.31875 -0.37985,-1.01865 -0.78828,-2.14974 -0.90762,-2.51354 -0.11935,-0.3638 -0.59637,-1.67349 -1.06005,-2.91042 -2.75364,-7.34572 -3.33271,-9.7451 -3.09868,-12.83946 0.4433,-5.86156 4.96045,-8.40023 15.007,-8.43405 4.08158,-0.0137 8.41407,0.34373 12.7,1.04786 1.23693,0.20321 2.72521,0.43779 3.30729,0.52128 5.75742,0.82582 21.30539,4.218 28.04584,6.1189 1.30968,0.36935 2.55984,0.7093 2.77812,0.75543 1.04664,0.22121 5.45953,1.58144 12.43542,3.8331 8.12719,2.62326 20.15407,7.65926 29.10416,12.18674 4.09189,2.06991 14.21346,7.58148 15.79943,8.60337 2.5034,1.61302 17.60354,10.04132 20.84527,11.635 6.58938,3.23945 13.38361,5.22075 20.44428,5.96188 3.12648,0.32818 13.81208,0.21401 14.70144,-0.15707 0.71763,-0.29943 0.0815,-0.60275 -1.67355,-0.79801 -6.35394,-0.70688 -13.26174,-1.91097 -17.2002,-2.99815 -4.68443,-1.29311 -10.51111,-3.98825 -17.52043,-8.10413 -2.6311,-1.54498 -7.54498,-4.49667 -9.99624,-6.00457 -1.67349,-1.02945 -3.51895,-2.16052 -4.10104,-2.51349 -0.58208,-0.35297 -1.9513,-1.18555 -3.04271,-1.85017 -11.3993,-6.94172 -27.47251,-15.13674 -37.04166,-18.8859 -0.65485,-0.25657 -2.44078,-0.96329 -3.96875,-1.57049 -6.40216,-2.54418 -17.81778,-6.46241 -25.79688,-8.85439 -1.30968,-0.39262 -2.6789,-0.81473 -3.0427,-0.93804 -0.36381,-0.1233 -1.55443,-0.48348 -2.64584,-0.8004 -1.0914,-0.31692 -2.52015,-0.7532 -3.175,-0.96951 -0.65484,-0.21631 -1.36922,-0.43208 -1.5875,-0.4795 -0.21828,-0.0474 -2.42094,-0.70448 -4.89479,-1.46016 -2.47385,-0.75567 -5.33135,-1.61617 -6.35,-1.91221 -1.01865,-0.29604 -3.93568,-1.16042 -6.48229,-1.92085 -12.94373,-3.86504 -17.41733,-5.17065 -20.37292,-5.9458 -1.23692,-0.3244 -2.72521,-0.74633 -3.30729,-0.93763 -1.0582,-0.34776 -1.05806,-0.34781 1.07735,-0.36869 1.17462,-0.0115 2.6629,0.14346 3.30729,0.34432 0.64439,0.20087 2.83849,0.85422 4.87578,1.45189 3.77794,1.10832 14.43364,4.29217 18.25625,5.45485 1.16416,0.35409 8.42698,2.56028 16.13958,4.90264 14.16004,4.30048 25.95741,8.13409 31.07787,10.0989 4.2918,1.64683 10.07949,3.94523 11.25546,4.46974 0.58209,0.25962 1.94733,0.84318 3.03387,1.2968 5.3756,2.24422 19.96045,9.52251 25.27655,12.61378 25.50736,14.83233 30.09163,17.27118 36.64479,19.49521 4.39314,1.49095 10.90921,2.86802 15.21354,3.21514 1.01865,0.0821 3.16177,0.27038 4.7625,0.41831 1.60073,0.14792 7.76222,0.34028 13.69219,0.42746 l 10.78177,0.15853 v 2.87306 2.87307 l -1.25677,0.005 c -0.69122,0.003 -3.57849,0.0919 -6.41615,0.19844 -6.79897,0.25514 -31.09669,0.24918 -33.51004,-0.008 -5.17001,-0.5514 -11.68286,-2.50018 -17.28996,-5.17349 -2.85082,-1.3592 -8.43959,-4.60524 -20.76979,-12.06342 -11.86699,-7.178 -21.90791,-12.36685 -32.14687,-16.61255 -9.5701,-3.96835 -23.40052,-8.23909 -33.68384,-10.40132 -15.66545,-3.29392 -25.42289,-4.56543 -32.94426,-4.29301 -5.90009,0.2137 -9.34815,1.17191 -11.4917,3.19354 -1.69921,1.60256 -1.91842,2.29373 -1.90194,5.99689 0.0131,2.95704 0.1075,3.61551 0.89081,6.21771 0.48185,1.60073 1.02573,3.4462 1.20862,4.10104 0.18289,0.65484 0.63591,2.20266 1.00669,3.43958 1.0824,3.61084 1.53222,5.79788 1.69601,8.2461 0.5621,8.40191 -5.92813,17.24838 -16.18342,22.05872 -4.85489,2.27724 -10.6494,4.21022 -15.42031,5.14406 -0.69242,0.13553 -2.38165,0.48982 -3.75383,0.78732 -1.37218,0.29749 -2.53304,0.54089 -2.57969,0.54089 -0.0466,0 -0.0848,-0.53578 -0.0848,-1.19063 z m 0,-5.07535 v -1.29778 l 1.65365,-0.36115 c 3.8945,-0.85052 10.59522,-3.64227 13.70629,-5.71051 3.96496,-2.6359 7.31957,-6.50601 8.75184,-10.09674 0.5302,-1.32923 0.61027,-1.97993 0.59591,-4.84284 -0.015,-2.99266 -0.0983,-3.55574 -0.87541,-5.9189 -1.62206,-4.93256 -8.7159,-17.83396 -12.79086,-23.26246 -2.14492,-2.85737 -6.66476,-7.7726 -7.5849,-8.24843 -0.40036,-0.20703 -1.34186,-0.45787 -2.09222,-0.55741 l -1.3643,-0.18098 v -7.37424 -7.37425 h 9.54318 9.54318 l 4.14901,1.06987 c 2.28195,0.58843 4.68479,1.22907 5.33963,1.42364 0.65485,0.19457 1.96453,0.56265 2.91042,0.81796 3.30744,0.89273 21.93427,6.5684 28.575,8.70693 0.65484,0.21088 2.97656,0.93733 5.15937,1.61435 5.08814,1.57811 6.9832,2.22454 7.80521,2.66244 l 0.66146,0.35237 -0.66146,0.007 c -0.3638,0.004 -1.43536,-0.17731 -2.38125,-0.40219 -0.94588,-0.22488 -2.25557,-0.51456 -2.91041,-0.64373 -0.65485,-0.12917 -2.61938,-0.54315 -4.36563,-0.91995 -3.6959,-0.7975 -9.4954,-1.99339 -10.45104,-2.15506 -0.3638,-0.0616 -1.4949,-0.28067 -2.51354,-0.48693 -8.58218,-1.7378 -14.10589,-2.39073 -20.10834,-2.37693 -4.67283,0.0108 -5.48757,0.0779 -6.96689,0.57429 -2.30322,0.77283 -3.54358,1.70494 -4.42745,3.32713 -1.36517,2.50552 -1.21332,6.97631 0.40939,12.05311 0.4025,1.25925 0.85867,2.58721 1.01372,2.95101 7.60969,17.85482 7.91336,18.61936 8.39482,21.13544 0.93445,4.88332 0.20411,8.5008 -2.54361,12.59894 -1.57773,2.35313 -3.29393,4.12899 -5.80185,6.00355 -1.96779,1.47083 -5.8006,3.71423 -6.94523,4.06514 -0.32747,0.10039 -0.71446,0.27207 -0.85998,0.38152 -0.67604,0.50843 -9.36964,3.20501 -11.57552,3.5905 l -0.99219,0.17339 z m 0.0541,-6.34331 0.0782,-1.76138 3.06554,-1.37328 c 6.31356,-2.82831 9.45187,-6.29467 9.70039,-10.71439 0.0967,-1.71928 0.0264,-2.14342 -0.52604,-3.175 -0.3507,-0.65484 -1.04548,-1.47059 -1.54397,-1.81278 -0.79476,-0.54557 -1.12042,-0.60495 -2.64542,-0.48234 -0.9565,0.0769 -2.26619,0.3789 -2.91042,0.67112 -0.64423,0.29222 -2.06429,0.88801 -3.1557,1.32398 l -1.98438,0.79268 -0.074,-7.45622 c -0.0661,-6.66374 -0.028,-7.48435 0.35815,-7.72081 0.23766,-0.14552 0.97293,-0.62177 1.63392,-1.05833 2.77568,-1.83323 3.09412,-1.97562 4.4281,-1.98003 2.58899,-0.009 5.41313,2.0677 8.51173,6.25764 1.5629,2.11335 3.39599,5.59572 4.22457,8.02551 0.37593,1.10241 0.49348,2.19288 0.48485,4.49792 -0.01,2.62055 -0.0998,3.2446 -0.64886,4.49791 -2.42699,5.54028 -7.73196,9.64935 -16.18481,12.53627 -2.94452,1.00564 -2.90472,1.02077 -2.81192,-1.06847 z m 204.99802,-6.44906 c -14.74014,-0.52902 -23.75658,-2.74462 -35.05729,-8.61457 -1.60073,-0.83147 -4.36834,-2.32709 -6.15025,-3.32359 -1.78191,-0.9965 -3.28801,-1.81183 -3.34688,-1.81183 -0.0589,0 -1.99423,-1.08209 -4.30079,-2.40466 -4.38161,-2.51238 -10.02247,-5.67242 -13.85104,-7.75942 -8.71633,-4.75139 -21.60739,-10.77888 -30.55937,-14.28869 -2.47385,-0.96992 -4.79557,-1.89015 -5.15937,-2.04496 -2.10071,-0.89389 -12.96133,-4.6673 -19.1823,-6.66469 -2.81426,-0.90358 -14.21014,-4.39254 -17.99166,-5.50832 -1.01865,-0.30056 -2.38787,-0.70856 -3.04271,-0.90666 -6.41069,-1.93931 -14.75225,-4.45669 -16.13958,-4.87071 -0.94589,-0.28228 -4.16058,-1.24084 -7.14375,-2.13012 -2.98318,-0.88929 -5.66209,-1.71868 -5.95313,-1.84309 -0.95191,-0.4069 1.91206,-0.29502 3.25758,0.12726 0.68219,0.2141 7.72924,2.36099 15.66013,4.77087 18.49963,5.62129 18.72146,5.68898 19.97604,6.09544 0.58208,0.18858 2.07037,0.64821 3.30729,1.02139 14.58426,4.40009 27.5597,8.98984 39.15403,13.84979 10.4051,4.36146 21.02572,9.63424 33.87097,16.8158 10.18833,5.69613 12.3698,6.89123 15.74271,8.62449 3.73818,1.92097 9.50998,4.48811 12.43542,5.53092 4.11513,1.46691 10.31723,2.97536 13.75833,3.34624 8.66621,0.93405 9.66048,0.98423 19.7776,0.99806 l 10.51719,0.0144 v 0.6248 0.6248 l -7.2099,-0.0439 c -3.96544,-0.0241 -9.53161,-0.12721 -12.36927,-0.22905 z m 3.96736,-2.11525 c -15.85665,-0.66212 -24.29103,-2.4614 -35.32048,-7.53482 -2.90434,-1.33597 -5.39349,-2.56209 -7.40833,-3.64925 -1.16417,-0.62816 -3.42636,-1.83688 -5.02709,-2.68605 -1.60073,-0.84916 -3.02948,-1.62829 -3.175,-1.73139 -0.14552,-0.1031 -1.57427,-0.88086 -3.175,-1.72834 -1.60073,-0.84749 -3.4812,-1.87732 -4.17883,-2.28851 -0.69763,-0.41119 -1.32242,-0.74763 -1.38843,-0.74763 -0.066,0 -1.2113,-0.60594 -2.54508,-1.34654 -5.55858,-3.08647 -24.18368,-12.14721 -24.96959,-12.14721 -0.0838,0 -0.66237,-0.23235 -1.28577,-0.51635 -1.53399,-0.69881 -9.49612,-3.9333 -11.14063,-4.5257 -0.7276,-0.26211 -2.15635,-0.79004 -3.175,-1.17319 -5.83367,-2.19426 -16.17931,-5.60855 -28.83958,-9.51772 -1.74625,-0.53919 -4.66328,-1.44667 -6.48229,-2.01661 -1.81901,-0.56994 -4.31933,-1.35095 -5.55625,-1.73558 -1.23693,-0.38463 -3.0824,-0.96075 -4.10105,-1.28026 -1.01864,-0.31952 -5.53798,-1.70137 -10.04298,-3.07079 -6.89491,-2.09589 -8.01357,-2.50277 -7.07017,-2.57156 0.78956,-0.0576 2.34994,0.31158 5.28049,1.24925 2.28786,0.73203 7.4935,2.35628 11.56808,3.60945 13.57091,4.17382 19.02406,5.86528 21.96042,6.81168 1.60073,0.51593 4.87494,1.55352 7.27604,2.30576 10.40858,3.26091 19.9538,6.75052 30.00175,10.96825 3.12793,1.31298 3.50263,1.47734 6.60048,2.89528 1.14076,0.52214 2.11593,0.94934 2.16705,0.94934 0.16631,0 5.69147,2.64134 11.10468,5.30867 4.72769,2.32955 10.9074,5.60366 19.18229,10.16311 8.81878,4.85913 17.81115,8.98247 24.20796,11.10027 7.88324,2.60991 17.16083,3.77759 32.08214,4.03785 7.3727,0.1286 9.06198,0.22494 9.06198,0.51679 0,0.28635 -0.82003,0.35873 -4.06411,0.35873 -2.23526,0 -4.58675,0.0469 -5.22552,0.10429 -0.63878,0.0573 -3.48375,0.007 -6.32218,-0.11122 z m 5.16077,-2.02149 c -2.67639,-0.10506 -11.52694,-0.62111 -13.44499,-0.78395 -4.18865,-0.35559 -10.18048,-1.48455 -15.13001,-2.85074 -3.74805,-1.03455 -11.15504,-4.08326 -17.06563,-7.02419 -4.44654,-2.21247 -13.86159,-7.09649 -19.05,-9.88212 -17.52245,-9.40771 -38.42503,-18.14119 -58.34062,-24.3758 -2.03729,-0.63777 -6.02589,-1.89257 -8.86354,-2.78843 -2.83766,-0.89587 -7.48109,-2.34243 -10.31875,-3.21459 -2.83766,-0.87216 -5.81422,-1.80474 -6.61458,-2.0724 -0.80037,-0.26766 -2.88396,-0.92618 -4.63021,-1.46337 -1.74625,-0.5372 -4.72282,-1.45351 -6.61459,-2.03625 -1.89177,-0.58274 -3.8563,-1.22107 -4.36562,-1.4185 l -0.92604,-0.35897 1.32139,-0.0136 c 0.90288,-0.009 2.78839,0.45344 5.95313,1.46105 4.53145,1.44275 9.21153,2.91797 17.99319,5.67168 15.57333,4.88342 15.58131,4.88598 22.35729,7.16783 3.05593,1.02911 5.8539,1.9706 6.21771,2.09221 0.3638,0.1216 2.03067,0.72205 3.70416,1.33433 1.67349,0.61228 3.51646,1.28521 4.09549,1.49541 1.95401,0.70933 9.77491,3.83119 12.57326,5.01885 3.31935,1.40878 3.35127,1.42265 5.64086,2.45114 0.99241,0.44579 1.84461,0.81054 1.89377,0.81054 0.0492,0 1.26124,0.54747 2.69352,1.21659 1.43228,0.66913 3.37805,1.57594 4.32393,2.01513 2.31589,1.07532 13.64801,6.74663 16.20573,8.11038 1.12779,0.60132 2.97326,1.58466 4.10105,2.1852 11.89149,6.3321 22.93923,11.13282 29.96406,13.02066 3.6965,0.9934 10.12114,2.08756 14.15521,2.41075 1.01864,0.0816 3.28083,0.26991 5.02708,0.41844 1.74625,0.14854 6.41945,0.34511 10.38489,0.43682 6.76925,0.15655 7.2099,0.19655 7.2099,0.65451 0,0.45608 -0.27928,0.4844 -4.29948,0.43595 -2.36471,-0.0285 -5.13292,-0.0845 -6.15156,-0.12452 z m 1.43316,-2.30459 c -0.0606,-0.0548 -2.25337,-0.17897 -4.87274,-0.27588 -7.59176,-0.2809 -15.23084,-1.2638 -20.90209,-2.6894 -2.85375,-0.71736 -8.14272,-2.44941 -11.1125,-3.63916 -4.39122,-1.7592 -7.15342,-3.07919 -23.41562,-11.18985 -8.22193,-4.10063 -16.39927,-8.12124 -18.17186,-8.93468 -7.05282,-3.23654 -16.31813,-7.21145 -20.72189,-8.8899 -1.67073,-0.63678 -7.54232,-2.84855 -9.12813,-3.43847 -4.71726,-1.75483 -11.39521,-3.96422 -23.54791,-7.79082 -2.61938,-0.82477 -5.23875,-1.66261 -5.82084,-1.86186 -0.58208,-0.19925 -3.97536,-1.28056 -7.54062,-2.40291 -3.56526,-1.12235 -8.38729,-2.66843 -10.71563,-3.43572 l -4.23333,-1.39508 1.73435,-0.0241 c 1.42172,-0.0198 2.51867,0.23205 6.08542,1.39703 2.39308,0.78164 7.02997,2.27901 10.30419,3.32749 3.27422,1.04848 6.60797,2.1291 7.40833,2.40139 0.80037,0.27229 3.59834,1.16945 6.21771,1.99369 8.33039,2.62134 12.36849,3.9862 19.71146,6.66238 1.81901,0.66295 3.9026,1.41187 4.63021,1.66427 1.51395,0.52517 11.28443,4.41124 15.59838,6.20404 6.74261,2.8021 14.51837,6.4413 26.20578,12.2648 16.59548,8.26904 19.30981,9.53348 26.20234,12.20608 11.48112,4.45184 19.86949,5.9548 36.90079,6.61161 4.00182,0.15432 7.4844,0.27966 7.73906,0.27851 0.28733,-10e-4 0.46302,0.19871 0.46302,0.52708 0,0.50821 -0.17639,0.52917 -4.45382,0.52917 -2.4496,0 -4.50343,-0.0448 -4.56406,-0.0997 z m 1.87413,-2.72857 c -14.74215,-0.85632 -20.2815,-1.5638 -27.51667,-3.51443 -5.92867,-1.59839 -12.24918,-3.99522 -19.14431,-7.25981 -1.7178,-0.81332 -3.15738,-1.47876 -3.19905,-1.47876 -0.11892,0 -7.61847,-3.60589 -14.30143,-6.87634 -7.33187,-3.58801 -11.99462,-5.82366 -12.14599,-5.82366 -0.0614,0 -1.39376,-0.60623 -2.96082,-1.34718 -5.51394,-2.60715 -21.90432,-9.39934 -25.50673,-10.57002 -0.3638,-0.11823 -1.49489,-0.53211 -2.51354,-0.91973 -1.01865,-0.38763 -2.14974,-0.80242 -2.51354,-0.92177 -0.3638,-0.11934 -1.67349,-0.59341 -2.91042,-1.05348 -1.23693,-0.46007 -7.07099,-2.43417 -12.96458,-4.38687 -5.8936,-1.95271 -14.46609,-4.79434 -19.05,-6.31473 l -8.33438,-2.76436 8.16288,-0.0161 8.16289,-0.0161 4.00795,1.04009 c 2.20437,0.57205 5.4367,1.40983 7.18295,1.86175 6.56011,1.6977 24.07702,6.56638 26.72292,7.42742 0.43656,0.14207 2.37204,0.73109 4.30106,1.30895 3.26325,0.97753 5.29333,1.62129 12.1031,3.83803 1.45521,0.4737 6.21771,2.01698 10.58334,3.42951 4.36562,1.41253 8.94953,2.90461 10.18645,3.31574 6.04476,2.00915 11.44,3.69651 17.33021,5.42002 6.392,1.87033 15.78913,3.90157 22.62188,4.88983 7.43338,1.07513 14.68986,1.57807 22.9526,1.59083 5.84732,0.009 5.88698,0.0129 5.88698,0.57876 v 0.56967 l -8.92969,-0.17115 c -21.22288,-0.40676 -33.79322,-2.88578 -62.37552,-12.30119 -2.18281,-0.71905 -7.00484,-2.28113 -10.71562,-3.47128 -3.71078,-1.19015 -7.04453,-2.27247 -7.40834,-2.40514 -0.6894,-0.25143 -10.16637,-3.13625 -12.7,-3.86592 -2.49856,-0.71958 -5.09625,-1.46999 -6.74687,-1.949 -1.55106,-0.45012 -2.70944,-0.76196 -6.74687,-1.81626 -1.09141,-0.285 -2.87735,-0.75233 -3.96875,-1.03851 -7.21709,-1.89242 -14.62472,-3.191 -14.18996,-2.48754 0.24051,0.38915 5.06221,2.34258 15.51287,6.28477 9.11838,3.43963 21.75035,8.60074 29.08302,11.88261 8.25827,3.69613 10.08355,4.54922 18.14511,8.48051 12.49293,6.09229 16.64508,8.04004 21.56354,10.1153 10.48095,4.42228 20.71862,7.31597 28.70729,8.11413 3.15508,0.31524 12.77443,0.95718 16.6026,1.10797 l 4.16719,0.16415 v 0.76589 0.76589 l -2.84427,-0.0489 c -1.56435,-0.0269 -3.49912,-0.087 -4.29948,-0.13347 z m -0.66146,-3.70563 c -8.48593,-0.76115 -12.75584,-1.1903 -13.92469,-1.39954 -0.78162,-0.13992 -1.83786,-0.3191 -2.34718,-0.39818 -7.04693,-1.09418 -19.02375,-5.00792 -27.91354,-9.12149 -10.13178,-4.68827 -18.2664,-8.79667 -25.32414,-12.78998 -2.7649,-1.56441 -3.46441,-2.18458 -2.76623,-2.4525 0.3268,-0.1254 8.00977,1.67337 11.95078,2.79797 1.01865,0.29068 2.62599,0.75095 3.57188,1.02282 2.07895,0.59755 9.14252,2.58966 10.98021,3.09671 8.04632,2.22012 16.69914,4.15158 21.16666,4.72477 0.58209,0.0747 2.42755,0.31064 4.10104,0.52435 5.34889,0.68308 11.68355,1.01332 20.10554,1.04815 l 8.20285,0.0339 10e-4,0.7005 10e-4,0.7005 -3.63802,0.19687 c -5.67963,0.30735 -23.70123,-0.10112 -29.67929,-0.67271 -3.65373,-0.34935 -7.35054,-0.33936 -7.57292,0.0205 -0.33571,0.54317 1.08592,1.65387 3.71627,2.90347 7.24439,3.44159 16.3934,5.42944 30.38673,6.60227 3.47031,0.29086 6.41711,0.52884 6.54844,0.52884 0.13133,0 0.23879,0.47625 0.23879,1.05833 v 1.05833 l -3.37344,-0.0445 c -1.85539,-0.0245 -3.84969,-0.0872 -4.43177,-0.13941 z m -2.38125,-16.6643 c -1.70228,-0.0696 -7.33919,-0.44655 -11.50937,-0.76955 -3.63506,-0.28154 -11.71331,-1.5363 -16.27188,-2.52744 -4.9792,-1.08259 -6.20731,-1.37925 -10.45104,-2.52453 -6.57736,-1.77509 -14.61446,-4.2486 -26.06146,-8.02074 -9.48223,-3.12468 -15.34345,-5.02768 -18.38854,-5.97032 -0.65484,-0.20272 -1.905,-0.5984 -2.77812,-0.87929 -0.87313,-0.28089 -2.48047,-0.77223 -3.57188,-1.09186 -1.0914,-0.31963 -2.69875,-0.80508 -3.57187,-1.07877 -2.42604,-0.76048 -7.3054,-2.20921 -10.98021,-3.26013 -1.81901,-0.5202 -4.14073,-1.18567 -5.15938,-1.47882 -3.21116,-0.92412 -8.60842,-2.42887 -14.22135,-3.9649 -1.05503,-0.28871 -2.51354,-0.69714 -3.24115,-0.90761 l -1.32291,-0.38267 1.5875,-0.0122 c 1.55517,-0.012 2.14604,0.11761 8.33437,1.8276 1.67349,0.46242 3.93568,1.07737 5.02709,1.36654 5.49459,1.45582 22.98589,6.60831 26.72291,7.87189 0.80037,0.27062 2.88396,0.9357 4.63021,1.47796 3.90223,1.21174 11.13631,3.53865 15.21354,4.89359 4.61491,1.53361 11.66409,3.80085 15.21354,4.89315 1.74625,0.53739 3.88938,1.19853 4.7625,1.46921 2.46618,0.76455 8.09904,2.2892 14.02292,3.7956 1.64489,0.41828 5.23542,1.15816 9.12812,1.88097 3.08517,0.57286 9.18796,1.38782 11.90625,1.58995 1.23693,0.092 3.55865,0.27683 5.15938,0.41079 1.60073,0.13396 4.58853,0.24458 6.63957,0.24583 2.05103,10e-4 4.99783,0.0799 6.54844,0.17476 2.50339,0.15317 2.81928,0.22729 2.81928,0.66146 0,0.45705 -0.27192,0.48558 -4.16719,0.43714 -2.29195,-0.0285 -5.00062,-0.0859 -6.01927,-0.12761 z m -5.82083,-2.61078 c -9.25337,-0.6244 -17.58888,-1.90461 -26.80715,-4.11716 -1.84545,-0.44294 -3.53394,-0.8474 -3.75223,-0.89881 -0.4976,-0.11719 -5.28526,-1.41292 -6.87916,-1.86177 -3.13823,-0.88374 -13.09963,-3.96367 -17.34512,-5.36286 -9.39697,-3.09698 -22.46049,-7.25447 -25.2528,-8.03675 -0.50932,-0.14269 -3.18823,-0.94777 -5.95312,-1.78906 -2.7649,-0.8413 -6.5749,-1.97255 -8.46667,-2.5139 -1.89177,-0.54135 -4.15396,-1.20334 -5.02708,-1.47108 -0.87313,-0.26774 -4.02828,-1.1612 -7.01146,-1.98546 -2.98318,-0.82426 -5.90021,-1.65738 -6.48229,-1.85137 l -1.05834,-0.35271 1.45166,-0.0209 c 0.91282,-0.0131 2.7297,0.33394 4.89479,0.93504 9.53407,2.64698 13.90772,3.88029 15.34939,4.32833 0.87312,0.27134 2.42093,0.73558 3.43958,1.03164 1.01865,0.29606 4.23333,1.26677 7.14375,2.15714 8.90984,2.72572 12.04574,3.71272 22.225,6.9951 11.98229,3.86378 20.33736,6.40461 26.19375,7.9657 7.9529,2.11994 18.53191,4.26406 23.43618,4.74997 0.78906,0.0782 2.50621,0.26001 3.8159,0.40406 3.31869,0.36502 10.11485,0.7568 16.60261,0.95708 5.10064,0.15747 5.4901,0.20415 5.4901,0.6581 0,0.46052 -0.31569,0.48661 -5.4901,0.45375 -3.01956,-0.0192 -7.7523,-0.18751 -10.51719,-0.37409 z m 10.45104,-2.1514 c -2.19515,-0.0697 -7.08282,-0.37218 -14.2875,-0.88424 -3.33338,-0.23691 -9.07788,-0.96192 -12.43542,-1.56948 -0.80036,-0.14482 -1.87192,-0.33049 -2.38125,-0.41258 -3.19266,-0.51461 -11.67642,-2.49201 -17.4625,-4.07017 -4.6108,-1.2576 -18.33327,-5.38183 -20.76979,-6.24227 -1.11473,-0.39366 -7.87345,-2.52068 -13.89062,-4.37149 -1.96453,-0.60426 -3.86953,-1.19869 -4.23334,-1.32094 -1.59028,-0.53441 -13.29938,-4.03223 -18.12395,-5.41412 -1.89177,-0.54185 -4.15396,-1.19683 -5.02709,-1.45549 -0.87312,-0.25867 -2.54,-0.739 -3.70416,-1.0674 -1.16417,-0.3284 -2.59292,-0.75105 -3.175,-0.93922 -1.04345,-0.33732 -1.02647,-0.34243 1.20689,-0.36302 2.40072,-0.0221 2.41204,-0.0194 14.93269,3.63449 9.93362,2.8989 12.92134,3.78665 17.99167,5.34592 6.76053,2.07905 17.09071,5.22994 18.71927,5.70971 2.96663,0.87396 3.89524,1.1491 6.08442,1.80277 2.51822,0.75193 6.10371,1.77511 8.40151,2.39752 0.80037,0.21679 2.28865,0.62544 3.3073,0.9081 2.10926,0.5853 9.58633,2.31095 10.9802,2.53416 0.50933,0.0816 1.75948,0.31554 2.77813,0.51996 5.03134,1.00969 13.86789,2.17163 18.25625,2.40056 2.82885,0.14757 16.4477,0.65177 17.66094,0.65384 0.68577,0.001 0.7276,0.0697 0.7276,1.19187 v 1.19063 l -1.65365,-0.0539 c -0.9095,-0.0296 -2.66567,-0.086 -3.9026,-0.12525 z m -1.85208,-4.78168 c -1.8577,-0.10298 -7.96998,-0.76242 -15.256,-1.64596 -12.0169,-1.45722 -28.14913,-5.2716 -44.14296,-10.43738 -3.18007,-1.02711 -4.14192,-1.3319 -8.46667,-2.68287 -2.18281,-0.68187 -4.80218,-1.50551 -5.82083,-1.8303 -1.01865,-0.32479 -6.30429,-1.94734 -11.74586,-3.60568 l -9.89378,-3.01515 2.67273,-0.0753 2.67273,-0.0753 18.99501,5.79177 c 10.44725,3.18547 20.60235,6.2401 22.56688,6.78807 1.96453,0.54797 4.10765,1.15545 4.7625,1.34995 1.56146,0.46379 8.06572,2.01824 11.90625,2.84547 6.62403,1.42678 9.81991,1.96341 17.59675,2.9547 3.74392,0.47723 16.18109,1.44853 18.65116,1.45659 2.64357,0.009 2.91042,0.13476 2.91042,1.37565 v 1.05096 l -3.10885,-0.0896 c -1.70987,-0.0493 -3.64464,-0.11933 -4.29948,-0.15563 z m 1.98437,-3.96249 c -9.45701,-0.42704 -21.25179,-1.84248 -30.42708,-3.65142 -4.57942,-0.90285 -13.04462,-2.88269 -15.74271,-3.68191 -0.65484,-0.19397 -2.14312,-0.6136 -3.30729,-0.93252 -1.16417,-0.31891 -2.83104,-0.79881 -3.70417,-1.06645 -0.87312,-0.26764 -2.48047,-0.74772 -3.57187,-1.06684 -2.87737,-0.84133 -4.44015,-1.31324 -6.08542,-1.83762 -0.80036,-0.2551 -2.11005,-0.66069 -2.91042,-0.90132 -0.80036,-0.24063 -2.70536,-0.83224 -4.23333,-1.31469 -1.52797,-0.48244 -5.68943,-1.76028 -9.24769,-2.83963 l -6.46958,-1.96245 2.92404,-0.0744 c 2.9117,-0.0741 2.94235,-0.0684 7.26332,1.35532 14.86964,4.89942 33.73177,10.52114 37.54449,11.18986 0.36381,0.0638 1.01865,0.22498 1.45521,0.35816 0.89699,0.27364 11.07589,2.29966 12.7,2.52783 0.58209,0.0818 1.71318,0.26012 2.51354,0.39632 5.28636,0.89959 14.32097,1.77615 23.34948,2.26542 3.34244,0.18113 3.37344,0.1887 3.37344,0.8235 0,0.70134 0.35903,0.67401 -5.42396,0.41288 z m 1.05834,-2.91491 c -1.18576,-0.072 -6.50199,-0.504 -10.71563,-0.87085 -6.03702,-0.52559 -18.49241,-2.55051 -22.75417,-3.69921 -0.50932,-0.13729 -2.11666,-0.54062 -3.57187,-0.89629 -4.33301,-1.05906 -7.73462,-1.99287 -10.18646,-2.79638 -0.80036,-0.2623 -2.94349,-0.96323 -4.7625,-1.55763 -4.18192,-1.36652 -5.50103,-1.83492 -9.27145,-3.29216 -3.00268,-1.16051 -6.86813,-2.9788 -6.86813,-3.23074 0,-0.0709 12.7,-0.12897 28.22222,-0.12897 15.52222,0 28.15963,0.0626 28.08313,0.13909 -0.13948,0.13948 -10.79473,2.32532 -12.78139,2.622 -4.0798,0.60926 -10.36649,1.96975 -11.32455,2.45072 -1.52939,0.76779 -1.20701,1.54631 1.12226,2.71013 6.1692,3.08245 20.95944,5.9552 34.80854,6.76095 4.21443,0.2452 4.36562,0.28738 4.36562,1.218 v 0.79565 l -1.65365,-0.08 c -0.9095,-0.044 -2.12989,-0.10894 -2.71197,-0.14427 z m 0.72239,-4.72085 c -4.5782,-0.83205 -7.73385,-2.06768 -7.73385,-3.02825 0,-0.98003 1.52663,-1.71013 7.40833,-3.54295 1.52797,-0.47614 3.04602,-0.95151 3.37344,-1.0564 l 0.59531,-0.19069 v 4.11887 4.11887 l -0.8599,-0.0349 c -0.47294,-0.0192 -1.72544,-0.19224 -2.78333,-0.38451 z"
       style="fill:#000e0f;stroke-width:0.26458335" />
  </g>
</svg>
