<?xml version="1.0" encoding="UTF-8" standalone="no"?>
<svg
   xmlns:dc="http://purl.org/dc/elements/1.1/"
   xmlns:cc="http://creativecommons.org/ns#"
   xmlns:rdf="http://www.w3.org/1999/02/22-rdf-syntax-ns#"
   xmlns:svg="http://www.w3.org/2000/svg"
   xmlns="http://www.w3.org/2000/svg"
   id="svg1398"
   version="1.1"
   viewBox="0 0 224.93923 132.29912"
   height="132.29912mm"
   width="224.93922mm">
  <defs
     id="defs1392" />
  <metadata
     id="metadata1395">
    <rdf:RDF>
      <cc:Work
         rdf:about="">
        <dc:format>image/svg+xml</dc:format>
        <dc:type
           rdf:resource="http://purl.org/dc/dcmitype/StillImage" />
        <dc:title></dc:title>
      </cc:Work>
    </rdf:RDF>
  </metadata>
  <g
     transform="translate(-153.97739,-213.7651)"
     id="layer1">
    <path
       id="path1954"
       d="m 155.3122,345.90376 c 0,-0.35249 3.61258,-4.75663 5.70724,-6.95776 2.79211,-2.93404 4.75823,-4.46018 6.37152,-4.94571 1.11868,-0.33667 1.40227,-0.3304 2.56791,0.0568 0.72069,0.23938 2.24856,1.07409 3.39527,1.85491 2.89444,1.97089 3.8784,2.42874 6.00219,2.79293 1.74271,0.29885 2.12638,0.26121 6.86259,-0.67319 6.80042,-1.34163 8.46197,-1.48198 17.64432,-1.49038 16.41773,-0.015 24.69644,-0.97595 37.70312,-4.37632 8.16715,-2.13516 12.43864,-2.54705 16.40667,-1.58203 1.09003,0.26509 4.04688,1.30673 6.57078,2.31474 2.78365,1.11175 5.15074,1.89074 6.01707,1.98015 1.82646,0.18851 3.38122,-0.38276 4.6657,-1.71431 1.08731,-1.12717 1.37218,-1.66463 3.64965,-6.88576 2.70404,-6.19904 3.08013,-6.56094 6.75043,-6.49564 1.36061,0.0242 3.10624,0.17117 3.87917,0.32658 0.77293,0.15542 4.56048,0.71532 8.41678,1.24422 5.88101,0.8066 8.01393,0.98174 13.22917,1.08624 8.66697,0.17366 12.74174,-0.4959 16.40416,-2.69554 3.84974,-2.31213 7.67747,-3.91572 14.55209,-6.09642 6.92153,-2.19558 12.53235,-4.53669 20.85262,-8.70071 5.18016,-2.59251 15.55961,-7.56567 15.79023,-7.56567 0.0738,0 0.13268,0.20835 0.13078,0.46302 -0.002,0.32952 -0.63182,0.7224 -2.18282,1.36263 -1.19864,0.4948 -6.16795,2.8897 -11.0429,5.32201 -12.5459,6.25967 -17.08908,8.32271 -23.15104,10.51283 -1.45521,0.52575 -4.61036,1.96618 -7.01146,3.20096 -6.81236,3.5033 -7.21209,3.68342 -9.43177,4.25016 -2.98606,0.76241 -6.22068,1.07761 -11.07343,1.07906 -5.11615,0.002 -8.2408,-0.27031 -17.06563,-1.48469 -11.83977,-1.62926 -12.16328,-1.65984 -13.45928,-1.2721 -0.63589,0.19024 -1.43591,0.60871 -1.77783,0.92993 -0.54934,0.51607 -2.50156,4.86015 -4.35892,9.69946 -0.83674,2.1801 -2.28456,4.25073 -3.64318,5.21037 -1.7501,1.23616 -3.44117,1.21934 -7.05558,-0.0702 -1.60073,-0.57109 -3.95325,-1.47646 -5.22782,-2.01194 -4.42775,-1.86019 -9.17898,-2.1862 -14.48364,-0.99381 -1.23693,0.27803 -4.68974,1.056 -7.67291,1.72882 -4.94568,1.11542 -12.69475,2.53559 -16.0073,2.93363 -4.28376,0.51476 -8.9672,0.736 -19.71145,0.93115 l -12.03855,0.21865 -5.15937,1.00547 c -2.83766,0.55302 -5.81422,1.00474 -6.61458,1.00384 -2.18517,-0.002 -4.06807,-0.69029 -7.14375,-2.60963 -4.25973,-2.65823 -5.36376,-2.78174 -8.16204,-0.91312 -1.83284,1.22392 -6.10033,5.21412 -7.44838,6.96441 -0.75674,0.98254 -1.08325,1.20419 -1.78594,1.21237 -0.47294,0.006 -0.85989,-0.0622 -0.85989,-0.1504 z m 4.77674,-0.79124 c 1.30752,-1.36468 4.97393,-4.2902 6.12678,-4.88871 0.64138,-0.33298 1.51755,-0.50963 2.5277,-0.50963 1.41895,0 1.77215,0.13367 4.29595,1.62583 4.86623,2.87707 6.53129,3.12437 13.11044,1.94716 6.18658,-1.10698 7.51733,-1.20622 19.56551,-1.45906 12.50965,-0.26253 15.12651,-0.43419 22.48958,-1.47524 4.49784,-0.63593 7.29041,-1.16563 17.99167,-3.4127 7.73308,-1.6238 11.84054,-1.48649 16.7605,0.56026 5.05208,2.10173 7.13905,2.74292 8.92775,2.74292 3.88519,0 5.82277,-2.30389 8.95012,-10.64222 1.73285,-4.62022 2.50063,-6.19324 3.45808,-7.08487 0.66505,-0.61933 0.88155,-0.66005 3.39962,-0.63946 1.54272,0.0126 5.17111,0.38797 8.51018,0.88036 9.60241,1.41599 11.08589,1.5907 15.96889,1.88067 5.09213,0.3024 11.07119,0.0421 14.5939,-0.63534 2.9027,-0.55821 6.06393,-1.79711 9.56522,-3.74866 1.70229,-0.94883 5.69286,-2.97788 8.86791,-4.50899 3.17506,-1.53112 10.95205,-5.37554 17.2822,-8.54316 9.72693,-4.86736 13.3532,-6.59002 16.05399,-7.62641 0.28005,-0.10746 0.37535,-0.0177 0.31087,0.29269 -0.0589,0.28371 -1.25582,0.9618 -3.26798,1.85147 -1.74625,0.77209 -5.19906,2.4483 -7.67292,3.72491 -22.17381,11.4426 -22.32569,11.5234 -28.17812,14.99154 -6.48406,3.84243 -12.36274,5.25953 -21.79001,5.25265 -5.60442,-0.004 -9.60262,-0.3995 -22.65999,-2.24102 -6.05971,-0.85462 -8.34715,-0.87067 -9.55202,-0.067 -1.11035,0.7406 -2.55916,3.57407 -4.33738,8.48271 -1.82271,5.03148 -3.05833,7.29777 -4.91716,9.01871 -2.76361,2.55862 -4.8985,2.556 -11.03162,-0.0136 -4.19647,-1.75817 -6.09483,-2.22535 -9.71703,-2.39133 -3.4523,-0.15819 -6.269,0.23909 -15.34583,2.16443 -12.13672,2.57439 -18.15495,3.15934 -36.64479,3.56171 -10.99223,0.23921 -13.5081,0.45984 -18.12396,1.58941 -0.58209,0.14244 -2.68979,0.26183 -4.68379,0.2653 l -3.62545,0.006 -2.06309,-1.10355 c -4.81421,-2.57513 -5.15061,-2.71429 -6.5395,-2.70536 -1.61832,0.0104 -3.90157,1.09144 -5.75065,2.72271 -1.0763,0.94952 -1.39078,1.0862 -2.4993,1.0862 h -1.26807 z m 5.27742,0.80587 c 0,-0.0802 0.4129,-0.31831 0.91755,-0.52917 1.29444,-0.54085 3.75047,-0.47681 5.03558,0.13132 l 1.05833,0.5008 -3.50573,0.0214 c -1.92815,0.0118 -3.50573,-0.0442 -3.50573,-0.12439 z m 59.00209,-0.14653 c 4.89697,-0.58002 8.46557,-1.09176 11.07341,-1.58792 1.54947,-0.29479 4.9008,-0.93676 7.44742,-1.42659 12.09618,-2.32667 15.43422,-2.23802 22.48958,0.59719 6.68505,2.6864 9.33707,2.51314 12.32027,-0.8049 1.66581,-1.85278 1.81885,-2.16715 6.2104,-12.75734 1.62734,-3.92431 2.76501,-5.36946 4.48808,-5.70107 1.32785,-0.25555 1.92167,-0.20624 8.33438,0.69215 10.92984,1.53122 18.79106,2.11565 25.13541,1.86865 8.90585,-0.34673 14.18771,-1.8323 20.51568,-5.77021 10.71542,-6.66824 28.22668,-16.15726 34.45151,-18.66864 1.80175,-0.7269 2.05052,-0.77172 2.05052,-0.36941 0,0.29039 -0.36289,0.58602 -0.99219,0.80826 -1.83219,0.64707 -11.79814,5.62056 -16.20573,8.08744 -5.19219,2.90603 -9.12318,5.28378 -14.66245,8.86895 -8.66282,5.60682 -13.18614,7.14004 -23.43755,7.94439 -3.47951,0.27301 -5.05041,0.25535 -10.36529,-0.11648 -3.44534,-0.24104 -8.20784,-0.67368 -10.58333,-0.96142 -13.4375,-1.62765 -13.07142,-1.62539 -14.76964,-0.0912 -1.07871,0.97456 -3.06719,4.58498 -4.35457,7.90647 -1.55116,4.00205 -4.04712,8.71288 -5.4322,10.25261 l -1.36854,1.52135 -5.07207,-7.9e-4 c -4.96444,-8e-4 -5.11136,-0.0169 -6.92415,-0.7544 -3.07193,-1.24977 -5.06317,-1.6556 -8.86354,-1.80646 -3.72795,-0.14799 -5.86968,0.13051 -14.02291,1.82349 -2.47032,0.51295 -3.70157,0.58264 -11.1125,0.62893 -5.93679,0.0371 -7.76352,-0.0156 -6.35,-0.18297 z m 29.3026,0.0973 c 0.76398,-0.0534 2.01414,-0.0534 2.77812,0 0.76399,0.0534 0.13891,0.0972 -1.38906,0.0972 -1.52797,0 -2.15305,-0.0437 -1.38906,-0.0972 z m 25.88745,-0.53254 c 1.19115,-1.79749 3.16213,-5.39606 3.94894,-7.2099 3.20583,-7.39038 4.74114,-9.69294 7.24915,-10.87185 1.37615,-0.64687 1.01509,-0.66073 10.34102,0.3971 7.566,0.8582 16.21028,1.2995 21.29896,1.08733 11.83784,-0.49356 17.38257,-2.41185 28.04583,-9.7029 8.40203,-5.74491 20.87624,-12.70624 26.65677,-14.87602 1.64648,-0.61802 1.78594,-0.63323 1.78594,-0.19485 0,0.34548 -0.52452,0.67894 -1.91823,1.21948 -5.93026,2.30001 -13.54439,6.59666 -23.76488,13.41051 -4.30305,2.86879 -8.94649,5.77561 -10.31875,6.45961 -4.72608,2.35571 -9.15791,3.64687 -15.06272,4.38836 -4.57199,0.57412 -17.55313,0.43844 -26.11147,-0.27292 -8.6694,-0.72059 -9.41646,-0.61213 -12.02672,1.74609 -1.49626,1.35177 -2.10817,2.31826 -5.77938,9.12829 -3.11758,5.78306 -3.27595,6.01927 -4.03577,6.01927 h -0.79085 z m 3.179,-0.1323 c 0.24139,-0.47294 1.52042,-2.70536 2.8423,-4.96093 3.42215,-5.83935 5.25631,-7.53457 9.28841,-8.5848 1.16076,-0.30234 3.54618,-0.34391 12.88887,-0.22461 14.65481,0.18714 19.72928,-0.17914 26.73415,-1.92966 6.82174,-1.70476 10.2173,-3.48464 21.24284,-11.13505 7.55541,-5.24256 14.02377,-8.88214 21.23281,-11.94716 l 1.91823,-0.81556 v 0.62778 c 0,0.50751 -0.24078,0.71657 -1.25677,1.09118 -2.26731,0.836 -8.34081,3.80381 -11.44323,5.59173 -1.67349,0.96442 -5.06677,3.12481 -7.54062,4.80085 -2.47386,1.67604 -6.30622,4.26939 -8.51636,5.763 -7.97261,5.38787 -13.83361,7.55394 -24.15969,8.92878 -7.17785,0.95568 -10.7519,1.22081 -20.06963,1.48881 -9.08096,0.26118 -10.85256,0.49758 -13.70476,1.82871 -0.89513,0.41777 -2.12139,1.25345 -2.72502,1.85707 -0.98228,0.98228 -3.67144,4.83 -5.23306,7.48757 -0.4326,0.73622 -0.75771,0.99219 -1.26019,0.99219 h -0.67717 z m 3.3088,-0.39687 c 2.33921,-3.46227 4.90121,-5.76219 7.2461,-6.50487 1.47781,-0.46805 7.03757,-1.07855 13.62604,-1.49623 10.13679,-0.64263 17.73789,-1.77056 25.79763,-3.82813 8.0617,-2.05806 12.64114,-4.30727 21.29821,-10.46067 9.58854,-6.8155 16.62818,-10.95939 22.82031,-13.43323 l 2.05052,-0.8192 v 0.77559 c 0,0.42658 -0.1312,0.77559 -0.29155,0.77559 -0.59334,0 -7.08564,3.00885 -10.15876,4.70806 -3.531,1.95239 -8.55439,5.24145 -12.96531,8.48904 -8.13284,5.98789 -12.56263,8.47319 -19.10057,10.71623 -3.30869,1.13516 -11.6226,3.33892 -15.97419,4.23428 -3.3696,0.69331 -10.09671,1.42951 -17.18045,1.8802 -3.71078,0.23608 -7.40172,0.54115 -8.20209,0.67791 -2.2796,0.38954 -4.51379,1.67035 -6.49694,3.72453 -1.39114,1.44097 -1.9168,1.81767 -2.53644,1.81767 h -0.78162 z m 3.66428,0.87188 c 0.52861,-0.63694 2.43322,-1.64729 3.95537,-2.09823 0.96222,-0.28506 3.43555,-0.51438 7.54062,-0.69912 11.06138,-0.49782 17.80131,-1.53894 26.74625,-4.13153 4.92655,-1.4279 12.63653,-4.41589 16.61968,-6.44092 3.74659,-1.90476 4.45869,-2.37658 9.57407,-6.34345 7.51768,-5.8298 11.79545,-8.60444 18.32034,-11.88289 1.91878,-0.96409 5.94731,-2.67939 6.2928,-2.67939 0.069,0 0.1254,0.35719 0.1254,0.79375 0,0.45597 -0.14074,0.79586 -0.33073,0.79871 -0.73586,0.011 -8.02398,3.48767 -10.95596,5.2263 -4.09647,2.42916 -7.0364,4.54271 -10.92383,7.85329 -5.64348,4.80604 -9.94304,7.39337 -18.27073,10.99471 -13.11139,5.67007 -21.74395,7.62625 -36.22452,8.20863 -3.97313,0.15979 -7.51651,0.40179 -7.87419,0.53778 -0.35768,0.13599 -1.60965,0.24725 -2.78216,0.24725 -1.83547,0 -2.08743,-0.0535 -1.81241,-0.38489 z m 33.08286,-0.4052 c 6.3208,-1.70698 11.49843,-3.78614 19.44688,-7.8092 8.66342,-4.38495 11.80725,-6.4564 17.4625,-11.50592 5.12967,-4.58023 10.79251,-8.0963 16.75065,-10.4005 l 2.46314,-0.95258 -0.0819,0.82278 c -0.0733,0.7364 -0.23102,0.87329 -1.50215,1.30384 -2.49588,0.84539 -6.81437,3.04269 -9.4836,4.82537 -2.56708,1.71445 -3.5999,2.54214 -6.94466,5.56539 -4.08461,3.69199 -6.53984,5.43714 -12.97545,9.2228 -6.66996,3.92352 -13.77932,7.45519 -18.28826,9.08493 -1.56533,0.56578 -2.17084,0.63106 -5.68854,0.61326 l -3.93674,-0.0199 z m 13.62605,-0.24814 c 3.69544,-1.74235 8.00724,-4.2848 14.95393,-8.81759 6.31469,-4.1204 8.59102,-5.84726 13.88565,-10.53392 3.58072,-3.16955 7.26796,-5.42668 11.22286,-6.87004 1.18461,-0.43233 2.20994,-0.78605 2.27851,-0.78605 0.0686,0 0.12467,0.33834 0.12467,0.75187 0,0.65688 -0.14206,0.79317 -1.12448,1.07879 -0.61846,0.17981 -2.43417,0.96922 -4.03489,1.75424 -2.95356,1.44846 -4.59285,2.65171 -9.57594,7.0288 -4.2732,3.75354 -17.32447,12.91337 -22.77289,15.98281 l -2.57263,1.44932 -2.25073,-0.0201 -2.25073,-0.0201 2.11667,-0.99797 z m 9.95167,-1.1292 c 1.80262,-1.19208 5.9564,-4.18709 9.23062,-6.65557 6.5185,-4.91439 7.37976,-5.59887 12.01595,-9.54957 3.87191,-3.29942 7.5862,-5.4672 10.44241,-6.09453 0.77861,-0.17101 0.82497,-0.13718 0.82497,0.60217 0,0.71332 -0.11195,0.81155 -1.25208,1.09864 -2.24931,0.56638 -5.6812,2.57595 -9.07386,5.31327 -1.81505,1.46446 -5.31638,4.29384 -7.78071,6.28752 -9.04449,7.31711 -10.60489,8.54797 -12.47905,9.84357 -1.79338,1.23976 -2.0146,1.32193 -3.55899,1.32193 h -1.64675 z m 5.30067,0.67215 c 1.07007,-0.8224 3.55292,-2.88589 5.51745,-4.58552 4.79019,-4.14427 14.26263,-11.73533 16.23293,-13.00879 1.33585,-0.8634 4.38961,-2.07708 5.22619,-2.07708 0.13019,0 0.23457,0.38696 0.23196,0.8599 -0.005,0.8361 -0.0591,0.87709 -1.96825,1.48125 -1.07992,0.34174 -2.83396,1.13675 -3.89785,1.76668 -2.02717,1.20029 -8.81213,6.64432 -12.64998,10.14994 -1.23693,1.12985 -3.20146,2.87754 -4.36563,3.88375 -1.16416,1.00622 -2.4131,2.09851 -2.77542,2.42732 -0.51187,0.46453 -0.97518,0.59783 -2.07786,0.59783 h -1.41911 z m 5.41304,-0.15728 c 1.00331,-0.90891 2.84519,-2.67103 4.09307,-3.91582 6.01907,-6.00419 12.91251,-10.67955 16.25473,-11.0245 l 1.45244,-0.1499 v 1.32514 1.32513 l -1.95242,0.1253 c -1.64316,0.10545 -2.34514,0.31864 -4.43177,1.34593 -3.39392,1.67089 -5.4489,3.28727 -10.57099,8.31481 -4.30085,4.22144 -4.41001,4.30647 -5.52837,4.30647 h -1.1409 z m 5.79746,-1.28712 c 3.79711,-3.84124 6.41844,-5.93237 8.85171,-7.06133 2.08261,-0.96627 4.39557,-1.33986 6.19972,-1.0014 l 0.95135,0.17847 v 1.57906 1.57906 l -0.88684,-0.37054 c -1.58823,-0.66361 -2.95165,-0.75886 -4.64663,-0.32462 -3.0649,0.78519 -5.28776,2.28403 -9.53991,6.43261 -1.69495,1.65367 -2.10889,1.92837 -2.9059,1.92837 h -0.9294 z m 1.99989,2.25207 c 1.30752,-1.40165 3.92721,-3.29149 5.82015,-4.19866 2.41659,-1.15812 4.75655,-1.28498 6.87692,-0.37282 1.28703,0.55367 1.30582,0.57883 1.30582,1.7481 0,1.02531 -0.0628,1.16075 -0.46302,0.99777 -2.01968,-0.8226 -2.88878,-0.98461 -4.66919,-0.87035 -2.1917,0.14066 -4.36954,1.01508 -6.13862,2.46471 -0.88987,0.72918 -1.35381,0.91886 -2.24742,0.91886 h -1.12607 z m 6.06539,0.21188 c 1.23701,-0.57782 4.80868,-0.5616 6.08542,0.0276 0.89957,0.41517 0.81262,0.42707 -3.04271,0.41616 -3.87852,-0.011 -3.9477,-0.0211 -3.04271,-0.44379 z m -216.94655,-1.84952 c -0.01,-0.95946 0.23965,-1.51091 1.61677,-3.57188 3.6291,-5.43121 7.8178,-10.39311 9.70938,-11.50165 2.19267,-1.28499 4.74996,-0.83998 7.84436,1.36506 0.72761,0.51848 2.15636,1.36049 3.175,1.87114 2.82501,1.41617 4.06961,1.45341 9.87588,0.29555 6.20958,-1.23828 9.31559,-1.46534 20.15433,-1.47332 13.99062,-0.0103 20.03068,-0.8062 34.65302,-4.56617 7.26792,-1.86887 7.29104,-1.87285 10.85531,-1.87248 4.23622,5.3e-4 6.17948,0.44356 10.69331,2.4383 5.21784,2.30586 7.98863,2.88493 9.66245,2.01936 1.18173,-0.61109 2.69265,-2.51125 4.24581,-5.33961 2.23099,-4.06269 2.57886,-4.54383 3.6982,-5.11487 1.34476,-0.68605 3.16433,-0.68556 8.34502,0.002 10.24307,1.35992 13.32087,1.64028 18.12396,1.65093 6.75287,0.015 9.0979,-0.5354 12.6981,-2.98025 3.08436,-2.09455 6.34596,-3.16051 13.76023,-4.49713 10.80977,-1.94876 16.52074,-3.50594 21.84216,-5.95559 0.44429,-0.20452 1.57538,-0.72057 2.51354,-1.14677 0.93817,-0.42634 4.80139,-2.29199 8.58493,-4.14602 8.20601,-4.02116 12.29459,-5.95174 12.60457,-5.95174 0.12524,0 0.22452,0.20836 0.22061,0.46302 -0.005,0.31518 -0.57508,0.71141 -1.78594,1.24096 -0.97835,0.42786 -4.93398,2.31557 -8.79028,4.1949 -16.81554,8.19489 -19.57463,9.29889 -28.88728,11.55875 -8.53098,2.07017 -10.8581,2.8999 -15.40586,5.49294 -3.35016,1.91018 -5.84113,2.6273 -10.47474,3.01552 -4.22104,0.35366 -8.42855,0.10148 -15.74358,-0.9436 -9.54268,-1.36334 -13.57098,-1.8075 -14.7668,-1.62818 -2.19558,0.32925 -2.76007,0.94004 -4.94466,5.35023 -3.0651,6.18773 -4.2704,7.64584 -6.57579,7.95506 -1.5279,0.20494 -3.37239,-0.3093 -7.844,-2.18686 -5.52851,-2.32134 -6.70947,-2.60652 -10.84792,-2.61959 -3.66613,-0.0116 -3.85575,0.024 -15.61041,2.93229 -11.32434,2.80179 -18.05107,3.52461 -32.94063,3.53964 -9.8077,0.01 -11.62781,0.156 -18.01422,1.44612 -2.53421,0.51193 -4.96959,0.93165 -5.41196,0.93271 -1.86045,0.004 -3.97577,-0.82578 -6.73632,-2.64391 -4.31537,-2.84215 -5.60599,-3.18129 -7.8931,-2.07412 -1.71262,0.82907 -5.88138,5.1174 -8.83224,9.08558 -1.40678,1.89177 -2.73815,3.67771 -2.9586,3.96875 -0.3783,0.49943 -0.40148,0.46542 -0.41261,-0.60546 z m -0.003,-5.40017 c -0.007,-1.07179 0.37429,-1.97757 2.76817,-6.57157 3.01796,-5.79167 3.44488,-6.49414 4.87169,-8.01596 2.37767,-2.53601 3.68397,-2.43262 10.79243,0.85415 3.8877,1.79757 5.88882,2.4088 7.88625,2.4088 0.73971,0 3.36383,-0.4289 5.83139,-0.9531 l 4.48645,-0.9531 12.7,-0.22106 c 8.28438,-0.14419 13.98789,-0.36427 16.40417,-0.63298 6.16104,-0.68516 13.01394,-2.18188 19.45786,-4.24973 4.6321,-1.48644 7.91439,-2.08092 11.49839,-2.08256 3.97506,-0.002 5.63783,0.39433 10.84007,2.58254 7.84259,3.29882 9.01655,3.1672 12.998,-1.45721 1.24002,-1.44027 2.63451,-2.81745 3.09888,-3.0604 1.05925,-0.55418 4.93884,-0.53239 10.19051,0.0572 7.98132,0.89609 13.73589,0.76147 16.31837,-0.38174 0.58208,-0.25768 1.64464,-1.03929 2.36123,-1.73691 1.4781,-1.43898 3.34381,-2.35853 5.61058,-2.76529 1.95412,-0.35065 7.81764,-0.92285 16.50215,-1.61036 16.21415,-1.2836 20.5141,-2.46953 35.59329,-9.81665 8.6736,-4.22609 14.24576,-6.84994 14.54691,-6.84994 0.0718,0 0.13063,0.22516 0.13063,0.50036 0,0.3796 -0.62261,0.77197 -2.57969,1.62573 -1.41883,0.61895 -5.18793,2.42769 -8.37577,4.01943 -17.80316,8.88931 -21.41969,10.00302 -40.20591,12.38131 -9.21076,1.16606 -11.36039,1.78883 -14.58759,4.22618 -3.08053,2.32658 -4.92463,2.77722 -11.1125,2.71554 -2.68855,-0.0268 -6.30728,-0.26868 -8.99583,-0.60129 -12.36971,-1.53034 -12.72289,-1.53943 -14.49313,-0.3732 -0.56796,0.37417 -1.52674,1.48278 -2.22102,2.5681 -2.97615,4.65243 -4.52812,6.01076 -6.86767,6.01076 -1.17608,0 -4.04682,-0.93338 -8.43276,-2.74179 -3.8324,-1.58016 -5.56919,-2.0236 -8.59896,-2.1955 -3.29239,-0.18679 -6.16882,0.30154 -12.7,2.15607 -12.32148,3.49868 -18.80731,4.31454 -36.77708,4.62621 l -11.77396,0.2042 -4.49792,0.95735 c -6.84622,1.45715 -8.08671,1.32036 -13.03486,-1.4374 -4.73851,-2.64092 -7.56692,-3.23003 -9.43181,-1.96448 -1.67586,1.13726 -3.02949,2.93505 -7.36985,9.78804 -2.90195,4.58191 -2.82091,4.49631 -2.83111,2.99021 z m -0.008,-8.16907 c 0,-3.23532 0.39505,-4.79633 2.23561,-8.83382 2.04197,-4.47935 3.97463,-6.05631 6.70476,-5.4708 0.72297,0.15504 3.38269,1.2262 5.91049,2.38033 2.52781,1.15414 5.1318,2.24495 5.78664,2.42403 1.93871,0.53017 5.11569,0.37901 7.99785,-0.38054 5.47876,-1.44385 6.40753,-1.52551 19.91569,-1.75093 12.68505,-0.21169 15.33034,-0.39472 20.76979,-1.43705 3.04955,-0.58437 9.40214,-2.14347 11.90625,-2.92212 8.89769,-2.76673 11.67102,-3.38421 15.21354,-3.38732 3.33369,-0.003 5.26382,0.44504 9.525,2.21066 7.62418,3.15908 8.81522,3.27325 12.30313,1.17928 2.27338,-1.36483 3.87652,-1.7178 8.99583,-1.98065 2.54662,-0.13076 5.0669,-0.36647 5.60063,-0.5238 0.90842,-0.26778 1.44981,-0.77982 3.11568,-2.94683 1.30609,-1.699 4.82752,-2.58984 10.33369,-2.61421 1.81901,-0.008 8.03237,0.13017 13.80746,0.30714 20.35214,0.62368 29.93604,-0.51288 40.93073,-4.85399 1.0746,-0.42429 6.79029,-3.14756 12.70153,-6.05171 5.91124,-2.90414 10.83632,-5.28026 10.94462,-5.28026 0.1083,0 0.19691,0.2379 0.19691,0.52868 0,0.40832 -0.58729,0.80852 -2.57969,1.7579 -1.41883,0.67607 -6.21109,3.00955 -10.64948,5.18551 -12.91202,6.33024 -16.72362,7.68629 -25.79687,9.17774 -5.15571,0.84749 -8.8892,1.08796 -20.90208,1.34629 -10.7075,0.23026 -14.5983,0.47613 -16.8167,1.06268 -1.33367,0.35262 -3.18011,1.65622 -3.93372,2.77722 -1.50504,2.23878 -3.86354,2.64299 -12.98715,2.22582 -8.34369,-0.38151 -8.63512,-0.3254 -11.71716,2.25566 -1.13469,0.95024 -2.43172,1.91835 -2.8823,2.15135 -1.72823,0.8937 -4.75921,0.37531 -8.9034,-1.52277 -5.15359,-2.36039 -7.935,-2.99104 -12.31395,-2.79203 -3.2791,0.14903 -7.09406,1.00046 -13.92166,3.10707 -5.22867,1.61327 -12.58281,3.12204 -18.12396,3.71831 -1.65757,0.17836 -7.75098,0.3379 -14.15521,0.3706 -11.82096,0.0604 -12.0495,0.0785 -18.58816,1.47266 -4.7557,1.01401 -6.69054,1.01549 -9.69948,0.007 -1.26733,-0.42459 -3.44516,-1.31963 -4.83962,-1.98897 -3.24938,-1.55971 -5.3167,-2.26612 -6.63178,-2.26612 -2.91989,0 -5.27362,3.17326 -7.99726,10.78177 -0.69023,1.92815 -1.30024,3.50573 -1.35558,3.50573 -0.0553,0 -0.10062,-1.31846 -0.10062,-2.92991 z m 0.003,-13.53401 c -0.003,-3.27107 0.11194,-3.55118 2.47507,-6.03318 1.5591,-1.63752 2.60824,-2.08205 4.06905,-1.72409 0.40114,0.0983 2.21762,1.04788 4.03663,2.1102 4.6412,2.71048 5.37056,3.05074 7.48421,3.49144 2.27517,0.47439 3.57652,0.34451 8.50556,-0.84891 4.95849,-1.20055 7.25312,-1.3829 19.4644,-1.54682 11.55329,-0.15509 15.83945,-0.49592 21.98557,-1.74825 4.10939,-0.83733 11.12497,-2.76681 13.49372,-3.71115 0.78655,-0.31357 2.68024,-0.96866 4.20821,-1.45576 8.20435,-2.61548 11.93454,-2.87767 18.12824,-1.27422 6.9914,1.80996 7.41988,1.79568 8.85858,-0.2954 0.87473,-1.27138 2.31979,-2.00513 5.02776,-2.55293 2.53071,-0.51195 14.75137,-0.43814 20.90208,0.12624 28.60852,2.62507 29.08556,2.65733 36.5125,2.46908 10.29895,-0.26104 17.93627,-1.61296 25.0466,-4.43361 1.77016,-0.70221 7.99462,-3.66286 13.83215,-6.5792 5.83752,-2.91634 10.66976,-5.30244 10.7383,-5.30244 0.0685,0 0.12462,0.27468 0.12462,0.6104 0,0.54054 -1.26422,1.2353 -11.04635,6.07061 -6.0755,3.00313 -11.76073,5.75196 -12.63386,6.10852 -4.71345,1.92486 -11.24981,3.5758 -17.19791,4.34381 -5.18986,0.67011 -19.80873,0.58706 -29.89792,-0.16985 -17.03526,-1.27801 -21.12879,-1.32873 -25.38574,-0.31452 -2.45343,0.58453 -3.1861,1.08256 -4.24449,2.88518 -0.43858,0.74698 -1.06315,1.54426 -1.38794,1.77175 -0.32478,0.22749 -2.13204,0.94407 -4.01612,1.5924 -5.1467,1.77103 -6.24433,1.68866 -12.28529,-0.9219 -4.72168,-2.04044 -6.60716,-2.49845 -10.22729,-2.48434 -3.64842,0.0142 -6.27053,0.59873 -14.01119,3.12327 -5.94746,1.93971 -7.88352,2.45414 -13.37319,3.55338 -6.40817,1.28317 -10.54133,1.61055 -22.225,1.76041 -11.97388,0.15358 -14.15434,0.33491 -19.18229,1.5952 -6.16802,1.54607 -8.0471,1.29214 -14.76168,-1.99477 -4.69267,-2.29714 -6.12703,-2.75396 -7.49262,-2.38624 -1.57084,0.42298 -3.48333,2.62511 -4.87397,5.6121 l -0.64781,1.39146 z m 16.10101,-5.62924 c -1.20395,-0.38756 -5.53199,-3.0669 -6.66449,-4.12575 -0.31656,-0.29598 -1.17087,-0.87748 -1.89848,-1.29223 -2.76673,-1.57712 -4.61864,-1.04479 -6.79227,1.9524 l -0.74835,1.03188 v -3.43681 -3.43681 l 0.7276,-0.33513 c 1.07318,-0.4943 3.47832,-0.64561 4.75822,-0.29935 0.99637,0.26955 2.40249,1.23618 6.50017,4.46854 0.61099,0.48196 1.82526,1.22601 2.69838,1.65344 2.21712,1.08536 4.19299,1.05643 8.90532,-0.13042 1.9828,-0.49938 4.54072,-1.04267 5.68426,-1.2073 1.14355,-0.16464 7.49652,-0.40396 14.11772,-0.53183 11.98558,-0.23148 14.42734,-0.40969 20.09377,-1.46653 3.15822,-0.58904 8.64788,-2.04383 11.78852,-3.12403 14.12023,-4.85653 14.10077,-4.85125 19.31458,-5.23415 7.55568,-0.55488 27.28079,-0.0192 35.05729,0.95216 0.65485,0.0818 3.45281,0.39277 6.21771,0.69108 2.7649,0.2983 8.89661,1.01244 13.62604,1.58698 11.98422,1.45587 12.48322,1.50701 18.12396,1.85723 8.14633,0.50579 15.84643,0.0788 22.48435,-1.24683 7.58752,-1.51526 9.71562,-2.37009 24.24054,-9.73705 5.61682,-2.84882 10.29002,-5.17967 10.3849,-5.17967 0.0949,0 0.17171,0.26789 0.17074,0.59531 -0.002,0.51934 -1.49565,1.34582 -11.70782,6.47625 -11.81239,5.93436 -14.14731,6.92345 -20.04042,8.48923 -7.12694,1.89361 -17.31056,2.59123 -27.56176,1.8881 -4.09304,-0.28075 -10.28389,-0.90109 -23.37053,-2.3418 -15.85916,-1.74595 -26.48166,-2.1566 -36.5125,-1.41153 -2.47385,0.18375 -6.22432,0.45282 -8.33437,0.59795 -5.24459,0.3607 -7.37168,0.87032 -16.42108,3.9343 -15.33649,5.19268 -18.91055,5.77035 -37.81851,6.11257 -12.73987,0.23058 -13.63862,0.31211 -18.91771,1.71624 -3.2821,0.87298 -6.41145,1.07896 -8.10578,0.53356 z m 0.39153,-7.01634 c -1.55539,-0.31568 -3.09355,-1.14381 -5.38262,-2.89795 -1.09141,-0.83636 -2.50301,-1.78428 -3.13691,-2.1065 -1.47878,-0.75169 -4.21504,-1.32977 -6.32194,-1.33563 l -1.65365,-0.005 v -1.19063 c 0,-1.1755 0.0113,-1.19062 0.89138,-1.19062 1.26503,0 5.34842,0.72947 6.91383,1.23511 0.7276,0.23503 2.60953,1.06966 4.18206,1.85473 4.48561,2.23942 4.98852,2.26429 11.95752,0.59124 l 3.43958,-0.82574 11.64167,-0.21239 c 7.52905,-0.13736 12.92039,-0.3596 15.26138,-0.62909 5.92868,-0.68251 12.21263,-2.09105 21.15941,-4.74286 5.79045,-1.71628 11.00238,-2.17697 22.05213,-1.94924 17.11302,0.35269 26.3848,1.26665 61.9125,6.10298 5.59556,0.76171 10.95007,1.02502 17.85262,0.8779 7.54725,-0.16087 10.73444,-0.53981 16.01404,-1.90403 4.61656,-1.19288 6.67621,-1.96542 11.23133,-4.21268 3.79625,-1.87287 17.07397,-8.85776 19.2619,-10.13293 l 1.12448,-0.65537 v 0.81396 c 0,0.92015 1.04151,0.27946 -9.78958,6.02216 -9.76857,5.17935 -13.87639,7.11879 -17.78346,8.39617 -7.26785,2.37617 -12.75417,3.1383 -22.69779,3.15307 -7.26792,0.0108 -10.6757,-0.24032 -20.79608,-1.5324 -2.75044,-0.35115 -8.69173,-1.11178 -13.20288,-1.69029 -17.57567,-2.2539 -30.08488,-3.20214 -42.27761,-3.20477 -9.67813,-0.002 -13.47934,0.5955 -22.01462,3.46094 -7.11125,2.38738 -14.00606,4.11326 -18.91923,4.73579 -1.23692,0.15672 -2.66567,0.35005 -3.175,0.42961 -0.50932,0.0796 -6.28385,0.24286 -12.83229,0.36288 -12.31638,0.22574 -13.16197,0.29804 -18.52083,1.58362 -3.95154,0.94796 -5.0035,1.07923 -6.39134,0.79755 z m 153.76425,-8.11713 c -3.20572,-0.14075 -10.11064,-0.86385 -15.875,-1.66248 -37.51817,-5.19799 -42.97233,-5.68413 -63.76458,-5.68334 -14.16252,5.3e-4 -14.90098,0.0581 -21.64171,1.68546 -3.78347,0.91344 -9.48939,2.0058 -12.48954,2.39102 -5.47641,0.70319 -8.42823,0.87099 -18.52083,1.05283 l -10.84792,0.19545 -4.45574,0.97072 c -5.09461,1.1099 -6.57402,1.17713 -9.65412,0.43873 -3.26255,-0.78214 -9.74782,-2.05904 -11.48858,-2.26201 l -1.52135,-0.17739 v -1.17797 c 0,-0.99719 0.0711,-1.15714 0.46302,-1.04226 0.25466,0.0746 3.02287,0.39303 6.15156,0.70754 6.9199,0.69561 9.59385,0.6066 14.94896,-0.49762 5.20478,-1.07323 8.85449,-1.36227 17.24302,-1.36557 9.82614,-0.004 14.20473,-0.33592 26.14865,-1.98295 7.92367,-1.09264 14.29318,-1.32117 27.11979,-0.97302 12.43798,0.3376 21.42757,0.83861 29.63333,1.65154 6.28035,0.62218 6.89394,0.70151 23.41563,3.02766 6.83948,0.96295 13.62604,1.91407 15.08125,2.11359 9.75595,1.33762 21.47744,1.37262 28.575,0.0853 7.63385,-1.38457 13.516,-3.73769 23.15104,-9.26146 2.40109,-1.37654 5.91343,-3.37434 7.80521,-4.43955 1.89177,-1.0652 3.82653,-2.16855 4.29947,-2.45188 l 0.8599,-0.51514 -0.002,1.01376 c -0.002,0.93681 -0.0975,1.06515 -1.25677,1.69056 -2.85211,1.53863 -7.85575,4.29731 -11.70558,6.45369 -12.37809,6.93326 -19.09172,9.10396 -30.69167,9.92346 -3.60965,0.25501 -6.67171,0.28048 -10.98021,0.0913 z m -1.19062,-3.67626 c -0.50933,-0.0583 -2.24856,-0.23218 -3.86496,-0.38641 -3.14769,-0.30034 -9.5314,-1.16089 -21.40275,-2.88518 -25.68436,-3.73059 -37.70472,-4.60858 -63.36771,-4.62851 -13.28922,-0.0103 -17.36309,0.0737 -22.225,0.45869 -3.27422,0.25923 -10.71562,0.58682 -16.53646,0.72797 -11.2025,0.27166 -15.98337,0.54925 -20.5052,1.19057 -7.97928,1.13168 -14.9443,1.49241 -19.54036,1.01202 l -1.62631,-0.16998 v -1.95173 c 0,-1.88379 0.0207,-1.94747 0.59531,-1.82964 1.83235,0.37576 6.44713,0.38866 12.76615,0.0357 18.81865,-1.05116 31.08739,-1.41784 54.9555,-1.64248 32.35999,-0.30455 47.08533,0.63902 76.54241,4.90469 22.5477,3.26512 26.28163,3.63857 33.73438,3.37392 8.82538,-0.31339 15.09439,-1.5539 21.57595,-4.26943 3.57973,-1.49978 5.22221,-2.39963 12.91091,-7.0734 3.36967,-2.04835 7.01965,-4.25395 8.11105,-4.90134 1.09141,-0.64739 2.37133,-1.41274 2.84427,-1.70078 l 0.8599,-0.5237 v 1.19559 1.19559 l -3.10885,1.82942 c -1.70987,1.00618 -4.59714,2.6983 -6.41615,3.76027 -1.81901,1.06197 -4.55745,2.67365 -6.08542,3.58152 -7.63196,4.53464 -14.0931,6.90928 -22.35729,8.21689 -2.52281,0.39917 -15.51431,0.74816 -17.85937,0.47974 z m -2.02616,-4.61587 c -1.33267,-0.12657 -3.71392,-0.40701 -5.29167,-0.62318 -6.85351,-0.93904 -25.50794,-3.59459 -27.07801,-3.85468 -6.3599,-1.05356 -21.66901,-2.41938 -34.66041,-3.09226 -11.06457,-0.57309 -36.42332,-0.61289 -68.13021,-0.10694 -20.29815,0.3239 -22.29087,0.31642 -26.32604,-0.0988 -6.11094,-0.62885 -5.55625,-0.35154 -5.55625,-2.77777 v -2.04003 l 2.84427,0.58602 c 7.80462,1.60804 11.65214,1.72515 53.90885,1.6409 47.19521,-0.0941 51.50713,0.0809 75.80313,3.07729 7.15868,0.88286 11.94162,1.53204 24.34166,3.30383 2.98318,0.42626 6.85271,0.9342 8.59896,1.12877 4.26492,0.47519 17.44679,0.47441 20.6375,-0.001 7.43535,-1.10836 13.52595,-3.16941 19.69313,-6.66413 1.08115,-0.61265 5.74887,-3.6 10.3727,-6.63855 4.62384,-3.03844 8.47192,-5.52453 8.5513,-5.52453 0.0794,0 0.14412,0.68461 0.14386,1.52135 l -5.3e-4,1.52136 -1.2563,0.78017 c -2.0798,1.29159 -8.93775,5.61807 -13.16255,8.30387 -8.11982,5.16195 -14.55527,7.74826 -22.88646,9.19769 -2.91823,0.50771 -16.49142,0.74616 -20.54699,0.36097 z m 1.59915,-6.07934 c -2.92182,-0.22977 -11.04668,-1.2207 -16.10945,-1.96475 -4.02872,-0.59208 -15.97503,-2.19233 -19.84375,-2.65815 -1.89177,-0.22778 -4.39208,-0.52954 -5.55625,-0.67058 -3.35058,-0.40594 -14.33261,-1.27416 -19.97094,-1.57887 -11.74782,-0.63489 -30.10502,-0.81443 -52.26031,-0.51113 -31.97391,0.43772 -40.65158,-0.0112 -52.40452,-2.71092 l -2.49652,-0.57347 v -1.68039 c 0,-1.60721 0.0259,-1.67437 0.59531,-1.54212 1.59502,0.37049 12.39195,2.0138 15.54427,2.36587 9.73325,1.08707 17.74314,1.20024 48.28646,0.68226 26.82092,-0.45486 51.82586,0.26946 64.02917,1.85473 1.16416,0.15123 6.89772,0.86568 12.74122,1.58767 5.84351,0.72199 12.27289,1.54721 14.2875,1.83382 13.196,1.87734 25.73308,2.11465 33.56086,0.63525 5.09053,-0.96208 10.06018,-2.74254 14.68437,-5.26094 3.28197,-1.78741 5.53614,-3.31367 16.27188,-11.01743 2.32833,-1.67076 4.38216,-3.12465 4.56406,-3.23087 0.2544,-0.14854 0.32894,0.34484 0.32296,2.1376 l -0.008,2.33072 -2.83651,1.96132 c -14.32854,9.90759 -19.46354,13.03779 -24.28163,14.80165 -3.24803,1.18907 -7.85304,2.34631 -11.23092,2.82232 -3.59584,0.50673 -13.60914,0.72301 -17.8895,0.38641 z m -1.82195,-9.80017 c -3.52071,-0.26446 -16.37443,-1.71386 -18.65313,-2.10336 -2.54161,-0.43444 -17.92002,-2.07512 -23.41562,-2.49814 -12.62747,-0.972 -22.75174,-1.26265 -38.76146,-1.11277 -8.51297,0.0797 -21.19312,0.32686 -28.17812,0.54923 -16.86257,0.53685 -31.19719,0.54512 -37.04167,0.0214 -2.47385,-0.22168 -7.53401,-0.63708 -11.24479,-0.92311 -3.71078,-0.28602 -7.37195,-0.59103 -8.13594,-0.67779 l -1.38906,-0.15775 v -1.0261 -1.02609 l 5.09323,0.12019 c 2.80128,0.0661 9.45838,0.25805 14.79357,0.42655 10.62688,0.33562 16.80601,0.21878 30.64862,-0.57955 22.69964,-1.30912 32.43321,-1.72011 47.36041,-1.99976 12.15732,-0.22775 29.88406,0.44879 38.62917,1.47428 2.19534,0.25744 16.14888,1.70645 24.34166,2.52778 5.76854,0.57829 17.52966,0.79756 21.96042,0.40941 6.41064,-0.5616 11.93502,-2.0207 17.59267,-4.6466 4.50909,-2.09281 7.49091,-4.09007 17.93508,-12.01313 l 6.40871,-4.86173 0.0747,3.25955 c 0.0411,1.79275 0.0235,3.39299 -0.0391,3.55609 -0.15343,0.39983 -11.64902,9.02284 -15.77832,11.83554 -7.64158,5.20512 -14.817,8.05658 -23.15104,9.20003 -2.81991,0.3869 -15.06775,0.54496 -19.05,0.24585 z M 154.18772,260.18662 c -0.10914,-0.11012 -0.19844,-0.64755 -0.19844,-1.19429 v -0.99406 l 14.35365,-0.0225 c 18.24491,-0.0286 24.87755,-0.41868 38.43072,-2.26002 1.60073,-0.21748 8.50636,-1.05256 15.34584,-1.85574 6.83948,-0.80317 13.38791,-1.57997 14.55208,-1.72621 1.16417,-0.14624 5.50995,-0.61497 9.65729,-1.04161 21.55041,-2.21693 32.76534,-2.50761 54.50417,-1.41273 5.18981,0.26139 13.42421,0.43965 20.76979,0.44964 11.37277,0.0155 12.41372,-0.0223 15.875,-0.57609 3.65036,-0.58404 7.74999,-1.69498 11.37593,-3.08271 4.86986,-1.8638 11.0989,-5.76292 20.45071,-12.8013 2.86826,-2.15872 6.19729,-4.61142 7.39784,-5.45044 l 2.18281,-1.5255 v 4.24199 4.24199 l -1.78361,1.27014 c -0.98098,0.69858 -3.92778,2.91628 -6.54843,4.92822 -17.01056,13.05941 -25.59851,16.31796 -43.0062,16.31796 -5.21283,0 -10.80575,-0.30476 -22.21593,-1.21055 -15.72327,-1.24819 -18.67007,-1.43053 -27.20884,-1.6836 -18.04636,-0.53486 -38.4547,0.68878 -82.06407,4.92035 -4.47757,0.43447 -41.49337,0.8474 -41.87031,0.46708 z m 10.51718,-4.88101 c -5.82083,-0.0873 -10.61309,-0.18109 -10.64947,-0.20842 -0.0364,-0.0273 -0.0662,-0.71726 -0.0662,-1.5332 0,-1.30543 0.0556,-1.46178 0.46302,-1.30251 1.74551,0.68235 33.20153,1.04943 38.9599,0.45465 6.90171,-0.71287 17.69603,-2.40659 36.64479,-5.74987 28.09073,-4.95628 36.59349,-6.27955 45.77291,-7.12356 7.42852,-0.68303 10.48823,-0.84579 37.43854,-1.99149 12.81612,-0.54484 17.98548,-0.98533 22.225,-1.89386 5.3138,-1.13875 10.98574,-3.36128 16.22311,-6.35698 3.43981,-1.96752 4.75385,-2.86309 12.35189,-8.4184 3.71078,-2.71314 7.57905,-5.49018 8.59614,-6.17122 1.8318,-1.22655 1.86998,-1.23824 4.04482,-1.23824 h 2.19557 l -0.0761,2.41701 -0.0761,2.41702 -2.30158,1.38761 c -1.26587,0.76319 -4.46305,2.97952 -7.10484,4.92517 -12.95469,9.54103 -16.41466,11.72105 -22.7838,14.35539 -3.84002,1.58827 -9.62945,2.97742 -15.03791,3.60827 -1.5078,0.17588 -12.30624,0.38249 -26.9875,0.51639 -31.35788,0.28598 -34.57554,0.48833 -56.75312,3.5691 -4.80219,0.66709 -10.57672,1.50723 -12.83229,1.86698 -3.99814,0.63768 -17.91898,2.73017 -29.89792,4.49406 -3.27422,0.48213 -8.03672,1.06864 -10.58333,1.30335 -4.45267,0.4104 -16.34036,0.98423 -18.25625,0.88125 -0.50932,-0.0274 -5.68854,-0.1212 -11.50938,-0.2085 z m 11.77396,-5.04613 c -12.05784,-0.54021 -20.34164,-1.05477 -21.3651,-1.32711 l -1.12448,-0.29923 v -1.8482 c 0,-1.66016 0.0471,-1.82782 0.46302,-1.64779 1.05001,0.45449 4.45858,0.88771 9.19427,1.16857 2.7649,0.16397 6.63443,0.47492 8.59896,0.691 8.5942,0.94527 21.04064,1.10201 29.10417,0.36652 7.96438,-0.72645 22.1853,-3.3396 38.62916,-7.09827 4.43839,-1.0145 10.39151,-2.3756 13.22917,-3.02465 17.87234,-4.08791 24.87855,-5.17688 48.81562,-7.58731 24.3151,-2.4485 28.88245,-3.15705 35.29351,-5.47522 5.55237,-2.00768 9.97902,-4.307 15.86017,-8.23821 l 3.24199,-2.16707 h 4.01655 4.01654 l -3.43313,2.54784 c -10.11134,7.50396 -17.64099,11.54063 -25.33847,13.58405 -6.0517,1.60652 -10.14004,2.04133 -38.68424,4.11423 -20.24747,1.47038 -26.03454,2.255 -45.01394,6.10307 -6.09275,1.23531 -13.81616,2.78092 -17.16314,3.43469 -3.34698,0.65377 -7.87136,1.53816 -10.05417,1.9653 -7.09948,1.38926 -20.7848,3.71267 -24.19113,4.10702 -7.07567,0.81916 -15.16419,1.0309 -24.09533,0.63077 z m 6.35,-5.81664 c -1.96453,-0.11412 -5.23875,-0.44704 -7.27604,-0.73983 -4.08545,-0.58714 -7.05366,-0.92069 -12.03854,-1.35281 -4.00537,-0.34722 -6.29168,-0.68747 -8.13594,-1.21081 l -1.38906,-0.39416 v -2.37386 c 0,-1.30562 0.0498,-2.37386 0.11055,-2.37386 0.0608,0 0.71613,0.30416 1.45627,0.67591 1.82325,0.91577 4.02578,1.32698 9.81026,1.83156 5.41804,0.47262 6.38569,0.60408 12.7,1.72532 5.49646,0.97602 8.40763,1.22626 18.78542,1.61478 7.41399,0.27756 8.8457,0.26214 12.96458,-0.13961 4.75177,-0.46347 13.39616,-1.82731 17.60616,-2.77774 5.81515,-1.3128 12.75991,-3.02631 16.65738,-4.10996 2.32834,-0.64736 6.01927,-1.67441 8.20209,-2.28232 20.39867,-5.68103 27.00087,-6.99311 63.23541,-12.567 10.08613,-1.55153 15.82528,-2.99597 21.07724,-5.30476 l 2.02724,-0.89118 h 4.58314 4.58315 l -1.84788,1.09299 c -5.99623,3.54665 -14.34969,6.55496 -21.55935,7.7641 -2.55177,0.42796 -10.2089,1.45999 -28.575,3.85133 -11.76451,1.5318 -11.98071,1.56422 -18.65312,2.79704 -8.26683,1.52742 -19.82347,4.11821 -25.79687,5.78319 -2.83632,0.79058 -16.32233,4.14051 -19.71146,4.89633 -10.29449,2.29582 -18.27969,3.7292 -24.38384,4.37699 -3.98503,0.4229 -17.95073,0.48484 -24.43179,0.10836 z m 18.91771,-5.96479 c -0.7276,-0.0595 -4.06673,-0.28268 -7.42029,-0.49588 -6.42582,-0.4085 -10.20413,-0.94964 -15.77151,-2.25883 -4.11804,-0.96837 -7.38109,-1.45547 -12.26237,-1.8305 -6.31694,-0.48534 -8.52539,-1.16244 -10.97508,-3.36493 l -1.32804,-1.19402 0.0146,-5.86246 0.0146,-5.86246 0.49387,1.88368 c 0.68811,2.6245 2.13182,5.36446 3.45779,6.56239 2.21818,2.004 4.80153,2.75166 11.49732,3.32749 4.05529,0.34876 9.0301,1.26839 13.62605,2.51888 4.35435,1.18476 8.0151,1.85991 12.7,2.34226 22.70836,2.33801 33.08722,1.0661 58.7375,-7.19819 8.38203,-2.70061 10.2222,-3.25627 16.35123,-4.93747 8.74757,-2.39947 14.73107,-3.80648 26.51126,-6.23408 l 10.18646,-2.09918 8.99584,0.0216 c 5.80985,0.014 8.71471,0.10643 8.20208,0.26109 -1.25558,0.3788 -8.13617,1.71044 -15.47813,2.99558 -10.97725,1.92146 -22.40197,4.05483 -26.34597,4.91965 -6.09121,1.33565 -11.75178,2.66997 -14.13528,3.33198 -5.15638,1.43218 -11.76894,3.32448 -15.61041,4.46721 -2.25557,0.67097 -5.65294,1.68003 -7.5497,2.24236 -8.74984,2.59406 -19.25594,4.96699 -25.92009,5.85437 -3.84063,0.5114 -14.69617,0.87912 -17.99167,0.60944 z m 12.83229,-7.15109 c -12.04491,-0.4923 -20.38088,-1.78375 -29.63333,-4.59094 -4.75517,-1.44272 -8.60506,-2.32283 -11.50938,-2.63112 -5.76247,-0.61169 -8.42979,-1.07686 -9.81743,-1.71215 -2.61264,-1.1961 -4.59413,-3.59039 -5.53342,-6.68616 -0.60874,-2.00632 -0.69272,-1.93408 2.24853,-1.93408 h 2.64039 l 1.06445,1.15479 c 1.82898,1.98422 4.81555,2.91766 11.11728,3.47466 3.41611,0.30195 7.06766,1.1637 10.8102,2.55118 7.14434,2.64863 15.45892,4.75019 22.5273,5.69391 4.57433,0.61073 21.12518,0.69797 25.13541,0.13248 7.08744,-0.99941 12.61846,-2.48976 27.64896,-7.45009 5.67531,-1.87295 11.90988,-3.88947 13.8546,-4.48115 l 3.53585,-1.07578 5.85686,0.0274 c 4.44584,0.0207 5.60189,0.0904 4.79852,0.28923 -10.11498,2.50297 -21.63572,5.87574 -34.39583,10.06959 -11.95669,3.92979 -19.30883,5.77985 -26.45833,6.65783 -3.3694,0.41377 -10.15508,0.66313 -13.89063,0.51045 z m 3.96875,-8.71684 c -9.91488,-0.87256 -19.53431,-3.40577 -28.65701,-7.54662 l -2.55273,-1.1587 8.48751,-0.0698 8.48751,-0.0699 3.08247,1.03763 c 6.92288,2.33042 11.88381,3.07694 20.28038,3.05179 8.83133,-0.0264 16.09812,-0.96109 24.63756,-3.16883 3.52506,-0.91135 3.54377,-0.91314 9.29106,-0.88649 l 5.75888,0.0267 -7.54063,2.50579 c -10.60656,3.52462 -16.87474,5.04451 -24.34166,5.9023 -2.56462,0.29462 -14.77708,0.56588 -16.93334,0.37612 z"
       style="fill:#000000;stroke-width:0.26458335" />
  </g>
</svg>
