<?xml version="1.0" encoding="UTF-8" standalone="no"?>
<svg
   xmlns:dc="http://purl.org/dc/elements/1.1/"
   xmlns:cc="http://creativecommons.org/ns#"
   xmlns:rdf="http://www.w3.org/1999/02/22-rdf-syntax-ns#"
   xmlns:svg="http://www.w3.org/2000/svg"
   xmlns="http://www.w3.org/2000/svg"
   id="svg1962"
   version="1.1"
   viewBox="0 0 264.64322 187.8558"
   height="187.8558mm"
   width="264.64322mm"
   preserveAspectRatio="none">
  <defs
     id="defs1956" />
  <metadata
     id="metadata1959">
    <rdf:RDF>
      <cc:Work
         rdf:about="">
        <dc:format>image/svg+xml</dc:format>
        <dc:type
           rdf:resource="http://purl.org/dc/dcmitype/StillImage" />
        <dc:title></dc:title>
      </cc:Work>
    </rdf:RDF>
  </metadata>
  <g
     transform="translate(-90.215058,-168.4877)"
     id="layer1">
    <path
       id="path2518"
       d="m 90.241813,355.41956 v -0.9227 l 1.443174,0.63824 c 2.560355,1.13231 2.583322,1.19028 0.475055,1.19912 l -1.918229,0.008 z m 9.908647,0.70628 c -0.13824,-0.11904 -2.421861,-1.22036 -5.074697,-2.4474 l -4.823342,-2.23096 -0.0053,-1.25677 c -0.0029,-0.69123 0.08399,-1.25752 0.193134,-1.25843 0.154942,-10e-4 12.035935,5.18481 16.073435,7.01612 0.72005,0.3266 0.47314,0.3616 -2.65906,0.37695 -1.89905,0.009 -3.56592,-0.0805 -3.70417,-0.19951 z m 45.65386,-0.0442 c 0.3638,-0.12039 2.51102,-0.81441 4.77161,-1.54225 4.39363,-1.41463 10.52881,-3.79877 14.41068,-5.60001 8.9798,-4.16675 23.34454,-8.9104 39.6875,-13.10595 15.22256,-3.90792 20.10003,-3.36096 26.90813,3.01751 3.05472,2.86196 4.20634,3.56886 7.51061,4.61027 8.14985,2.56859 17.61744,2.97837 31.5948,1.36751 10.61489,-1.22334 15.3292,-0.74306 20.88814,2.12802 2.93609,1.51643 6.09313,4.05835 8.62842,6.94726 l 2.02375,2.30603 -1.1637,0.0784 c -1.13791,0.0767 -1.21329,0.0295 -3.40088,-2.12834 -4.56098,-4.49897 -8.53984,-6.46135 -14.93718,-7.36705 -2.32917,-0.32975 -6.31883,-0.18898 -12.03855,0.42478 -9.41239,1.01 -18.75139,1.21202 -23.49162,0.50816 -3.52851,-0.52393 -13.27101,-2.35158 -16.08579,-3.01762 -2.66306,-0.63013 -6.09733,-1.81186 -8.77669,-3.02003 -5.64511,-2.54549 -9.46589,-2.731 -19.11465,-0.92809 -6.33652,1.184 -14.62219,3.35567 -24.20937,6.34528 -4.64791,1.44937 -5.51509,1.74243 -18.30573,6.18617 l -8.78072,3.05061 -3.39011,-0.0209 c -2.17192,-0.0134 -3.15243,-0.0995 -2.72865,-0.23979 z m 13.49375,0.15986 c 0,-0.23467 11.13423,-3.81196 16.13958,-5.18545 9.48064,-2.60153 19.05538,-4.73176 25.79688,-5.7394 4.77577,-0.71382 14.51928,-0.66006 18.65312,0.10291 1.67349,0.30888 5.3049,0.98171 8.06979,1.49519 15.80833,2.93583 20.62039,3.60818 25.79526,3.60418 4.46166,-0.003 11.49755,-0.43266 16.00891,-0.97659 2.22553,-0.26833 5.55247,-0.4419 8.33438,-0.43481 4.13047,0.0105 4.91577,0.0869 7.27604,0.70781 3.38323,0.88998 6.84802,2.61415 9.50045,4.72765 l 2.09211,1.66704 -1.45915,0.0782 c -1.35829,0.0728 -1.60354,-0.0137 -3.54813,-1.25141 -2.34065,-1.48982 -5.32032,-2.66518 -8.45348,-3.33455 -2.74886,-0.58726 -8.65224,-0.60399 -14.40368,-0.0408 -6.97485,0.68298 -14.90544,1.05818 -19.05,0.90126 -3.48055,-0.13178 -9.76941,-0.99802 -17.59479,-2.42353 -9.66779,-1.76114 -13.62835,-2.31093 -19.18229,-2.66285 -2.79043,-0.17682 -9.02935,0.18502 -13.89063,0.80561 -7.03681,0.89832 -20.33794,3.89947 -28.83958,6.50712 -4.22947,1.29728 -4.69925,1.38568 -7.87135,1.48113 -1.8554,0.0558 -3.37344,0.0429 -3.37344,-0.0287 z m 15.08125,-0.1313 c 0.40529,-0.23525 5.50916,-1.49164 11.90625,-2.93091 7.16013,-1.61094 15.13464,-2.73064 21.82812,-3.06487 5.8451,-0.29187 10.18341,0.21435 30.55938,3.56584 7.35833,1.21032 10.85327,1.41849 18.19483,1.08376 3.45352,-0.15745 8.24366,-0.48163 10.64475,-0.72039 5.31725,-0.52874 11.8335,-0.57833 14.6712,-0.11164 2.12833,0.35002 6.40597,1.71053 6.89235,2.19212 0.35266,0.3492 -6.70417,0.12085 -9.525,-0.30821 -2.283,-0.34726 -8.97254,-0.20447 -12.03855,0.25696 -0.94588,0.14235 -7.31573,0.2616 -14.1552,0.26499 -9.94349,0.005 -12.96562,-0.076 -15.08126,-0.40405 -1.4552,-0.22563 -6.45583,-1.00234 -11.1125,-1.72604 -4.65666,-0.72369 -10.30646,-1.45186 -12.5551,-1.61815 -7.23219,-0.53482 -16.16705,0.33477 -27.0001,2.62782 -4.13446,0.87514 -5.1118,0.98774 -9.12813,1.0516 -2.64346,0.042 -4.33429,-0.0234 -4.10104,-0.15883 z m 21.69583,-0.0381 c 2.12199,-0.49749 9.31556,-1.05266 13.63989,-1.05266 4.29309,0 10.89439,0.52952 13.08158,1.04934 0.5312,0.12624 -5.17722,0.22043 -13.36001,0.22043 -8.01806,0 -13.88115,-0.0953 -13.36146,-0.21711 z m 106.28732,-2.83859 c -5.00129,-5.63504 -7.79462,-7.91545 -12.38244,-10.10874 -3.81358,-1.82314 -5.7364,-2.20433 -11.22258,-2.22477 -4.75073,-0.0177 -7.72695,0.20807 -15.47067,1.17361 -7.41256,0.92425 -12.26285,0.61688 -15.42451,-0.97747 -1.8577,-0.9368 -2.72316,-1.64463 -7.9889,-6.53388 -4.94822,-4.59444 -6.59473,-5.81601 -9.03119,-6.7004 -3.79489,-1.37747 -8.03831,-1.40252 -14.39411,-0.085 -3.88607,0.80557 -24.26879,6.98756 -36.11563,10.95371 -9.22435,3.08817 -12.19841,4.33784 -21.16666,8.89393 -8.74169,4.44099 -12.80883,6.01099 -18.826,7.26722 -5.35497,1.11798 -14.13402,1.50871 -20.35253,0.90583 -6.33754,-0.61442 -14.71163,-3.27175 -26.371999,-8.36859 l -3.373438,-1.47455 v -1.28833 c 0,-0.70858 0.06344,-1.28832 0.14098,-1.28832 0.07754,0 1.90904,0.76567 4.070004,1.70149 10.299413,4.46024 19.493123,6.78251 31.065063,7.84682 4.04356,0.3719 8.14687,0.056 12.87812,-0.99153 5.15421,-1.14115 9.3339,-2.92884 19.97605,-8.54394 5.46549,-2.88374 11.15889,-5.38862 16.13958,-7.1008 3.12385,-1.07387 34.9111,-11.4303 39.81979,-12.97347 5.94563,-1.86916 12.25921,-2.86492 16.50974,-2.60386 5.71778,0.35117 7.29874,1.17924 15.76943,8.25959 9.51649,7.9545 9.82038,8.07268 18.97783,7.37989 6.39759,-0.48399 9.6432,-0.39128 14.88884,0.42529 6.95914,1.08331 9.60172,1.98001 12.39926,4.20745 2.32779,1.85341 7.05181,6.52818 10.30573,10.19827 1.67725,1.89178 3.40985,3.82654 3.85022,4.29948 l 0.80068,0.8599 h -1.35572 -1.35573 z m 14.24362,2.89794 c 0.13825,-0.116 0.96573,-0.79944 1.83886,-1.51876 0.87312,-0.71931 3.59781,-3.24907 6.05486,-5.62169 6.52149,-6.2974 7.1561,-6.66859 11.65657,-6.81797 1.60933,-0.0534 4.03516,-0.2366 5.39071,-0.40707 5.02215,-0.63157 7.60544,0.13528 11.22755,3.33292 l 2.05052,1.81022 v 1.56306 1.56307 l -1.52136,-1.2356 c -2.5885,-2.1023 -4.5987,-3.30048 -6.51261,-3.88181 -1.6345,-0.49646 -2.19285,-0.53673 -5.03806,-0.36334 -1.75992,0.10725 -4.80719,0.2784 -6.77172,0.38035 -3.95396,0.20517 -4.61101,0.4255 -7.02979,2.35722 -1.74256,1.39168 -9.48319,8.49548 -9.59487,8.80549 -0.0485,0.13465 -0.5188,0.24482 -1.0451,0.24482 -0.5263,0 -0.8438,-0.0949 -0.70556,-0.21091 z m 3.17055,-0.0679 c 0.0948,-0.15334 1.79844,-1.70323 3.78593,-3.4442 4.15628,-3.64076 6.16632,-4.80748 8.47309,-4.9182 0.81979,-0.0394 3.63366,-0.20521 6.25304,-0.36858 7.57575,-0.47249 9.21727,0.0692 15.54427,5.12975 0.90018,0.71999 0.99219,0.91215 0.99219,2.07222 0,0.70325 -0.0893,1.27655 -0.19844,1.27401 -0.10914,-0.003 -1.03188,-0.66038 -2.05052,-1.46188 -4.91145,-3.86444 -7.07867,-4.7572 -11.50938,-4.74114 -5.01948,0.0182 -11.47743,0.44358 -12.39688,0.81658 -1.39027,0.56401 -4.33697,2.61281 -6.24554,4.34242 -0.95757,0.8678 -1.98382,1.57781 -2.28055,1.57781 -0.31063,0 -0.46641,-0.11827 -0.36721,-0.27879 z m 2.63968,0.01 c 0.35836,-0.57984 4.24644,-2.99758 5.52448,-3.43531 1.06838,-0.36592 2.64474,-0.49596 7.51306,-0.61979 3.38855,-0.0862 6.72631,-0.0495 7.41724,0.0815 2.14037,0.40591 4.13919,1.29005 6.16849,2.7285 l 1.94911,1.3816 -1.83877,0.0794 c -1.54526,0.0668 -2.03096,-0.0245 -3.04271,-0.57195 -2.93514,-1.58803 -4.22624,-1.69918 -16.1529,-1.39059 -2.55304,0.0661 -4.82435,0.73663 -5.58031,1.64751 -0.35098,0.4229 -2.21616,0.51727 -1.95769,0.0991 z m -10.88363,-0.24466 c -0.45477,-0.10995 -1.37768,-0.59549 -2.05092,-1.07897 -1.73398,-1.24525 -7.61537,-8.15662 -12.37914,-14.54704 -2.28883,-3.07038 -4.19651,-4.4327 -9.79159,-6.99242 -6.99738,-3.20127 -7.53008,-3.32164 -15.43276,-3.48718 -3.63802,-0.0762 -7.2099,-0.26678 -7.9375,-0.4235 -2.20786,-0.47554 -3.82755,-1.3519 -7.01146,-3.79369 -11.43623,-8.7706 -12.51212,-9.45631 -16.49277,-10.51148 -1.79332,-0.47537 -2.87959,-0.57147 -6.39369,-0.56568 -7.19355,0.0119 -11.27011,0.97064 -28.04583,6.59611 -12.18899,4.08738 -14.8174,4.92663 -25.66459,8.19474 -11.93374,3.59547 -16.37247,5.34884 -28.44271,11.23535 -9.39968,4.58411 -11.14267,5.32834 -15.20565,6.49254 -3.88014,1.11181 -6.7195,1.45498 -12.04805,1.45614 -10.94569,0.002 -20.21645,-2.03691 -31.334391,-6.89263 l -2.927534,-1.27859 -0.07922,-1.46567 -0.07922,-1.46567 2.195883,0.95008 c 5.878551,2.54345 12.437962,4.54356 18.070882,5.51023 4.21171,0.72277 10.5332,1.03981 14.20762,0.71255 5.93588,-0.52869 10.34137,-1.98046 17.89831,-5.89818 17.21282,-8.92357 21.18724,-10.53232 34.53318,-13.97818 9.99401,-2.58041 15.11326,-4.12153 34.43173,-10.36543 16.45834,-5.31949 24.16174,-6.6219 31.82023,-5.37982 5.70187,0.92475 7.60104,1.92157 19.84162,10.41433 2.30784,1.60122 5.13148,2.98596 7.02452,3.4449 0.69948,0.16957 3.19979,0.42208 5.55625,0.56111 5.62514,0.33189 6.90761,0.47428 8.65009,0.96038 2.09661,0.58488 2.96043,1.18534 6.21771,4.32199 1.60073,1.54145 3.7078,3.42877 4.68238,4.19406 2.17645,1.70905 3.32885,3.24744 4.82758,6.44456 1.8157,3.8733 4.2781,7.33201 8.66078,12.16501 2.99416,3.30182 5.96086,3.2528 10.48827,-0.17328 0.91933,-0.6957 3.53134,-3.28601 5.80446,-5.75625 4.77687,-5.1911 7.80039,-7.95123 9.54755,-8.71583 0.86148,-0.377 2.18892,-0.60675 4.40773,-0.76287 1.74625,-0.12287 4.42515,-0.41623 5.95312,-0.65191 4.30874,-0.6646 6.32727,-0.18089 8.66511,2.07643 l 1.12448,1.08575 v 2.22751 2.2275 l -1.94479,-1.84736 c -1.34521,-1.27781 -2.3386,-1.98154 -3.22214,-2.28259 -1.47863,-0.50382 -4.70222,-0.57003 -7.26849,-0.14927 -0.94589,0.15508 -3.20807,0.3743 -5.02708,0.48716 -4.79916,0.29775 -4.95162,0.3926 -11.91151,7.41035 -7.74236,7.80673 -11.01995,9.99549 -13.91846,9.2947 z m 0.66725,-4.77626 c -1.16791,-0.61727 -4.37038,-4.00416 -6.06352,-6.4127 -1.32103,-1.8792 -1.89887,-3.17243 -3.03497,-6.79249 -0.96769,-3.08342 -2.17473,-5.33084 -4.28414,-7.97681 -1.88796,-2.36817 -1.99427,-2.54977 -3.86438,-6.60117 -2.33085,-5.04954 -4.2005,-6.02108 -13.02048,-6.76594 -5.22734,-0.44146 -7.49912,-0.87021 -9.19992,-1.7363 -0.61536,-0.31336 -3.30985,-1.93669 -5.98777,-3.6074 -7.89861,-4.92783 -11.71316,-6.66254 -17.48269,-7.95048 -2.86184,-0.63886 -12.86049,-0.61317 -16.44444,0.0423 -4.62924,0.84656 -11.60944,2.70091 -21.52894,5.71931 -15.33487,4.66625 -25.40036,7.47556 -34.13125,9.52613 -3.62837,0.85218 -13.97116,3.90195 -16.80015,4.95385 -4.17274,1.55155 -10.13163,4.56396 -16.14047,8.15953 -12.72143,7.61222 -17.30418,9.22034 -26.19375,9.19157 -5.83458,-0.0189 -11.71456,-0.88695 -17.64091,-2.60434 -2.024241,-0.58661 -3.518581,-1.12254 -9.015868,-3.23345 -1.102965,-0.42353 -1.124479,-0.45567 -1.124479,-1.67984 v -1.24804 l 2.447396,0.99522 c 7.11329,2.89258 15.647831,4.57601 23.217191,4.57956 8.50531,0.004 12.96465,-1.59736 24.49934,-8.79772 11.8037,-7.36829 15.61676,-9.14025 26.69397,-12.40489 2.91238,-0.85833 8.33133,-2.35441 12.04211,-3.32462 9.12769,-2.38649 15.16121,-4.09706 27.51667,-7.8013 20.24936,-6.07087 27.00239,-7.52469 36.51583,-7.86126 10.73438,-0.37978 18.05244,1.72619 30.95292,8.90753 4.5186,2.51539 6.72407,3.26615 10.84791,3.69276 6.773,0.70066 7.74644,0.84738 9.17951,1.38356 0.82123,0.30726 2.00623,1.03159 2.63331,1.60962 1.80036,1.65951 2.4735,3.44244 3.67184,9.72552 0.41142,2.1571 0.72918,2.93765 2.83623,6.96695 1.06289,2.03255 1.99613,4.89347 2.84263,8.71429 0.75148,3.39188 2.02477,5.88802 4.15588,8.14712 2.74489,2.90972 4.89141,3.54886 7.62123,2.26927 2.00358,-0.93916 3.51113,-2.36429 9.99144,-9.44519 8.61307,-9.41132 9.32836,-9.94722 13.77765,-10.3224 1.47908,-0.12472 4.23202,-0.52844 6.11763,-0.89715 3.5299,-0.69025 4.76598,-0.791 6.19583,-0.50503 l 0.82683,0.16537 v 2.63077 2.63078 l -0.72761,-0.50671 c -1.82251,-1.26923 -4.34988,-1.4248 -9.45885,-0.58223 -1.74625,0.28799 -3.91787,0.52364 -4.82581,0.52368 -3.67131,1.4e-4 -5.70856,1.4963 -13.25089,9.73153 -2.911,3.17842 -5.92875,6.26964 -6.70613,6.86938 -3.00471,2.31812 -5.64988,2.98215 -7.65593,1.9219 z m 1.95867,-4.40025 c -1.25531,-0.61899 -3.45902,-3.07826 -4.17839,-4.66295 -0.35717,-0.78681 -0.98952,-3.34117 -1.45754,-5.88767 -0.51425,-2.79808 -1.28541,-5.8478 -2.04056,-8.0698 -1.67612,-4.93189 -1.65808,-4.83531 -1.92695,-10.31875 -0.25746,-5.25089 -0.63363,-7.21629 -1.7866,-9.33468 -1.56465,-2.87479 -3.38267,-3.65168 -10.62374,-4.53985 -2.88103,-0.35337 -6.00024,-0.83665 -6.93156,-1.07395 -0.93133,-0.23729 -4.27977,-1.67758 -7.44099,-3.20064 -12.35616,-5.95314 -21.35974,-7.89199 -33.60194,-7.23592 -4.91267,0.26328 -9.55924,0.79191 -12.9056,1.46825 -6.16293,1.24561 -15.9223,3.94886 -22.3573,6.19277 -6.14652,2.14331 -20.91598,6.44722 -33.60208,9.79185 -19.92979,5.25439 -23.92054,6.92159 -37.04167,15.47467 -6.97429,4.54624 -9.95791,6.18354 -13.62604,7.47748 -4.62538,1.6316 -8.86604,2.11869 -14.41979,1.65628 -6.11577,-0.50922 -12.590867,-1.96045 -17.924649,-4.01738 l -2.051398,-0.7911 v -1.15173 -1.15173 l 1.646243,0.64515 c 5.563792,2.18044 14.266394,3.81651 20.276064,3.81188 2.91545,-0.002 6.8699,-0.66222 9.65752,-1.61178 3.90952,-1.33171 8.00166,-3.68388 17.89726,-10.28739 9.20945,-6.14563 15.63808,-8.70192 32.66326,-12.98832 16.21553,-4.08255 22.46567,-5.89501 40.09716,-11.6277 14.49045,-4.7114 17.80126,-5.62857 23.28333,-6.44997 9.58761,-1.43656 20.04717,-1.4975 27.9298,-0.16273 5.88267,0.99612 13.54309,3.30244 19.18659,5.77651 5.92902,2.59925 6.57313,2.77451 12.76857,3.47433 5.20054,0.58744 6.33965,0.83102 8.10853,1.73388 1.5026,0.76694 2.43457,1.75028 3.25789,3.43744 1.27676,2.61632 1.36861,3.43064 1.37281,12.17083 0.004,8.10052 0.0127,8.23321 0.71627,10.71563 0.39179,1.38244 1.13724,5.05917 1.65656,8.17049 1.00051,5.99425 1.49881,7.55393 2.87018,8.98385 1.1718,1.22182 2.06358,1.63149 3.54519,1.62859 2.60372,-0.005 5.01144,-2.00628 12.08979,-10.04848 6.45083,-7.32922 10.71906,-11.66796 12.35345,-12.55751 1.0725,-0.58373 1.87524,-0.77207 4.12216,-0.96718 1.53467,-0.13325 4.10348,-0.53872 5.70848,-0.90102 1.605,-0.36231 3.02124,-0.65874 3.14721,-0.65874 0.12597,0 0.22903,0.76851 0.22903,1.7078 v 1.7078 l -0.99219,0.16493 c -0.5457,0.0907 -2.48047,0.52412 -4.29948,0.96314 -1.81901,0.43901 -4.49792,0.9104 -5.95313,1.04752 -3.17876,0.29953 -4.10719,0.70894 -6.66235,2.93793 -1.96727,1.71614 -2.85061,2.65496 -10.07474,10.70744 -4.59896,5.1263 -6.08205,6.51424 -8.11688,7.59617 -1.49547,0.79515 -3.27059,0.894 -4.56778,0.25435 z m 2.64933,-4.9761 c -1.07769,-0.48005 -2.29056,-2.56764 -2.84285,-4.8931 -0.22725,-0.95687 -0.65601,-3.6313 -0.9528,-5.94316 -0.29679,-2.31187 -0.78574,-5.46702 -1.08655,-7.01146 -0.60692,-3.11613 -0.57762,-5.34681 0.14465,-11.01015 1.09717,-8.60292 0.16882,-14.65004 -2.7148,-17.6838 -1.89809,-1.99692 -3.51881,-2.51692 -10.04599,-3.22323 -4.50651,-0.48765 -7.0735,-1.13382 -14.06986,-3.54173 -12.15525,-4.18342 -22.98235,-5.65139 -37.18328,-5.0414 -9.47614,0.40703 -14.04569,1.49565 -34.38652,8.19201 -15.01853,4.94422 -22.24714,6.94186 -45.49897,12.5737 -16.32576,3.95427 -21.12004,6.03071 -34.38603,14.8928 -12.63622,8.44139 -16.29366,9.79993 -25.55146,9.49102 -5.79917,-0.19352 -11.557652,-1.30375 -16.867188,-3.25198 -1.087211,-0.39894 -1.124479,-0.45074 -1.124479,-1.56289 0,-1.30507 -0.39241,-1.28395 3.175,-0.17084 6.471076,2.01911 15.111177,2.70174 20.443157,1.61515 5.27789,-1.07556 7.89649,-2.41873 17.43765,-8.94436 7.51255,-5.13816 8.72748,-5.88361 13.37688,-8.20764 6.45182,-3.22497 10.89253,-4.63572 23.04843,-7.32211 14.37834,-3.17755 17.06773,-3.79355 23.00216,-5.26858 8.02036,-1.99351 17.90656,-4.87285 27.57506,-8.03121 10.12837,-3.30859 13.46898,-4.3378 16.80104,-5.17627 10.32794,-2.59889 17.45965,-3.34858 26.85521,-2.82304 11.43028,0.63935 17.9289,1.66066 26.15286,4.11012 7.07389,2.10693 9.06482,2.53041 14.9089,3.17123 5.72909,0.62821 7.13686,1.07907 9.20591,2.94833 1.33718,1.20806 2.18098,2.67461 2.95207,5.13076 0.56433,1.79758 0.62225,2.4576 0.61526,7.01146 -0.006,3.87818 -0.1442,5.90388 -0.60489,8.86354 -1.26715,8.14069 -1.25055,9.53676 0.22959,19.30986 0.8353,5.51535 1.23182,6.84943 2.38027,8.00837 1.17666,1.18742 1.93074,1.25802 3.82358,0.35797 2.93755,-1.39682 7.20718,-5.76783 14.37039,-14.71161 5.08474,-6.34867 8.21189,-9.55848 10.19833,-10.4679 1.39156,-0.63707 1.571,-0.65411 5.05122,-0.47945 l 3.60839,0.18109 -0.0777,1.61282 -0.0777,1.61281 -1.4552,0.30522 c -0.80037,0.16787 -2.77346,0.31669 -4.38464,0.33073 -3.97555,0.0346 -4.96175,0.40116 -7.46863,2.77585 -1.09148,1.03393 -4.13953,4.3754 -6.77344,7.42549 -2.6339,3.0501 -6.07467,6.94692 -7.64614,8.6596 -4.94062,5.38461 -7.90405,7.18947 -10.15687,6.18598 z m 3.18931,-7.07051 c -1.2694,-1.3961 -1.51891,-2.25919 -2.23511,-7.73163 -0.93415,-7.13766 -0.93805,-9.39099 -0.0262,-15.11406 1.8288,-11.47835 2.0314,-16.33452 0.86868,-20.8218 -1.7716,-6.83716 -4.78684,-8.97591 -13.52112,-9.59071 -3.01865,-0.21248 -9.2387,-1.3121 -12.91876,-2.28386 -4.57385,-1.20778 -8.57034,-2.01493 -12.21665,-2.46733 -8.57246,-1.06359 -21.49189,-1.33331 -27.76474,-0.57964 -6.98548,0.83928 -16.11104,3.03554 -27.20011,6.54629 -12.46283,3.94566 -17.85394,5.50808 -26.26224,7.61116 -8.79769,2.20048 -10.64047,2.60042 -29.36875,6.37398 -12.97019,2.61337 -16.40159,3.50666 -21.85964,5.69068 -6.15566,2.46317 -9.03601,4.17601 -22.0612,13.11892 -4.41019,3.02798 -9.24786,5.53609 -12.30312,6.37863 -1.86388,0.51399 -2.76443,0.58374 -7.54063,0.58403 -4.89984,2.7e-4 -5.743541,-0.0687 -8.731249,-0.71384 -1.81901,-0.3928 -4.021667,-0.93921 -4.894792,-1.21426 l -1.5875,-0.50007 -0.08064,-1.22182 c -0.04435,-0.672 0.01518,-1.21902 0.132291,-1.21559 0.11712,0.003 1.046378,0.22798 2.065023,0.499 4.033212,1.07311 7.047096,1.45954 11.377087,1.45872 7.81833,-0.002 11.4398,-1.46632 21.82812,-8.82926 11.82129,-8.37858 17.11384,-11.20681 25.9638,-13.87449 3.36122,-1.01318 4.82199,-1.30673 21.26433,-4.27307 23.05044,-4.15851 31.3202,-6.00797 45.11146,-10.0888 17.26418,-5.10845 23.11452,-6.67063 30.48932,-8.14134 7.92905,-1.58124 10.59633,-1.84285 18.72318,-1.83639 11.92088,0.009 19.3299,0.72819 28.17813,2.73346 3.63487,0.82376 7.96023,1.45593 11.90625,1.74015 3.3571,0.2418 6.57296,0.83383 7.88864,1.45227 4.65822,2.18962 6.79712,7.35307 6.79326,16.39935 -0.002,4.5783 -0.3589,7.9007 -1.62096,15.08765 -1.04057,5.92571 -1.16618,10.7804 -0.40031,15.47173 0.77999,4.77783 2.00378,6.74347 3.96892,6.37481 2.22274,-0.41699 7.02308,-4.88446 11.54069,-10.74044 4.52341,-5.86348 9.46102,-11.79788 10.79535,-12.97467 1.96037,-1.72891 4.0729,-2.6688 7.00576,-3.11693 l 1.52136,-0.23246 v 1.97845 1.97845 l -2.31511,-0.17664 c -5.08248,-0.38778 -6.26712,0.58241 -16.77035,13.73443 -7.19837,9.01371 -11.21254,12.77263 -13.91264,13.02797 -1.07733,0.10188 -1.34934,0.0274 -1.82981,-0.50103 z m 4.23333,-7.40925 c -0.90908,-0.99835 -1.35295,-2.09355 -1.79685,-4.43358 -0.65943,-3.47627 -0.53191,-6.76357 0.52305,-13.48278 1.39196,-8.86569 1.70174,-11.4195 1.88161,-15.51175 0.34553,-7.8612 -1.09332,-13.80909 -4.14948,-17.15301 -2.48843,-2.72274 -5.12889,-3.64002 -11.90126,-4.13443 -4.84766,-0.35389 -7.26195,-0.67037 -11.24479,-1.47401 -5.39513,-1.08861 -8.92852,-1.42732 -18.35005,-1.759 -7.09458,-0.24977 -9.9982,-0.25005 -13.22916,-10e-4 -10.02755,0.77201 -21.58257,3.23951 -42.10725,8.99173 -13.91866,3.90084 -22.88207,5.95674 -33.64523,7.71707 -3.54153,0.57922 -7.03446,1.17304 -7.76206,1.3196 -1.19772,0.24125 -9.58613,1.55056 -18.91771,2.95278 -17.51435,2.6318 -24.4343,5.54166 -39.72383,16.70397 -6.24471,4.55903 -9.7608,6.63342 -13.39679,7.90371 -5.00877,1.7499 -12.053351,1.72493 -19.176779,-0.068 -0.991151,-0.24946 -0.992188,-0.2512 -0.992188,-1.65958 v -1.40985 l 2.579688,0.46617 c 5.766698,1.04207 10.446869,0.89583 14.750519,-0.46091 4.05083,-1.27704 6.93321,-2.99254 15.5285,-9.24206 8.6989,-6.32485 13.84804,-9.32777 19.82214,-11.56004 6.16351,-2.30305 9.48009,-2.9646 25.37124,-5.06069 32.59104,-4.29887 36.48739,-4.98997 55.5625,-9.85521 21.79523,-5.55901 31.58456,-7.65656 42.46563,-9.09906 3.90851,-0.51814 5.55687,-0.59129 12.57904,-0.55817 9.4806,0.0447 14.28359,0.33274 20.62617,1.23695 2.54661,0.36305 7.07099,0.85469 10.05416,1.09254 2.98318,0.23786 6.23032,0.64413 7.21586,0.90284 3.60597,0.94657 6.38228,3.35224 8.12469,7.04007 2.96081,6.26656 3.06345,14.99777 0.36512,31.05851 -1.37973,8.21225 -1.29439,12.15129 0.32464,14.98475 0.74448,1.30291 1.56443,1.59237 2.91374,1.02859 2.47687,-1.03491 3.06318,-1.65951 14.34481,-15.28155 3.18598,-3.84693 5.02123,-5.57996 6.95243,-6.56518 1.10932,-0.56594 4.41139,-1.83953 4.76938,-1.83953 0.1282,0 0.23309,0.39328 0.23309,0.87396 0,0.85202 -0.0482,0.88939 -1.91823,1.48851 -2.73248,0.87539 -4.63805,1.89659 -6.25964,3.35455 -1.3727,1.23417 -5.79882,6.51805 -10.39286,12.40694 -6.0514,7.75701 -10.3064,10.97251 -12.02385,9.08644 z m 4.61015,-7.54193 c -0.24868,-0.0682 -0.72493,-0.56261 -1.05834,-1.0988 -0.56062,-0.90158 -0.60547,-1.26331 -0.59657,-4.81134 0.007,-2.97371 0.22758,-5.3537 0.97886,-10.58333 1.64908,-11.47934 1.83983,-16.82913 0.82071,-23.01875 -1.30485,-7.92507 -5.28131,-13.0261 -11.22916,-14.40483 -0.93089,-0.21579 -4.43097,-0.57801 -7.77795,-0.80495 -3.34698,-0.22693 -7.45464,-0.59418 -9.12813,-0.81611 -6.50398,-0.86252 -22.40509,-1.00121 -28.4427,-0.24807 -11.52835,1.43805 -23.7722,3.83081 -44.71459,8.73838 -18.34355,4.29857 -26.89645,5.76884 -43.78854,7.52743 -22.59402,2.35221 -30.72961,3.29155 -33.60209,3.87973 -9.71494,1.98929 -16.54684,5.17729 -26.66355,12.44213 -2.80501,2.01428 -6.55547,4.70415 -8.33437,5.97749 -3.66013,2.61992 -8.10556,4.94225 -11.03958,5.76717 -2.61228,0.73445 -8.189985,0.95998 -11.509375,0.46537 l -2.38125,-0.35483 -0.0768,-1.86707 -0.0768,-1.86707 1.928881,0.24233 c 2.340712,0.29406 6.567363,0.0807 9.042264,-0.45652 3.94485,-0.85625 8.73143,-3.6514 18.1487,-10.59805 9.24996,-6.82322 14.78203,-9.95511 21.43688,-12.13613 7.04736,-2.30966 8.06422,-2.44279 33.60209,-4.39908 18.9771,-1.45371 20.76725,-1.61098 27.38437,-2.40578 4.57014,-0.54894 14.34032,-2.24374 21.29896,-3.69466 13.14822,-2.7415 32.46457,-6.46379 43.25938,-8.33617 8.35542,-1.44925 18.00347,-2.12549 26.59062,-1.86376 5.03889,0.15359 8.2371,0.30541 19.97605,0.94831 6.93056,0.37956 9.27855,1.21833 12.59637,4.4998 5.81951,5.75573 7.1526,15.04147 4.99733,34.80926 -1.23396,11.31777 -1.04975,13.89927 1.00596,14.09683 1.85226,0.178 4.67746,-2.30866 10.98707,-9.67048 4.82385,-5.62829 5.98091,-6.52094 11.09296,-8.55799 l 1.25677,-0.50079 v 0.74052 c 0,0.67484 -0.17015,0.80616 -1.91823,1.48047 -4.58016,1.76677 -6.13269,3.09324 -11.9434,10.20432 -6.8938,8.43657 -10.07362,11.23663 -12.1228,10.67502 z m 4.36084,-9.79997 c -0.70467,-1.07374 -0.72937,-4.7853 -0.0932,-14.00469 0.65471,-9.48822 0.68065,-12.34606 0.15302,-16.85665 -1.31885,-11.27453 -5.61246,-17.52012 -13.49352,-19.62803 -2.14624,-0.57404 -10.79631,-0.91989 -24.34166,-0.97322 -15.96887,-0.0629 -18.21538,0.22189 -59.79584,7.57959 -13.35149,2.36256 -21.37605,3.65433 -26.32604,4.23788 -1.96453,0.2316 -4.46484,0.53455 -5.55625,0.67322 -4.19209,0.53265 -12.79276,1.06954 -25.26771,1.57732 -22.20352,0.90378 -26.12864,1.0925 -28.31042,1.36118 -3.59068,0.44217 -8.86217,1.57681 -11.77396,2.53424 -3.13961,1.03235 -8.55406,3.59633 -11.90625,5.63814 -2.31026,1.40718 -8.81114,5.99823 -12.56771,8.87556 -3.25993,2.49694 -7.44602,5.23329 -9.8473,6.43696 -3.51613,1.7625 -6.245701,2.45293 -10.327178,2.61221 l -3.505729,0.13682 v -2.63651 -2.63652 l 2.711979,-0.29876 c 3.068137,-0.33801 5.428837,-1.0695 8.596528,-2.66376 3.0817,-1.55098 4.41089,-2.43689 11.57795,-7.7167 8.4982,-6.26042 12.25685,-8.71534 16.61842,-10.8541 5.69379,-2.79205 10.18469,-4.072 17.64513,-5.02902 1.341,-0.17202 11.75577,-0.37787 25.79687,-0.50987 12.95136,-0.12176 25.51245,-0.35338 27.91355,-0.51472 8.54858,-0.57442 23.2676,-2.20964 29.89791,-3.32154 1.23693,-0.20743 6.05896,-0.92376 10.71563,-1.59184 4.65666,-0.66809 10.2526,-1.50567 12.43542,-1.86131 10.09875,-1.64532 22.29325,-3.32928 28.04583,-3.87289 2.61098,-0.24673 8.54541,-0.35003 20.10833,-0.35003 14.8308,0 16.57926,0.0449 18.22968,0.46839 9.38538,2.4081 14.29399,10.97593 14.88994,25.98994 0.0867,2.18281 0.0187,7.36203 -0.15099,11.50938 -0.21222,5.18709 -0.22505,8.0322 -0.0411,9.11563 0.53278,3.138 1.90005,3.29158 5.08791,0.57155 1.08201,-0.92322 2.55204,-2.36305 3.26674,-3.19961 1.43425,-1.67881 4.41987,-4.12152 6.06065,-4.95858 0.58138,-0.2966 1.99148,-0.93922 3.13356,-1.42805 l 2.07652,-0.88879 -0.0827,0.8096 c -0.0767,0.75074 -0.25983,0.88363 -2.51945,1.82793 -3.54235,1.48036 -5.02851,2.58676 -8.49012,6.32065 -4.87864,5.26238 -6.7462,7.0697 -7.92864,7.67294 -1.45673,0.74317 -2.07056,0.70732 -2.63577,-0.15394 z m 5.55124,-9.24962 c -0.88112,-0.35574 -1.13863,-2.78726 -1.38567,-13.0841 -0.13402,-5.58616 -0.37827,-11.04603 -0.54277,-12.13305 -0.60623,-4.00585 -1.7969,-7.98192 -3.32272,-11.09576 -1.31432,-2.68221 -1.75209,-3.29753 -3.77383,-5.30451 -2.42389,-2.40619 -4.18124,-3.50064 -7.18183,-4.47274 -2.86283,-0.92747 -5.02376,-1.08508 -14.81667,-1.08074 -13.74985,0.006 -22.93527,0.36925 -29.63333,1.17157 -3.1287,0.37477 -7.65308,0.91321 -10.05417,1.19653 -2.40109,0.28332 -9.78297,1.16714 -16.40417,1.96405 -15.54757,1.87126 -24.99553,2.88168 -35.05729,3.74921 -8.01868,0.69138 -26.53727,0.79491 -37.57083,0.21005 -12.9902,-0.68858 -32.32112,-0.70144 -36.6448,-0.0244 -10.79703,1.69075 -17.12155,4.8012 -30.88479,15.1894 -6.25989,4.72484 -9.50612,6.95505 -12.132141,8.33498 -2.12875,1.11863 -5.993626,2.46318 -7.857112,2.73342 l -1.264668,0.18338 0.07404,-3.51018 0.07404,-3.51017 1.818332,-0.49774 c 4.293678,-1.17532 7.371178,-3.05919 17.343979,-10.61702 10.87972,-8.24513 16.11842,-11.39097 22.50956,-13.517 9.20637,-3.06252 18.31796,-3.27914 45.90521,-1.09134 13.83008,1.09678 18.11628,1.28434 29.36875,1.28515 15.65523,0.001 29.79218,-0.88104 60.32501,-3.76435 15.2892,-1.44381 21.1922,-1.68446 38.1,-1.55322 16.06303,0.12468 16.29388,0.14829 20.17859,2.06309 7.07694,3.48828 11.02641,10.50633 12.74944,22.65527 0.14775,1.04178 0.45128,5.08958 0.67452,8.99512 0.45051,7.88151 0.68786,9.52417 1.50252,10.3986 0.80285,0.86177 1.88336,0.59434 4.92004,-1.21772 1.39955,-0.83514 3.7416,-2.04207 5.20455,-2.68206 4.21538,-1.84408 3.85055,-1.77641 3.85055,-0.71421 0,0.50572 -0.13032,0.9195 -0.28959,0.9195 -0.15927,0 -1.85591,0.76121 -3.77031,1.69159 -2.82908,1.3749 -4.02294,2.14644 -6.3769,4.12108 -3.64857,3.06066 -4.44838,3.4876 -5.63555,3.00829 z m 4.66686,-9.58027 c -1.11059,-0.87359 -1.61093,-3.18873 -2.49478,-11.54382 -0.53762,-5.08209 -1.24715,-9.19972 -2.07442,-12.03854 -2.85838,-9.8087 -8.37307,-15.6911 -16.64159,-17.75124 -1.82185,-0.45393 -3.53425,-0.58028 -10.51081,-0.77559 -4.5839,-0.12833 -11.2514,-0.37001 -14.81667,-0.53708 -7.18875,-0.33686 -9.03444,-0.28549 -29.36875,0.81739 -26.61724,1.44367 -43.49118,1.89629 -57.81146,1.55072 -12.24408,-0.29547 -18.2093,-0.71148 -32.14687,-2.24192 -18.96556,-2.08254 -25.12584,-2.46253 -32.46687,-2.00266 -7.49027,0.46921 -12.02789,1.46459 -17.62551,3.86636 -5.4764,2.34976 -8.71354,4.43577 -18.69929,12.04978 -8.54678,6.51682 -12.390538,9.03871 -16.109831,10.56967 -1.075041,0.44251 -2.057307,0.80457 -2.182813,0.80457 -0.125506,0 -0.228193,-1.40661 -0.228193,-3.1258 v -3.1258 l 2.976563,-1.48773 c 4.0353,-2.01691 7.352274,-4.22977 15.075544,-10.05737 8.13423,-6.13771 12.0711,-8.74352 16.47602,-10.90547 6.12849,-3.00787 11.78796,-4.42449 19.81347,-4.9595 4.93128,-0.32873 13.35033,-0.011 19.11655,0.72139 22.16741,2.8157 34.03999,4.0103 46.26582,4.65521 8.00313,0.42216 36.10991,0.34535 51.99062,-0.14208 20.52423,-0.62995 30.99355,-0.61167 38.89375,0.0679 3.56527,0.3067 8.97115,0.74671 12.01308,0.97781 6.77342,0.51457 9.32694,0.94423 12.34158,2.07657 3.08273,1.15792 4.93484,2.30009 7.31299,4.50981 2.34718,2.18095 3.83614,4.2151 5.45412,7.45119 2.12136,4.24288 3.06465,7.69239 4.69806,17.18029 1.17497,6.82496 1.62819,8.37669 2.71329,9.28975 1.23545,1.03956 3.00287,0.82718 8.84657,-1.06306 0.55557,-0.17971 0.59532,-0.11581 0.59532,0.95711 v 1.14966 l -4.51767,1.66613 c -5.46821,2.01669 -5.96986,2.11838 -6.88782,1.39631 z m 4.53821,-7.92861 c -1.39496,-0.74813 -2.16165,-2.64409 -3.70876,-9.17146 -1.79486,-7.57266 -2.44561,-9.73353 -3.94524,-13.10059 -2.43111,-5.45844 -5.63285,-9.45432 -9.73119,-12.14484 -4.30023,-2.82305 -8.9937,-4.16406 -19.96634,-5.70473 -13.66833,-1.91918 -17.54579,-2.10967 -37.14057,-1.82457 -26.03423,0.37879 -51.0624,0.2689 -60.45729,-0.26546 -12.25042,-0.69677 -19.9276,-1.45078 -33.99896,-3.33919 -18.27789,-2.45294 -21.37112,-2.74017 -29.63334,-2.75163 -5.52684,-0.008 -7.83243,0.0954 -10.18646,0.45537 -10.88981,1.6652 -15.73524,3.9869 -30.1625,14.45242 -6.60259,4.78952 -12.393881,8.6287 -15.411928,10.21695 -1.491617,0.78496 -2.860859,1.42976 -3.04276,1.43288 -0.241161,0.004 -0.325857,-0.62129 -0.312738,-2.30942 l 0.01799,-2.31511 2.82628,-1.3738 c 3.39831,-1.65186 7.797316,-4.39215 14.203366,-8.84774 11.45087,-7.96441 15.40141,-10.38258 19.84375,-12.14659 7.08242,-2.81237 13.65164,-3.8234 23.5333,-3.62186 6.8687,0.14008 10.16282,0.4726 24.35629,2.45863 19.12233,2.67569 22.1458,2.99149 41.74879,4.36065 7.34339,0.5129 29.06221,0.71937 48.07725,0.45705 34.08043,-0.47014 43.3323,0.11935 55.06182,3.50835 6.7762,1.95784 10.75214,4.03635 14.56408,7.61369 4.8479,4.54954 7.26403,8.96231 10.71691,19.5731 3.1265,9.60783 3.80877,10.52077 7.6973,10.29974 l 1.91823,-0.10904 v 1.90383 1.90383 l -1.9919,0.43769 c -2.56796,0.56426 -3.75533,0.55254 -4.87538,-0.0481 z m 4.75333,-10.71014 c -1.54528,-0.49211 -3.01106,-2.23894 -4.51603,-5.38195 -6.19801,-12.94407 -7.46959,-15.20421 -10.4874,-18.64067 -6.22953,-7.0937 -14.85092,-11.22359 -26.142,-12.52276 -7.22347,-0.83114 -14.11319,-0.95096 -44.84688,-0.77993 -49.44608,0.27516 -57.71507,-0.24371 -99.21875,-6.22587 -9.61975,-1.38655 -14.18452,-1.71732 -21.03437,-1.52418 -5.99746,0.16911 -8.8552,0.54395 -13.67804,1.79411 -6.4191,1.66394 -10.55283,3.71591 -19.94124,9.89877 -12.24195,8.06209 -14.523721,9.48938 -18.267096,11.42639 -2.05271,1.06218 -3.868413,1.93123 -4.034896,1.93123 -0.193066,0 -0.302695,-0.56643 -0.302695,-1.56396 v -1.56396 l 3.108854,-1.49436 c 4.273522,-2.05417 5.929812,-3.03018 16.999483,-10.0173 5.31151,-3.3526 10.84862,-6.70392 12.30469,-7.44738 4.75699,-2.4289 10.33439,-4.14261 16.53489,-5.0805 3.68604,-0.55756 14.58649,-0.62667 19.31459,-0.12247 2.98212,0.31802 17.26144,2.2855 22.225,3.06228 7.11355,1.11325 22.5283,2.91698 29.50104,3.45201 14.01371,1.07529 32.28664,1.27224 77.65521,0.83701 24.28949,-0.23302 26.04447,-0.18978 31.48542,0.77578 7.22665,1.28244 13.46814,4.64104 18.16808,9.77641 2.59362,2.8339 4.43207,5.42138 8.66593,12.19663 3.68683,5.89986 5.37819,7.89571 7.39365,8.72469 l 1.22452,0.50366 10e-4,4.16719 c 0.001,4.15342 -10e-4,4.1671 -0.59432,4.14017 -0.32742,-0.0149 -1.01081,-0.15932 -1.51864,-0.32104 z m 0.09,-17.97878 c -1.87846,-1.26514 -3.10959,-2.65669 -7.42819,-8.39608 -5.98797,-7.95797 -9.98768,-11.63224 -15.55515,-14.28948 -6.11638,-2.91923 -13.28561,-3.74511 -25.52814,-2.94081 -6.38167,0.41926 -15.92544,0.799 -27.78125,1.10538 -36.66213,0.94743 -59.18657,0.43902 -77.25834,-1.74384 -1.81901,-0.21972 -4.37885,-0.52602 -5.68854,-0.68068 -2.96621,-0.35027 -17.56593,-2.38449 -23.41563,-3.26257 -9.79669,-1.47054 -13.80626,-1.82001 -20.90208,-1.82179 -9.11165,-0.002 -13.34552,0.58237 -20.10833,2.77675 -3.81366,1.23745 -7.74192,3.20592 -14.15521,7.09324 -15.764611,9.55547 -19.066244,11.42187 -23.116784,13.06775 l -1.648508,0.66984 0.07952,-1.33073 0.07952,-1.33074 1.920507,-0.74589 c 3.898957,-1.51427 8.846525,-4.24178 24.351595,-13.42458 6.95331,-4.11807 12.45858,-6.31669 18.97165,-7.57664 5.00385,-0.96799 7.95007,-1.23089 13.68176,-1.22088 7.29707,0.0127 8.63476,0.14928 26.13803,2.66816 19.88166,2.86116 24.45344,3.37595 39.55521,4.45406 15.45423,1.10326 37.53515,1.23834 46.43438,0.28405 3.29562,-0.35339 12.06985,-0.75687 20.37291,-0.93682 8.85378,-0.19189 12.841,-0.4566 19.63499,-1.30356 9.45753,-1.179 14.35755,-1.14543 20.71397,0.14192 9.39124,1.90198 15.63857,5.63813 23.99469,14.3498 4.23343,4.41356 5.68796,5.60872 7.46329,6.13249 l 1.08577,0.32033 0.0725,4.40283 c 0.0827,5.01684 0.12298,4.94419 -1.96419,3.53849 z M 90.241813,239.66102 c 0,-0.66959 0.121484,-1.05881 0.330729,-1.05963 0.181901,-8e-4 1.901761,-0.63956 3.821912,-1.41966 3.391955,-1.37804 6.929046,-3.20349 15.955696,-8.23458 11.31239,-6.30507 14.06773,-7.64351 18.99947,-9.22924 3.24567,-1.0436 8.54122,-2.13777 12.27708,-2.5367 3.27511,-0.34973 12.91837,-0.35064 16.87762,-0.002 3.16897,0.27938 19.68518,2.44574 27.25208,3.57454 5.55077,0.82804 14.60818,1.84685 20.90209,2.35113 11.2586,0.90208 15.38745,1.07365 25.53229,1.06098 11.97218,-0.0149 12.91221,-0.10373 21.82812,-2.06119 11.06492,-2.42927 12.26279,-2.55749 26.32605,-2.81794 12.92316,-0.23934 11.45602,-0.0927 19.71145,-1.97051 2.29913,-0.52297 3.50905,-0.50489 5.84466,0.0874 3.88418,0.98492 5.9771,1.39574 11.63151,2.28313 8.34415,1.30951 11.97645,2.27566 23.26967,6.18951 3.95321,1.37005 4.90393,1.60533 6.50232,1.60911 1.6037,0.004 1.95177,-0.0809 2.42778,-0.59087 0.82393,-0.8827 0.95092,-1.81303 0.49202,-3.60432 -1.14671,-4.47603 -5.78158,-9.74591 -14.37972,-16.34986 -5.36051,-4.11722 -5.7626,-4.64985 -5.74623,-7.61156 0.009,-1.60542 0.19591,-2.69059 0.75538,-4.3827 2.06438,-6.24375 4.80056,-8.95142 10.79602,-10.68352 2.99912,-0.86646 6.63123,-1.45878 10.19231,-1.66217 l 2.98304,-0.17037 v 1.5903 1.5903 l -3.50573,0.15602 c -10.80324,0.48079 -17.38844,4.47354 -18.75726,11.37296 -0.38702,1.95076 -0.0296,3.25807 1.28994,4.71869 0.52594,0.58216 2.98949,2.68062 5.47455,4.66324 5.43293,4.33447 10.71885,9.53179 13.47396,13.24812 l 2.02454,2.73086 v 7.16042 7.16042 l -1.78594,-0.12871 c -2.21996,-0.15998 -3.13019,-0.61069 -8.95168,-4.4325 -8.66966,-5.69163 -15.30006,-8.43727 -23.9228,-9.90642 -9.03659,-1.53965 -16.63106,-1.80636 -20.76979,-0.72942 -4.65751,1.21194 -6.67708,1.38421 -19.05,1.62498 -11.98354,0.2332 -14.60403,0.42314 -21.93332,1.58983 -7.05048,1.12231 -8.40147,1.19573 -21.85523,1.18776 -12.04045,-0.007 -18.25131,-0.21421 -28.17812,-0.9395 -4.50216,-0.32895 -19.49015,-2.0909 -25.66459,-3.01706 -8.63531,-1.2953 -21.72205,-3.01385 -25.08368,-3.29399 -11.58277,-0.96523 -22.50173,0.21236 -30.47882,3.2871 -4.04862,1.56052 -6.76564,2.96723 -17.99167,9.31502 -5.38427,3.04456 -10.861141,6.0497 -12.170832,6.6781 -2.033557,0.97573 -6.228888,2.66246 -6.622201,2.66246 -0.06857,0 -0.124674,-0.47625 -0.124674,-1.05833 z m 0,-4.05813 v -0.88314 l 2.606866,-0.8538 c 4.273027,-1.39949 7.876371,-3.09688 18.304291,-8.62243 11.20084,-5.9351 12.66692,-6.63859 16.81739,-8.06973 6.94502,-2.39474 12.91766,-3.26035 22.59646,-3.27487 7.76441,-0.0116 7.69122,-0.0181 25.79687,2.25582 18.48652,2.3217 20.6052,2.56032 26.59063,2.99478 18.06057,1.31097 28.88894,1.23777 35.32187,-0.23877 1.01865,-0.23381 4.17381,-1.19131 7.01146,-2.12777 5.79439,-1.91223 12.1175,-3.58995 15.875,-4.21214 4.5198,-0.74841 8.4388,-0.99365 19.44688,-1.21692 11.39459,-0.2311 11.94252,-0.28637 17.37301,-1.75236 0.92235,-0.24899 2.56996,-0.4616 3.66136,-0.47245 2.45218,-0.0244 3.64686,0.47628 6.87917,2.88295 4.06718,3.02828 5.61069,3.40673 13.28047,3.25617 5.65156,-0.11094 6.86983,-0.38724 7.35698,-1.66853 0.34731,-0.9135 -0.11871,-1.99741 -1.80429,-4.1966 -0.72431,-0.945 -1.47526,-2.17332 -1.66878,-2.72961 -0.57704,-1.65872 -0.37485,-4.3857 0.65372,-8.81664 0.5236,-2.25557 1.2567,-5.52979 1.62912,-7.27604 0.8321,-3.90161 1.80353,-6.04336 3.60508,-7.94824 3.27992,-3.46802 9.13888,-5.08315 21.86072,-6.02631 l 1.38907,-0.10298 v 1.39262 1.39261 l -2.31511,0.17273 c -12.50583,0.93304 -18.72868,3.27249 -21.30057,8.00785 -1.20078,2.21088 -3.63825,11.41572 -3.63493,13.72691 0.002,1.48662 0.45071,2.87877 1.22352,3.7972 0.37153,0.44153 2.18814,2.03678 4.03691,3.54499 3.85194,3.14238 6.08565,5.49219 7.03855,7.40442 0.82781,1.6612 0.83666,2.40326 0.0382,3.20175 -1.15528,1.15528 -2.80951,1.1391 -11.39147,-0.11143 -4.23172,-0.61664 -9.06325,-1.28981 -10.73674,-1.49594 -4.50268,-0.55462 -6.90493,-1.24526 -10.17886,-2.92641 -2.699,-1.38593 -3.07689,-1.50623 -5.03468,-1.60284 -1.76068,-0.0869 -2.8064,0.0596 -6.21771,0.87109 l -4.10104,0.97554 -11.2448,0.2039 c -15.81447,0.28676 -19.76411,0.82338 -32.01458,4.34967 -5.82048,1.67542 -8.14902,2.1632 -12.03854,2.5218 -5.38606,0.49658 -18.71493,0.24601 -27.38438,-0.5148 -1.67349,-0.14686 -5.24536,-0.45388 -7.9375,-0.68226 -4.63351,-0.39308 -14.27363,-1.52355 -20.37292,-2.38908 -18.89953,-2.68197 -23.67563,-3.11078 -32.80833,-2.94559 -7.90136,0.14291 -10.72575,0.45612 -15.93479,1.76711 -5.8346,1.46841 -8.11528,2.51625 -25.08836,11.52659 -8.453781,4.48778 -12.80165,6.54259 -15.605781,7.37532 -0.775977,0.23045 -1.448788,0.41899 -1.495137,0.41899 -0.04635,0 -0.08427,-0.39741 -0.08427,-0.88313 z m 0,-3.60183 c 0,-0.73189 0.08739,-0.7754 4.299479,-2.14063 3.811837,-1.2355 5.739908,-2.11858 16.999478,-7.78598 6.98501,-3.51583 13.95016,-6.83949 15.47813,-7.38591 7.26304,-2.59736 14.48077,-3.67759 24.60625,-3.68264 7.21291,-0.004 9.42844,0.1705 27.91354,2.19342 5.23875,0.5733 11.78719,1.24155 14.55209,1.48499 6.17405,0.54362 18.05677,0.63409 22.48958,0.17122 1.74625,-0.18234 5.19906,-0.4493 7.67292,-0.59326 2.53008,-0.14722 5.51693,-0.49044 6.82709,-0.7845 1.28105,-0.28752 6.22214,-1.82676 10.98021,-3.42052 4.75807,-1.59376 9.78213,-3.13885 11.16457,-3.43352 7.03349,-1.49923 15.10807,-2.14193 26.99444,-2.14863 7.47629,-0.004 9.4365,-0.19919 15.06847,-1.49872 6.4524,-1.48884 8.17205,-1.24642 12.44126,1.75383 1.23693,0.86927 2.8794,2.02051 3.64993,2.55831 1.06276,0.74176 1.73343,1.00522 2.77812,1.09135 1.30626,0.10769 1.44132,0.057 2.62334,-0.98457 2.15836,-1.9019 5.17794,-7.38566 6.27472,-11.39534 0.29782,-1.08876 0.78355,-3.58691 1.07941,-5.55144 1.20657,-8.01183 2.60664,-11.1506 6.18253,-13.86045 2.40936,-1.82583 5.83612,-3.09521 10.74945,-3.98193 2.12885,-0.3842 10.88947,-1.20762 12.84824,-1.20762 0.90224,0 0.9101,0.0103 0.9101,1.19062 0,1.08654 -0.0566,1.19063 -0.64705,1.19063 -1.54918,0 -7.70396,0.5983 -10.86233,1.05593 -9.42193,1.36515 -14.1324,4.23148 -16.04582,9.7639 -0.65985,1.90785 -0.90014,2.99437 -1.39316,6.29932 -0.56151,3.76406 -1.22234,6.24761 -3.35835,12.62161 -2.16574,6.46268 -2.30991,6.77417 -3.58562,7.74721 -0.80904,0.61708 -1.2812,0.75406 -2.87714,0.83465 -2.51252,0.12687 -3.4272,-0.29803 -7.17088,-3.33116 -4.41698,-3.57863 -6.45191,-4.12409 -11.02742,-2.95585 -6.31805,1.61314 -6.17525,1.59904 -18.57078,1.834 -17.7832,0.33709 -23.27531,1.23844 -37.00817,6.0737 -9.68342,3.40947 -10.70524,3.5897 -21.72933,3.8326 -12.34119,0.27191 -24.8654,-0.64984 -46.30208,-3.40773 -11.16476,-1.43638 -13.57413,-1.60318 -23.15105,-1.60276 -9.62504,5.3e-4 -12.22108,0.21722 -17.4625,1.45839 -5.74468,1.36034 -7.99968,2.31675 -21.56354,9.14579 -13.296581,6.69447 -16.37029,8.09473 -19.909898,9.07015 l -1.918229,0.52862 z m 9.43e-4,-3.3864 c 9.14e-4,-0.70504 0.08909,-0.7493 2.844271,-1.42752 4.31905,-1.0632 6.845252,-2.15217 19.908953,-8.58219 15.14558,-7.45473 18.31212,-8.56819 27.91355,-9.81539 5.02813,-0.65314 18.98215,-0.65349 28.31041,-7.9e-4 15.65216,1.09531 19.1496,1.20105 23.44461,0.70888 3.74587,-0.42926 5.41043,-1.24888 6.17773,-3.04192 0.57541,-1.34461 1.56855,-1.99484 4.88824,-3.20045 5.31493,-1.93021 6.14521,-1.87478 12.45297,0.8314 4.26311,1.82898 6.01315,2.22808 9.78958,2.23251 3.61575,0.004 5.98937,-0.50928 13.28437,-2.87397 6.10647,-1.97943 8.00481,-2.50315 12.11563,-3.34249 6.12798,-1.2512 9.01876,-1.48206 21.43125,-1.71154 12.55048,-0.23203 14.41434,-0.39879 19.62736,-1.75599 3.43682,-0.89478 6.78877,-0.9898 8.94764,-0.25366 0.80037,0.27291 3.12208,1.30781 5.15938,2.29978 4.21795,2.05375 5.6712,2.51187 7.11119,2.24173 1.38782,-0.26036 2.95965,-1.9094 4.30977,-4.52148 1.25407,-2.42624 1.86574,-4.36457 2.96403,-9.39271 0.4291,-1.96453 1.04581,-4.34578 1.37046,-5.29167 2.20542,-6.42566 5.97046,-10.25827 12.33149,-12.55282 l 1.875,-0.67627 9.2284,0.0168 c 9.25907,0.0168 11.26946,0.2835 4.5982,0.60995 -7.00882,0.34297 -12.76093,1.26127 -16.19445,2.58538 -4.81266,1.85596 -8.60156,5.51714 -9.96628,9.63035 -0.29155,0.87871 -1.07064,4.29809 -1.73131,7.59861 -0.66068,3.30053 -1.50431,6.74685 -1.87474,7.65849 -1.01209,2.49076 -2.57626,4.94962 -4.08946,6.42858 -1.30463,1.27511 -1.40815,1.32291 -2.8648,1.32291 -1.39425,0 -1.73658,-0.13589 -4.42167,-1.75516 -4.10911,-2.47805 -5.49394,-3.12752 -7.60879,-3.56848 -2.10764,-0.43946 -2.87743,-0.36928 -7.60475,0.69331 -5.62414,1.26416 -6.85164,1.36683 -19.05,1.59331 -11.66474,0.21657 -13.86974,0.37468 -20.10834,1.4418 -4.09415,0.70032 -9.32721,2.11686 -14.68437,3.97492 -11.63177,4.03433 -14.98624,4.34273 -22.94476,2.10948 -4.82064,-1.35273 -5.52433,-1.25633 -7.16373,0.98137 -0.88718,1.21097 -2.67661,1.92366 -5.91552,2.35605 -2.981,0.39795 -14.85986,0.16285 -20.19995,-0.39979 -4.07982,-0.42985 -12.37722,-1.21371 -18.91771,-1.78717 -5.23831,-0.45928 -19.99534,-0.46077 -23.68021,-0.002 -4.46516,0.55545 -8.98378,1.5519 -12.98136,2.86265 -2.95185,0.96787 -6.04772,2.37683 -14.88582,6.77468 -14.333011,7.13212 -16.5649,8.11007 -21.251223,9.31169 -2.056939,0.52743 -1.94635,0.54509 -1.945241,-0.31076 z m 0.04963,-2.92063 c 0.07309,-0.62288 0.249382,-0.73027 1.669223,-1.01686 4.760934,-0.96097 8.844191,-2.65489 22.754161,-9.43944 18.07962,-8.81827 22.06367,-9.69804 46.3902,-10.24395 14.52156,-0.32587 16.23228,-0.64656 18.61209,-3.48899 1.98801,-2.37445 3.65342,-2.67213 12.82141,-2.29172 7.94301,0.32957 8.36836,0.24605 11.09642,-2.17895 3.67856,-3.26992 5.27917,-3.35628 11.50215,-0.62059 4.82525,2.12124 6.36948,2.54119 9.90899,2.69472 3.78463,0.16417 4.92548,-0.0398 12.75294,-2.28029 14.31794,-4.09826 17.5009,-4.55094 32.88768,-4.67726 12.55997,-0.1031 12.87887,-0.12619 18.19708,-1.31753 6.54012,-1.46507 7.95818,-1.29059 14.74355,1.81403 4.32078,1.97695 5.8753,2.41183 7.27452,2.03506 2.22761,-0.59983 4.45194,-3.91503 6.58839,-9.81947 2.1494,-5.94025 4.8184,-10.76665 8.06761,-14.58875 l 1.51824,-1.78594 h 1.60004 1.60004 l -1.55046,1.14552 c -4.09678,3.0268 -7.72605,9.03483 -9.34514,15.47027 -1.36974,5.44435 -2.86553,8.85957 -4.81858,11.0019 -1.95706,2.14672 -3.55079,2.12452 -8.4768,-0.11807 -6.78562,-3.08919 -6.47629,-2.98643 -9.33703,-3.10191 -2.26209,-0.0913 -3.14469,0.0102 -6.08541,0.69996 -5.06314,1.18759 -7.08771,1.36026 -16.00036,1.36459 -15.59038,0.008 -22.26024,0.90827 -35.32881,4.7708 -8.31359,2.45716 -10.29374,2.88548 -13.37202,2.89247 -3.17402,0.007 -4.50116,-0.33817 -10.44048,-2.717 -4.21101,-1.68661 -4.96165,-1.90716 -6.48229,-1.90468 -1.52306,0.002 -1.95299,0.13115 -3.75826,1.1247 -2.65626,1.46191 -4.47849,1.914 -7.74056,1.92044 -5.56834,0.011 -7.94131,0.73614 -9.27098,2.83309 -1.76969,2.79091 -3.65415,3.16034 -15.21354,2.9825 -4.72943,-0.0728 -12.88521,-0.12284 -18.12396,-0.11131 -8.1906,0.018 -10.12937,0.10142 -13.83908,0.5951 -9.82789,1.30787 -14.37076,2.96709 -31.26839,11.42031 -8.93883,4.47174 -13.498884,6.26533 -19.135709,7.52659 -0.38161,0.0854 -0.462037,-0.034 -0.396875,-0.58934 z m -0.0028,-2.74111 c 0.07241,-0.48688 0.408884,-0.63398 2.343634,-1.02452 4.94472,-0.99814 9.87587,-3.01738 21.76898,-8.91413 15.55993,-7.7148 19.14162,-8.80005 36.03236,-10.91774 3.4925,-0.43788 7.24296,-0.98824 8.33437,-1.22302 2.53744,-0.54585 5.32723,-1.83888 7.01146,-3.2497 0.87408,-0.73219 1.95129,-1.30704 3.175,-1.69433 2.73507,-0.86563 9.99716,-0.81007 18.12396,0.13865 8.77243,1.0241 9.13321,1.04912 10.37721,0.71972 1.47147,-0.38964 2.23874,-1.14524 4.34487,-4.27876 2.9185,-4.3422 4.33598,-5.16613 7.46054,-4.33653 0.96919,0.25733 3.07186,1.00469 4.67259,1.6608 4.88386,2.0018 6.46156,2.49959 8.89618,2.80689 2.64597,0.33398 6.35187,-0.003 9.27192,-0.84301 0.92161,-0.26513 3.16722,-0.9102 4.99025,-1.43348 7.16805,-2.05752 14.69694,-3.39394 21.82082,-3.87332 2.18281,-0.14689 7.8414,-0.26891 12.57464,-0.27116 9.33483,-0.004 11.27815,-0.16166 16.59372,-1.34244 3.67675,-0.81674 6.10321,-0.96761 7.8733,-0.48953 0.58209,0.15722 2.30849,0.98347 3.83646,1.83611 1.52797,0.85265 3.73654,1.86546 4.90793,2.25069 1.88325,0.61935 2.26019,0.66532 3.25614,0.39714 2.17829,-0.58655 2.4364,-0.92228 11.95829,-15.5545 2.93563,-4.51118 3.19503,-4.82865 3.94535,-4.82865 0.44172,0 0.80313,0.0633 0.80313,0.14066 0,0.0774 -0.6437,1.00009 -1.43043,2.05052 -2.08061,2.77795 -4.08202,6.17503 -7.24818,12.30263 -2.22464,4.30543 -3.10262,5.73493 -4.27076,6.95347 -2.37565,2.47817 -3.76665,2.40191 -10.08598,-0.55295 -4.26947,-1.99637 -4.48268,-2.07379 -6.49716,-2.35907 -1.85842,-0.26319 -3.09892,-0.12274 -7.85317,0.88911 -4.47998,0.95347 -8.195,1.20695 -17.77995,1.21313 -14.66534,0.009 -19.758,0.73339 -33.46105,4.75655 -6.00079,1.7618 -10.42228,2.25283 -14.1815,1.57492 -0.86348,-0.15571 -3.83214,-1.19751 -6.59704,-2.3151 -4.62039,-1.86761 -5.17848,-2.03199 -6.89855,-2.03199 -2.34501,0 -3.08646,0.45885 -5.68497,3.51823 -2.59733,3.058 -2.92944,3.22708 -6.33418,3.22482 -1.52797,-10e-4 -4.445,-0.17953 -6.4823,-0.39671 -6.13508,-0.654 -9.35535,-0.76102 -12.19515,-0.40526 -3.26159,0.4086 -3.99196,0.71002 -5.75066,2.37332 -2.83242,2.67879 -4.36636,3.0146 -18.83127,4.12259 -10.14146,0.77682 -12.09801,1.00304 -16.40417,1.89672 -6.10625,1.26725 -11.62,3.31275 -19.33971,7.17468 -13.50146,6.75436 -18.853581,9.06605 -23.719372,10.24489 -3.318517,0.80399 -3.434249,0.8071 -3.327552,0.0897 z m -0.04774,-2.50598 c 0,-0.50914 0.139281,-0.63077 0.727604,-0.6354 1.397907,-0.011 5.252611,-1.01091 8.665109,-2.24773 1.891771,-0.68565 7.963951,-3.44786 13.493741,-6.13824 15.65897,-7.61848 17.55255,-8.35641 28.68288,-11.17773 7.54596,-1.91275 8.83476,-2.41382 14.84108,-5.77004 1.86312,-1.04107 3.87525,-1.54767 7.67292,-1.93185 4.7688,-0.48241 8.73956,-0.18453 21.82813,1.63754 6.62138,0.92177 9.18633,0.94296 10.37147,0.0857 0.48373,-0.3499 1.52189,-2.06321 2.98999,-4.93446 2.64663,-5.17623 3.50584,-6.3386 5.14936,-6.96626 1.67732,-0.64058 3.48448,-0.24443 8.60544,1.8864 5.25394,2.18617 7.28215,2.60688 11.63685,2.41382 2.85466,-0.12656 4.14332,-0.3545 9.26876,-1.63944 15.29643,-3.83478 21.84572,-4.63492 37.93786,-4.63492 8.35661,0 10.15772,-0.1492 16.12782,-1.33599 2.15993,-0.42937 4.43027,-0.78068 5.04521,-0.78068 1.7645,0 3.62425,0.68374 5.877,2.16067 4.52132,2.96425 5.78188,3.3382 7.9437,2.35658 2.22487,-1.01024 6.81545,-5.98315 10.9436,-11.85504 1.46767,-2.08761 1.82564,-2.44364 2.46074,-2.44739 0.52243,-0.003 0.68556,0.0939 0.54911,0.32633 -1.55155,2.64358 -6.9891,10.28311 -8.9587,12.58659 -3.11744,3.64591 -4.40346,4.54756 -6.47449,4.53937 -1.74705,-0.007 -2.91955,-0.49727 -5.7403,-2.40068 -3.53356,-2.38443 -5.74933,-2.93228 -9.09071,-2.24772 -1.09141,0.22361 -3.41313,0.71895 -5.15938,1.10078 -3.08366,0.67425 -3.54797,0.70051 -16.13958,0.91273 -17.06252,0.28757 -19.31519,0.57318 -33.86667,4.29379 l -7.40833,1.89421 -3.70417,0.0123 c -4.18624,0.0139 -5.49155,-0.28614 -10.31875,-2.37176 -5.14673,-2.22368 -7.69389,-2.72778 -9.37929,-1.85623 -1.19477,0.61784 -2.39911,2.22077 -4.38491,5.83612 -2.37555,4.32494 -2.94722,4.76772 -6.06856,4.70033 -1.18543,-0.0256 -4.70895,-0.40455 -7.83004,-0.84213 -10.285,-1.44197 -16.33611,-1.71949 -20.74144,-0.95126 -2.78459,0.48559 -3.63099,0.82397 -6.22798,2.48987 -3.29716,2.11504 -5.78088,3.00433 -11.11674,3.98032 -6.38172,1.16729 -13.46324,2.70827 -16.00729,3.48329 -4.20312,1.28044 -7.27438,2.61775 -17.99167,7.83407 -13.37746,6.51108 -16.726521,7.85089 -22.214865,8.8872 l -1.994509,0.3766 z m 0.04675,-2.12321 c 0.06238,-0.31734 0.701224,-0.55976 2.358833,-0.89511 6.37854,-1.29043 10.137291,-2.82197 24.251841,-9.88164 8.26782,-4.13531 14.90915,-7.14823 19.51238,-8.85201 3.22296,-1.19291 6.00555,-2.47994 9.78958,-4.52795 5.82819,-3.15436 8.08992,-3.7051 16.00729,-3.8978 5.79675,-0.14109 10.42599,0.17555 16.02017,1.09577 4.85525,0.79867 12.04678,1.72936 13.36292,1.72936 1.82948,0 3.0368,-0.62045 3.82523,-1.96581 0.35559,-0.60676 1.41907,-3.0302 2.36331,-5.38541 0.94423,-2.35522 1.90949,-4.65487 2.14502,-5.11034 0.57557,-1.11303 2.43356,-3.1009 3.33305,-3.56605 1.6907,-0.87429 4.27108,-0.33788 10.21527,2.12353 6.47504,2.68123 9.20315,2.67141 21.36316,-0.0769 13.27956,-3.00131 18.90671,-3.64474 33.99896,-3.88756 10.65721,-0.17146 13.25341,-0.37045 19.09777,-1.46373 6.28858,-1.17639 7.68552,-1.02509 11.32931,1.22699 4.21055,2.60238 5.84503,3.03709 7.75221,2.06182 1.4976,-0.76583 4.03457,-2.93995 6.75284,-5.78703 2.02689,-2.12294 2.81081,-2.7758 3.333,-2.7758 0.37554,0 0.68279,0.0986 0.68279,0.21913 0,0.42895 -4.35102,5.50855 -6.74246,7.87149 -2.54357,2.51325 -4.62786,3.82023 -6.07564,3.80982 -1.0809,-0.008 -2.58894,-0.72062 -5.07869,-2.40068 -4.10544,-2.77032 -5.45601,-2.96645 -11.86884,-1.72356 -6.34638,1.23001 -9.57975,1.47813 -19.31458,1.48213 -4.51115,0.002 -9.80943,0.12348 -11.77396,0.27028 -6.87479,0.51372 -15.77968,2.0714 -22.71957,3.97421 -5.02295,1.37721 -7.8097,1.84212 -11.01481,1.83757 -3.59295,-0.005 -5.43363,-0.44771 -10.63672,-2.55776 -4.23214,-1.71629 -4.54766,-1.80242 -6.60278,-1.80242 -2.01449,0 -2.22598,0.0543 -3.175,0.81544 -1.29629,1.03963 -2.40939,2.88676 -3.78421,6.27968 -2.5881,6.38718 -3.38794,7.32467 -6.24917,7.32467 -1.68827,0 -6.40677,-0.56365 -14.53128,-1.73585 -6.71757,-0.9692 -11.67633,-1.25929 -16.01529,-0.9369 -5.58901,0.41528 -8.05038,1.1552 -12.8243,3.85517 -2.58938,1.46447 -7.73614,3.51568 -11.64166,4.63971 -4.93782,1.42113 -11.23388,4.07872 -21.37463,9.0223 -12.1066,5.90193 -14.36968,6.92105 -18.180591,8.18714 -2.807667,0.93278 -6.52812,1.83926 -7.548869,1.83926 -0.254952,0 -0.39291,-0.17561 -0.341884,-0.4352 z m 264.272014,-0.58382 c 0,-0.47674 -5.62648,-6.12989 -10.1823,-10.23056 -7.23918,-6.51594 -8.33853,-7.81066 -8.33853,-9.82041 0,-4.11013 6.08474,-7.82784 14.41979,-8.81033 1.30969,-0.15438 2.82774,-0.28102 3.37344,-0.28143 l 0.99219,-7.5e-4 v 1.28493 1.28492 l -1.79695,0.16701 c -3.64502,0.33877 -8.16398,1.87824 -10.30341,3.51006 -0.96482,0.73591 -1.92396,2.40126 -1.91998,3.33369 0.007,1.57166 1.30798,3.39577 5.48081,7.68296 2.3019,2.36499 5.16328,5.31201 6.35863,6.54893 l 2.17336,2.24896 0.004,1.65365 c 0.002,0.9095 -0.0558,1.65364 -0.12853,1.65364 -0.0728,0 -0.13229,-0.10137 -0.13229,-0.22527 z M 90.284805,216.21297 c 0.05717,-0.29975 0.355993,-0.52634 0.753499,-0.57136 3.431463,-0.38869 7.956215,-1.70069 12.695626,-3.68121 4.0846,-1.70689 27.68312,-13.84356 33.60376,-17.28235 5.38862,-3.12977 5.96859,-3.4298 8.26036,-4.27319 4.22587,-1.55516 6.27863,-1.85052 13.83235,-1.99025 7.35137,-0.13599 10.64524,0.13149 23.28333,1.89067 5.75774,0.80146 8.07386,0.8543 9.17709,0.20938 0.94201,-0.55067 2.46001,-3.55254 4.297,-8.49741 1.7252,-4.64393 3.12587,-7.2139 4.70596,-8.63454 2.53251,-2.27694 4.55798,-2.24824 10.70889,0.15173 7.78795,3.03872 9.52519,3.09177 21.64648,0.66109 15.19115,-3.04628 19.61507,-3.52456 35.71875,-3.86165 6.40292,-0.13403 12.47621,-0.35917 13.49621,-0.50032 3.17751,-0.43969 5.25325,-0.79976 6.2135,-1.07781 0.50837,-0.14721 2.42859,-0.26765 4.26717,-0.26765 3.7684,0 4.06594,0.0836 7.67792,2.15858 3.85456,2.21428 5.94778,2.01185 9.55192,-0.92377 1.2439,-1.01317 1.70665,-1.23481 2.57809,-1.23481 0.58414,0 1.06207,0.0979 1.06207,0.2176 0,0.11968 -0.74414,0.87087 -1.65365,1.66932 -5.57234,4.89192 -7.21153,5.2869 -11.3966,2.74609 -3.64953,-2.21569 -4.79761,-2.62497 -7.32267,-2.61047 -1.30229,0.007 -4.1423,0.35526 -6.74687,0.8262 -6.09763,1.10255 -6.33766,1.12021 -18.88079,1.38892 -11.54383,0.24731 -14.96412,0.4655 -21.0713,1.34415 -3.62905,0.52213 -4.87468,0.76384 -15.08125,2.92647 -3.80536,0.8063 -5.86377,1.0993 -8.46984,1.20561 -4.40628,0.17976 -6.19148,-0.1804 -11.53435,-2.327 -6.27111,-2.51953 -8.54292,-2.4568 -10.90356,0.30108 -1.29812,1.51656 -2.50289,3.94703 -4.25498,8.58391 -1.79888,4.76069 -2.39841,5.8795 -3.57574,6.6729 -1.23247,0.83057 -2.24658,0.7901 -11.0032,-0.4391 -12.09134,-1.6973 -12.53766,-1.73622 -19.84375,-1.73048 -9.31753,0.007 -12.62335,0.6514 -17.76097,3.46034 -3.28511,1.79609 -34.72253,17.4483 -38.46299,19.15012 -5.32668,2.42353 -10.848783,4.23455 -14.181426,4.65094 -1.356796,0.16952 -1.472849,0.14342 -1.386039,-0.31173 z m -0.04295,-2.05942 c 0,-0.24904 0.459246,-0.43293 1.389063,-0.55622 8.695192,-1.15289 22.432452,-7.59926 39.489062,-18.53071 6.33918,-4.06273 8.81912,-5.39261 12.30313,-6.59763 4.93514,-1.70693 7.78834,-2.06968 16.27187,-2.0688 7.8096,8.2e-4 11.73856,0.29946 20.35661,1.54732 2.46489,0.35691 5.41134,0.64892 6.54768,0.64892 2.00471,0 2.09772,-0.0286 3.13205,-0.96305 1.17768,-1.06397 3.19527,-4.89298 5.36746,-10.18647 1.42888,-3.48207 2.70346,-5.7127 4.36453,-7.63826 l 1.13916,-1.32055 h 4.82994 c 4.5004,0 4.94291,0.0443 6.48556,0.64883 3.49747,1.37065 5.99743,1.83733 9.82181,1.83349 3.14075,-0.003 4.29042,-0.14475 9.525,-1.17315 l 5.95312,-1.16955 7.80521,-0.04 c 5.74602,-0.0294 7.31659,0.024 5.95313,0.20246 -6.30146,0.82487 -11.75964,1.69983 -16.27188,2.60843 -7.59125,1.52861 -10.15252,1.90219 -13.09688,1.91027 -3.38526,0.009 -4.99929,-0.33046 -9.39045,-1.97668 -4.394,-1.64729 -5.84936,-2.04321 -7.52549,-2.04724 -1.74263,-0.004 -3.22606,0.75232 -4.85725,2.47706 -1.4746,1.55918 -2.40657,3.2617 -4.18978,7.65396 -3.32421,8.18791 -3.95406,9.34449 -5.48436,10.07066 -1.29466,0.61436 -2.51909,0.55099 -9.55062,-0.49427 -8.43483,-1.25387 -14.01031,-1.71275 -20.78226,-1.71047 -6.37318,0.002 -9.98731,0.38593 -13.62604,1.44693 -3.5674,1.04021 -4.96237,1.73191 -12.03854,5.96935 -10.97885,6.57449 -23.73215,13.3955 -29.89792,15.9907 -3.90276,1.64269 -6.110211,2.39285 -9.392707,3.19192 -3.040116,0.74007 -4.630208,0.83373 -4.630208,0.27272 z m 0,-1.94963 c 0,-0.3875 0.450978,-0.54662 2.579688,-0.91021 9.136237,-1.56049 20.593167,-7.07285 34.459667,-16.57986 7.47114,-5.12228 10.15102,-6.60486 14.64665,-8.1029 8.54984,-2.849 17.91368,-3.2084 38.25575,-1.46835 4.14388,0.35447 5.35291,0.0725 7.62201,-1.77745 1.50179,-1.22439 2.57008,-2.88913 6.02061,-9.3821 2.69721,-5.07541 2.96372,-5.47728 3.63802,-5.48578 0.40019,-0.005 0.72761,0.0466 0.72761,0.11487 0,0.0682 -0.5614,0.99096 -1.24755,2.05052 -0.68614,1.05957 -2.0376,3.65289 -3.00324,5.76294 -3.30161,7.2145 -4.30481,8.82506 -6.18253,9.92548 -1.44432,0.84643 -2.52477,0.8456 -10.20418,-0.008 -11.91759,-1.32441 -21.89834,-1.50988 -28.25131,-0.52498 -5.95409,0.92306 -11.56179,3.17941 -16.86015,6.78397 -16.72826,11.3805 -29.5924,17.81893 -39.271044,19.65494 -2.758782,0.52333 -2.930001,0.52022 -2.930001,-0.0533 z M 351.6432,207.49397 c -1.67735,-1.88067 -3.38008,-3.86594 -3.78386,-4.4117 -2.12451,-2.87154 -1.97883,-5.11875 0.4397,-6.78274 1.22252,-0.84112 3.56013,-1.7112 5.40168,-2.01056 l 1.12448,-0.1828 v 1.57121 1.57121 l -1.33499,0.82987 c -1.83158,1.13857 -2.29784,2.23504 -1.70695,4.01406 0.23347,0.70291 1.01857,2.12396 1.74467,3.15789 1.31849,1.87746 1.3201,1.88229 1.24258,3.77142 l -0.0776,1.89156 z m -261.401345,2.19584 c 0,-0.60492 0.119654,-0.66473 1.653646,-0.82656 8.390159,-0.88513 19.699229,-5.95302 31.022399,-13.90195 9.46108,-6.64173 12.82922,-8.63228 17.65855,-10.43614 3.53764,-1.32139 6.04482,-1.8879 12.37166,-2.79547 6.74942,-0.96818 10.79342,-1.2842 20.37291,-1.59205 12.57792,-0.4042 13.54312,-0.82242 18.18458,-7.87923 2.11322,-3.21292 2.57935,-3.77031 3.15298,-3.77031 h 0.67314 l -0.72378,1.25677 c -5.25041,9.1167 -6.23909,10.37872 -9.32552,11.90382 l -2.01286,0.99462 -13.63937,0.0174 c -10.88048,0.0139 -14.36264,0.10463 -17.21502,0.4485 -9.51029,1.14651 -15.02833,3.27864 -23.6376,9.13339 -8.582,5.83621 -11.8335,7.92578 -15.49983,9.96098 -7.99963,4.4406 -15.349921,7.14293 -21.646822,7.95841 -1.348627,0.17466 -1.389063,0.16091 -1.389063,-0.47222 z m 4.56e-4,-3.16049 4.57e-4,-0.86726 2.182356,-0.0328 c 2.651866,-0.0399 4.459352,-0.39306 8.267776,-1.61551 7.33926,-2.3558 15.1719,-6.74843 24.73854,-13.87365 8.70129,-6.4807 13.12341,-8.62703 23.94479,-11.62188 8.87817,-2.45706 16.03537,-3.54842 27.64896,-4.21601 7.52326,-0.43247 9.24529,-1.00081 12.23431,-4.03785 1.38125,-1.40344 1.9277,-1.79298 2.42396,-1.72794 l 0.64069,0.084 -0.96875,1.45152 c -1.40473,2.10477 -3.94012,4.58907 -5.47731,5.36694 -1.8754,0.94902 -3.29478,1.15638 -12.0786,1.76461 -10.23719,0.70886 -11.91421,0.905 -19.39617,2.26863 -6.8267,1.2442 -11.48113,2.46721 -15.11634,3.97201 -4.68182,1.93805 -6.89936,3.26292 -14.76508,8.82144 -3.19238,2.25598 -7.0055,4.83719 -8.4736,5.73603 -9.11453,5.5803 -17.035261,8.62671 -24.020507,9.23858 l -1.785938,0.15644 z m 0.594857,-2.75756 c -0.464971,-0.10223 -0.595439,-0.31512 -0.59589,-0.97237 l -5.76e-4,-0.8415 2.712556,0.0863 c 2.806075,0.0893 4.745861,-0.17131 7.475062,-1.00429 6.39934,-1.95313 15.22312,-6.81005 20.90208,-11.50524 5.12706,-4.2389 6.23054,-5.09119 8.65121,-6.68187 5.49875,-3.61338 17.3979,-8.69238 25.34775,-10.81935 6.68059,-1.78739 11.34826,-2.41209 20.58029,-2.7544 3.84985,-0.14275 7.43197,-0.38706 7.96024,-0.54291 0.52828,-0.15585 1.79395,-0.24565 2.81259,-0.19956 l 1.85209,0.0838 -1.32292,0.86916 c -2.00201,1.31532 -3.48059,1.6405 -8.73125,1.9202 -15.70484,0.8366 -25.29781,2.81287 -37.42229,7.70945 -6.94855,2.80623 -8.97064,4.03507 -18.53484,11.26368 -5.27927,3.99007 -7.92374,5.65449 -13.36371,8.41107 -4.73484,2.39927 -7.91261,3.63269 -11.248111,4.36583 -2.351094,0.51676 -6.051373,0.83687 -7.074281,0.61198 z m 0.132291,-3.70677 c -0.643975,-0.11207 -0.727604,-0.24225 -0.727604,-1.13265 v -1.00602 l 1.521354,0.35801 c 2.432884,0.57251 4.722437,0.45265 8.12824,-0.4255 7.706311,-1.98698 12.481421,-4.79371 20.634661,-12.12871 5.21484,-4.69149 18.04109,-12.19771 26.95329,-15.77369 l 3.65942,-1.46833 3.74892,0.0275 c 3.72917,0.0274 3.74195,0.0296 2.42599,0.41222 -9.05999,2.63441 -13.6207,4.48785 -22.37228,9.09193 -6.06023,3.18821 -8.74992,5.01596 -13.96548,9.49012 -6.00962,5.15536 -10.52894,8.00787 -16.31432,10.2973 -4.823341,1.90873 -6.049101,2.20019 -9.657295,2.2963 -1.81901,0.0485 -3.634714,0.0311 -4.034896,-0.0385 z m 2.315104,-3.55797 c -0.582083,-0.13109 -1.504817,-0.43487 -2.05052,-0.67507 -0.950039,-0.41816 -0.992188,-0.49121 -0.992188,-1.71945 0,-0.7055 0.06056,-1.28273 0.134583,-1.28273 0.07402,0 0.612,0.34584 1.19551,0.76853 3.027638,2.19321 8.960892,1.63735 15.206362,-1.42462 3.04797,-1.49432 4.57987,-2.60191 9.33893,-6.75225 4.33601,-3.7814 16.80809,-12.56443 22.13539,-15.58809 2.30108,-1.30604 2.43151,-1.34524 4.47587,-1.34524 1.15814,0 2.04833,0.0574 1.9782,0.12752 -0.0701,0.0701 -1.45026,0.7767 -3.06695,1.57014 -3.61825,1.77578 -6.82251,3.69853 -13.79945,8.28051 -6.3273,4.15534 -7.32676,4.90666 -11.51201,8.65391 -4.71095,4.21792 -8.17735,6.37921 -12.90655,8.04721 -4.047601,1.42759 -7.639103,1.90221 -10.137177,1.33963 z m 1.672314,-3.76399 c -1.700132,-0.48218 -2.912749,-1.47843 -3.648657,-2.99763 -0.341357,-0.70469 -0.720935,-1.488 -0.843507,-1.74069 -0.122572,-0.25269 -0.210553,-2.99112 -0.195513,-6.08542 0.0295,-6.06959 0.184267,-6.12868 0.87559,-0.33431 0.584719,4.90084 1.05249,6.34316 2.540289,7.83265 0.935556,0.93663 1.543072,1.29638 2.629225,1.55694 3.066415,0.73562 7.890816,-0.35995 11.511456,-2.61415 1.07704,-0.67056 6.20612,-4.67201 11.39795,-8.89211 5.19183,-4.22011 10.46868,-8.41336 11.72632,-9.31833 2.23852,-1.61081 2.3228,-1.64555 4.00641,-1.65136 l 1.71979,-0.006 -2.21807,1.38678 c -3.40467,2.12865 -16.41534,11.9152 -20.27151,15.24811 -1.89177,1.63506 -4.07163,3.39309 -4.84412,3.90673 -1.87285,1.24528 -5.36677,2.85792 -7.32672,3.3817 -2.250681,0.60149 -5.551973,0.75443 -7.058933,0.32704 z m 1.765,-4.09334 c -2.410588,-1.13496 -3.421336,-3.28261 -4.377233,-9.30079 -0.58671,-3.69383 -1.154625,-5.92574 -1.739514,-6.83627 -0.256797,-0.39978 -0.362193,-1.11936 -0.310023,-2.11667 l 0.07904,-1.51098 1.162952,2.77812 c 0.639624,1.52797 1.629972,4.6749 2.200774,6.99319 0.570802,2.31828 1.221662,4.58047 1.446356,5.02708 0.517926,1.02945 1.871511,2.47542 2.73054,2.91691 2.04348,1.0502 5.649931,0.57148 8.952881,-1.1884 2.30719,-1.22932 8.65808,-6.29441 14.19817,-11.3236 6.21657,-5.64329 6.21858,-5.64474 7.69134,-5.54977 l 1.26995,0.0819 -1.50785,1.1359 c -0.82932,0.62474 -3.79811,3.07135 -6.59732,5.43692 -5.94607,5.02493 -12.4964,10.30736 -14.28099,11.51672 -2.14592,1.45423 -4.51225,2.2045 -7.34493,2.32881 -2.070811,0.0909 -2.70035,0.0223 -3.574143,-0.38905 z m 2.579372,-4.56361 c -1.693399,-0.86331 -2.620853,-2.39506 -4.203868,-6.94294 -0.512763,-1.47313 -1.517367,-3.98536 -2.232453,-5.58274 -0.715086,-1.59737 -1.300156,-2.95039 -1.300156,-3.00671 0,-0.0563 0.258541,-0.0643 0.574535,-0.0179 0.454703,0.0669 1.169249,1.24343 3.425893,5.6408 3.291469,6.41387 4.019929,7.3006 6.40411,7.79556 1.89016,0.39239 3.86927,-0.0704 6.75722,-1.58026 2.94405,-1.53915 4.97425,-3.16567 9.70622,-7.77625 3.91926,-3.81872 4.29178,-4.11284 5.21807,-4.11994 l 0.9975,-0.008 -3.51104,3.40185 c -6.75392,6.54386 -10.27828,9.3662 -14.14348,11.32625 -2.14813,1.08932 -2.67044,1.24475 -4.49791,1.33845 -1.73499,0.089 -2.24887,0.0136 -3.194641,-0.46857 z m 2.714561,-5.23733 c -1.25107,-0.60189 -2.774911,-2.16499 -4.425767,-4.53982 -1.077204,-1.5496 -3.379438,-5.44104 -3.379438,-5.71223 0,-0.0597 0.327422,-0.10758 0.727604,-0.10633 0.616717,0.002 0.90689,0.29284 1.90401,1.9089 1.39132,2.25496 3.953721,4.90371 5.438181,5.62142 1.48595,0.71843 4.27208,0.84754 6.01157,0.27858 2.05788,-0.6731 4.5195,-2.39438 7.53843,-5.27125 2.39226,-2.27968 2.79769,-2.56533 3.53592,-2.49128 0.82139,0.0824 0.77908,0.13705 -2.83438,3.66118 -5.29019,5.15942 -8.03321,6.80643 -11.738,7.0479 -1.32431,0.0863 -1.96316,-0.005 -2.77813,-0.39707 z m 2.57242,-4.818 c -1.83291,-0.36581 -3.70333,-1.56311 -5.545321,-3.54971 l -1.725212,-1.86065 1.111332,-0.0823 c 0.98836,-0.0732 1.24315,0.0392 2.302581,1.01577 1.82144,1.67894 3.26543,2.23496 5.78212,2.22645 2.40238,-0.008 4.06877,-0.62477 6.28615,-2.32615 0.99845,-0.76611 1.49133,-0.96494 2.38125,-0.96063 l 1.12218,0.005 -1.32291,1.19927 c -1.63805,1.48494 -4.41417,3.331 -5.82084,3.87074 -1.44352,0.55387 -3.21377,0.73269 -4.57133,0.46176 z m 198.82555,-4.59818 c -2.54225,-0.68241 -2.10529,-0.94525 1.55069,-0.93278 l 3.42635,0.0117 -0.92604,0.48203 c -1.33113,0.69289 -2.59501,0.82987 -4.051,0.43905 z m -198.95057,-0.29359 c -0.69122,-0.22127 -1.25677,-0.45824 -1.25677,-0.52659 0,-0.0684 1.63711,-0.11458 3.63802,-0.10271 3.50158,0.0208 3.60329,0.0368 2.71198,0.42642 -1.33698,0.58448 -3.61741,0.67532 -5.09323,0.20288 z m 115.89637,-0.58167 c 0.76887,-0.0536 1.95949,-0.0531 2.64584,0.001 0.68634,0.0543 0.0573,0.0982 -1.39794,0.0975 -1.4552,-6.9e-4 -2.01676,-0.0451 -1.2479,-0.0987 z"
       style="fill:#000e0f;stroke-width:0.26458335" />
  </g>
</svg>
