<?xml version="1.0" encoding="UTF-8" standalone="no"?>
<!-- Created with Inkscape (http://www.inkscape.org/) -->

<svg
   xmlns:dc="http://purl.org/dc/elements/1.1/"
   xmlns:cc="http://creativecommons.org/ns#"
   xmlns:rdf="http://www.w3.org/1999/02/22-rdf-syntax-ns#"
   xmlns:svg="http://www.w3.org/2000/svg"
   xmlns="http://www.w3.org/2000/svg"
   xmlns:sodipodi="http://sodipodi.sourceforge.net/DTD/sodipodi-0.dtd"
   xmlns:inkscape="http://www.inkscape.org/namespaces/inkscape"
   width="224.93727mm"
   height="132.32523mm"
   viewBox="0 0 224.93727 132.32522"
   version="1.1"
   id="svg8"
   sodipodi:docname="background-lines-3.svg"
   inkscape:version="0.92.4 (5da689c313, 2019-01-14)">
  <defs
     id="defs2" />
  <sodipodi:namedview
     id="base"
     pagecolor="#ffffff"
     bordercolor="#666666"
     borderopacity="1.0"
     inkscape:pageopacity="0.0"
     inkscape:pageshadow="2"
     inkscape:zoom="0.98994949"
     inkscape:cx="-12.168327"
     inkscape:cy="-25.492815"
     inkscape:document-units="mm"
     inkscape:current-layer="layer1"
     showgrid="false"
     inkscape:window-width="1600"
     inkscape:window-height="1201"
     inkscape:window-x="-9"
     inkscape:window-y="60"
     inkscape:window-maximized="1" />
  <metadata
     id="metadata5">
    <rdf:RDF>
      <cc:Work
         rdf:about="">
        <dc:format>image/svg+xml</dc:format>
        <dc:type
           rdf:resource="http://purl.org/dc/dcmitype/StillImage" />
        <dc:title></dc:title>
      </cc:Work>
    </rdf:RDF>
  </metadata>
  <g
     inkscape:label="Layer 1"
     inkscape:groupmode="layer"
     id="layer1"
     transform="translate(-132.83458,-197.81914)">
    <path
       style="fill:#000000;stroke-width:0.26458335"
       d="m 138.20318,329.63524 c -0.26033,-0.26323 -1.57466,-1.40241 -2.92072,-2.5315 l -2.4474,-2.05288 v -2.37981 -2.3798 l 1.29114,0.70273 c 0.71013,0.3865 2.13238,1.34365 3.16055,2.12699 1.02817,0.78334 3.66184,2.62389 5.8526,4.09012 2.19077,1.46622 3.98321,2.71916 3.98321,2.78431 0,0.0652 -1.90036,0.11846 -4.22303,0.11846 -3.72352,0 -4.27901,-0.0566 -4.69635,-0.47862 z m 20.29646,0.36575 c 0,-0.0621 0.62508,-0.47152 1.38907,-0.90985 2.36106,-1.35466 2.39527,-1.39711 10.58207,-13.13249 6.87139,-9.84978 8.13505,-13.08036 6.93819,-17.73764 -1.30109,-5.06292 -4.63227,-7.93525 -12.22105,-10.53773 -5.58475,-1.91522 -10.67661,-4.51298 -16.87474,-8.60912 -1.89177,-1.25022 -3.49911,-2.33809 -3.57187,-2.4175 -0.0728,-0.0794 -0.84667,-0.62038 -1.71979,-1.20215 -3.77823,-2.51745 -9.29756,-6.30439 -9.72344,-6.67148 -0.34993,-0.30162 -0.46302,-0.80706 -0.46302,-2.06936 0,-1.96152 -0.10753,-1.96144 2.91042,-0.002 1.0914,0.70856 2.40109,1.55637 2.91041,1.88403 0.50933,0.32766 2.53339,1.64065 4.49792,2.91776 8.03668,5.22449 12.92301,7.62908 20.76979,10.22095 10.82681,3.5762 14.33541,5.93124 16.39764,11.00641 1.83547,4.51713 1.34993,9.44798 -1.49165,15.1482 -1.0009,2.00781 -1.2623,2.44967 -5.19123,8.77497 -1.20531,1.94049 -2.99125,5.1355 -3.96875,7.10003 -1.39287,2.79935 -2.08537,3.8723 -3.20184,4.96094 l -1.42459,1.38906 h -3.27177 c -1.79947,-4e-5 -3.27177,-0.0508 -3.27177,-0.11291 z m 12.77967,-0.92206 c 1.18,-1.30611 1.20484,-1.35467 2.68424,-5.24651 1.41972,-3.73481 2.4468,-5.87657 4.83777,-10.0881 0.94123,-1.65793 2.16382,-3.92153 2.71686,-5.03025 2.68687,-5.38654 3.81346,-10.88676 3.20373,-15.64117 -1.02345,-7.98043 -5.85489,-11.63827 -22.87599,-17.31918 -5.17963,-1.72874 -13.35841,-5.4306 -16.60377,-7.51517 -0.63926,-0.41062 -3.69238,-2.27877 -6.78469,-4.15144 l -5.6224,-3.40487 v -1.80207 -1.80207 l 0.99219,0.53737 c 0.5457,0.29555 1.75749,1.01794 2.69286,1.60532 4.09831,2.57357 12.12813,6.78684 18.14307,9.51973 1.28658,0.58455 6.62103,2.69593 8.38334,3.31813 3.64947,1.28848 6.75547,2.5109 10.79896,4.25011 6.68101,2.87367 11.32677,6.45466 13.02429,10.03924 0.86086,1.81785 0.86615,1.85363 0.83708,5.66586 -0.0228,2.98404 -0.17916,4.5713 -0.70397,7.14375 -0.89197,4.37219 -1.84749,6.91101 -5.01085,13.31386 -3.32463,6.72927 -3.66972,7.55688 -4.82685,11.57561 -0.98099,3.40701 -1.43184,4.45865 -2.34566,5.47147 -0.46548,0.51591 -0.79973,0.59531 -2.50616,0.59531 h -1.96904 z m 7.68728,-0.0895 c 0.35503,-0.61846 0.90664,-2.37463 1.2258,-3.9026 1.00045,-4.7896 1.48325,-6.17073 3.97713,-11.37709 2.20273,-4.59854 4.46317,-10.72057 5.37307,-14.55208 2.0587,-8.66898 2.03033,-8.52566 2.02683,-10.23748 -0.004,-1.99147 -0.57337,-4.09206 -1.48172,-5.46725 -1.84492,-2.79311 -5.71662,-5.93805 -10.2891,-8.35773 -1.76812,-0.93566 -13.34131,-6.00337 -19.01666,-8.32708 -8.64112,-3.53801 -14.48467,-6.31562 -21.72917,-10.32848 -0.29104,-0.16121 -1.80909,-1.04657 -3.37344,-1.96746 l -2.84427,-1.67435 v -1.9555 c 0,-1.07553 0.0764,-1.95551 0.16985,-1.95551 0.0934,0 0.89708,0.45847 1.78593,1.01882 6.40131,4.03551 17.23013,9.50391 28.20672,14.244 2.83766,1.2254 5.3975,2.33144 5.68854,2.45786 0.29104,0.12642 1.58264,0.71536 2.87023,1.30876 1.28758,0.59339 2.38046,1.0789 2.42863,1.0789 0.18246,0 7.19518,3.44992 8.45947,4.16166 4.52783,2.54893 8.62736,6.00586 10.5407,8.88843 2.24694,3.38516 2.33076,5.39364 0.45807,10.97556 -0.7174,2.13834 -1.84958,5.77233 -2.51596,8.07554 -1.18203,4.08543 -2.24751,6.9437 -5.28262,14.17115 -1.56166,3.71876 -2.80331,7.95015 -2.80331,9.55335 0,1.20151 -0.69967,3.91751 -1.21018,4.69775 -0.32611,0.4984 -0.62724,0.59531 -1.84978,0.59531 h -1.46026 z m 5.46222,1.03284 c 0,-0.0504 0.19016,-0.47282 0.42257,-0.93871 0.23242,-0.46589 0.52087,-1.9427 0.641,-3.2818 0.3478,-3.87674 1.01109,-6.58243 2.6076,-10.63681 2.93481,-7.45301 3.99164,-10.35209 4.38853,-12.03854 0.79821,-3.3917 1.97702,-6.62545 3.56863,-9.78958 2.66857,-5.30514 2.85638,-6.54453 1.46758,-9.68486 -1.58467,-3.58322 -6.76769,-8.78043 -12.15985,-12.19314 -4.47077,-2.82955 -11.1775,-6.36969 -17.34023,-9.15302 -14.54918,-6.57096 -24.28632,-11.70241 -33.13906,-17.46418 l -2.05052,-1.33457 v -3.28157 -3.28157 l 1.99315,1.67198 c 3.78233,3.17284 8.79472,6.61977 14.59569,10.0372 4.12494,2.43005 6.21271,3.56243 15.69033,8.51017 1.81901,0.9496 3.84307,2.01551 4.49791,2.36869 0.65485,0.35318 2.61938,1.39485 4.36563,2.31482 7.69444,4.05365 14.21685,8.43761 18.48759,12.4262 2.81467,2.62872 5.65632,5.7423 6.65321,7.28989 3.05468,4.74212 2.8725,6.99067 -0.9754,12.03906 -1.27551,1.67346 -2.78778,4.85547 -3.39485,7.14323 -1.25209,4.7185 -1.83743,6.59705 -3.17404,10.18646 -1.87012,5.02216 -2.90012,8.04334 -3.06669,8.99526 -0.0765,0.43688 -0.25014,1.27057 -0.38598,1.85265 -0.13583,0.58209 -0.32718,2.30849 -0.4252,3.83646 -0.098,1.52797 -0.33916,3.16508 -0.53585,3.63802 -0.32821,0.78923 -0.45516,0.8599 -1.54468,0.8599 -0.65289,0 -1.18707,-0.0412 -1.18707,-0.0916 z m 5.02708,-0.0581 c 0,-0.0823 0.11522,-0.36497 0.25604,-0.62809 0.14082,-0.26313 0.3155,-1.82239 0.38819,-3.46502 0.18666,-4.21857 0.68118,-6.36892 3.19231,-13.88116 1.21608,-3.63802 2.5282,-7.91442 2.91581,-9.50312 1.07494,-4.40581 1.81342,-5.70595 5.49501,-9.67433 2.22262,-2.39577 2.56931,-3.0451 2.56931,-4.81224 0,-1.86345 -0.84094,-4.05094 -2.50783,-6.52348 -1.21619,-1.804 -5.77112,-7.00732 -7.28175,-8.31828 -0.50933,-0.44201 -1.757,-1.575 -2.77261,-2.51775 -1.85329,-1.72036 -4.95246,-4.20753 -7.24408,-5.81359 -0.67546,-0.47338 -1.4067,-1.01104 -1.62498,-1.19478 -0.41815,-0.35198 -2.29027,-1.59092 -6.87917,-4.55252 -1.52797,-0.98612 -3.19484,-2.06364 -3.70416,-2.39448 -0.92424,-0.60035 -8.64403,-5.40158 -10.78997,-6.7107 -2.90368,-1.77136 -10.45579,-6.87052 -12.41225,-8.38072 -5.30875,-4.09781 -8.63788,-7.77936 -10.36451,-11.46169 -0.60992,-1.30074 -0.69576,-1.81603 -0.68834,-4.1319 0.007,-2.34275 0.0887,-2.79738 0.70897,-3.96875 1.1112,-2.09853 2.88485,-3.88511 5.8071,-5.84941 1.49203,-1.00293 3.01564,-1.98549 3.38579,-2.18347 1.03805,-0.55522 5.24618,-2.65213 10.12177,-5.04369 5.8295,-2.85946 6.72864,-3.88076 4.44313,-5.04674 -2.72552,-1.39046 -12.94006,-2.28389 -23.74763,-2.07712 l -5.88698,0.11262 v -0.83698 -0.83698 l 2.3151,-0.16519 c 1.27331,-0.0908 7.67292,-0.23691 14.22136,-0.32457 12.42476,-0.16632 21.94296,0.17829 30.19526,1.09323 6.74749,0.74811 12.27036,2.35462 12.27036,3.56924 0,0.12756 -0.41577,0.54905 -0.92395,0.93665 -0.90668,0.69156 -3.73956,1.72325 -10.05626,3.66233 -3.18959,0.97913 -11.40387,3.70493 -13.62604,4.52163 -2.33957,0.85984 -6.78435,3.13145 -8.9854,4.59222 -2.94411,1.95389 -4.7903,3.83829 -5.83042,5.95108 -0.80464,1.63446 -0.84188,1.84425 -0.74339,4.18852 0.0893,2.1258 0.22354,2.71451 0.96831,4.24722 0.94523,1.94521 3.06271,4.83 5.17213,7.04634 1.46299,1.53715 6.5607,5.87653 13.25523,11.28343 2.32833,1.88049 4.29287,3.48388 4.36563,3.56307 0.0728,0.0792 1.32291,1.08851 2.77812,2.24292 1.45521,1.15442 2.70537,2.17005 2.77813,2.25697 0.0728,0.0869 1.50151,1.30666 3.175,2.71055 6.31969,5.30159 11.46768,10.30845 16.54581,16.09225 3.52526,4.01513 6.19592,8.90817 6.20351,11.36575 0.004,1.24452 -0.67047,2.27127 -2.52489,3.84454 -4.6006,3.90308 -6.00485,5.90264 -6.86939,9.7815 -0.51615,2.31577 -2.01126,7.37603 -3.28332,11.1125 -1.45673,4.27893 -1.90152,6.60967 -2.04492,10.71563 -0.0737,2.11005 -0.25223,4.22341 -0.39675,4.69635 -0.23814,0.77933 -0.35999,0.8599 -1.30057,0.8599 -0.5708,0 -1.03782,-0.0674 -1.03782,-0.14969 z m 4.66344,-0.44562 c 0.11065,-0.32742 0.17459,-2.26219 0.14209,-4.29948 -0.0723,-4.53207 -0.0216,-4.78366 3.43899,-17.06563 2.83251,-10.05289 2.68159,-9.79013 7.3824,-12.85297 3.58508,-2.33589 4.37256,-3.09873 4.63325,-4.48834 0.53408,-2.84689 -4.56737,-10.97969 -11.69044,-18.63708 -5.86504,-6.30498 -13.82623,-14.73496 -15.47276,-16.38387 -2.37631,-2.37974 -6.47442,-7.4095 -8.78471,-10.7818 -3.03314,-4.42743 -5.21434,-9.88883 -5.21434,-13.05594 0,-1.3972 0.66411,-3.99911 1.38036,-5.40809 0.8249,-1.62272 4.29768,-4.92784 6.55714,-6.24058 4.7406,-2.75428 11.75485,-5.32602 19.84375,-7.27564 1.97021,-0.47487 10.52189,-2.17788 15.21354,-3.02969 7.30806,-1.32683 9.21949,-1.85668 9.75089,-2.70291 1.46928,-2.33977 -14.19733,-6.71271 -29.59464,-8.26059 -2.18281,-0.21944 -6.17141,-0.5309 -8.86354,-0.69214 -2.69214,-0.16123 -5.13292,-0.33291 -5.42396,-0.3815 -0.29104,-0.0486 4.65005,-0.0581 10.98021,-0.0211 6.33016,0.037 11.92609,0.14823 12.43542,0.24717 0.50932,0.0989 2.17619,0.36586 3.70416,0.59314 10.447,1.55398 21.60451,4.2907 32.80834,8.04726 10.59836,3.55355 16.37235,6.17692 16.40011,7.45128 0.0127,0.58407 -2.87463,0.78928 -14.16585,1.00679 -11.65707,0.22456 -13.79461,0.35541 -19.29535,1.18116 -8.09566,1.21528 -15.23418,3.41316 -21.56808,6.64059 -6.90578,3.51884 -12.85902,8.36138 -15.58987,12.68129 -3.17028,5.01503 -2.25851,11.54829 2.64012,18.91771 1.20836,1.81782 3.94253,5.59723 4.21103,5.82083 0.0874,0.0728 0.92658,1.08479 1.86492,2.24896 1.86529,2.31419 5.39967,6.53869 7.46641,8.92428 6.89473,7.95843 12.20708,16.22744 12.54814,19.53193 0.13714,1.32878 0.0833,1.53953 -0.60171,2.35357 -0.49456,0.58775 -1.61576,1.28835 -3.27226,2.04472 -1.38595,0.63283 -2.87709,1.3442 -3.31366,1.58082 -1.07272,0.58141 -2.73485,2.17618 -3.2081,3.07808 -0.41089,0.78304 -1.23423,3.33179 -1.64249,5.08452 -0.13559,0.58208 -0.50836,2.01083 -0.82839,3.175 -1.33743,4.86526 -2.74144,10.41509 -2.97861,11.77396 -0.14173,0.81205 -0.17703,3.05609 -0.0799,5.07737 0.19851,4.12977 0.0488,4.71221 -1.21154,4.71221 -0.7152,0 -0.78044,-0.0646 -0.60109,-0.59531 z m 3.71334,-2.36765 c -0.38161,-6.62303 -0.49591,-5.87862 2.95763,-19.26204 2.18317,-8.46038 2.53256,-8.83762 10.27229,-11.09112 1.42053,-0.4136 2.07342,-0.76357 2.60659,-1.3972 0.64877,-0.77102 0.70246,-1.00287 0.61021,-2.63544 -0.17137,-3.0327 -2.36735,-6.87278 -9.05395,-15.83249 -1.90053,-2.54662 -3.60032,-4.8088 -3.77732,-5.02708 -4.18377,-5.1597 -9.33394,-12.64223 -11.02846,-16.02295 -1.81234,-3.61577 -2.3562,-5.70994 -2.2461,-8.64877 0.11248,-3.00253 0.90807,-4.84836 3.06961,-7.1217 3.05561,-3.21367 7.61085,-5.60195 15.5829,-8.17001 4.93925,-1.59109 18.39185,-4.38389 26.15378,-5.42961 0.58208,-0.0784 1.71318,-0.2521 2.51354,-0.38597 4.9713,-0.83146 12.88865,-1.35823 20.50521,-1.36428 7.44804,-0.006 10.01481,0.11533 26.72292,1.26235 9.86295,0.67709 14.46115,0.76364 15.08125,0.28386 1.16222,-0.89925 -0.38398,-1.83484 -7.27605,-4.4027 -2.40109,-0.8946 -4.96093,-1.84871 -5.68854,-2.12025 -3.32863,-1.24223 -6.60093,-2.35969 -17.33021,-5.91812 -21.37454,-7.089 -32.8196,-10.59647 -41.67187,-12.77082 -1.45521,-0.35743 -3.5388,-0.87083 -4.63021,-1.14088 -1.0914,-0.27005 -3.11547,-0.70116 -4.49791,-0.95802 -1.38245,-0.25686 -3.16839,-0.6165 -3.96875,-0.7992 -1.45033,-0.33107 -1.44456,-0.33226 1.71979,-0.35401 1.89821,-0.0131 3.97299,0.14105 5.15937,0.3832 2.63879,0.5386 11.36528,2.68513 13.36146,3.28663 0.87313,0.26309 2.36141,0.69006 3.30729,0.94881 0.94589,0.25876 6.36323,1.88961 12.03854,3.62413 5.67532,1.73451 10.67594,3.25609 11.1125,3.38128 0.74812,0.21452 16.02013,4.95195 17.72709,5.49899 0.43656,0.13991 1.50812,0.46598 2.38125,0.7246 0.87312,0.25862 2.24234,0.67839 3.0427,0.93283 0.80037,0.25444 2.34818,0.7209 3.43959,1.03659 1.0914,0.31569 2.52015,0.74386 3.175,0.95148 0.65484,0.20762 3.39328,1.03068 6.08541,1.82901 6.07515,1.80155 5.55022,1.64341 17.19792,5.181 9.62509,2.92329 15.47327,4.81715 21.07643,6.82534 12.32233,4.41635 20.52988,8.38802 20.02938,9.69229 -0.31313,0.81603 -2.35615,0.99688 -9.68739,0.85753 -9.76337,-0.18557 -15.10671,-0.70552 -34.72571,-3.3791 -2.18281,-0.29746 -5.33797,-0.72062 -7.01146,-0.94036 -1.67349,-0.21973 -4.70958,-0.62875 -6.74687,-0.90892 -2.0373,-0.28018 -5.07339,-0.68863 -6.74688,-0.90768 -2.7675,-0.36225 -4.83706,-0.62358 -14.68437,-1.85423 -1.74625,-0.21823 -3.88938,-0.46263 -4.7625,-0.54311 -0.87313,-0.0805 -3.13532,-0.31387 -5.02709,-0.51865 -12.12692,-1.31272 -12.45951,-1.33127 -23.8125,-1.32841 -8.95556,0.002 -11.88283,0.0939 -15.08125,0.47187 -17.80475,2.10435 -27.83022,6.05423 -31.46031,12.39488 -0.89524,1.56368 -1.57276,4.73526 -1.34857,6.31274 0.43359,3.05082 2.38679,8.08862 4.20584,10.84792 0.33577,0.50932 1.27315,1.93807 2.08307,3.175 1.28385,1.96072 7.45787,10.78208 8.05535,11.50937 0.81723,0.99479 5.20726,7.48314 6.09539,9.00884 2.498,4.2912 3.06079,5.67706 3.18837,7.85123 0.11938,2.03448 0.11599,2.04731 -0.77825,2.94155 -0.76752,0.76752 -1.18608,0.94258 -2.87785,1.20364 -6.32293,0.97571 -8.29524,2.1441 -9.342,5.53416 -0.64297,2.08235 -1.40548,5.01748 -2.38465,9.17933 -1.954,8.30516 -1.85378,7.63314 -1.63314,10.95082 0.11236,1.68966 0.21853,3.72695 0.23594,4.52731 0.03,1.37899 -0.004,1.45939 -0.65475,1.53495 l -0.6864,0.0797 z m 3.33929,1.70619 c 0.0207,-0.69122 -0.11136,-2.30937 -0.29341,-3.59587 -0.47561,-3.36098 -0.10959,-6.28061 1.68033,-13.40361 1.88762,-7.51181 2.42018,-8.88814 3.88506,-10.04041 1.20345,-0.94664 2.74218,-1.31123 6.33424,-1.50087 l 3.46512,-0.18293 1.02609,-0.9761 c 0.76094,-0.72386 1.03805,-1.20888 1.0724,-1.87695 0.1348,-2.62236 -0.303,-4.40944 -1.84114,-7.51545 -0.89978,-1.81694 -5.8616,-9.46698 -10.38235,-16.00729 -8.96056,-12.96354 -11.18852,-19.87525 -8.28934,-25.71562 0.63235,-1.27387 2.682,-3.53188 4.32693,-4.7668 2.99445,-2.24805 9.65952,-4.69387 16.00729,-5.87405 7.95855,-1.47965 9.62504,-1.5958 22.88646,-1.59521 13.40622,5.2e-4 11.81749,-0.0962 25.79688,1.57244 18.67803,2.22956 39.42101,5.65287 59.39895,9.8029 6.48481,1.34709 11.87815,2.48616 14.2875,3.01752 1.38245,0.30488 3.28745,0.7225 4.23334,0.92805 1.72508,0.37488 4.91282,1.09889 8.86354,2.01312 1.16417,0.2694 2.56315,0.56895 3.10885,0.66567 0.94543,0.16757 0.99219,0.22414 0.99219,1.20038 0,0.56348 -0.049,1.02451 -0.10883,1.02451 -0.0599,0 -1.39931,-0.30328 -2.97657,-0.67395 -7.32296,-1.721 -8.5257,-2.00532 -10.01147,-2.36662 -3.44993,-0.83892 -13.33293,-3.09468 -15.08125,-3.44224 -1.01865,-0.2025 -3.28084,-0.6764 -5.02709,-1.05311 -1.74625,-0.3767 -4.42515,-0.92599 -5.95312,-1.22063 -1.52797,-0.29464 -3.90922,-0.75833 -5.29167,-1.03041 -1.38245,-0.27208 -3.5851,-0.68105 -4.89479,-0.90882 -1.30969,-0.22777 -3.69094,-0.64409 -5.29167,-0.92516 -1.60073,-0.28107 -4.04151,-0.69354 -5.42396,-0.91661 -13.86906,-2.23785 -15.75452,-2.51481 -26.19375,-3.84772 -13.7827,-1.75981 -17.27744,-2.00351 -28.70729,-2.00183 -7.57986,0.001 -10.69944,0.10547 -13.8205,0.46235 -11.37015,1.30013 -17.85493,3.1891 -23.1726,6.74999 -4.84466,3.24416 -6.86662,8.1337 -5.59476,13.52938 1.04618,4.43823 3.03299,8.562 7.27888,15.10789 0.42476,0.65484 0.85613,1.36921 0.9586,1.5875 0.10247,0.21828 0.55476,0.93265 1.00509,1.5875 0.45033,0.65484 1.50922,2.32171 2.35309,3.70416 0.84388,1.38245 2.36253,3.82323 3.37479,5.42396 3.16114,4.99886 4.16918,7.12818 4.74429,10.02154 0.27257,1.37129 0.27689,2.01409 0.0212,3.15657 -0.59706,2.66796 -1.68888,3.13921 -6.74369,2.91073 -3.13955,-0.14191 -3.61561,-0.10366 -4.70449,0.37801 -1.36071,0.6019 -2.40883,1.81617 -2.99034,3.46435 -0.36726,1.04094 -1.99788,7.48037 -2.91274,11.50267 -0.68134,2.99556 -0.78384,5.85392 -0.30786,8.58448 0.23466,1.34613 0.42665,2.86418 0.42665,3.37343 0,0.84754 -0.0656,0.92593 -0.77534,0.92593 -0.75387,0 -0.77431,-0.0348 -0.73776,-1.25677 z m 3.0158,-0.52917 c -0.0857,-0.98226 -0.28316,-2.6789 -0.4387,-3.77031 -0.43419,-3.04662 -0.008,-5.81284 2.2394,-14.53852 0.82443,-3.2008 1.48029,-4.71956 2.41931,-5.60239 0.73632,-0.69225 1.77641,-0.75394 8.20927,-0.48685 2.86118,0.11879 2.97391,0.10225 3.67293,-0.53891 1.71367,-1.57182 2.13778,-4.31792 1.20544,-7.80521 -0.62562,-2.34008 -1.0192,-3.24111 -2.66528,-6.10175 -0.73062,-1.2697 -1.3284,-2.35582 -1.3284,-2.41359 0,-0.0578 -0.22212,-0.42764 -0.4936,-0.82193 -0.27147,-0.39429 -1.72149,-2.80049 -3.22227,-5.3471 -1.50077,-2.54662 -3.44304,-5.82083 -4.31615,-7.27604 -4.43357,-7.38941 -6.10077,-11.89204 -6.074,-16.40417 0.054,-9.10784 8.38456,-14.48753 26.12392,-16.8703 3.80547,-0.51116 5.4674,-0.57162 15.76335,-0.57348 9.05096,-0.002 12.52665,0.0979 16.27187,0.46608 7.75276,0.7621 15.78486,1.75421 23.01875,2.84323 1.89177,0.2848 4.68974,0.70345 6.21771,0.93034 3.40856,0.50614 8.20849,1.29201 11.90625,1.94935 1.52797,0.27162 3.90922,0.69099 5.29166,0.93193 1.38245,0.24093 3.64464,0.658 5.02709,0.92681 1.38245,0.26881 3.52557,0.68458 4.7625,0.92392 2.96542,0.57381 9.07731,1.86157 13.22916,2.78736 7.56915,1.68778 10.95948,2.45496 12.8323,2.90375 1.16416,0.27897 3.84307,0.92191 5.95312,1.42875 2.11005,0.50684 4.75851,1.1375 5.88547,1.40147 1.82713,0.42798 2.04917,0.54635 2.05052,1.0931 0.001,0.45982 -0.11427,0.57904 -0.46151,0.47677 -0.43161,-0.12711 -3.35413,-0.83708 -11.44323,-2.77989 -2.91167,-0.69932 -7.92204,-1.87653 -13.1963,-3.10054 -6.01854,-1.39674 -22.52656,-4.70621 -26.22662,-5.25782 -0.50932,-0.0759 -1.9976,-0.31571 -3.30729,-0.53285 -29.93069,-4.96228 -49.20604,-6.79058 -62.70625,-5.94782 -12.07074,0.75352 -18.9299,2.20827 -25.24754,5.35473 -3.67792,1.83177 -6.10974,4.14378 -7.57891,7.20553 -0.90301,1.88187 -1.02794,2.38946 -1.12617,4.57597 -0.24141,5.37306 1.40207,9.83199 7.62658,20.69174 0.91526,1.59683 1.37095,2.40962 3.11504,5.55625 0.36297,0.65484 0.75247,1.30968 0.86555,1.4552 1.11017,1.42859 4.16356,7.74027 4.78348,9.88797 0.65788,2.2792 0.69282,5.60498 0.0756,7.19553 -1.08415,2.7938 -2.72294,3.39071 -6.90415,2.51478 -5.05713,-1.05943 -6.32694,-0.77337 -7.54929,1.70068 -1.20059,2.43 -2.57965,7.63123 -3.23269,12.19233 -0.40116,2.80184 -0.40369,3.29856 -0.0295,5.80129 0.22509,1.5054 0.40926,3.19237 0.40926,3.74882 0,0.88747 -0.0769,1.01173 -0.62591,1.01173 -0.58094,0 -0.63711,-0.12831 -0.78181,-1.78594 z m 2.99522,0.52223 c 0,-0.69504 -0.12536,-2.26343 -0.27857,-3.48531 -0.45312,-3.61369 0.26322,-7.90386 2.36735,-14.1782 0.58264,-1.73739 1.02118,-2.57428 1.63963,-3.12901 0.9616,-0.86252 1.45985,-0.86537 6.04506,-0.0346 1.37358,0.24889 3.01958,0.39366 3.65778,0.32173 1.49852,-0.16891 2.90596,-1.29295 3.74855,-2.99376 0.56869,-1.14793 0.6434,-1.65169 0.64388,-4.34133 7.9e-4,-4.27932 -0.84637,-6.87485 -4.27452,-13.09687 -7.26892,-13.19292 -9.23213,-17.43495 -10.37579,-22.4196 -2.35095,-10.24656 3.28353,-16.97789 16.90559,-20.19658 11.98643,-2.83222 28.98667,-2.95417 50.16791,-0.35988 17.59716,2.15532 31.67752,4.52139 50.93229,8.55871 8.43409,1.76845 24.09506,5.31861 28.44271,6.44763 0.55515,0.14417 0.82063,0.39361 0.88318,0.82985 0.0734,0.51201 0.002,0.58999 -0.39688,0.43539 -0.26746,-0.10358 -0.96255,-0.28575 -1.54463,-0.40482 -1.22032,-0.24963 -13.30011,-3.08925 -14.68438,-3.45189 -0.50932,-0.13342 -2.83104,-0.66923 -5.15937,-1.19068 -2.32834,-0.52144 -5.24537,-1.17882 -6.4823,-1.46082 -12.97528,-2.95825 -35.30834,-6.60256 -51.72604,-8.44067 -11.0339,-1.23534 -15.03645,-1.46675 -24.87083,-1.43793 -10.41595,0.0305 -15.12211,0.42909 -21.2579,1.80031 -10.01406,2.23793 -15.47421,5.79198 -17.79453,11.58258 -0.8749,2.18341 -0.99433,6.79505 -0.25203,9.73236 1.2117,4.79482 1.92022,6.51317 6.49108,15.7427 6.01677,12.14914 6.31457,12.99468 6.3365,17.99167 0.0209,4.75332 -0.94966,6.87483 -3.77797,8.25839 -1.43399,0.70149 -1.66113,0.73153 -5.5531,0.73443 -4.774,0.004 -4.43449,-0.19828 -6.2868,3.73722 -2.08533,4.43057 -2.68762,8.33348 -2.10831,13.66215 l 0.22292,2.05052 h -0.83024 c -0.81472,0 -0.83024,-0.0236 -0.83024,-1.26371 z m 3.70416,-1.88091 c 0,-3.86479 0.42916,-5.40779 1.91261,-6.87656 0.72152,-0.71437 1.49913,-1.15984 2.54018,-1.45517 1.31634,-0.37343 1.75992,-0.6971 3.617,-2.63918 1.17365,-1.22736 2.77077,-2.58178 3.58484,-3.04008 3.59421,-2.02344 4.79805,-3.79567 5.42456,-7.98574 0.67491,-4.51383 -0.0761,-8.53158 -2.67214,-14.29506 -3.75171,-8.32923 -5.00107,-11.18343 -5.78485,-13.21567 -3.25198,-8.43198 -3.66569,-14.21886 -1.34302,-18.78542 4.00997,-7.88389 17.32393,-11.93029 39.15641,-11.90047 4.81029,0.007 13.8311,0.55231 19.31337,1.16842 2.03729,0.22895 5.43057,0.60037 7.54062,0.82537 4.83667,0.51573 13.93314,1.77202 20.24063,2.79537 7.71816,1.25222 16.78383,2.8928 21.03437,3.80651 0.94589,0.20333 2.91042,0.61893 4.36563,0.92355 5.6091,1.17415 11.33949,2.46437 21.16667,4.76575 3.05593,0.71566 5.79437,1.33633 6.08541,1.37928 0.31504,0.0465 0.56338,0.31789 0.61372,0.67069 0.10239,0.71771 -0.34683,0.75986 -2.21934,0.20823 -0.71764,-0.21141 -1.72151,-0.45342 -2.23084,-0.53779 -0.50932,-0.0844 -1.28323,-0.26729 -1.71979,-0.40648 -0.43656,-0.13919 -1.32953,-0.36036 -1.98437,-0.49149 -0.65485,-0.13113 -3.33375,-0.73411 -5.95313,-1.33995 -4.51281,-1.04378 -7.14746,-1.63318 -11.37708,-2.54519 -1.91545,-0.41301 -12.15019,-2.44312 -15.875,-3.14887 -3.27406,-0.62035 -13.64302,-2.29235 -17.99167,-2.90117 -22.8413,-3.19782 -39.82293,-4.02163 -52.3875,-2.54143 -5.46076,0.64333 -7.62427,1.05399 -11.2423,2.13396 -8.35329,2.49341 -12.76468,6.19607 -14.17564,11.89821 -0.7531,3.04352 -0.3646,7.6435 1.0551,12.49275 0.63495,2.16877 2.48118,7.47665 3.10907,8.9385 1.0583,2.46395 3.23796,8.09201 3.68889,9.525 1.241,3.94383 1.5831,8.66998 0.88981,12.29305 -0.60458,3.15952 -1.37527,4.59262 -3.62323,6.73747 -2.10552,2.00892 -3.32398,4.04714 -4.02241,6.72859 -0.2126,0.81624 -0.75692,2.26011 -1.20958,3.20858 -0.93094,1.95061 -1.52311,2.3755 -3.81069,2.73423 -1.83598,0.28791 -2.41543,0.79288 -2.98567,2.60188 l -0.44602,1.41495 h -1.14231 -1.14231 z m 12.85567,1.62327 c 0.1809,-0.83675 0.46488,-2.53339 0.63107,-3.77032 0.69366,-5.16273 0.86474,-6.01476 1.46096,-7.27604 0.34395,-0.7276 1.15618,-1.88139 1.80497,-2.56396 1.49479,-1.57266 2.75796,-4.15639 3.38313,-6.91998 0.94746,-4.18829 0.50831,-11.39198 -0.96221,-15.78377 -2.09302,-6.2509 -5.08835,-16.17601 -5.52622,-18.31124 -0.53875,-2.62719 -0.53856,-6.67724 5.3e-4,-8.77036 1.22728,-4.76624 4.8139,-8.08212 11.48765,-10.62049 5.49707,-2.09082 16.71116,-3.58144 26.82748,-3.566 12.9314,0.0197 33.78131,2.16491 51.75377,5.3248 11.07941,1.94796 24.84955,4.78479 36.3802,7.4948 0.87313,0.20521 2.74836,0.64132 4.16719,0.96913 2.34397,0.54155 2.57969,0.6517 2.57969,1.2054 0,0.33516 -0.10625,0.60938 -0.23612,0.60938 -0.12987,0 -1.70744,-0.3505 -3.50573,-0.77889 -1.79828,-0.42839 -4.10305,-0.95564 -5.12169,-1.17167 -1.01865,-0.21603 -3.51896,-0.76228 -5.55625,-1.21388 -8.80509,-1.9518 -10.9945,-2.40654 -17.06563,-3.54452 -8.32067,-1.55964 -18.23996,-3.1756 -22.88645,-3.72846 -0.58209,-0.0693 -2.42756,-0.30292 -4.10105,-0.51924 -11.55018,-1.49306 -16.86394,-1.96166 -25.75007,-2.27083 -12.02611,-0.41842 -22.13415,0.18917 -28.59228,1.71866 -9.21101,2.18147 -14.02946,5.29419 -16.2365,10.48879 -0.67464,1.58785 -0.71401,1.90989 -0.70697,5.78254 0.008,4.42235 -0.0323,4.21755 2.895,14.68437 1.39114,4.97408 1.72906,6.4303 2.11355,9.10804 0.48929,3.40755 0.49512,7.77735 0.0151,11.26488 -0.60841,4.41981 -1.37884,6.71909 -2.92563,8.73125 -2.45517,3.19386 -2.81218,4.42354 -2.97658,10.25261 l -0.13245,4.69635 h -1.77359 -1.77358 l 0.3289,-1.52135 z m 5.97404,-3.04271 c 0.0979,-5.0798 0.16202,-5.30712 2.58224,-9.1607 2.11359,-3.36534 3.97501,-12.35487 3.98391,-19.23986 0.005,-3.55409 -0.2714,-5.13529 -2.36749,-13.56352 -1.51453,-6.08976 -1.8617,-8.04019 -1.8617,-10.45901 0,-3.49456 1.29143,-7.01812 3.3912,-9.25261 1.7479,-1.86005 6.22078,-4.28617 9.97026,-5.40794 2.56876,-0.76852 6.47643,-1.52048 10.84791,-2.08748 5.20757,-0.67544 21.41498,-0.68065 29.36875,-0.009 9.40044,0.7933 17.36967,1.69739 23.8125,2.70147 1.30969,0.20411 2.91703,0.4453 3.57188,0.53597 3.05383,0.42285 14.51787,2.44961 18.65312,3.29773 1.30969,0.26861 3.39328,0.68264 4.63021,0.92007 2.10061,0.4032 4.06801,0.8276 8.59896,1.85492 1.01864,0.23096 2.14974,0.47405 2.51354,0.54021 1.2127,0.22052 4.60785,0.98708 6.48229,1.46358 1.01865,0.25895 2.29857,0.54639 2.84427,0.63877 0.92694,0.15691 0.99219,0.22925 0.99219,1.09984 0,0.76392 -0.0834,0.9069 -0.46302,0.79327 -0.56335,-0.16864 -3.20518,-0.77598 -5.88698,-1.35337 -1.09141,-0.23498 -2.99641,-0.65119 -4.23333,-0.92493 -6.29537,-1.39316 -9.8032,-2.11858 -16.00729,-3.31029 -6.50955,-1.25039 -8.78411,-1.67329 -9.92188,-1.84473 -0.50932,-0.0767 -1.9976,-0.31576 -3.30729,-0.53113 -8.43847,-1.38767 -21.54458,-2.95031 -30.42708,-3.6278 -6.74283,-0.5143 -22.04593,-0.44843 -26.99415,0.11619 -6.31583,0.72067 -10.32105,1.60145 -13.71829,3.01679 -4.69791,1.95721 -7.70556,4.36749 -9.16366,7.34361 -1.85795,3.79225 -1.77059,7.62238 0.37179,16.29986 2.47298,10.01659 2.47273,10.03552 -0.27018,20.80039 -0.95976,3.76672 -1.8563,7.32482 -1.9923,7.90691 -0.136,0.58208 -0.71543,1.89177 -1.28764,2.91041 -2.34168,4.16871 -2.80759,6.11097 -2.55461,10.64948 l 0.13642,2.4474 h -1.19128 -1.19127 l 0.088,-4.56406 z m 4.71821,1.4523 c 0,-3.60664 0.37645,-5.22074 1.70101,-7.29345 1.12787,-1.76494 1.68506,-3.16018 3.13529,-7.85104 1.20508,-3.89788 1.40633,-4.44496 3.3579,-9.12813 2.40521,-5.77174 2.41105,-6.62959 0.11442,-16.80104 -1.25954,-5.57833 -1.43945,-8.04331 -0.80139,-10.98021 1.57037,-7.22825 9.29007,-11.45618 23.18443,-12.69767 8.93957,-0.79876 14.83052,-0.77059 28.04245,0.13411 10.82169,0.74102 27.63419,3.44105 31.48304,5.05606 1.44217,0.60515 -0.45788,0.80847 -9.73315,1.04148 -8.32871,0.20923 -11.21306,0.3765 -15.92567,0.92358 -0.65484,0.076 -2.44078,0.37586 -3.96875,0.66631 -9.04176,1.71874 -14.51109,4.58154 -16.39251,8.5803 -0.89508,1.9024 -0.87013,5.38035 0.056,7.80521 1.75787,4.60265 3.32432,6.43003 14.90554,17.38847 2.18693,2.06933 4.48756,4.45058 5.11251,5.29166 1.60863,2.16498 3.03068,5.16715 3.54421,7.48237 1.78566,8.05054 2.29926,10.73589 2.29926,12.02162 v 1.47213 h -1.78594 -1.78593 l -0.003,-2.57969 c -0.003,-2.58661 -0.0282,-2.71523 -2.02675,-10.51719 -0.68061,-2.657 -1.9906,-5.44331 -3.50117,-7.44686 -1.42411,-1.88887 -6.18898,-6.55725 -9.94677,-9.74535 -4.08186,-3.46303 -9.68647,-9.09292 -11.55755,-11.60967 -2.92758,-3.93782 -4.18832,-7.05051 -4.62336,-11.41478 -0.4994,-5.00997 -0.4842,-4.94367 -1.31114,-5.71615 -0.61734,-0.57668 -1.13746,-0.764 -2.53784,-0.91397 -7.2665,-0.77817 -14.03367,2.31147 -16.5417,7.55234 -1.24101,2.59326 -1.29663,5.34435 -0.23138,11.4438 1.47591,8.4508 1.27449,9.46942 -3.36247,17.00478 -2.4483,3.97864 -3.21309,5.56291 -4.28434,8.87507 -0.77914,2.40898 -1.64677,4.26609 -2.74054,5.86597 -1.06251,1.55417 -1.46555,3.12661 -1.59093,6.20701 l -0.11652,2.8624 -1.0834,0.0814 -1.08341,0.0814 z m 4.96022,1.45811 c 0.18695,-3.11671 0.55284,-4.28212 2.07055,-6.59509 0.7948,-1.21127 1.69642,-2.73808 2.00361,-3.39293 3.02314,-6.44456 2.96734,-6.35888 6.91493,-10.6182 2.07273,-2.23639 4.15868,-4.56535 4.63545,-5.17545 1.16729,-1.4937 2.65545,-4.77796 2.99343,-6.60628 0.37554,-2.03148 1.33546,-4.11014 2.21901,-4.80514 1.12294,-0.88331 2.96945,-0.77483 5.48172,0.32202 2.00766,0.87654 2.86002,1.38559 7.35024,4.38983 8.97139,6.00238 15.05494,11.13249 17.96172,15.14664 2.07902,2.87104 2.95826,5.05463 5.4179,13.45525 0.50178,1.71377 0.55629,3.51254 0.14242,4.69977 l -0.29047,0.83323 h -2.15889 -2.15889 l 0.0936,-2.06068 c 0.0842,-1.85462 -0.002,-2.30693 -0.85744,-4.52318 -1.70003,-4.40194 -4.08259,-8.23392 -6.76388,-10.87864 -3.31331,-3.26813 -8.13287,-6.00798 -11.89737,-6.76348 -3.93726,-0.79018 -6.78621,-0.22168 -12.18868,2.43222 -6.48409,3.18524 -9.2743,5.41369 -12.38001,9.88751 -0.95969,1.38245 -2.36447,3.28745 -3.12174,4.23333 -1.97592,2.46808 -2.54079,3.6924 -2.69445,5.83999 l -0.13115,1.83293 h -1.37039 -1.3704 z m 6.02206,0.79375 c 0.36519,-1.78017 1.24096,-3.12018 3.00093,-4.59171 0.96772,-0.80912 2.34076,-1.96734 3.05119,-2.57382 3.15237,-2.69111 5.34744,-4.12081 7.62743,-4.9679 4.5296,-1.68289 9.85801,-1.7997 14.62879,-0.32069 3.53945,1.09728 7.57053,3.82973 9.81922,6.65592 1.79586,2.25705 2.21932,3.22256 2.21932,5.06006 v 1.59804 h -3.93567 -3.93568 l -0.16922,-0.84611 c -0.22268,-1.11339 -2.30692,-3.11237 -4.15553,-3.98553 -4.41979,-2.08762 -10.39124,-2.31055 -15.71744,-0.58676 -4.22307,1.36677 -7.7545,3.47903 -8.20861,4.90982 -0.14155,0.44597 -0.42239,0.50858 -2.28128,0.50858 h -2.11986 z m 62.57188,-0.23741 c 0,-0.60351 -0.4256,-3.01453 -0.94578,-5.35781 -0.52018,-2.34328 -1.17979,-5.34537 -1.4658,-6.67132 -0.62951,-2.91844 -1.92596,-5.71297 -3.65625,-7.88113 -0.70856,-0.88787 -4.02072,-4.30011 -7.36034,-7.58276 -7.35858,-7.23304 -9.64732,-10.19309 -10.93308,-14.13988 -0.52593,-1.61438 -0.44901,-5.35382 0.13334,-6.48229 1.76492,-3.42006 5.22547,-5.64452 11.2764,-7.24856 1.37526,-0.36456 2.91719,-0.73145 3.42651,-0.81532 0.50933,-0.0839 1.58089,-0.27229 2.38125,-0.41872 2.79195,-0.51081 10.75306,-1.03531 15.74271,-1.03717 5.24225,-0.002 17.24773,0.59111 20.90209,1.03256 1.16416,0.14064 2.89057,0.32302 3.83645,0.4053 0.94589,0.0823 2.96995,0.31801 4.49792,0.52385 1.52797,0.20584 4.83195,0.64494 7.34219,0.97578 4.34978,0.57329 4.56406,0.62896 4.56406,1.18588 0,0.4161 -0.13333,0.55718 -0.46302,0.48998 -0.25466,-0.0519 -1.83224,-0.27541 -3.50573,-0.49669 -1.67349,-0.22127 -4.47146,-0.59487 -6.21771,-0.83023 -12.20277,-1.64467 -27.53572,-2.35627 -36.49753,-1.69384 -18.52146,1.36905 -26.52084,6.64624 -23.737,15.65927 1.18949,3.85113 2.57115,5.67362 9.77827,12.89809 3.1252,3.13272 6.30092,6.46977 7.05716,7.41565 1.96396,2.45646 3.47306,5.70078 3.99984,8.59896 0.43677,2.40297 1.38412,6.55775 2.05118,8.99583 0.19908,0.72761 0.44016,1.82894 0.53575,2.4474 l 0.1738,1.12448 h -1.45834 -1.45834 z m 5.97,0.76658 c -1.78876,-5.98724 -2.85122,-9.9799 -3.05734,-11.48928 -0.38907,-2.84903 -1.662,-5.94801 -3.40451,-8.28832 -1.06801,-1.43442 -3.16433,-3.69659 -8.0911,-8.73125 -2.49205,-2.54662 -4.95925,-5.16599 -5.48267,-5.82084 -3.38397,-4.23365 -4.651,-9.46061 -3.05091,-12.58615 2.25586,-4.40648 8.72824,-7.09062 20.15924,-8.36018 4.08872,-0.45411 17.56806,-0.45651 23.54792,-0.004 4.64325,0.35121 8.65961,0.7675 15.74271,1.63173 2.25557,0.27521 4.84518,0.57903 5.75468,0.67515 0.90951,0.0961 1.65365,0.28215 1.65365,0.41338 0,0.29984 -0.2314,0.29806 -2.8022,-0.0216 -4.47828,-0.55678 -8.77133,-1.05653 -10.16238,-1.18301 -9.6876,-0.88078 -12.22587,-1.00613 -20.6375,-1.01912 -7.25172,-0.0112 -9.83518,0.0808 -12.56771,0.44728 -8.57827,1.15067 -13.79383,3.06782 -16.71198,6.14305 -2.33304,2.45863 -2.76907,5.03386 -1.50163,8.86876 0.38726,1.17172 1.19093,2.88597 1.78594,3.80945 0.59501,0.92347 3.80485,4.53701 7.13299,8.03007 6.13751,6.44166 8.2026,8.93846 9.20145,11.125 0.66546,1.45673 1.54716,4.61615 1.55172,5.56038 0.005,1.13066 1.18472,5.03317 2.3663,7.83087 0.61279,1.45093 1.1765,2.78689 1.25268,2.96879 0.10037,0.23965 -0.2359,0.33073 -1.22101,0.33073 -0.85853,0 -1.39594,-0.12187 -1.45834,-0.33073 z m 5.12761,-0.79375 c -2.64147,-4.97123 -2.75236,-5.27624 -3.96801,-10.91406 -1.11925,-5.19079 -2.96675,-7.94905 -10.27871,-15.34584 -6.19489,-6.26676 -8.17557,-9.02968 -9.13174,-12.73819 -0.8809,-3.41663 -0.33962,-5.52304 2.01271,-7.83244 3.05636,-3.00058 8.5374,-4.84128 17.2796,-5.803 4.1454,-0.45604 17.85973,-0.456 24.07709,6e-5 7.22583,0.53004 17.69139,1.78849 18.38854,2.21117 0.27417,0.16624 0.15147,0.20024 -0.39688,0.11001 -4.17677,-0.68735 -15.68391,-1.69242 -23.35432,-2.03984 -13.59233,-0.61565 -24.05071,0.60752 -30.21255,3.53354 -6.74664,3.20372 -7.90288,8.53171 -3.34306,15.40495 1.37614,2.07433 1.7159,2.46252 6.37452,7.28295 8.26278,8.54982 9.39001,10.3628 10.9538,17.61761 0.61153,2.83702 1.89811,5.71218 3.57603,7.99148 l 1.21178,1.64608 h -1.29566 c -1.25418,0 -1.31477,-0.036 -1.89314,-1.12448 z m 4.59513,-0.55978 c -2.31684,-2.83035 -3.68904,-5.61775 -4.18554,-8.5022 -0.87188,-5.06527 -3.17712,-8.94851 -8.72197,-14.69241 -5.48482,-5.68171 -6.27185,-6.55791 -7.71662,-8.59092 -1.70314,-2.39657 -2.36101,-3.6389 -2.86268,-5.40584 -1.36263,-4.79943 0.74036,-8.30443 6.38539,-10.64235 2.79865,-1.15907 4.57154,-1.62353 9.17483,-2.40361 3.19889,-0.54208 4.34039,-0.58978 14.19427,-0.59314 10.96998,-0.004 11.5977,0.0324 23.74209,1.36814 2.21685,0.24382 3.97841,0.49554 3.91457,0.55937 -0.0638,0.0638 -2.05621,-0.0791 -4.4275,-0.31753 -9.819,-0.98745 -13.89658,-1.21817 -21.52955,-1.21817 -10.43418,0 -16.64754,0.7147 -22.06107,2.5376 -1.78726,0.60182 -4.3972,2.1 -5.61011,3.22037 -4.33044,4.00001 -2.53399,10.4532 5.10707,18.34556 7.90748,8.16756 8.5895,8.99444 10.38669,12.593 0.49452,0.99019 1.22425,3.11004 1.62162,4.71076 1.05403,4.24595 2.22009,6.44927 4.7543,8.98349 0.80083,0.80083 1.45606,1.51817 1.45606,1.5941 0,0.0759 -0.50602,0.13645 -1.12448,0.1345 -1.05877,-0.003 -1.20471,-0.10155 -2.49737,-1.68072 z m 4.4416,-0.59729 c -2.06691,-1.94571 -2.57346,-2.59807 -3.4412,-4.43177 -0.55964,-1.18262 -1.16475,-2.74553 -1.34468,-3.47314 -1.35451,-5.47717 -3.44304,-8.75672 -9.52004,-14.94896 -4.94864,-5.04248 -7.99188,-8.9023 -9.07445,-11.50937 -2.76304,-6.654 1.11994,-11.21086 11.38963,-13.36626 6.6009,-1.3854 17.43849,-1.73386 29.16265,-0.93767 5.95405,0.40434 12.11914,1.06716 12.38334,1.33136 0.18084,0.18084 0.0291,0.17252 -2.24737,-0.12326 -4.52551,-0.58798 -14.48238,-1.13558 -20.7193,-1.13951 -9.79253,-0.006 -14.91832,0.58818 -20.50521,2.37761 -7.37855,2.36328 -9.87807,5.9576 -7.96024,11.44685 1.06775,3.05613 3.36742,6.08201 9.6709,12.72481 5.79457,6.10651 7.51988,8.7502 9.13496,13.99756 1.28828,4.18561 3.04537,6.64801 6.41844,8.99485 0.90951,0.6328 1.65365,1.19282 1.65365,1.24449 0,0.0517 -0.57991,0.094 -1.2887,0.094 -1.25487,0 -1.35232,-0.0599 -3.71238,-2.28155 z m 5.73147,0.32719 c -3.9726,-2.78117 -4.95432,-3.97076 -6.35693,-7.70293 -2.47261,-6.57932 -3.90951,-8.73223 -10.24214,-15.34584 -5.77421,-6.03041 -7.1755,-7.8599 -8.61281,-11.24479 -0.90442,-2.12991 -1.01809,-4.88696 -0.26159,-6.34457 1.6274,-3.13564 6.21147,-5.35395 13.76287,-6.6601 5.82358,-1.00729 25.18644,-0.91359 33.20521,0.16068 3.45924,0.46343 2.03889,0.47684 -3.04271,0.0287 -10.4072,-0.91772 -23.01416,-0.75021 -29.18272,0.38776 -8.49171,1.56655 -12.87479,4.34902 -13.4489,8.53765 -0.33621,2.45291 1.23267,6.25863 3.98629,9.66977 1.63881,2.03014 2.0071,2.43145 6.42512,7.00138 1.80178,1.86372 3.98604,4.35798 4.85391,5.54279 1.49256,2.03762 4.21526,7.15498 4.21526,7.92265 0,0.19523 0.53021,1.26071 1.17824,2.36774 1.50657,2.57368 3.41155,4.26925 6.76933,6.02521 1.44967,0.75811 2.63576,1.4301 2.63576,1.49331 0,0.0632 -0.69583,0.11492 -1.54631,0.11492 -1.49384,0 -1.64102,-0.0663 -4.33788,-1.95436 z m 9.58836,1.43202 c -0.50932,-0.28059 -1.98248,-0.95312 -3.27367,-1.4945 -2.62359,-1.10002 -4.86781,-2.63399 -6.29789,-4.30471 -0.52487,-0.6132 -1.69455,-2.56709 -2.59929,-4.34199 -0.90474,-1.7749 -1.89268,-3.6438 -2.19541,-4.15313 -1.39104,-2.34029 -4.39853,-5.99935 -7.72014,-9.39271 -3.92207,-4.00678 -7.41527,-8.39752 -8.52516,-10.71562 -0.92243,-1.92657 -1.15487,-5.03012 -0.477,-6.36884 1.84821,-3.65003 6.05887,-5.62004 14.7178,-6.88593 3.61377,-0.52832 5.05662,-0.59238 12.93118,-0.57416 8.26384,0.0191 17.26181,0.54634 17.70928,1.03763 0.0825,0.0906 -0.50475,0.0942 -1.30512,0.008 -7.83715,-0.84502 -21.64667,-0.88125 -27.32027,-0.0717 -3.24555,0.46311 -6.90653,1.30338 -8.34495,1.91532 -3.9082,1.66265 -4.97918,2.41773 -6.0763,4.28403 -1.02378,1.74154 -1.00372,4.45551 0.0512,6.9203 1.23968,2.89664 2.79753,4.82255 9.95193,12.30313 1.39175,1.45521 3.18325,3.47927 3.98111,4.49792 1.44057,1.83921 3.41567,4.72516 3.41567,4.99086 0,0.56242 3.22055,5.4525 4.34025,6.59023 2.07699,2.11045 2.66071,2.40965 10.41027,5.33609 1.05502,0.3984 1.91823,0.77338 1.91823,0.83328 0,0.0599 -0.98227,0.10618 -2.18282,0.10283 -1.6507,-0.005 -2.40855,-0.13044 -3.10885,-0.51625 z m 12.30313,0.0192 c -0.72761,-0.25548 -2.51355,-0.73796 -3.96875,-1.07218 -3.5938,-0.82537 -8.01674,-2.25275 -9.42405,-3.04134 -2.97771,-1.66858 -5.20029,-4.01412 -7.89302,-8.32972 -0.64762,-1.03793 -1.38209,-2.15123 -1.63215,-2.47401 -2.24603,-2.89914 -3.57768,-4.41149 -6.84787,-7.77712 -4.63167,-4.76684 -7.71928,-8.5989 -8.78932,-10.90851 -1.008,-2.17566 -1.17632,-5.13335 -0.37618,-6.60998 0.90824,-1.67614 2.60303,-2.93197 5.53191,-4.09912 4.18261,-1.66676 9.26976,-2.44422 17.7921,-2.71914 5.2137,-0.16819 14.37291,0.23054 16.66566,0.72551 0.84763,0.18299 0.68961,0.20533 -0.79375,0.11225 -18.40556,-1.15499 -31.33502,0.59008 -35.69225,4.81735 -2.6692,2.58959 -2.45659,6.27783 0.62522,10.84567 1.75748,2.60494 1.67769,2.5146 7.54576,8.54393 3.8602,3.96628 6.07464,6.54545 9.38269,10.92807 3.97925,5.27182 8.52541,7.64375 17.7417,9.2566 l 1.98438,0.34727 0.0821,0.97882 c 0.0947,1.12865 -0.005,1.15311 -1.9342,0.47565 z m -1.34874,-4.25331 c -2.98238,-0.64849 -4.66358,-1.22365 -7.11394,-2.43378 -2.97188,-1.46769 -4.51089,-2.74254 -8.07661,-6.69033 -1.71366,-1.89729 -3.55751,-3.86633 -4.09743,-4.37565 -1.33593,-1.26022 -9.04828,-9.40799 -10.14533,-10.71811 -2.33302,-2.78614 -3.89707,-6.4032 -3.69187,-8.53791 0.37347,-3.88512 4.19497,-6.1851 12.91037,-7.77013 4.61519,-0.83934 23.54811,-1.05887 23.54786,-0.27304 -3e-5,0.0987 -3.54214,0.18783 -7.87135,0.19814 -8.65409,0.0206 -12.5284,0.37966 -16.99942,1.57541 -6.3905,1.7091 -9.01575,4.14865 -8.66205,8.04933 0.36149,3.98653 3.3765,7.66826 16.60702,20.2793 5.55693,5.29675 9.44437,7.49429 14.85338,8.39648 l 1.94019,0.32361 0.0806,1.24992 c 0.095,1.47254 0.12143,1.46669 -3.28146,0.72676 z m -203.30647,-0.12304 c -1.24183,-0.34867 -2.89426,-1.25648 -5.84842,-3.21298 -1.4872,-0.98496 -8.78717,-4.55887 -11.54793,-5.65362 l -0.8599,-0.34099 v -1.95731 -1.95732 l 0.70343,0.17655 c 0.38689,0.0971 2.11584,0.81051 3.84211,1.58535 5.98803,2.68773 12.01831,4.39353 15.59289,4.41079 2.1496,0.0104 2.38253,-0.0459 4.10104,-0.99022 3.14163,-1.7264 5.79877,-4.18221 7.45722,-6.89218 0.83003,-1.3563 0.98562,-1.86075 1.06838,-3.46374 0.0797,-1.54358 -0.008,-2.08306 -0.49407,-3.04271 -0.69754,-1.37691 -1.98939,-2.89069 -3.67182,-4.30262 -0.66814,-0.56073 -1.75311,-1.47495 -2.41105,-2.03162 -0.65793,-0.55667 -1.69266,-1.40758 -2.29941,-1.89092 -1.53251,-1.22083 -15.69837,-12.60634 -16.35132,-13.14202 -0.29281,-0.24024 -2.10851,-1.61965 -4.03489,-3.06536 l -3.50251,-2.62858 v -1.95871 -1.95871 l 1.78594,1.27111 c 0.98226,0.69911 3.15515,2.25937 4.82864,3.46724 1.67349,1.20787 4.41193,3.16985 6.08542,4.35996 1.67349,1.19012 3.51896,2.53987 4.10104,2.99946 0.58208,0.45959 2.36802,1.70916 3.96875,2.77684 4.66709,3.1129 5.35019,3.51644 9.98071,5.89608 4.05526,2.08401 5.40564,2.98738 6.68745,4.47374 1.73346,2.01007 2.10496,2.97666 2.11146,5.49369 0.005,2.08413 -0.0669,2.39049 -0.98565,4.18027 -0.97034,1.89018 -3.16425,5.04552 -4.80118,6.90517 -6.60074,7.49885 -9.19145,9.78605 -11.90224,10.50786 -1.60777,0.4281 -2.03382,0.42639 -3.60409,-0.0145 z m 203.13026,-6.78534 c -2.37321,-0.34743 -6.46708,-2.21453 -8.08577,-3.68767 -0.2439,-0.22197 -1.21736,-0.99032 -2.16324,-1.70745 -0.94589,-0.71713 -1.77933,-1.36934 -1.85209,-1.44936 -0.0728,-0.08 -1.20385,-1.02476 -2.51354,-2.09941 -3.25805,-2.67337 -8.67755,-8.2512 -9.76937,-10.05477 -0.49388,-0.81584 -1.10094,-2.1854 -1.34902,-3.04346 -1.16495,-4.02925 0.7021,-6.57507 6.16147,-8.4015 4.21251,-1.4093 7.84161,-1.86835 15.87098,-2.00752 7.04034,-0.12203 7.2099,-0.11271 7.2099,0.3965 0,0.48919 -0.25798,0.53266 -4.16719,0.70213 -4.11655,0.17846 -10.95451,1.12902 -13.32667,1.85257 -2.7145,0.82797 -5.08631,2.53221 -5.89457,4.23549 -1.66508,3.50889 2.17703,9.42699 8.12308,12.51219 0.90162,0.46782 1.89555,0.85477 2.20874,0.8599 0.75214,0.0123 1.10476,-1.07778 0.85284,-2.63652 -0.31862,-1.97146 -0.25473,-4.21542 0.14161,-4.97408 0.5116,-0.97928 1.65833,-2.0025 2.99512,-2.67252 1.62428,-0.81412 5.2184,-1.60982 7.2811,-1.61196 l 1.78594,-0.002 v 1.83106 1.83106 l -0.8599,0.17926 c -2.47058,0.51502 -4.09562,2.38276 -3.82548,4.39683 0.19562,1.45844 1.44982,3.99525 3.18608,6.44434 l 1.4993,2.11484 v 3.63985 3.63985 l -0.99219,-0.0323 c -0.5457,-0.0177 -1.67841,-0.13273 -2.51713,-0.25552 z m -209.61255,-7.23131 c -1.30969,-0.35638 -3.00633,-0.89397 -3.77031,-1.19464 -0.76399,-0.30067 -2.01414,-0.79257 -2.77813,-1.09311 -0.76398,-0.30054 -1.86531,-0.70475 -2.4474,-0.89824 -0.58208,-0.19349 -1.44528,-0.49503 -1.91822,-0.67008 l -0.8599,-0.31827 v -2.75728 c 0,-2.72271 0.007,-2.7556 0.59531,-2.62331 5.45351,1.22729 8.42117,1.47558 9.70452,0.81194 0.82937,-0.42889 1.07725,-0.88365 1.07725,-1.97632 0,-2.50193 -3.52523,-7.47007 -7.37847,-10.39856 -0.81679,-0.62076 -1.63074,-1.26582 -1.80878,-1.43347 -0.17804,-0.16765 -0.74359,-0.56431 -1.25677,-0.88148 l -0.93306,-0.57666 v -2.65566 -2.65565 l 0.8599,0.65072 c 0.47294,0.35789 1.51474,1.1127 2.3151,1.67734 0.80036,0.56464 1.51474,1.09517 1.5875,1.17896 0.0728,0.0838 0.9062,0.73655 1.85208,1.45057 0.94589,0.71403 1.77933,1.36683 1.85209,1.45066 0.0728,0.0838 1.20385,1.05483 2.51354,2.15776 4.52533,3.81094 9.64436,9.67098 11.11984,12.7295 1.76245,3.65338 0.7478,6.5732 -2.73952,7.88336 -2.31435,0.86949 -4.74559,0.91497 -7.58657,0.14192 z m 203.99375,-76.7139 c -4.80219,-1.62105 -10.04094,-3.34752 -11.64167,-3.83659 -1.60073,-0.48907 -3.56526,-1.10961 -4.36563,-1.37898 -2.43239,-0.81862 -13.31046,-4.08779 -18.78541,-5.64554 -2.83766,-0.80739 -5.93328,-1.69504 -6.87917,-1.97257 -0.94588,-0.27753 -3.32713,-0.9508 -5.29167,-1.49616 -1.96453,-0.54535 -5.41734,-1.52656 -7.67291,-2.18046 -2.25558,-0.6539 -4.33917,-1.24631 -4.63021,-1.31647 -0.29104,-0.0702 -2.01745,-0.57904 -3.83646,-1.13086 -1.81901,-0.55181 -4.20026,-1.26324 -5.29167,-1.58095 -1.85384,-0.53966 -5.1473,-1.52954 -8.86354,-2.66403 -0.87312,-0.26655 -3.01625,-0.91993 -4.7625,-1.45196 -1.74625,-0.53202 -3.65125,-1.11979 -4.23333,-1.30615 -0.58208,-0.18636 -1.83224,-0.58366 -2.77813,-0.88289 -2.48986,-0.78766 -19.87891,-6.04809 -20.5052,-6.20312 -0.29104,-0.072 -1.95792,-0.5509 -3.70417,-1.06414 -1.74625,-0.51324 -4.54263,-1.27186 -6.21419,-1.68582 l -3.03918,-0.75265 3.30377,-0.0783 c 1.92826,-0.0457 3.79948,0.0501 4.49439,0.22997 1.90273,0.4926 13.49709,3.98205 17.4625,5.25553 3.79808,1.21973 5.12137,1.63589 8.06979,2.53783 1.74625,0.53419 3.65125,1.13499 4.23334,1.33512 0.9862,0.33907 17.66363,5.3998 22.0927,6.70399 7.33998,2.16133 15.70303,4.56009 17.5948,5.04668 0.6655,0.17118 5.77752,1.57619 12.03854,3.30873 3.58481,0.99199 10.05484,2.86051 14.68437,4.2408 1.30969,0.39048 2.73844,0.80111 3.175,0.91251 0.43656,0.1114 1.38906,0.39269 2.11667,0.62509 0.7276,0.23239 2.6326,0.83147 4.23333,1.33127 1.60073,0.4998 6.33347,2.01537 10.51719,3.36792 l 7.60677,2.45918 v 1.13944 c 0,0.62669 -0.0893,1.12627 -0.19844,1.11018 -0.10914,-0.0161 -4.1275,-1.35557 -8.92968,-2.97662 z m 3.70416,-5.72202 c -5.65262,-1.73351 -10.90727,-3.30595 -12.7739,-3.82255 -0.68696,-0.19012 -2.7373,-0.79085 -4.55631,-1.33496 -4.94374,-1.47878 -5.71662,-1.69977 -15.61041,-4.46349 -5.02047,-1.40242 -9.96157,-2.78826 -10.98021,-3.07964 -1.01865,-0.29139 -3.3999,-0.9531 -5.29167,-1.47048 -1.89177,-0.51737 -4.21349,-1.15595 -5.15937,-1.41905 -0.94589,-0.2631 -2.4937,-0.69055 -3.43959,-0.94988 -0.94588,-0.25934 -2.85088,-0.80183 -4.23333,-1.20554 -1.38245,-0.40372 -3.82323,-1.11172 -5.42396,-1.57335 -1.60073,-0.46163 -5.47026,-1.60993 -8.59896,-2.55178 -3.12869,-0.94185 -6.52197,-1.95595 -7.54062,-2.25354 -2.27866,-0.66571 -4.16395,-1.23765 -5.55625,-1.6856 -0.58208,-0.18728 -1.9513,-0.60146 -3.04271,-0.92041 -1.0914,-0.31894 -2.46062,-0.73118 -3.04271,-0.91608 -0.58208,-0.1849 -3.19758,-0.97625 -5.81222,-1.75857 l -4.75388,-1.4224 2.48829,-0.0767 c 2.334,-0.072 2.72723,-8.3e-4 6.34139,1.1472 2.1192,0.67317 5.10325,1.62089 6.63121,2.10604 1.52797,0.48516 4.20688,1.32175 5.95313,1.8591 1.74625,0.53734 4.24656,1.30779 5.55625,1.7121 3.04399,0.93972 6.06288,1.84891 10.05417,3.02795 1.74625,0.51586 3.77031,1.11648 4.49791,1.33472 3.2899,0.9868 9.3346,2.70527 11.64167,3.30965 0.43656,0.11437 2.81781,0.76743 5.29167,1.45125 2.47385,0.68383 5.15276,1.42124 5.95312,1.6387 0.80037,0.21746 1.99099,0.547 2.64583,0.73232 0.65485,0.18531 2.38125,0.66226 3.83646,1.05987 1.45521,0.39762 4.90802,1.36556 7.67292,2.15098 2.76489,0.78543 5.92005,1.67865 7.01146,1.98493 1.0914,0.30629 3.11547,0.89073 4.49791,1.29876 1.38245,0.40803 3.82323,1.12175 5.42396,1.58606 4.15321,1.20466 10.57563,3.1076 12.43542,3.68456 0.87312,0.27087 1.97445,0.57486 2.44739,0.67552 0.73208,0.15582 0.8599,0.29789 0.8599,0.95575 0,0.425 -0.0893,0.76318 -0.19844,0.7515 -0.10914,-0.0117 -2.46062,-0.71498 -5.22552,-1.56291 z m 0.92604,-2.54187 c -2.11005,-0.64555 -5.32474,-1.60384 -7.14375,-2.12953 -1.81901,-0.52569 -4.02166,-1.17235 -4.89479,-1.43702 -0.87312,-0.26467 -4.62359,-1.33097 -8.33437,-2.36956 -3.71078,-1.03859 -7.46125,-2.10237 -8.33438,-2.36396 -0.87312,-0.26159 -2.3614,-0.68256 -3.30729,-0.9355 -0.94588,-0.25294 -2.25557,-0.61556 -2.91042,-0.80581 -0.65484,-0.19025 -2.97656,-0.83696 -5.15937,-1.43713 -2.18281,-0.60017 -4.80219,-1.3213 -5.82083,-1.60251 -1.98461,-0.54788 -7.71508,-2.10915 -10.31875,-2.81134 -0.87313,-0.23548 -2.89719,-0.81232 -4.49792,-1.28187 -7.84103,-2.30005 -10.67183,-3.13986 -11.64167,-3.45372 -0.58208,-0.18837 -2.48708,-0.77877 -4.23333,-1.312 -7.51417,-2.29451 -16.11845,-5.00281 -19.31458,-6.07949 l -1.05834,-0.35652 1.37662,-0.0209 c 0.75713,-0.0115 1.6501,0.0916 1.98437,0.2291 0.61966,0.25488 6.222,2.01826 12.6463,3.98053 3.52284,1.07603 5.20033,1.59665 7.27605,2.25819 0.58208,0.18551 2.78474,0.83992 4.89479,1.45425 2.11005,0.61433 5.14614,1.50572 6.74687,1.98087 1.60073,0.47514 3.14854,0.92279 3.43959,0.99477 0.29104,0.072 3.2676,0.91956 6.61458,1.8835 7.28652,2.09854 12.1042,3.44333 18.25625,5.09597 1.5164,0.40735 3.40429,0.94285 6.87917,1.95126 0.87312,0.25338 2.3614,0.67029 3.30729,0.92645 0.94588,0.25617 2.85088,0.79538 4.23333,1.19825 1.38245,0.40287 3.5851,1.04106 4.89479,1.41819 1.30969,0.37714 4.46485,1.29514 7.01146,2.04 2.54661,0.74485 5.02726,1.44878 5.51255,1.56427 0.48529,0.1155 1.19967,0.3247 1.5875,0.4649 0.38784,0.1402 1.62789,0.52861 2.75568,0.86313 1.21883,0.36153 2.05052,0.75031 2.05052,0.95852 0,0.4894 -0.18835,0.45317 -4.49792,-0.8653 z m 0.92605,-1.9488 c -3.27291,-0.99101 -13.54531,-3.92448 -22.225,-6.34675 -7.28871,-2.03408 -12.66945,-3.52543 -14.02292,-3.88665 -0.87313,-0.23303 -2.12328,-0.58376 -2.77813,-0.7794 -0.65484,-0.19565 -2.55984,-0.71714 -4.23333,-1.15887 -6.80598,-1.79649 -15.05746,-4.07794 -18.78542,-5.19397 -1.67349,-0.50099 -3.63802,-1.08593 -4.36562,-1.29987 -3.7412,-1.10002 -10.83833,-3.266 -12.17083,-3.71443 -0.58209,-0.19588 -3.20146,-1.02675 -5.82084,-1.84637 -2.61937,-0.81961 -5.17922,-1.66019 -5.68854,-1.86794 l -0.92604,-0.37774 1.45521,0.10114 c 1.58461,0.11012 1.70045,0.14024 6.74687,1.75399 1.89177,0.60496 3.79677,1.20161 4.23334,1.3259 0.43656,0.12429 2.75828,0.82936 5.15937,1.56683 7.0145,2.15443 15.00887,4.51484 17.33021,5.1169 0.29104,0.0755 1.96855,0.55814 3.7278,1.07256 2.86203,0.8369 7.05826,1.99984 9.23678,2.55988 2.10505,0.54115 11.04753,2.96188 12.56771,3.40208 0.94589,0.2739 2.43417,0.68889 3.30729,0.9222 1.8446,0.4929 8.13005,2.23288 12.7,3.51569 1.74625,0.49018 3.88938,1.0839 4.7625,1.31938 0.87313,0.23548 2.30188,0.63797 3.175,0.89442 0.87313,0.25645 2.36141,0.67317 3.30729,0.92604 0.94589,0.25287 2.43417,0.67059 3.3073,0.92827 0.87312,0.25768 2.0034,0.57518 2.51172,0.70554 0.53602,0.13747 0.96092,0.42758 1.01159,0.69068 0.11981,0.62212 -0.60405,0.55442 -3.52331,-0.32951 z m 0.66145,-3.09741 c -1.38244,-0.36507 -2.93026,-0.76128 -3.43958,-0.88046 -0.86347,-0.20206 -4.40835,-1.12015 -10.71562,-2.77524 -6.68825,-1.75507 -12.51106,-3.27311 -19.31459,-5.03545 -13.37487,-3.46452 -16.22021,-4.22285 -23.28333,-6.20537 -5.17869,-1.45359 -7.7168,-2.18863 -13.89063,-4.02275 -0.94588,-0.281 -2.07697,-0.6151 -2.51354,-0.74243 -0.43656,-0.12733 -3.175,-0.98436 -6.08541,-1.90452 l -5.29167,-1.67302 1.93338,-0.078 c 1.71559,-0.0692 2.48816,0.0902 6.85814,1.41572 2.70862,0.82157 5.47,1.64348 6.13641,1.82647 0.66641,0.18299 2.16415,0.59913 3.32832,0.92476 10.817,3.02566 21.75451,5.56838 23.95231,5.56838 2.68919,0 1.78971,-0.38853 -20.62694,-8.90983 l -1.9663,-0.74746 2.20584,-0.0775 c 2.1368,-0.0751 2.35982,-0.0225 7.12567,1.68091 2.70591,0.96714 9.26562,3.19147 14.57713,4.94298 18.95625,6.25093 33.27042,11.03351 37.43854,12.50879 2.32833,0.8241 4.73935,1.67727 5.35781,1.89595 1.11609,0.39462 1.12448,0.40727 1.12448,1.69563 0,0.71392 -0.0893,1.28864 -0.19844,1.27715 -0.10914,-0.0115 -1.32953,-0.31958 -2.71198,-0.68466 z m 2.24896,-4.31757 c -0.29104,-0.12364 -3.92245,-1.31323 -8.06979,-2.64354 -4.14734,-1.33031 -8.19547,-2.64431 -8.99583,-2.92001 -0.80037,-0.27569 -4.13412,-1.35095 -7.40834,-2.38946 -3.27421,-1.0385 -6.60796,-2.10904 -7.40833,-2.37896 -0.80036,-0.26993 -4.13411,-1.34152 -7.40833,-2.38132 -3.27422,-1.0398 -8.21532,-2.66006 -10.98021,-3.60057 -2.7649,-0.94052 -5.6224,-1.91204 -6.35,-2.15892 l -1.32292,-0.44889 1.10615,-0.0805 c 0.77095,-0.0561 2.17401,0.27688 4.6302,1.09881 4.50922,1.50894 10.45767,3.42926 16.48865,5.32298 2.61938,0.82247 5.41735,1.71447 6.21771,1.9822 0.80037,0.26773 2.88396,0.92735 4.63021,1.46582 1.74625,0.53847 3.65125,1.14044 4.23333,1.33771 0.95087,0.32226 5.81187,1.87434 17.39636,5.55452 3.58835,1.13996 3.9026,1.29056 3.9026,1.87025 0,0.34676 -0.0298,0.62241 -0.0661,0.61256 -0.0364,-0.01 -0.30427,-0.11907 -0.59531,-0.24272 z m -0.79375,-2.66555 c -0.7276,-0.26717 -3.46604,-1.15198 -6.08541,-1.96624 -2.61938,-0.81427 -5.23875,-1.64205 -5.82084,-1.83953 -0.58208,-0.19748 -2.48708,-0.79979 -4.23333,-1.33848 -3.68053,-1.13537 -9.31578,-2.91672 -10.84792,-3.42913 -0.58208,-0.19467 -2.48708,-0.79225 -4.23333,-1.32796 -4.15336,-1.27416 -7.51635,-2.34449 -14.2875,-4.54725 -4.07132,-1.32446 -5.33506,-1.82904 -4.72862,-1.88803 0.74851,-0.0728 2.52608,0.40664 6.71299,1.81065 0.80037,0.26839 3.41974,1.09984 5.82084,1.84768 2.40109,0.74784 5.79437,1.80921 7.54062,2.35861 1.74625,0.5494 4.54422,1.42395 6.21771,1.94345 3.79455,1.17794 10.39005,3.24079 16.27188,5.08929 2.47385,0.77747 5.53971,1.7336 6.81302,2.12474 1.83849,0.56475 2.3151,0.81368 2.3151,1.20914 0,0.27389 -0.0298,0.48467 -0.0661,0.46841 -0.0364,-0.0163 -0.66145,-0.24818 -1.38906,-0.51535 z m 0,-1.95069 c -1.15255,-0.38517 -5.65104,-1.78011 -10.45104,-3.24077 -1.67349,-0.50925 -3.69755,-1.14486 -4.49792,-1.41248 -0.80036,-0.26762 -2.88395,-0.92107 -4.6302,-1.45211 -1.74625,-0.53103 -4.42516,-1.35607 -5.95313,-1.8334 -1.52797,-0.47734 -4.20687,-1.3087 -5.95312,-1.84748 -1.74625,-0.53877 -3.82985,-1.19719 -4.63021,-1.46315 -0.80037,-0.26596 -2.88396,-0.92301 -4.63021,-1.46011 -1.74625,-0.5371 -3.59172,-1.13954 -4.10104,-1.33875 l -0.92604,-0.3622 0.8346,-0.0136 c 0.45903,-0.007 2.48309,0.51002 4.49791,1.15003 2.01483,0.64002 5.09207,1.60935 6.83832,2.15408 5.38044,1.67839 8.5469,2.67022 13.36146,4.18519 2.54661,0.80133 8.46997,2.62478 13.16302,4.05211 5.31051,1.61513 8.53281,2.72099 8.53281,2.92839 0,0.40595 -0.11447,0.40235 -1.45521,-0.0457 z m -223.44062,-3.07235 v -3.20533 l 0.8317,0.18267 c 1.22519,0.2691 2.47207,0.83214 2.84924,1.2866 0.49613,0.5978 0.1185,1.41413 -1.39398,3.01335 -2.3,2.43192 -2.28696,2.4392 -2.28696,-1.27729 z m 205.44896,-4.22143 c -22.56066,-6.92621 -23.04281,-7.08285 -21.90996,-7.11785 0.46432,-0.0144 4.57198,1.11015 9.12813,2.49889 4.55615,1.38873 9.23641,2.81241 10.40058,3.16373 1.16416,0.35131 3.30729,0.99803 4.7625,1.43716 1.4552,0.43912 5.4438,1.63686 8.86354,2.66165 3.41974,1.02479 6.66419,1.99932 7.20989,2.16563 0.91132,0.27774 1.42781,1.04663 0.66146,0.98471 -0.1819,-0.0147 -8.78417,-2.62196 -19.11614,-5.79392 z m 12.83229,1.99336 c -3.41974,-1.05749 -6.69396,-2.06085 -7.27604,-2.22971 -0.58209,-0.16886 -1.83224,-0.54204 -2.77813,-0.8293 -0.94589,-0.28726 -3.92245,-1.18439 -6.61458,-1.99362 -2.69214,-0.80923 -5.60917,-1.69851 -6.48229,-1.97618 -0.87313,-0.27767 -2.65907,-0.83591 -3.96875,-1.24053 l -2.38125,-0.73567 1.22405,-0.0793 c 0.82982,-0.0538 2.27844,0.2342 4.49791,0.89413 3.88401,1.15485 5.08417,1.51213 7.37491,2.19549 0.94589,0.28217 2.19604,0.65217 2.77813,0.82223 0.58208,0.17006 3.02286,0.90196 5.42395,1.62645 2.4011,0.72448 5.13953,1.54376 6.08542,1.82062 7.66978,2.24491 8.59837,2.58098 8.68351,3.14272 0.0465,0.30683 -0.0131,0.54606 -0.1323,0.53161 -0.11926,-0.0144 -3.0148,-0.89146 -6.43454,-1.94894 z m 4.49791,-2.25943 c -0.80036,-0.26878 -3.06255,-0.98178 -5.02708,-1.58444 -1.96453,-0.60267 -3.86953,-1.19873 -4.23333,-1.32459 -0.36381,-0.12587 -2.26881,-0.73024 -4.23334,-1.34307 -1.96453,-0.61282 -4.5839,-1.44524 -5.82083,-1.84983 l -2.24896,-0.7356 1.5875,-0.0201 c 1.60988,-0.0204 3.02634,0.21257 8.73125,1.4361 1.74625,0.37452 3.78456,0.7866 4.52958,0.91575 0.74502,0.12914 1.81659,0.34747 2.38125,0.48517 0.56467,0.1377 2.24706,0.47088 3.73865,0.7404 l 2.71198,0.49004 v 1.66033 c 0,1.8768 0.0415,1.85463 -2.11667,1.12987 z m -222.77916,-6.49095 c 0,-0.32713 0.76665,-0.38093 4.96094,-0.34813 l 4.96093,0.0388 -3.30729,0.20185 c -1.81901,0.11102 -4.05143,0.26768 -4.96093,0.34813 -1.3413,0.11865 -1.65365,0.0732 -1.65365,-0.24064 z"
       id="path826"
       inkscape:connector-curvature="0" />
  </g>
</svg>
